<?xml version="1.0" encoding="UTF-8" standalone="no"?>
<svg
   sodipodi:docname="CFor2N2ForC-White.svg"
   inkscape:version="1.3.2 (091e20e, 2023-11-25)"
   id="svg8"
   version="1.1"
   viewBox="0 0 50.799999 128.5"
   height="128.5mm"
   width="50.799999mm"
   xml:space="preserve"
   xmlns:inkscape="http://www.inkscape.org/namespaces/inkscape"
   xmlns:sodipodi="http://sodipodi.sourceforge.net/DTD/sodipodi-0.dtd"
   xmlns="http://www.w3.org/2000/svg"
   xmlns:svg="http://www.w3.org/2000/svg"
   xmlns:rdf="http://www.w3.org/1999/02/22-rdf-syntax-ns#"
   xmlns:cc="http://creativecommons.org/ns#"
   xmlns:dc="http://purl.org/dc/elements/1.1/"><defs
     id="defs2" /><sodipodi:namedview
     inkscape:window-maximized="0"
     inkscape:window-y="23"
     inkscape:window-x="0"
     inkscape:window-height="769"
     inkscape:window-width="1252"
     showgrid="false"
     inkscape:document-rotation="0"
     inkscape:current-layer="layer1"
     inkscape:document-units="mm"
     inkscape:cy="319.70718"
     inkscape:cx="73.874086"
     inkscape:zoom="3.2216981"
     inkscape:pageshadow="2"
     inkscape:pageopacity="0.0"
     borderopacity="1.0"
     bordercolor="#666666"
     pagecolor="#ffffff"
     id="base"
     inkscape:showpageshadow="2"
     inkscape:pagecheckerboard="0"
     inkscape:deskcolor="#d1d1d1"
     showguides="false"><sodipodi:guide
       position="8.3548829,69.396942"
       orientation="1,0"
       id="guide5"
       inkscape:locked="false" /><sodipodi:guide
       position="42.379223,141.53977"
       orientation="1,0"
       id="guide7"
       inkscape:locked="false" /></sodipodi:namedview><metadata
     id="metadata5"><rdf:RDF><cc:Work
         rdf:about=""><dc:format>image/svg+xml</dc:format><dc:type
           rdf:resource="http://purl.org/dc/dcmitype/StillImage" /></cc:Work></rdf:RDF></metadata><g
     id="layer1"
     inkscape:groupmode="layer"
     inkscape:label="Layer 1"><rect
       style="fill:#ececec;fill-opacity:1;stroke:none;stroke-width:0.499994;stroke-linecap:round;stroke-miterlimit:4;stroke-dasharray:none;stop-color:#000000"
       id="rect1015"
       width="50.799999"
       height="128.5"
       x="0"
       y="-3.541667e-07" /><g
       id="g1"
       transform="translate(0.1305275)"><rect
         style="fill:#ff6600;stroke:none;stroke-width:0.999998;stroke-linejoin:round;stroke-dasharray:none"
         id="rect7-6-8-0-4"
         width="14.757376"
         height="33.351044"
         x="3.3477993"
         y="9.7405796"
         ry="2.009835" /><rect
         style="fill:#ececec;stroke-width:0.999999;stroke-linejoin:round"
         id="rect1-0-8-2-2"
         width="12.606627"
         height="28.500525"
         x="4.4231739"
         y="13.538416"
         ry="1.3440303" /></g><g
       id="g2"
       transform="translate(0.13053131,69.760407)"><rect
         style="fill:#ff6600;stroke:none;stroke-width:0.999998;stroke-linejoin:round;stroke-dasharray:none"
         id="rect7-6-8-0-4-9"
         width="14.757376"
         height="33.351044"
         x="3.3477993"
         y="9.7405796"
         ry="2.009835" /><rect
         style="fill:#ececec;stroke-width:0.999999;stroke-linejoin:round"
         id="rect1-0-8-2-2-9"
         width="12.606627"
         height="28.500525"
         x="4.4231739"
         y="13.538416"
         ry="1.3440303" /></g><path
       id="rect37-1-5-3-9-6-3-1"
       style="fill:#f9f9f9;stroke:#333333;stroke-width:0.2;stroke-linecap:round;stroke-dasharray:none"
       d="m 22.726262,40.417559 v 11.58896 h 1.188041 1.188041 20.261296 v -7.38405 H 25.102344 v -4.20491 z" /><path
       id="rect37-1-5-3-9-6-3-1-5"
       style="fill:#f9f9f9;stroke:#333333;stroke-width:0.2;stroke-linecap:round;stroke-dasharray:none"
       d="m 22.726262,64.904037 v -11.58896 h 1.188041 1.188041 20.261296 v 7.38405 H 25.102344 v 4.20491 z" /><path
       id="rect37-1-5-3-9-6-3-1-5-1"
       style="fill:#f9f9f9;stroke:#333333;stroke-width:0.2;stroke-linecap:round;stroke-dasharray:none"
       d="M 22.726262,21.32954 V 9.7405796 h 1.188041 1.188041 20.261296 V 17.12463 H 25.102344 v 4.20491 z" /><path
       d="m 19.300676,127.14313 v -0.22003 h -0.0085 q -0.08463,0.11848 -0.173481,0.18195 -0.08462,0.0635 -0.241181,0.0635 -0.07616,0 -0.156555,-0.0254 -0.07616,-0.0212 -0.148094,-0.0846 -0.07193,-0.0592 -0.118475,-0.16925 -0.04231,-0.11424 -0.04231,-0.29195 0,-0.18195 0.02962,-0.31735 0.02962,-0.13963 0.110012,-0.23271 0.07616,-0.0889 0.207331,-0.13117 0.131168,-0.0466 0.334268,-0.0466 0.02116,0 0.04654,0 0.02539,0 0.04654,0.004 0.02116,0.004 0.05077,0.004 0.02962,0 0.06347,0.004 v -0.22426 q 0,-0.11001 -0.04654,-0.18194 -0.04654,-0.0719 -0.16925,-0.0719 -0.08463,0 -0.156556,0.055 -0.0677,0.055 -0.08886,0.16079 h -0.418893 q 0.01693,-0.28772 0.194638,-0.46544 0.08462,-0.0846 0.203099,-0.13116 0.118475,-0.0508 0.266568,-0.0508 0.1354,0 0.253875,0.0423 0.118474,0.0423 0.20733,0.12694 0.08462,0.0846 0.1354,0.21156 0.05078,0.12694 0.05078,0.29619 v 1.49363 z m 0,-0.92241 q -0.07193,-0.0127 -0.118474,-0.0127 -0.139631,0 -0.241181,0.0677 -0.09732,0.0635 -0.09732,0.23695 0,0.12271 0.05924,0.19887 0.05924,0.0762 0.165018,0.0762 0.110012,0 0.16925,-0.0719 0.06347,-0.0719 0.06347,-0.2031 z m 1.205907,0.30465 q 0,0.10155 0.05501,0.15655 0.05924,0.055 0.156556,0.055 0.122706,0 0.160787,-0.0719 0.04231,-0.0719 0.05078,-0.14386 h 0.431587 q 0,0.28349 -0.173481,0.45697 -0.08462,0.0889 -0.2031,0.13963 -0.118474,0.0508 -0.266568,0.0508 -0.203099,0 -0.346961,-0.0846 -0.139631,-0.0846 -0.215794,-0.22426 -0.04654,-0.0846 -0.06347,-0.19463 -0.01693,-0.11001 -0.01693,-0.24118 v -0.70662 q 0,-0.13117 0.01693,-0.24118 0.01693,-0.11001 0.06347,-0.19464 0.07616,-0.13963 0.215794,-0.22425 0.143862,-0.0846 0.346961,-0.0846 0.148094,0 0.266568,0.0508 0.122706,0.0508 0.207331,0.13963 0.16925,0.1904 0.16925,0.49505 h -0.431596 q 0,-0.13117 -0.05924,-0.1904 -0.05501,-0.0635 -0.152325,-0.0635 -0.09732,0 -0.156556,0.0635 -0.05501,0.0592 -0.05501,0.18194 z m 1.133976,0.61776 v -3.01265 h 0.414662 l 0.554292,1.59518 h 0.0085 l 0.550062,-1.59518 h 0.418892 v 3.01265 H 23.155343 V 125.311 h -0.0085 l -0.427355,1.29476 H 22.503732 L 22.080608,125.311 h -0.0085 v 1.83213 z m 2.2891,-1.42593 q 0,-0.13117 0.01693,-0.24118 0.01692,-0.11001 0.06347,-0.19464 0.07616,-0.13963 0.215793,-0.22425 0.143862,-0.0846 0.346961,-0.0846 0.2031,0 0.342731,0.0846 0.143862,0.0846 0.220024,0.22425 0.04654,0.0846 0.06347,0.19464 0.01693,0.11001 0.01693,0.24118 v 0.70662 q 0,0.13117 -0.01693,0.24118 -0.01692,0.11001 -0.06347,0.19463 -0.07616,0.13964 -0.220024,0.22426 -0.139631,0.0846 -0.342731,0.0846 -0.203099,0 -0.346961,-0.0846 -0.139631,-0.0846 -0.215793,-0.22426 -0.04654,-0.0846 -0.06347,-0.19463 -0.01693,-0.11001 -0.01693,-0.24118 z m 0.431587,0.77432 q 0,0.1227 0.05501,0.18617 0.05924,0.0592 0.156555,0.0592 0.09732,0 0.152325,-0.0592 0.05924,-0.0635 0.05924,-0.18617 v -0.84202 q 0,-0.12271 -0.05924,-0.18194 -0.05501,-0.0635 -0.152325,-0.0635 -0.09732,0 -0.156555,0.0635 -0.05501,0.0592 -0.05501,0.18194 z m 1.603643,-0.0465 q 0,0.13117 0.05078,0.21156 0.05077,0.0804 0.160787,0.0804 0.09732,0 0.156556,-0.0719 0.05924,-0.0762 0.05924,-0.19464 v -0.83355 q 0,-0.10155 -0.06347,-0.16502 -0.05924,-0.0677 -0.152325,-0.0677 -0.122706,0 -0.16925,0.0762 -0.04231,0.0762 -0.04231,0.17771 z m 0.427355,0.69816 v -0.19464 q -0.04231,0.0465 -0.08039,0.0889 -0.03808,0.0381 -0.08463,0.0677 -0.04654,0.0296 -0.105781,0.0465 -0.05924,0.0169 -0.139631,0.0169 -0.270799,0 -0.37658,-0.20309 -0.03808,-0.0719 -0.05501,-0.17772 -0.01693,-0.10578 -0.01693,-0.28349 v -0.81663 q 0,-0.23272 0.01269,-0.34273 0.02539,-0.21156 0.198868,-0.31734 0.08039,-0.055 0.241181,-0.055 0.126937,0 0.224256,0.0592 0.10155,0.055 0.173481,0.16079 h 0.0085 v -1.06205 h 0.431587 v 3.01265 z m 2.077539,-2.14524 v 2.14524 h -0.431587 v -0.20733 h -0.0085 q -0.0677,0.10155 -0.165018,0.16925 -0.09309,0.0635 -0.241181,0.0635 -0.08039,0 -0.160787,-0.0254 -0.08039,-0.0296 -0.143862,-0.0931 -0.06347,-0.0635 -0.10155,-0.16079 -0.03808,-0.10155 -0.03808,-0.24541 v -1.64595 h 0.431586 v 1.48516 q 0,0.11848 0.05501,0.18618 0.05501,0.0677 0.156556,0.0677 0.122706,0 0.16925,-0.0762 0.04654,-0.0762 0.04654,-0.22003 v -1.44285 z m 0.330036,-0.86741 h 0.431586 v 2.40758 q 0,0.12271 0.04231,0.16925 0.04654,0.0423 0.16925,0.055 v 0.40619 q -0.148093,0 -0.266568,-0.0254 -0.118475,-0.0212 -0.2031,-0.0889 -0.08462,-0.0635 -0.131168,-0.17771 -0.04231,-0.11848 -0.04231,-0.30888 z m 2.060617,2.10293 h -0.854711 v 0.29196 q 0,0.10155 0.05501,0.15655 0.05924,0.055 0.156556,0.055 0.122706,0 0.160787,-0.0719 0.04231,-0.0719 0.05078,-0.14386 h 0.431587 q 0,0.28349 -0.173481,0.45697 -0.08463,0.0889 -0.2031,0.13963 -0.118474,0.0508 -0.266568,0.0508 -0.203099,0 -0.346961,-0.0846 -0.139631,-0.0846 -0.215794,-0.22426 -0.04654,-0.0846 -0.06347,-0.19463 -0.01693,-0.11001 -0.01693,-0.24118 v -0.70662 q 0,-0.13117 0.01693,-0.24118 0.01693,-0.11001 0.06347,-0.19464 0.07616,-0.13963 0.215794,-0.22425 0.143862,-0.0846 0.346961,-0.0846 0.148094,0 0.266568,0.0508 0.122706,0.0508 0.207331,0.13963 0.16925,0.1904 0.16925,0.47813 z m -0.854711,-0.3385 h 0.423124 v -0.24541 q 0,-0.12271 -0.05924,-0.18194 -0.05501,-0.0635 -0.152325,-0.0635 -0.09732,0 -0.156556,0.0635 -0.05501,0.0592 -0.05501,0.18194 z m 1.954837,-0.29619 q -0.0042,-0.11001 -0.07193,-0.16501 -0.06347,-0.055 -0.148093,-0.055 -0.10155,0 -0.156556,0.0677 -0.05501,0.0635 -0.05501,0.14809 0,0.0592 0.02962,0.11848 0.02962,0.055 0.152324,0.10155 l 0.253875,0.10155 q 0.24118,0.0931 0.330037,0.25387 0.09309,0.16079 0.09309,0.3512 0,0.13539 -0.05078,0.25387 -0.04654,0.11424 -0.131169,0.2031 -0.08462,0.0889 -0.203099,0.13963 -0.118475,0.0508 -0.258106,0.0508 -0.262337,0 -0.440049,-0.16501 -0.08886,-0.0804 -0.143862,-0.19887 -0.05501,-0.12271 -0.05924,-0.28349 h 0.406199 q 0.01269,0.0888 0.05924,0.16501 0.05077,0.0762 0.173481,0.0762 0.09309,0 0.165018,-0.0592 0.07616,-0.0635 0.07616,-0.17348 0,-0.0889 -0.04654,-0.15233 -0.04654,-0.0635 -0.169249,-0.11001 l -0.207331,-0.0762 q -0.2031,-0.0762 -0.321574,-0.22426 -0.114244,-0.15232 -0.114244,-0.36812 0,-0.13539 0.05078,-0.24964 0.05078,-0.11847 0.139631,-0.2031 0.08462,-0.0846 0.198868,-0.12693 0.114244,-0.0465 0.245412,-0.0465 0.131168,0 0.241181,0.0465 0.114243,0.0465 0.194637,0.13116 0.08039,0.0846 0.126937,0.2031 0.04654,0.11425 0.04654,0.24541 z"
       id="text1"
       style="font-size:4.23124px;line-height:1.25;font-family:'DIN Condensed';-inkscape-font-specification:'DIN Condensed, ';text-align:center;text-anchor:middle;fill:#333333;stroke-width:0.264583"
       aria-label="acModules" /><g
       id="g36"><path
         style="font-size:5.02093px;line-height:1.25;font-family:'Square Sans Serif 7';-inkscape-font-specification:'Square Sans Serif 7, ';text-align:center;text-anchor:middle;stroke-width:0.264584;fill:#333333"
         d="M 9.0929295,120.47722 H 6.4123126 v 1.6928 h 2.6806169 v 0.56426 H 5.965543 v -2.82133 h 3.1273865 z m 3.5741535,1.12854 H 9.9864651 v 1.12852 H 9.5396955 v -2.82133 h 3.1273875 v 0.56427 H 9.9864651 v 0.56426 h 2.6806179 z m 0.446766,-1.69281 h 3.127387 v 2.82133 h -3.127387 z m 0.446769,2.25707 h 2.233848 v -1.6928 h -2.233848 z m 3.574153,0.56426 h -0.446769 v -2.82133 h 3.127387 v 1.69281 h -0.44677 l 0.44677,1.12852 h -0.500382 l -0.44677,-1.12852 h -1.733466 z m 0,-1.6928 h 2.233848 v -0.56426 h -2.233848 z"
         id="path32" /><path
         style="font-size:5.02093px;line-height:1.25;font-family:'Square Sans Serif 7';-inkscape-font-specification:'Square Sans Serif 7, ';text-align:center;text-anchor:middle;fill:#ff6600;stroke-width:0.264584"
         d="m 20.708924,122.17002 h 2.680618 v 0.56426 h -3.127387 v -1.6928 h 2.680617 v -0.56426 h -2.680617 v -0.56427 h 3.127387 v 1.69281 h -2.680618 z"
         id="path33" /><path
         style="font-size:5.02093px;line-height:1.25;font-family:'Square Sans Serif 7';-inkscape-font-specification:'Square Sans Serif 7, ';text-align:center;text-anchor:middle;stroke-width:0.264584;fill:#333333"
         d="m 23.836307,119.91295 h 0.446769 l 2.233848,2.11601 v -2.11601 h 0.44677 v 2.82133 h -0.44677 l -2.233848,-2.116 v 2.116 h -0.446769 z"
         id="path34" /><path
         style="font-size:5.02093px;line-height:1.25;font-family:'Square Sans Serif 7';-inkscape-font-specification:'Square Sans Serif 7, ';text-align:center;text-anchor:middle;fill:#ff6600;stroke-width:0.264584"
         d="m 27.85723,122.17002 h 2.680618 v 0.56426 h -3.127387 v -1.6928 h 2.680617 v -0.56426 h -2.680617 v -0.56427 h 3.127387 v 1.69281 H 27.85723 Z"
         id="path35" /><path
         style="font-size:5.02093px;line-height:1.25;font-family:'Square Sans Serif 7';-inkscape-font-specification:'Square Sans Serif 7, ';text-align:center;text-anchor:middle;stroke-width:0.264584;fill:#333333"
         d="m 34.112001,121.60576 h -2.680618 v 1.12852 h -0.446769 v -2.82133 h 3.127387 v 0.56427 h -2.680618 v 0.56426 h 2.680618 z m 0.446765,-1.69281 h 3.127387 v 2.82133 h -3.127387 z m 0.446769,2.25707 h 2.233848 v -1.6928 h -2.233848 z m 3.574152,0.56426 h -0.446769 v -2.82133 h 3.127387 v 1.69281 h -0.44677 l 0.44677,1.12852 h -0.500382 l -0.44677,-1.12852 h -1.733466 z m 0,-1.6928 h 2.233848 v -0.56426 h -2.233848 z m 6.25477,-0.56426 H 42.15384 v 1.6928 h 2.680617 v 0.56426 H 41.70707 v -2.82133 h 3.127387 z"
         id="path36" /></g><rect
       style="fill:#666666;stroke:none;stroke-width:3.49998;stroke-linecap:round"
       id="rect37-3"
       width="18.775488"
       height="7.3837676"
       x="26.588137"
       y="18.54615" /><rect
       style="fill:#666666;stroke:none;stroke-width:3.49998;stroke-linecap:round"
       id="rect37-3-9"
       width="18.775488"
       height="7.3837676"
       x="26.588137"
       y="35.93055" /><rect
       style="fill:#666666;stroke:none;stroke-width:3.49998;stroke-linecap:round"
       id="rect37-3-9-0"
       width="18.775488"
       height="7.3837676"
       x="26.588137"
       y="62.007153" /><rect
       style="fill:#666666;stroke:none;stroke-width:3.49998;stroke-linecap:round"
       id="rect37-3-9-0-3"
       width="18.775488"
       height="7.3837676"
       x="26.588137"
       y="79.391556" /><rect
       style="fill:#666666;stroke:none;stroke-width:3.49998;stroke-linecap:round"
       id="rect37-3-9-0-3-1"
       width="18.775488"
       height="7.3837676"
       x="26.588137"
       y="96.775955" /><path
       id="rect37-1-5-3-9-6"
       style="fill:#f9f9f9;stroke:#333333;stroke-width:0.2;stroke-linecap:round;stroke-dasharray:none"
       d="m 22.726262,83.878601 v 11.588957 4.205428 h 2.376082 V 95.467558 H 45.36364 V 88.083512 H 25.102344 v -4.204911 z" /><path
       id="rect37-1-5-3-9-6-9"
       style="fill:#f9f9f9;stroke:#333333;stroke-width:0.2;stroke-linecap:round;stroke-dasharray:none"
       d="M 22.726262,66.494043 V 78.083 82.288428 h 2.376082 V 78.083 H 45.36364 V 70.698954 H 25.102344 v -4.204911 z" /><path
       id="rect37-1-5-3-9-6-9-2"
       style="fill:#f9f9f9;stroke:#333333;stroke-width:0.2;stroke-linecap:round;stroke-dasharray:none"
       d="m 22.726262,23.033041 v 11.588957 4.205428 h 2.376082 V 34.621998 H 45.36364 V 27.237952 H 25.102344 v -4.204911 z" /><path
       id="rect37-1-5-3-9-6-3"
       style="fill:#f9f9f9;stroke:#333333;stroke-width:0.2;stroke-linecap:round;stroke-dasharray:none"
       d="m 22.726262,101.26307 v 11.58896 h 1.188041 1.188041 20.261296 v -7.38405 H 25.102344 v -4.20491 z" /><circle
       style="fill:#1a1a1a;stroke-width:3.49999;stroke-linecap:round"
       id="path1-7"
       cx="45.385475"
       cy="13.413305"
       r="1.9724801" /><circle
       style="fill:#1a1a1a;stroke-width:3.49999;stroke-linecap:round"
       id="path1-7-1"
       cx="45.385475"
       cy="22.105507"
       r="1.9724801" /><circle
       style="fill:#1a1a1a;stroke-width:3.49999;stroke-linecap:round"
       id="path1-7-1-6"
       cx="45.385475"
       cy="30.797707"
       r="1.9724801" /><circle
       style="fill:#1a1a1a;stroke-width:3.49999;stroke-linecap:round"
       id="path1-7-1-6-4"
       cx="45.385475"
       cy="39.489906"
       r="1.9724801" /><path
       style="font-size:4.23333px;line-height:2.053;font-family:'DIN Condensed';-inkscape-font-specification:'DIN Condensed, ';text-align:start;text-anchor:start;fill:#333333;stroke-width:0.264583"
       d="m 29.497802,14.212691 v 0.186267 q 0,0.1397 -0.05503,0.2667 -0.0508,0.122766 -0.143934,0.220133 -0.09313,0.09737 -0.220133,0.156633 -0.122766,0.05503 -0.266699,0.05503 -0.122767,0 -0.249767,-0.03387 -0.127,-0.03387 -0.2286,-0.118534 -0.1016,-0.08467 -0.169333,-0.215899 -0.0635,-0.135467 -0.0635,-0.3429 v -1.659465 q 0,-0.148167 0.0508,-0.275167 0.0508,-0.127 0.143933,-0.220133 0.09313,-0.09313 0.220133,-0.143933 0.131231,-0.05503 0.287864,-0.05503 0.3048,0 0.495299,0.198966 0.09313,0.09737 0.143934,0.232833 0.05503,0.131233 0.05503,0.287867 v 0.169333 h -0.4318 v -0.143933 q 0,-0.127 -0.07197,-0.220134 -0.07197,-0.09313 -0.194733,-0.09313 -0.160867,0 -0.2159,0.1016 -0.0508,0.09737 -0.0508,0.249767 v 1.540932 q 0,0.131233 0.05503,0.220133 0.05927,0.0889 0.207433,0.0889 0.04233,0 0.0889,-0.0127 0.0508,-0.01693 0.09313,-0.0508 0.0381,-0.03387 0.0635,-0.09313 0.0254,-0.05927 0.0254,-0.148167 v -0.148167 z"
       id="path19" /><path
       style="font-size:4.23333px;line-height:2.053;font-family:'DIN Condensed';-inkscape-font-specification:'DIN Condensed, ';text-align:start;text-anchor:start;fill:#ececec;stroke-width:0.264583"
       d="m 29.497802,22.903717 v 0.186267 q 0,0.1397 -0.05503,0.2667 -0.0508,0.122766 -0.143934,0.220133 -0.09313,0.09737 -0.220133,0.156633 -0.122766,0.05503 -0.266699,0.05503 -0.122767,0 -0.249767,-0.03387 -0.127,-0.03387 -0.2286,-0.118534 -0.1016,-0.08467 -0.169333,-0.215899 -0.0635,-0.135467 -0.0635,-0.3429 v -1.659465 q 0,-0.148167 0.0508,-0.275167 0.0508,-0.127 0.143933,-0.220133 0.09313,-0.09313 0.220133,-0.143933 0.131234,-0.05503 0.287867,-0.05503 0.3048,0 0.495299,0.198966 0.09313,0.09737 0.143934,0.232833 0.05503,0.131233 0.05503,0.287867 v 0.169333 h -0.4318 v -0.143933 q 0,-0.127 -0.07197,-0.220134 -0.07197,-0.09313 -0.194733,-0.09313 -0.160867,0 -0.2159,0.1016 -0.0508,0.09737 -0.0508,0.249767 v 1.540932 q 0,0.131233 0.05503,0.220133 0.05927,0.0889 0.207433,0.0889 0.04233,0 0.0889,-0.0127 0.0508,-0.01693 0.09313,-0.0508 0.0381,-0.03387 0.0635,-0.09313 0.0254,-0.05927 0.0254,-0.148166 v -0.14817 z m 0.910164,0.859366 0.122767,-0.910166 h -0.3556 l -0.122767,0.910166 H 29.7645 l 0.122767,-0.910166 h -0.2159 v -0.253999 h 0.249766 l 0.09313,-0.6858 h -0.211666 v -0.254 h 0.245533 l 0.122767,-0.910166 h 0.287866 l -0.122767,0.910166 h 0.3556 l 0.122767,-0.910166 h 0.287866 l -0.122766,0.910166 h 0.215899 v 0.254 h -0.249766 l -0.09313,0.6858 h 0.211666 v 0.253999 h -0.245533 l -0.122767,0.910166 z m 0.156633,-1.164165 0.09313,-0.6858 h -0.3556 l -0.09313,0.6858 z"
       id="path20" /><path
       style="font-size:4.23333px;line-height:2.053;font-family:'DIN Condensed';-inkscape-font-specification:'DIN Condensed, ';text-align:start;text-anchor:start;fill:#333333;stroke-width:0.264583"
       d="m 28.126203,32.454109 v -3.014131 h 0.639233 q 0.372533,0 0.563033,0.2032 0.194733,0.2032 0.194733,0.575733 v 1.409699 q 0,0.423333 -0.207433,0.626533 -0.2032,0.198966 -0.588433,0.198966 z m 0.4318,-2.607731 v 2.201332 h 0.198966 q 0.182033,0 0.258233,-0.0889 0.0762,-0.09313 0.0762,-0.287867 v -1.452032 q 0,-0.1778 -0.07197,-0.275166 -0.07197,-0.09737 -0.262467,-0.09737 z"
       id="path21" /><path
       style="font-size:4.23333px;line-height:2.053;font-family:'DIN Condensed';-inkscape-font-specification:'DIN Condensed, ';text-align:start;text-anchor:start;fill:#ececec;stroke-width:0.264583"
       d="m 28.126203,41.145135 v -3.014131 h 0.639233 q 0.372533,0 0.563033,0.2032 0.194733,0.2032 0.194733,0.575733 v 1.409699 q 0,0.423333 -0.207433,0.626533 -0.2032,0.198966 -0.588433,0.198966 z m 0.4318,-2.607731 v 2.201331 h 0.198966 q 0.182033,0 0.258233,-0.0889 0.0762,-0.09313 0.0762,-0.287867 v -1.452031 q 0,-0.1778 -0.07197,-0.275166 -0.07197,-0.09737 -0.262467,-0.09737 z m 1.930401,2.607731 0.122766,-0.910166 h -0.3556 l -0.122766,0.910166 h -0.287867 l 0.122767,-0.910166 h -0.2159 v -0.254 h 0.249767 l 0.09313,-0.685799 h -0.211667 v -0.254 h 0.245534 l 0.122766,-0.910166 h 0.287867 l -0.122767,0.910166 h 0.3556 L 30.8948,38.131004 h 0.287867 L 31.0599,39.04117 h 0.2159 v 0.254 h -0.249767 l -0.09313,0.685799 h 0.211667 v 0.254 h -0.245533 l -0.122767,0.910166 z m 0.156633,-1.164166 0.09313,-0.685799 h -0.3556 l -0.09313,0.685799 z"
       id="path22" /><path
       style="font-size:4.23333px;line-height:2.053;font-family:'DIN Condensed';-inkscape-font-specification:'DIN Condensed, ';text-align:start;text-anchor:start;fill:#333333;stroke-width:0.264583"
       d="M 28.126203,49.836161 V 46.82203 h 1.286932 v 0.4064 h -0.855132 v 0.884766 h 0.745066 v 0.406399 h -0.745066 v 0.884766 h 0.855132 v 0.4318 z"
       id="path23" /><path
       style="font-size:4.23333px;line-height:2.053;font-family:'DIN Condensed';-inkscape-font-specification:'DIN Condensed, ';text-align:start;text-anchor:start;fill:#333333;stroke-width:0.264583"
       d="m 28.126203,58.527187 v -3.014131 h 1.286932 v 0.4064 h -0.855132 v 0.914399 h 0.745066 v 0.4064 h -0.745066 v 1.286932 z"
       id="path24" /><path
       style="font-size:4.23333px;line-height:2.053;font-family:'DIN Condensed';-inkscape-font-specification:'DIN Condensed, ';text-align:start;text-anchor:start;fill:#ececec;stroke-width:0.264583"
       d="m 28.126203,67.218213 v -3.014131 h 1.286932 v 0.4064 h -0.855132 v 0.914399 h 0.745066 v 0.4064 h -0.745066 v 1.286932 z m 2.125135,0 0.122767,-0.910166 h -0.3556 l -0.122767,0.910166 h -0.287866 l 0.122767,-0.910166 h -0.2159 v -0.254 h 0.249766 l 0.09313,-0.685799 h -0.211667 v -0.254 h 0.245533 l 0.122767,-0.910166 h 0.287866 l -0.122766,0.910166 h 0.355599 l 0.122767,-0.910166 H 30.9456 l -0.122766,0.910166 h 0.2159 v 0.254 h -0.249763 l -0.09313,0.685799 h 0.211666 v 0.254 h -0.245536 l -0.122766,0.910166 z m 0.156633,-1.164166 0.09313,-0.685799 h -0.3556 l -0.09313,0.685799 z"
       id="path25" /><path
       style="font-size:4.23333px;line-height:2.053;font-family:'DIN Condensed';-inkscape-font-specification:'DIN Condensed, ';text-align:start;text-anchor:start;fill:#333333;stroke-width:0.264583"
       d="m 28.100803,73.606307 q 0,-0.182033 0.0635,-0.321733 0.0635,-0.1397 0.169333,-0.232833 0.1016,-0.0889 0.2286,-0.135466 0.131233,-0.04657 0.262466,-0.04657 0.131234,0 0.258234,0.04657 0.131233,0.04657 0.237066,0.135466 0.1016,0.09313 0.1651,0.232833 0.0635,0.1397 0.0635,0.321733 v 0.1524 h -0.4318 v -0.1524 q 0,-0.156633 -0.0889,-0.228599 -0.08467,-0.0762 -0.2032,-0.0762 -0.118533,0 -0.207433,0.0762 -0.08467,0.07197 -0.08467,0.228599 v 1.591732 q 0,0.156634 0.08467,0.232833 0.0889,0.07197 0.207433,0.07197 0.118534,0 0.2032,-0.07197 0.0889,-0.0762 0.0889,-0.232833 v -0.567266 h -0.342899 v -0.381 h 0.774699 v 0.948266 q 0,0.1905 -0.0635,0.325967 -0.0635,0.135466 -0.1651,0.224366 -0.105833,0.09313 -0.237066,0.1397 -0.127,0.04657 -0.258234,0.04657 -0.131233,0 -0.262466,-0.04657 -0.127,-0.04657 -0.2286,-0.1397 -0.105833,-0.0889 -0.169333,-0.224366 -0.0635,-0.135467 -0.0635,-0.325967 z"
       id="path26" /><path
       style="font-size:4.23333px;line-height:2.053;font-family:'DIN Condensed';-inkscape-font-specification:'DIN Condensed, ';text-align:start;text-anchor:start;fill:#ececec;stroke-width:0.264583"
       d="m 28.100803,82.297333 q 0,-0.182033 0.0635,-0.321733 0.0635,-0.1397 0.169333,-0.232833 0.1016,-0.0889 0.2286,-0.135466 0.131233,-0.04657 0.262466,-0.04657 0.131234,0 0.258234,0.04657 0.131233,0.04657 0.237066,0.135466 0.1016,0.09313 0.1651,0.232833 0.0635,0.1397 0.0635,0.321733 v 0.1524 h -0.4318 v -0.1524 q 0,-0.156633 -0.0889,-0.2286 -0.08467,-0.0762 -0.2032,-0.0762 -0.118533,0 -0.207433,0.0762 -0.08467,0.07197 -0.08467,0.2286 v 1.591732 q 0,0.156633 0.08467,0.232833 0.0889,0.07197 0.207433,0.07197 0.118534,0 0.2032,-0.07197 0.0889,-0.0762 0.0889,-0.232833 v -0.567266 h -0.342899 v -0.381 h 0.774699 v 0.948266 q 0,0.1905 -0.0635,0.325967 -0.0635,0.135466 -0.1651,0.224366 -0.105833,0.09313 -0.237066,0.1397 -0.127,0.04657 -0.258234,0.04657 -0.131233,0 -0.262466,-0.04657 -0.127,-0.04657 -0.2286,-0.1397 -0.105833,-0.0889 -0.169333,-0.224366 -0.0635,-0.135467 -0.0635,-0.325967 z m 2.387601,2.302932 0.122766,-0.910166 h -0.3556 l -0.122766,0.910166 h -0.287867 l 0.122767,-0.910166 h -0.2159 v -0.254 h 0.249767 l 0.09313,-0.685799 h -0.211667 v -0.254 h 0.245534 l 0.122766,-0.910166 h 0.287867 L 30.416434,82.4963 h 0.3556 L 30.8948,81.586134 h 0.287867 L 31.0599,82.4963 h 0.2159 v 0.254 h -0.249767 l -0.09313,0.685799 h 0.211667 v 0.254 h -0.245533 l -0.122767,0.910166 z m 0.156633,-1.164166 0.09313,-0.685799 h -0.3556 l -0.09313,0.685799 z"
       id="path27" /><path
       style="font-size:4.23333px;line-height:2.053;font-family:'DIN Condensed';-inkscape-font-specification:'DIN Condensed, ';text-align:start;text-anchor:start;fill:#333333;stroke-width:0.264583"
       d="m 28.998269,92.237191 -0.211666,-1.092199 h -0.0085 l -0.211667,1.092199 z m -1.066799,1.0541 0.673099,-3.014131 h 0.359833 l 0.6731,3.014131 h -0.4318 l -0.127,-0.6477 h -0.588433 l -0.126999,0.6477 z"
       id="path28" /><path
       style="font-size:4.23333px;line-height:2.053;font-family:'DIN Condensed';-inkscape-font-specification:'DIN Condensed, ';text-align:start;text-anchor:start;fill:#ececec;stroke-width:0.264583"
       d="m 28.998269,100.92822 -0.211666,-1.092202 h -0.0085 l -0.211667,1.092202 z m -1.066799,1.0541 0.673099,-3.014134 h 0.359833 l 0.6731,3.014134 h -0.4318 l -0.127,-0.6477 h -0.588433 l -0.126999,0.6477 z m 2.476496,0 0.122767,-0.91017 h -0.3556 l -0.122767,0.91017 H 29.7645 l 0.122767,-0.91017 h -0.2159 v -0.254 h 0.249766 l 0.09313,-0.6858 h -0.211666 v -0.253998 h 0.245533 l 0.122767,-0.910166 h 0.287866 l -0.122767,0.910166 h 0.3556 l 0.122767,-0.910166 h 0.287866 l -0.122766,0.910166 h 0.215899 v 0.253998 h -0.249766 l -0.09313,0.6858 h 0.211666 v 0.254 h -0.245533 l -0.122767,0.91017 z m 0.156633,-1.16417 0.09313,-0.6858 h -0.3556 l -0.09313,0.6858 z"
       id="path29" /><path
       style="font-size:4.23333px;line-height:2.053;font-family:'DIN Condensed';-inkscape-font-specification:'DIN Condensed, ';text-align:start;text-anchor:start;fill:#333333;stroke-width:0.264583"
       d="m 28.126203,110.67335 v -3.01414 h 0.630766 q 0.207433,0 0.351367,0.0635 0.148166,0.0635 0.241299,0.16934 0.09313,0.10583 0.131234,0.24553 0.04233,0.13547 0.04233,0.28363 v 0.11007 q 0,0.12277 -0.02117,0.20743 -0.01693,0.0847 -0.05503,0.14817 -0.07197,0.11853 -0.220133,0.2032 0.1524,0.072 0.224366,0.21167 0.07197,0.1397 0.07197,0.381 v 0.16933 q 0,0.39793 -0.194733,0.6096 -0.1905,0.21167 -0.613833,0.21167 z m 0.4318,-1.397 v 0.9652 h 0.186266 q 0.131233,0 0.2032,-0.0381 0.0762,-0.0381 0.1143,-0.10584 0.0381,-0.0677 0.04657,-0.16086 0.0085,-0.0931 0.0085,-0.2032 0,-0.1143 -0.0127,-0.19897 -0.0127,-0.0847 -0.0508,-0.14393 -0.04233,-0.0593 -0.1143,-0.0847 -0.07197,-0.0296 -0.190499,-0.0296 z m 0,-1.21074 v 0.82974 h 0.194733 q 0.2159,0 0.287866,-0.10584 0.0762,-0.11006 0.0762,-0.3175 0,-0.2032 -0.08467,-0.3048 -0.08043,-0.1016 -0.296333,-0.1016 z"
       id="path30" /><circle
       style="fill:#333333;stroke-width:3.49999;stroke-linecap:round"
       id="path1-56-8"
       cx="10.857015"
       cy="23.440079"
       r="3.75" /><path
       d="m 10.682413,17.894442 v 0.155222 q 0,0.116417 -0.0459,0.22225 -0.0423,0.102306 -0.11994,0.183445 -0.0776,0.08114 -0.18345,0.130527 -0.102302,0.04586 -0.222247,0.04586 -0.102305,0 -0.208139,-0.02822 -0.105833,-0.02822 -0.1905,-0.09878 -0.08467,-0.07055 -0.141111,-0.179916 -0.05292,-0.112889 -0.05292,-0.285751 V 16.65619 q 0,-0.123473 0.04233,-0.229306 0.04233,-0.105833 0.119944,-0.183445 0.07761,-0.07761 0.183445,-0.119944 0.109361,-0.04586 0.239889,-0.04586 0.253999,0 0.412749,0.165805 0.0776,0.08114 0.11995,0.194028 0.0459,0.109362 0.0459,0.239889 v 0.141112 h -0.35984 v -0.119945 q 0,-0.105833 -0.05997,-0.183444 -0.05997,-0.07761 -0.162278,-0.07761 -0.134056,0 -0.179917,0.08467 -0.04233,0.08114 -0.04233,0.208139 v 1.284112 q 0,0.109361 0.04586,0.183445 0.04939,0.07408 0.172861,0.07408 0.03528,0 0.07408,-0.01058 0.04233,-0.01411 0.07761,-0.04233 0.03175,-0.02822 0.05292,-0.07761 0.0212,-0.04939 0.0212,-0.123472 v -0.123472 z m 1.513421,-1.795641 -0.51506,2.51178 h -0.3175 l -0.51153,-2.51178 h 0.381 l 0.28575,1.753307 h 0.007 l 0.28928,-1.753307 z"
       id="text8-7-5-4"
       style="font-size:3.52778px;line-height:1.25;font-family:'DIN Condensed';-inkscape-font-specification:'DIN Condensed, ';text-align:center;text-anchor:middle;fill:#333333;stroke-width:0.264583"
       aria-label="CV" /><path
       d="M 8.763298,32.38992 V 30.216811 H 8.3470193 V 29.878144 H 9.539409 v 0.338667 H 9.123131 v 2.173109 z m 1.294697,-2.173109 v 0.783169 h 0.204612 q 0.09525,0 0.151696,-0.0247 0.0564,-0.0282 0.0882,-0.07761 0.0282,-0.04939 0.0388,-0.119945 0.0106,-0.07408 0.0106,-0.169333 0,-0.09525 -0.0106,-0.165806 -0.0106,-0.07408 -0.0423,-0.127 -0.067,-0.09878 -0.254002,-0.09878 z M 9.698162,32.38992 v -2.511776 h 0.578551 q 0.635001,0 0.635001,0.737306 0,0.22225 -0.0705,0.37747 -0.067,0.15522 -0.239881,0.25047 l 0.388051,1.14653 h -0.381001 l -0.33514,-1.07244 h -0.215198 v 1.07244 z m 1.513422,0 v -2.511776 h 0.35983 v 2.511776 z m 0.68792,-1.919109 q 0,-0.151694 0.0529,-0.268111 0.0529,-0.116417 0.14111,-0.194028 0.0847,-0.07408 0.1905,-0.112889 0.10936,-0.03881 0.21872,-0.03881 0.10936,0 0.21519,0.03881 0.10937,0.03881 0.197561,0.112889 0.0847,0.07761 0.13758,0.194028 0.0529,0.116417 0.0529,0.268111 v 0.127 h -0.359831 v -0.127 q 0,-0.130528 -0.0741,-0.1905 -0.0705,-0.0635 -0.16933,-0.0635 -0.0988,0 -0.17286,0.0635 -0.0706,0.05997 -0.0706,0.1905 v 1.326449 q 0,0.13052 0.0706,0.19402 0.0741,0.06 0.17286,0.06 0.0988,0 0.16933,-0.06 0.0741,-0.0635 0.0741,-0.19402 v -0.47273 h -0.28575 v -0.3175 h 0.645581 v 0.79023 q 0,0.15875 -0.0529,0.27164 -0.0529,0.11288 -0.13758,0.18697 -0.0882,0.0776 -0.197561,0.11641 -0.10583,0.0388 -0.21519,0.0388 -0.10936,0 -0.21872,-0.0388 -0.10584,-0.0388 -0.1905,-0.11641 -0.0882,-0.0741 -0.14111,-0.18697 -0.0529,-0.11289 -0.0529,-0.27164 z"
       id="text8-8-9-0-0"
       style="font-size:3.52778px;line-height:1.25;font-family:'DIN Condensed';-inkscape-font-specification:'DIN Condensed, ';text-align:center;text-anchor:middle;fill:#333333;stroke-width:0.264583"
       aria-label="TRIG" /><circle
       style="fill:#333333;stroke-width:3.49999;stroke-linecap:round"
       id="path1-56-2-1"
       cx="10.726488"
       cy="37.219406"
       r="3.75" /><path
       d="m 9.686486,13.205354 v -3.014135 h 0.431799 v 3.014135 z m 0.833968,0 v -3.014135 h 0.414867 l 0.651933,1.816095 h 0.0085 v -1.816095 h 0.4318 v 3.014135 H 11.62115 l -0.660399,-1.81187 h -0.0085 v 1.81187 z"
       id="text24"
       style="font-size:4.23333px;line-height:1.25;font-family:'DIN Condensed';-inkscape-font-specification:'DIN Condensed, ';text-align:center;text-anchor:middle;fill:#ececec;stroke-width:0.264583"
       aria-label="IN" /><path
       d="m 10.682416,87.654849 v 0.155222 q 0,0.116417 -0.0459,0.22225 -0.0423,0.102306 -0.11994,0.183445 -0.0776,0.08114 -0.18345,0.130527 -0.102302,0.04586 -0.222248,0.04586 -0.102305,0 -0.208139,-0.02822 -0.105833,-0.02822 -0.1905,-0.09878 -0.08467,-0.07055 -0.141111,-0.179916 -0.05292,-0.112889 -0.05292,-0.285751 v -1.382889 q 0,-0.123473 0.04233,-0.229306 0.04233,-0.105833 0.119944,-0.183445 0.07761,-0.07761 0.183445,-0.119944 0.109361,-0.04586 0.239889,-0.04586 0.254,0 0.41275,0.165805 0.0776,0.08114 0.11995,0.194028 0.0459,0.109362 0.0459,0.239889 v 0.141112 h -0.35984 v -0.119945 q 0,-0.105833 -0.05997,-0.183444 -0.05997,-0.07761 -0.162279,-0.07761 -0.134056,0 -0.179917,0.08467 -0.04233,0.08114 -0.04233,0.208139 v 1.284112 q 0,0.109361 0.04586,0.183445 0.04939,0.07408 0.172861,0.07408 0.03528,0 0.07408,-0.01058 0.04233,-0.01411 0.07761,-0.04233 0.03175,-0.02822 0.05292,-0.07761 0.0212,-0.04939 0.0212,-0.123472 v -0.123472 z m 1.513421,-1.795641 -0.515061,2.51178 h -0.3175 l -0.51153,-2.51178 h 0.381 l 0.28575,1.753307 h 0.007 l 0.28928,-1.753307 z"
       id="text8-7-5"
       style="font-size:3.52778px;line-height:1.25;font-family:'DIN Condensed';-inkscape-font-specification:'DIN Condensed, ';text-align:center;text-anchor:middle;fill:#333333;stroke-width:0.264583"
       aria-label="CV" /><circle
       style="fill:#333333;stroke-width:3.49999;stroke-linecap:round"
       id="path1-56"
       cx="10.857018"
       cy="93.200485"
       r="3.75" /><circle
       style="fill:#333333;stroke-width:3.49999;stroke-linecap:round"
       id="path1-56-2"
       cx="10.726491"
       cy="106.97981"
       r="3.75" /><g
       id="g14"
       transform="translate(-9.1008669,12.508128)"
       style="fill:#e6e6e6"><path
         style="font-size:4.23333px;line-height:1.25;font-family:'DIN Condensed';-inkscape-font-specification:'DIN Condensed, ';text-align:center;text-anchor:middle;fill:#e6e6e6;stroke-width:0.264583"
         d="m 21.450114,70.501549 v -2.607731 h -0.499533 v -0.4064 h 1.430865 v 0.4064 h -0.499533 v 2.607731 z"
         id="path12" /><path
         style="font-size:4.23333px;line-height:1.25;font-family:'DIN Condensed';-inkscape-font-specification:'DIN Condensed, ';text-align:center;text-anchor:middle;fill:#e6e6e6;stroke-width:0.264583"
         d="m 20.760078,67.487418 v 2.336798 q 0,0.148167 -0.05503,0.275166 -0.0508,0.122767 -0.148166,0.220134 -0.09737,0.09737 -0.224367,0.152399 -0.127,0.05503 -0.270933,0.05503 -0.143933,0 -0.270933,-0.05503 -0.122767,-0.05503 -0.220133,-0.152399 -0.09737,-0.09737 -0.1524,-0.220134 -0.05503,-0.126999 -0.05503,-0.275166 v -2.336798 h 0.431799 v 2.294465 q 0,0.160866 0.0762,0.237066 0.0762,0.0762 0.1905,0.0762 0.1143,0 0.1905,-0.0762 0.0762,-0.0762 0.0762,-0.237066 v -2.294465 z"
         id="path11" /><path
         id="text18-0"
         style="font-size:4.23333px;line-height:1.25;font-family:'DIN Condensed';-inkscape-font-specification:'DIN Condensed, ';text-align:center;text-anchor:middle;fill:#e6e6e6;stroke-width:0.264583"
         d="m 18.258317,67.462032 c -0.08749,0 -0.175027,0.01546 -0.262516,0.04651 -0.08467,0.03104 -0.161194,0.07613 -0.228927,0.135392 -0.07056,0.06209 -0.126648,0.139928 -0.168982,0.233061 -0.04233,0.09313 -0.06356,0.200072 -0.06356,0.321427 v 1.592151 c 0,0.127 0.02123,0.23525 0.06356,0.325562 0.04233,0.09031 0.09843,0.165525 0.168982,0.224792 0.06773,0.06209 0.144261,0.10848 0.228927,0.139526 0.08749,0.03105 0.175027,0.04651 0.262516,0.04651 0.08749,0 0.173199,-0.01546 0.257865,-0.04651 0.08749,-0.03105 0.166639,-0.07744 0.237195,-0.139526 0.06773,-0.05927 0.123032,-0.134482 0.165365,-0.224792 0.04233,-0.09031 0.06356,-0.198562 0.06356,-0.325562 v -1.592151 c 0,-0.121355 -0.02123,-0.228294 -0.06356,-0.321427 -0.04233,-0.09313 -0.09763,-0.170974 -0.165365,-0.233061 -0.07056,-0.05926 -0.149706,-0.104346 -0.237195,-0.135392 -0.08467,-0.03105 -0.170376,-0.04651 -0.257865,-0.04651 z m 0,0.432015 c 0.07902,0 0.146642,0.02516 0.203088,0.07596 0.05927,0.04798 0.08888,0.123988 0.08888,0.22841 v 1.592151 c 0,0.104423 -0.02962,0.181744 -0.08888,0.232544 -0.05644,0.04798 -0.124066,0.07183 -0.203088,0.07183 -0.07902,0 -0.148473,-0.02385 -0.207739,-0.07183 -0.05645,-0.0508 -0.08475,-0.128121 -0.08475,-0.232544 v -1.592151 c 0,-0.104419 0.0283,-0.18043 0.08475,-0.22841 0.05927,-0.0508 0.128717,-0.07596 0.207739,-0.07596 z" /></g><path
       d="m 5.9909708,102.15244 v -2.260604 h 0.485775 q 0.13335,0 0.23495,0.03493 0.1015999,0.03493 0.1841499,0.123824 0.08255,0.0889 0.1143,0.20955 0.03175,0.11748 0.03175,0.32068 0,0.15239 -0.01905,0.25717 -0.015875,0.10477 -0.073025,0.19685 -0.066675,0.11112 -0.1778,0.17462 -0.1111249,0.0603 -0.2920999,0.0603 h -0.1651 v 0.88265 z m 0.32385,-1.9558 v 0.76835 h 0.155575 q 0.098425,0 0.1524,-0.0286 0.053975,-0.0286 0.079375,-0.0794 0.0254,-0.0476 0.028575,-0.11748 0.00635,-0.0699 0.00635,-0.15557 0,-0.0794 -0.00318,-0.14923 -0.00317,-0.073 -0.028575,-0.127 -0.0254,-0.054 -0.0762,-0.0825 -0.0508,-0.0286 -0.14605,-0.0286 z m 0.9493237,0.2286 q 0,-0.13653 0.047625,-0.2413 0.047625,-0.10478 0.127,-0.17463 0.0762,-0.06668 0.1714499,-0.101599 0.098425,-0.03493 0.19685,-0.03493 0.098425,0 0.193675,0.03493 0.098425,0.03493 0.1778,0.101599 0.0762,0.0699 0.123825,0.17463 0.047625,0.10477 0.047625,0.2413 v 1.1938 q 0,0.14287 -0.047625,0.24447 -0.047625,0.1016 -0.123825,0.16828 -0.079375,0.0699 -0.1778,0.10477 -0.09525,0.0349 -0.193675,0.0349 -0.098425,0 -0.19685,-0.0349 -0.09525,-0.0349 -0.1714499,-0.10477 -0.079375,-0.0667 -0.127,-0.16828 -0.047625,-0.1016 -0.047625,-0.24447 z m 0.3238499,1.1938 q 0,0.11747 0.0635,0.17462 0.066675,0.054 0.155575,0.054 0.0889,0 0.1524,-0.054 0.066675,-0.0571 0.066675,-0.17462 v -1.1938 q 0,-0.11748 -0.066675,-0.17145 -0.0635,-0.0571 -0.1524,-0.0571 -0.0889,0 -0.155575,0.0571 -0.0635,0.054 -0.0635,0.17145 z m 1.0477516,0.5334 v -2.260604 h 0.32385 v 1.936754 h 0.64135 v 0.32385 z m 1.184281,0 v -0.95568 l -0.4445,-1.304924 h 0.3429 l 0.26035,0.898524 h 0.0064 l 0.26035,-0.898524 h 0.3429 l -0.4445,1.304924 v 0.95568 z m 1.733554,0 v -1.9558 h -0.37465 v -0.304804 h 1.07315 v 0.304804 h -0.37465 v 1.9558 z m 1.165228,-1.9558 v 0.70485 h 0.18415 q 0.08573,0 0.136525,-0.0222 0.0508,-0.0254 0.07938,-0.0699 0.0254,-0.0444 0.03492,-0.10795 0.0095,-0.0667 0.0095,-0.1524 0,-0.0857 -0.0095,-0.14922 -0.0095,-0.0667 -0.0381,-0.1143 -0.06033,-0.0889 -0.2286,-0.0889 z m -0.32385,1.9558 v -2.260604 h 0.5207 q 0.5715,0 0.5715,0.663574 0,0.20003 -0.0635,0.33973 -0.06032,0.1397 -0.2159,0.22542 l 0.34925,1.03188 h -0.3429 l -0.301625,-0.9652 h -0.193675 v 0.9652 z m 1.362076,0 v -2.260604 h 0.32385 v 2.260604 z m 0.619126,-1.7272 q 0,-0.13653 0.04762,-0.2413 0.04763,-0.10478 0.127,-0.17463 0.0762,-0.06668 0.17145,-0.101599 0.09842,-0.03493 0.19685,-0.03493 0.09843,0 0.193675,0.03493 0.09842,0.03493 0.1778,0.101599 0.0762,0.0699 0.123825,0.17463 0.04763,0.10477 0.04763,0.2413 v 0.1143 h -0.32385 v -0.1143 q 0,-0.11748 -0.06668,-0.17145 -0.0635,-0.0571 -0.1524,-0.0571 -0.0889,0 -0.155575,0.0571 -0.0635,0.054 -0.0635,0.17145 v 1.1938 q 0,0.11747 0.0635,0.17462 0.06668,0.054 0.155575,0.054 0.0889,0 0.1524,-0.054 0.06668,-0.0571 0.06668,-0.17462 v -0.42545 h -0.257175 v -0.28575 h 0.581025 v 0.7112 q 0,0.14287 -0.04763,0.24447 -0.04763,0.1016 -0.123825,0.16828 -0.07937,0.0699 -0.1778,0.10477 -0.09525,0.0349 -0.193675,0.0349 -0.09842,0 -0.19685,-0.0349 -0.09525,-0.0349 -0.17145,-0.10477 -0.07938,-0.0667 -0.127,-0.16828 -0.04762,-0.1016 -0.04762,-0.24447 z"
       id="text2"
       style="font-size:3.175px;line-height:1.25;font-family:'DIN Condensed';-inkscape-font-specification:'DIN Condensed, ';text-align:center;text-anchor:middle;fill:#333333;stroke-width:0.264583"
       aria-label="POLY TRIG" /><circle
       style="fill:#1a1a1a;stroke-width:3.49999;stroke-linecap:round"
       id="path1-7-1-6-6"
       cx="45.385475"
       cy="48.18211"
       r="1.9724801" /><circle
       style="fill:#1a1a1a;stroke-width:3.49999;stroke-linecap:round"
       id="path1-7-1-6-6-4"
       cx="45.385475"
       cy="56.87431"
       r="1.9724801" /><circle
       style="fill:#1a1a1a;stroke-width:3.49999;stroke-linecap:round"
       id="path1-7-1-6-6-3"
       cx="45.385475"
       cy="65.566505"
       r="1.9724801" /><circle
       style="fill:#1a1a1a;stroke-width:3.49999;stroke-linecap:round"
       id="path1-7-1-6-6-8"
       cx="45.385475"
       cy="74.258705"
       r="1.9724801" /><circle
       style="fill:#1a1a1a;stroke-width:3.49999;stroke-linecap:round"
       id="path1-7-1-6-6-40"
       cx="45.385475"
       cy="82.950912"
       r="1.9724801" /><circle
       style="fill:#1a1a1a;stroke-width:3.49999;stroke-linecap:round"
       id="path1-7-1-6-6-40-0"
       cx="45.385475"
       cy="91.643112"
       r="1.9724801" /><circle
       style="fill:#1a1a1a;stroke-width:3.49999;stroke-linecap:round"
       id="path1-7-1-6-6-40-9"
       cx="45.385475"
       cy="100.33531"
       r="1.9724801" /><circle
       style="fill:#1a1a1a;stroke-width:3.49999;stroke-linecap:round"
       id="path1-7-1-6-6-40-3"
       cx="45.385475"
       cy="109.02751"
       r="1.9724801" /></g></svg>
