<?xml version="1.0" encoding="UTF-8" standalone="no"?>
<svg
   sodipodi:docname="Chord4Roy-White.svg"
   inkscape:version="1.3.2 (091e20e, 2023-11-25)"
   id="svg8"
   version="1.1"
   viewBox="0 0 30.479999 128.5"
   height="128.5mm"
   width="30.48mm"
   xml:space="preserve"
   xmlns:inkscape="http://www.inkscape.org/namespaces/inkscape"
   xmlns:sodipodi="http://sodipodi.sourceforge.net/DTD/sodipodi-0.dtd"
   xmlns="http://www.w3.org/2000/svg"
   xmlns:svg="http://www.w3.org/2000/svg"
   xmlns:rdf="http://www.w3.org/1999/02/22-rdf-syntax-ns#"
   xmlns:cc="http://creativecommons.org/ns#"
   xmlns:dc="http://purl.org/dc/elements/1.1/"><defs
     id="defs2" /><sodipodi:namedview
     inkscape:window-maximized="0"
     inkscape:window-y="23"
     inkscape:window-x="0"
     inkscape:window-height="769"
     inkscape:window-width="1252"
     showgrid="false"
     inkscape:document-rotation="0"
     inkscape:current-layer="layer1"
     inkscape:document-units="mm"
     inkscape:cy="392.46617"
     inkscape:cx="48.489526"
     inkscape:zoom="3.8461914"
     inkscape:pageshadow="2"
     inkscape:pageopacity="0.0"
     borderopacity="1.0"
     bordercolor="#666666"
     pagecolor="#ffffff"
     id="base"
     inkscape:showpageshadow="2"
     inkscape:pagecheckerboard="0"
     inkscape:deskcolor="#d1d1d1"
     showguides="true"><sodipodi:guide
       position="-13.153348,135.69712"
       orientation="1,0"
       id="guide5"
       inkscape:locked="false" /><sodipodi:guide
       position="42.379222,141.53976"
       orientation="1,0"
       id="guide7"
       inkscape:locked="false" /><sodipodi:guide
       position="15.24,121.18112"
       orientation="1,0"
       id="guide17"
       inkscape:locked="false" /></sodipodi:namedview><metadata
     id="metadata5"><rdf:RDF><cc:Work
         rdf:about=""><dc:format>image/svg+xml</dc:format><dc:type
           rdf:resource="http://purl.org/dc/dcmitype/StillImage" /></cc:Work></rdf:RDF></metadata><g
     id="layer1"
     inkscape:groupmode="layer"
     inkscape:label="Layer 1"><rect
       style="fill:#ececec;fill-opacity:1;stroke:none;stroke-width:0.499994;stroke-linecap:round;stroke-miterlimit:4;stroke-dasharray:none;stop-color:#000000"
       id="rect1015"
       width="30.48"
       height="128.5"
       x="0"
       y="-3.541667e-07" /><path
       d="m 9.1406764,127.14313 v -0.22003 h -0.0085 q -0.08463,0.11848 -0.173481,0.18195 -0.08462,0.0635 -0.241181,0.0635 -0.07616,0 -0.156555,-0.0254 -0.07616,-0.0212 -0.148094,-0.0846 -0.07193,-0.0592 -0.118475,-0.16925 -0.04231,-0.11424 -0.04231,-0.29195 0,-0.18195 0.02962,-0.31735 0.02962,-0.13963 0.110012,-0.23271 0.07616,-0.0889 0.207331,-0.13117 0.131168,-0.0466 0.334268,-0.0466 0.02116,0 0.04654,0 0.02539,0 0.04654,0.004 0.02116,0.004 0.05077,0.004 0.02962,0 0.06347,0.004 v -0.22426 q 0,-0.11001 -0.04654,-0.18194 -0.04654,-0.0719 -0.16925,-0.0719 -0.08463,0 -0.156556,0.055 -0.0677,0.055 -0.08886,0.16079 h -0.418893 q 0.01693,-0.28772 0.194638,-0.46544 0.08462,-0.0846 0.203099,-0.13116 0.118475,-0.0508 0.266568,-0.0508 0.1354,0 0.253875,0.0423 0.118474,0.0423 0.20733,0.12694 0.08462,0.0846 0.1354,0.21156 0.05078,0.12694 0.05078,0.29619 v 1.49363 z m 0,-0.92241 q -0.07193,-0.0127 -0.118474,-0.0127 -0.139631,0 -0.241181,0.0677 -0.09732,0.0635 -0.09732,0.23695 0,0.12271 0.05924,0.19887 0.05924,0.0762 0.165018,0.0762 0.110012,0 0.16925,-0.0719 0.06347,-0.0719 0.06347,-0.2031 z m 1.2059066,0.30465 q 0,0.10155 0.05501,0.15655 0.05924,0.055 0.156556,0.055 0.122706,0 0.160787,-0.0719 0.04231,-0.0719 0.05078,-0.14386 h 0.431587 q 0,0.28349 -0.173481,0.45697 -0.08462,0.0889 -0.2031,0.13963 -0.118474,0.0508 -0.266568,0.0508 -0.203099,0 -0.346961,-0.0846 -0.139631,-0.0846 -0.2157936,-0.22426 -0.04654,-0.0846 -0.06347,-0.19463 -0.01693,-0.11001 -0.01693,-0.24118 v -0.70662 q 0,-0.13117 0.01693,-0.24118 0.01693,-0.11001 0.06347,-0.19464 0.07616,-0.13963 0.2157936,-0.22425 0.143862,-0.0846 0.346961,-0.0846 0.148094,0 0.266568,0.0508 0.122706,0.0508 0.207331,0.13963 0.16925,0.1904 0.16925,0.49505 h -0.431596 q 0,-0.13117 -0.05924,-0.1904 -0.05501,-0.0635 -0.152325,-0.0635 -0.09732,0 -0.156556,0.0635 -0.05501,0.0592 -0.05501,0.18194 z m 1.133976,0.61776 v -3.01265 h 0.414662 l 0.554292,1.59518 h 0.0085 l 0.550062,-1.59518 h 0.418892 v 3.01265 H 12.995343 V 125.311 h -0.0085 l -0.427355,1.29476 H 12.343732 L 11.920608,125.311 h -0.0085 v 1.83213 z m 2.2891,-1.42593 q 0,-0.13117 0.01693,-0.24118 0.01692,-0.11001 0.06347,-0.19464 0.07616,-0.13963 0.215793,-0.22425 0.143862,-0.0846 0.346961,-0.0846 0.2031,0 0.342731,0.0846 0.143862,0.0846 0.220024,0.22425 0.04654,0.0846 0.06347,0.19464 0.01693,0.11001 0.01693,0.24118 v 0.70662 q 0,0.13117 -0.01693,0.24118 -0.01692,0.11001 -0.06347,0.19463 -0.07616,0.13964 -0.220024,0.22426 -0.139631,0.0846 -0.342731,0.0846 -0.203099,0 -0.346961,-0.0846 -0.139631,-0.0846 -0.215793,-0.22426 -0.04654,-0.0846 -0.06347,-0.19463 -0.01693,-0.11001 -0.01693,-0.24118 z m 0.431587,0.77432 q 0,0.1227 0.05501,0.18617 0.05924,0.0592 0.156555,0.0592 0.09732,0 0.152325,-0.0592 0.05924,-0.0635 0.05924,-0.18617 v -0.84202 q 0,-0.12271 -0.05924,-0.18194 -0.05501,-0.0635 -0.152325,-0.0635 -0.09732,0 -0.156555,0.0635 -0.05501,0.0592 -0.05501,0.18194 z m 1.603643,-0.0465 q 0,0.13117 0.05078,0.21156 0.05077,0.0804 0.160787,0.0804 0.09732,0 0.156556,-0.0719 0.05924,-0.0762 0.05924,-0.19464 v -0.83355 q 0,-0.10155 -0.06347,-0.16502 -0.05924,-0.0677 -0.152325,-0.0677 -0.122706,0 -0.16925,0.0762 -0.04231,0.0762 -0.04231,0.17771 z m 0.427355,0.69816 v -0.19464 q -0.04231,0.0465 -0.08039,0.0889 -0.03808,0.0381 -0.08463,0.0677 -0.04654,0.0296 -0.105781,0.0465 -0.05924,0.0169 -0.139631,0.0169 -0.270799,0 -0.37658,-0.20309 -0.03808,-0.0719 -0.05501,-0.17772 -0.01693,-0.10578 -0.01693,-0.28349 v -0.81663 q 0,-0.23272 0.01269,-0.34273 0.02539,-0.21156 0.198868,-0.31734 0.08039,-0.055 0.241181,-0.055 0.126937,0 0.224256,0.0592 0.10155,0.055 0.173481,0.16079 h 0.0085 v -1.06205 h 0.431587 v 3.01265 z m 2.077539,-2.14524 v 2.14524 h -0.431587 v -0.20733 h -0.0085 q -0.0677,0.10155 -0.165018,0.16925 -0.09309,0.0635 -0.241181,0.0635 -0.08039,0 -0.160787,-0.0254 -0.08039,-0.0296 -0.143862,-0.0931 -0.06347,-0.0635 -0.10155,-0.16079 -0.03808,-0.10155 -0.03808,-0.24541 v -1.64595 h 0.431586 v 1.48516 q 0,0.11848 0.05501,0.18618 0.05501,0.0677 0.156556,0.0677 0.122706,0 0.16925,-0.0762 0.04654,-0.0762 0.04654,-0.22003 v -1.44285 z m 0.330036,-0.86741 h 0.431586 v 2.40758 q 0,0.12271 0.04231,0.16925 0.04654,0.0423 0.16925,0.055 v 0.40619 q -0.148093,0 -0.266568,-0.0254 -0.118475,-0.0212 -0.2031,-0.0889 -0.08462,-0.0635 -0.131168,-0.17771 -0.04231,-0.11848 -0.04231,-0.30888 z m 2.060617,2.10293 h -0.854711 v 0.29196 q 0,0.10155 0.05501,0.15655 0.05924,0.055 0.156556,0.055 0.122706,0 0.160787,-0.0719 0.04231,-0.0719 0.05078,-0.14386 h 0.431587 q 0,0.28349 -0.173481,0.45697 -0.08463,0.0889 -0.2031,0.13963 -0.118474,0.0508 -0.266568,0.0508 -0.203099,0 -0.346961,-0.0846 -0.139631,-0.0846 -0.215794,-0.22426 -0.04654,-0.0846 -0.06347,-0.19463 -0.01693,-0.11001 -0.01693,-0.24118 v -0.70662 q 0,-0.13117 0.01693,-0.24118 0.01693,-0.11001 0.06347,-0.19464 0.07616,-0.13963 0.215794,-0.22425 0.143862,-0.0846 0.346961,-0.0846 0.148094,0 0.266568,0.0508 0.122706,0.0508 0.207331,0.13963 0.16925,0.1904 0.16925,0.47813 z m -0.854711,-0.3385 h 0.423124 v -0.24541 q 0,-0.12271 -0.05924,-0.18194 -0.05501,-0.0635 -0.152325,-0.0635 -0.09732,0 -0.156556,0.0635 -0.05501,0.0592 -0.05501,0.18194 z m 1.954837,-0.29619 q -0.0042,-0.11001 -0.07193,-0.16501 -0.06347,-0.055 -0.148093,-0.055 -0.10155,0 -0.156556,0.0677 -0.05501,0.0635 -0.05501,0.14809 0,0.0592 0.02962,0.11848 0.02962,0.055 0.152324,0.10155 l 0.253875,0.10155 q 0.24118,0.0931 0.330037,0.25387 0.09309,0.16079 0.09309,0.3512 0,0.13539 -0.05078,0.25387 -0.04654,0.11424 -0.131169,0.2031 -0.08462,0.0889 -0.203099,0.13963 -0.118475,0.0508 -0.258106,0.0508 -0.262337,0 -0.440049,-0.16501 -0.08886,-0.0804 -0.143862,-0.19887 -0.05501,-0.12271 -0.05924,-0.28349 h 0.406199 q 0.01269,0.0888 0.05924,0.16501 0.05077,0.0762 0.173481,0.0762 0.09309,0 0.165018,-0.0592 0.07616,-0.0635 0.07616,-0.17348 0,-0.0889 -0.04654,-0.15233 -0.04654,-0.0635 -0.169249,-0.11001 l -0.207331,-0.0762 q -0.2031,-0.0762 -0.321574,-0.22426 -0.114244,-0.15232 -0.114244,-0.36812 0,-0.13539 0.05078,-0.24964 0.05078,-0.11847 0.139631,-0.2031 0.08462,-0.0846 0.198868,-0.12693 0.114244,-0.0465 0.245412,-0.0465 0.131168,0 0.241181,0.0465 0.114243,0.0465 0.194637,0.13116 0.08039,0.0846 0.126937,0.2031 0.04654,0.11425 0.04654,0.24541 z"
       id="text1"
       style="font-size:4.23124px;line-height:1.25;font-family:'DIN Condensed';-inkscape-font-specification:'DIN Condensed, ';text-align:center;text-anchor:middle;fill:#333333;stroke-width:0.264583"
       aria-label="acModules" /><rect
       style="opacity:1;fill:#333333;stroke:none;stroke-width:1.1;stroke-linecap:round;stroke-linejoin:round"
       id="rect11"
       width="22"
       height="13"
       x="4.2399998"
       y="7.3188806" /><path
       style="font-size:4.26869px;line-height:1.25;font-family:'Square Sans Serif 7';-inkscape-font-specification:'Square Sans Serif 7, ';text-align:center;text-anchor:middle;stroke-width:0.264583"
       d="M 4.3482046,120.81949 H 2.0551928 v 1.4304 h 2.2930118 v 0.4768 H 1.673024 v -2.384 h 2.6751806 z m 0.7643346,1.9072 H 4.7303705 v -2.384 h 0.3821687 v 0.9536 h 1.9108432 v -0.9536 h 0.3821687 v 2.384 H 7.0233824 v -0.9536 H 5.1125392 Z m 2.6751777,-2.384 h 2.6751801 v 2.384 H 7.7877169 Z m 0.3821686,1.9072 h 1.9108435 v -1.4304 H 8.1698855 Z m 3.0573465,0.4768 h -0.382169 v -2.384 h 2.675181 v 1.4304 h -0.382169 l 0.382169,0.9536 h -0.42803 l -0.382168,-0.9536 h -1.482814 z m 0,-1.4304 h 1.910843 v -0.4768 h -1.910843 z m 2.675178,1.4304 v -2.384 h 2.293012 l 0.382168,0.4768 v 1.4304 l -0.382168,0.4768 z m 2.293012,-0.4768 v -1.4304 h -1.910844 v 1.4304 z"
       id="path1" /><path
       style="font-size:4.26869px;line-height:1.25;font-family:'Square Sans Serif 7';-inkscape-font-specification:'Square Sans Serif 7, ';text-align:center;text-anchor:middle;stroke-width:0.264583"
       d="m 20.39927,122.72669 h -0.382168 v -2.384 h 2.67518 v 1.4304 h -0.382168 l 0.382168,0.9536 h -0.428028 l -0.382169,-0.9536 H 20.39927 Z m 0,-1.4304 h 1.910844 v -0.4768 H 20.39927 Z m 2.675178,-0.9536 h 2.675182 v 2.384 h -2.675182 z m 0.382169,1.9072 h 1.910844 v -1.4304 h -1.910844 z m 2.675179,-1.9072 h 0.382168 v 0.9536 h 1.910843 v -0.9536 h 0.382169 v 2.384 h -2.67518 v -0.4768 h 2.293011 v -0.4768 h -2.293011 z"
       id="path3" /><path
       d="m 8.7333585,27.634418 v 0.939799 h 0.2455331 q 0.1142999,0 0.1820332,-0.02963 0.067733,-0.03387 0.1058332,-0.09313 0.033867,-0.05927 0.046567,-0.143933 0.0127,-0.0889 0.0127,-0.2032 0,-0.1143 -0.0127,-0.198967 -0.0127,-0.0889 -0.0508,-0.1524 -0.080433,-0.118533 -0.3047998,-0.118533 z m -0.4317997,2.607731 v -3.01413 h 0.6942661 q 0.7619994,0 0.7619994,0.884765 0,0.2667 -0.084667,0.452967 -0.080433,0.186266 -0.2878665,0.300566 l 0.4656663,1.375832 H 9.3937579 L 8.9915916,28.955217 H 8.7333585 v 1.286932 z M 10.07956,27.939218 q 0,-0.182033 0.0635,-0.321733 0.0635,-0.1397 0.169333,-0.232833 0.1016,-0.0889 0.2286,-0.135467 0.131233,-0.04657 0.262466,-0.04657 0.131233,0 0.258233,0.04657 0.131234,0.04657 0.237067,0.135467 0.1016,0.09313 0.1651,0.232833 0.0635,0.1397 0.0635,0.321733 v 1.591732 q 0,0.1905 -0.0635,0.325966 -0.0635,0.135467 -0.1651,0.224367 -0.105833,0.09313 -0.237067,0.1397 -0.127,0.04657 -0.258233,0.04657 -0.131233,0 -0.262466,-0.04657 -0.127,-0.04657 -0.2286,-0.1397 -0.105833,-0.0889 -0.169333,-0.224367 -0.0635,-0.135466 -0.0635,-0.325966 z m 0.431799,1.591732 q 0,0.156633 0.08467,0.232833 0.0889,0.07197 0.207433,0.07197 0.118533,0 0.2032,-0.07197 0.0889,-0.0762 0.0889,-0.232833 v -1.591732 q 0,-0.156633 -0.0889,-0.2286 -0.08467,-0.0762 -0.2032,-0.0762 -0.118533,0 -0.207433,0.0762 -0.08467,0.07197 -0.08467,0.2286 z m 1.371602,-1.591732 q 0,-0.182033 0.0635,-0.321733 0.0635,-0.1397 0.169333,-0.232833 0.1016,-0.0889 0.2286,-0.135467 0.131233,-0.04657 0.262466,-0.04657 0.131233,0 0.258233,0.04657 0.131234,0.04657 0.237067,0.135467 0.1016,0.09313 0.1651,0.232833 0.0635,0.1397 0.0635,0.321733 v 1.591732 q 0,0.1905 -0.0635,0.325966 -0.0635,0.135467 -0.1651,0.224367 -0.105833,0.09313 -0.237067,0.1397 -0.127,0.04657 -0.258233,0.04657 -0.131233,0 -0.262466,-0.04657 -0.127,-0.04657 -0.2286,-0.1397 -0.105833,-0.0889 -0.169333,-0.224367 -0.0635,-0.135466 -0.0635,-0.325966 z m 0.431799,1.591732 q 0,0.156633 0.08467,0.232833 0.0889,0.07197 0.207433,0.07197 0.118533,0 0.2032,-0.07197 0.0889,-0.0762 0.0889,-0.232833 v -1.591732 q 0,-0.156633 -0.0889,-0.2286 -0.08467,-0.0762 -0.2032,-0.0762 -0.118533,0 -0.207433,0.0762 -0.08467,0.07197 -0.08467,0.2286 z m 1.629838,0.711199 v -2.607731 h -0.499533 v -0.406399 h 1.430866 v 0.406399 h -0.499533 v 2.607731 z m 1.892306,0 v -3.01413 h 0.414866 l 0.651933,1.816098 h 0.0085 v -1.816098 h 0.4318 v 3.01413 h -0.4064 L 16.27717,28.430284 h -0.0085 v 1.811865 z m 1.871132,-2.302931 q 0,-0.182033 0.0635,-0.321733 0.0635,-0.1397 0.169333,-0.232833 0.1016,-0.0889 0.2286,-0.135467 0.131233,-0.04657 0.262466,-0.04657 0.131234,0 0.258233,0.04657 0.131234,0.04657 0.237067,0.135467 0.1016,0.09313 0.1651,0.232833 0.0635,0.1397 0.0635,0.321733 v 1.591732 q 0,0.1905 -0.0635,0.325966 -0.0635,0.135467 -0.1651,0.224367 -0.105833,0.09313 -0.237067,0.1397 -0.126999,0.04657 -0.258233,0.04657 -0.131233,0 -0.262466,-0.04657 -0.127,-0.04657 -0.2286,-0.1397 -0.105833,-0.0889 -0.169333,-0.224367 -0.0635,-0.135466 -0.0635,-0.325966 z m 0.4318,1.591732 q 0,0.156633 0.08467,0.232833 0.0889,0.07197 0.207433,0.07197 0.118534,0 0.2032,-0.07197 0.0889,-0.0762 0.0889,-0.232833 v -1.591732 q 0,-0.156633 -0.0889,-0.2286 -0.08467,-0.0762 -0.2032,-0.0762 -0.118533,0 -0.207433,0.0762 -0.08467,0.07197 -0.08467,0.2286 z m 1.629838,0.711199 v -2.607731 h -0.499532 v -0.406399 h 1.430865 v 0.406399 h -0.499533 v 2.607731 z m 1.121835,0 v -3.01413 h 1.286933 v 0.406399 h -0.855133 v 0.884766 h 0.745066 v 0.4064 h -0.745066 v 0.884766 h 0.855133 v 0.431799 z"
       id="text15"
       style="font-size:4.23333px;line-height:1.25;font-family:'DIN Condensed';-inkscape-font-specification:'DIN Condensed, ';text-align:center;text-anchor:middle;stroke-width:0.264583"
       aria-label="ROOT NOTE" /><path
       d="m 12.283017,45.257787 v 0.186267 q 0,0.1397 -0.05503,0.2667 -0.0508,0.122766 -0.143933,0.220133 -0.09313,0.09737 -0.220133,0.156633 -0.122767,0.05503 -0.2667,0.05503 -0.122767,0 -0.249767,-0.03387 -0.127,-0.03387 -0.2286,-0.118534 -0.101599,-0.08467 -0.169333,-0.2159 -0.0635,-0.135466 -0.0635,-0.342899 v -1.659466 q 0,-0.148166 0.0508,-0.275166 0.0508,-0.127 0.143934,-0.220133 0.09313,-0.09313 0.220133,-0.143933 0.131233,-0.05503 0.287866,-0.05503 0.3048,0 0.4953,0.198967 0.09313,0.09737 0.143933,0.232833 0.05503,0.131233 0.05503,0.287866 v 0.169334 h -0.431799 v -0.143934 q 0,-0.126999 -0.07197,-0.220133 -0.07197,-0.09313 -0.194733,-0.09313 -0.160867,0 -0.2159,0.1016 -0.0508,0.09737 -0.0508,0.249766 v 1.540932 q 0,0.131234 0.05503,0.220134 0.05927,0.0889 0.207433,0.0889 0.04233,0 0.0889,-0.0127 0.0508,-0.01693 0.09313,-0.0508 0.0381,-0.03387 0.0635,-0.09313 0.0254,-0.05927 0.0254,-0.148166 v -0.148167 z m 0.351365,0.859366 v -3.014131 h 0.431799 v 1.291166 h 0.5334 v -1.291166 h 0.4318 v 3.014131 h -0.4318 v -1.341965 h -0.5334 v 1.341965 z m 1.778001,-2.302931 q 0,-0.182033 0.0635,-0.321733 0.0635,-0.1397 0.169333,-0.232833 0.1016,-0.0889 0.2286,-0.135467 0.131233,-0.04657 0.262466,-0.04657 0.131233,0 0.258233,0.04657 0.131233,0.04657 0.237067,0.135467 0.1016,0.09313 0.165099,0.232833 0.0635,0.1397 0.0635,0.321733 v 1.591732 q 0,0.1905 -0.0635,0.325966 -0.0635,0.135467 -0.165099,0.224367 -0.105834,0.09313 -0.237067,0.1397 -0.127,0.04657 -0.258233,0.04657 -0.131233,0 -0.262466,-0.04657 -0.127,-0.04657 -0.2286,-0.1397 -0.105833,-0.0889 -0.169333,-0.224367 -0.0635,-0.135466 -0.0635,-0.325966 z m 0.431799,1.591732 q 0,0.156633 0.08467,0.232833 0.0889,0.07197 0.207433,0.07197 0.118533,0 0.2032,-0.07197 0.0889,-0.0762 0.0889,-0.232833 v -1.591732 q 0,-0.156633 -0.0889,-0.2286 -0.08467,-0.0762 -0.2032,-0.0762 -0.118533,0 -0.207433,0.0762 -0.08467,0.07197 -0.08467,0.2286 z m 1.828801,-1.896532 v 0.939799 h 0.245533 q 0.1143,0 0.182034,-0.02963 0.06773,-0.03387 0.105833,-0.09313 0.03387,-0.05927 0.04657,-0.143934 0.0127,-0.0889 0.0127,-0.203199 0,-0.1143 -0.0127,-0.198967 -0.0127,-0.0889 -0.0508,-0.1524 -0.08043,-0.118533 -0.304799,-0.118533 z m -0.431799,2.607731 v -3.014131 h 0.694266 q 0.761999,0 0.761999,0.884766 0,0.2667 -0.08467,0.452967 -0.08043,0.186266 -0.287866,0.300566 l 0.465666,1.375832 h -0.457199 l -0.402167,-1.286932 h -0.258233 v 1.286932 z m 1.803401,0 v -3.014131 h 0.639232 q 0.372533,0 0.563033,0.2032 0.194733,0.2032 0.194733,0.575733 v 1.409699 q 0,0.423333 -0.207433,0.626533 -0.2032,0.198966 -0.588433,0.198966 z m 0.431799,-2.607731 v 2.201332 h 0.198967 q 0.182033,0 0.258233,-0.0889 0.0762,-0.09313 0.0762,-0.287867 v -1.452032 q 0,-0.1778 -0.07197,-0.275166 -0.07197,-0.09737 -0.262466,-0.09737 z"
       id="text15-2"
       style="font-size:4.23333px;line-height:1.25;font-family:'DIN Condensed';-inkscape-font-specification:'DIN Condensed, ';text-align:center;text-anchor:middle;stroke-width:0.264583"
       aria-label="CHORD" /><path
       style="font-size:4.26869px;line-height:1.25;font-family:'Square Sans Serif 7';-inkscape-font-specification:'Square Sans Serif 7, ';text-align:center;text-anchor:middle;fill:#ff6600;stroke-width:0.264583"
       d="M 18.547257,120.34269 H 19.0308 l -1.058333,0.9536 h 1.280302 v -0.9536 h 0.382169 v 2.384 h -0.382169 v -0.9536 h -1.716736 l -0.256459,0.24076 -0.319817,-0.24076 z"
       id="path3-9"
       sodipodi:nodetypes="ccccccccccccc" /><path
       d="m 5.2399921,62.392363 h -0.287868 v -0.06491 q 0,-0.09878 -0.04798,-0.169334 -0.04515,-0.07338 -0.155222,-0.07338 -0.05927,0 -0.09596,0.02258 -0.03669,0.02258 -0.05927,0.05644 -0.02258,0.03669 -0.03104,0.08467 -0.0085,0.04516 -0.0085,0.09596 0,0.05927 0.0028,0.09878 0.0056,0.03951 0.02258,0.07056 0.01693,0.03104 0.04798,0.05362 0.03387,0.02258 0.09031,0.04516 l 0.220134,0.08749 q 0.09596,0.03669 0.155223,0.08749 0.05927,0.04798 0.09313,0.11289 0.03105,0.06773 0.04233,0.155222 0.01129,0.08467 0.01129,0.194734 0,0.127001 -0.0254,0.237067 -0.0254,0.107245 -0.08185,0.183445 -0.05927,0.07902 -0.155223,0.124179 -0.09596,0.04515 -0.234245,0.04515 -0.104422,0 -0.194734,-0.03669 -0.09031,-0.03669 -0.155222,-0.1016 -0.06491,-0.06491 -0.104423,-0.149578 -0.03669,-0.08749 -0.03669,-0.18909 v -0.107244 h 0.287868 v 0.09031 q 0,0.07902 0.04516,0.143934 0.04798,0.06209 0.158045,0.06209 0.07338,0 0.112889,-0.01976 0.04233,-0.02258 0.06491,-0.06209 0.02258,-0.03951 0.0254,-0.09313 0.0056,-0.05645 0.0056,-0.124179 0,-0.07902 -0.0056,-0.129822 -0.0056,-0.0508 -0.02258,-0.08185 -0.01976,-0.03104 -0.05362,-0.0508 -0.03105,-0.01976 -0.08467,-0.04233 l -0.206023,-0.08467 q -0.186267,-0.0762 -0.251179,-0.200379 -0.06209,-0.127 -0.06209,-0.316089 0,-0.11289 0.03105,-0.21449 0.03104,-0.1016 0.09313,-0.174978 0.05927,-0.07338 0.149579,-0.115712 0.09313,-0.04516 0.220134,-0.04516 0.107244,0 0.194733,0.03951 0.09031,0.03951 0.155223,0.104422 0.129823,0.135467 0.129823,0.310446 z m 0.403579,1.430871 V 62.08474 h -0.333023 v -0.270934 h 0.953914 v 0.270934 h -0.333023 v 1.738494 z m 1.016005,0 v -0.849491 l -0.395112,-1.159937 h 0.304801 l 0.231422,0.798691 h 0.0056 l 0.2314227,-0.798691 h 0.304801 l -0.395113,1.159937 v 0.849491 z m 0.8269144,0 v -2.009428 h 0.287867 v 1.72156 h 0.5700907 v 0.287868 z m 1.0442264,0 V 61.813806 H 9.3886746 V 62.08474 H 8.8185849 v 0.589846 H 9.3152966 V 62.94552 H 8.8185849 v 0.589846 h 0.5700897 v 0.287868 z"
       id="text16-9"
       style="font-size:2.82223px;line-height:1.25;font-family:'DIN Condensed';-inkscape-font-specification:'DIN Condensed, ';text-align:center;text-anchor:middle;fill:#333333;stroke-width:0.264583"
       aria-label="STYLE" /><path
       d="m 9.6461203,70.80844 v -1.507069 h 0.315384 q 0.1037167,0 0.1756837,0.03175 0.07408,0.03175 0.12065,0.08467 0.04657,0.05292 0.06562,0.122767 0.02117,0.06773 0.02117,0.141817 v 0.05503 q 0,0.06138 -0.01058,0.103717 -0.0085,0.04233 -0.02752,0.07408 -0.03598,0.05927 -0.110067,0.1016 0.0762,0.03598 0.112184,0.105833 0.03598,0.06985 0.03598,0.190501 v 0.08467 q 0,0.198966 -0.09737,0.3048 -0.09525,0.105833 -0.3069177,0.105833 z m 0.215901,-0.698501 v 0.482601 h 0.09313 q 0.06562,0 0.1015997,-0.01905 0.0381,-0.01905 0.05715,-0.05292 0.01905,-0.03387 0.02328,-0.08043 0.0042,-0.04657 0.0042,-0.1016 0,-0.05715 -0.0064,-0.09948 -0.0064,-0.04233 -0.0254,-0.07197 -0.02117,-0.02963 -0.05715,-0.04233 -0.03598,-0.01482 -0.09525,-0.01482 z m 0,-0.605367 v 0.414867 h 0.09737 q 0.1079507,0 0.1439337,-0.05292 0.0381,-0.05503 0.0381,-0.15875 0,-0.1016 -0.04233,-0.1524 -0.04022,-0.0508 -0.1481667,-0.0508 z m 1.0964377,0.776818 -0.105834,-0.546101 h -0.0042 l -0.105834,0.546101 z m -0.533401,0.52705 0.33655,-1.507069 h 0.179917 l 0.336551,1.507069 h -0.2159 l -0.0635,-0.32385 h -0.294217 l -0.0635,0.32385 z m 1.174751,-1.303868 v 0.469901 h 0.122767 q 0.05715,0 0.09102,-0.01482 0.03387,-0.01693 0.05292,-0.04657 0.01693,-0.02963 0.02328,-0.07197 0.0064,-0.04445 0.0064,-0.1016 0,-0.05715 -0.0064,-0.09948 -0.0064,-0.04445 -0.0254,-0.0762 -0.04022,-0.05927 -0.152401,-0.05927 z m -0.215901,1.303868 v -1.507069 h 0.347134 q 0.381001,0 0.381001,0.442385 0,0.13335 -0.04233,0.226483 -0.04022,0.09313 -0.143934,0.150284 l 0.232834,0.687917 h -0.228601 l -0.201083,-0.643467 h -0.129117 v 0.643467 z"
       id="text17-5-1"
       style="font-size:2.11667px;line-height:1.25;font-family:'DIN Condensed';-inkscape-font-specification:'DIN Condensed, ';text-align:center;text-anchor:middle;fill:#333333;stroke-width:0.264583"
       aria-label="BAR" /><path
       d="m 9.6461203,66.074193 q 0,-0.09102 0.03175,-0.160867 0.03175,-0.06985 0.08467,-0.116417 0.0508,-0.04445 0.1143,-0.06773 0.06562,-0.02328 0.1312327,-0.02328 0.06562,0 0.129117,0.02328 0.06562,0.02328 0.118534,0.06773 0.0508,0.04657 0.08255,0.116417 0.03175,0.06985 0.03175,0.160867 v 0.795868 q 0,0.09525 -0.03175,0.162984 -0.03175,0.06773 -0.08255,0.112183 -0.05292,0.04657 -0.118534,0.06985 -0.0635,0.02328 -0.129117,0.02328 -0.06562,0 -0.1312327,-0.02328 -0.0635,-0.02328 -0.1143,-0.06985 -0.05292,-0.04445 -0.08467,-0.112183 -0.03175,-0.06773 -0.03175,-0.162984 z m 0.2159,0.795868 q 0,0.07832 0.04233,0.116417 0.04445,0.03598 0.1037157,0.03598 0.05927,0 0.101601,-0.03598 0.04445,-0.0381 0.04445,-0.116417 v -0.795868 q 0,-0.07832 -0.04445,-0.1143 -0.04233,-0.0381 -0.101601,-0.0381 -0.05927,0 -0.1037157,0.0381 -0.04233,0.03598 -0.04233,0.1143 z m 0.6985027,0.355601 v -1.507069 h 0.32385 q 0.0889,0 0.156634,0.02328 0.06773,0.02328 0.122766,0.08255 0.05503,0.05927 0.0762,0.1397 0.02117,0.07832 0.02117,0.213784 0,0.1016 -0.0127,0.17145 -0.01058,0.06985 -0.04868,0.131234 -0.04445,0.07408 -0.118534,0.116417 -0.07408,0.04022 -0.194733,0.04022 h -0.110067 v 0.588435 z m 0.2159,-1.303869 v 0.512234 h 0.103717 q 0.06562,0 0.1016,-0.01905 0.03598,-0.01905 0.05292,-0.05292 0.01693,-0.03175 0.01905,-0.07832 0.0042,-0.04657 0.0042,-0.103716 0,-0.05292 -0.0021,-0.09948 -0.0021,-0.04868 -0.01905,-0.08467 -0.01693,-0.03598 -0.0508,-0.05503 -0.03387,-0.01905 -0.09737,-0.01905 z m 0.645583,1.303869 v -1.507069 h 0.643468 v 0.2032 h -0.427567 v 0.442384 h 0.372534 v 0.2032 h -0.372534 v 0.442384 h 0.427567 v 0.215901 z m 0.774703,0 v -1.507069 h 0.207434 l 0.325967,0.908051 h 0.0042 v -0.908051 h 0.215901 v 1.507069 H 12.74701 l -0.3302,-0.905935 h -0.0042 v 0.905935 z"
       id="text17-1-5"
       style="font-size:2.11667px;line-height:1.25;font-family:'DIN Condensed';-inkscape-font-specification:'DIN Condensed, ';text-align:center;text-anchor:middle;fill:#333333;stroke-width:0.264583"
       aria-label="OPEN" /><path
       d="m 18.265919,63.823227 v -2.009428 h 0.276579 l 0.369712,1.063981 h 0.0056 l 0.366889,-1.063981 H 19.5641 v 2.009428 h -0.287867 v -1.222025 h -0.0056 l -0.285045,0.863602 h -0.143934 l -0.282223,-0.863602 h -0.0056 v 1.222025 z m 2.500496,-2.009428 v 1.557871 q 0,0.09878 -0.03669,0.183445 -0.03387,0.08185 -0.09878,0.146756 -0.06491,0.06491 -0.149579,0.101601 -0.08467,0.03669 -0.180622,0.03669 -0.09596,0 -0.180623,-0.03669 -0.08185,-0.03669 -0.146756,-0.101601 -0.06491,-0.06491 -0.1016,-0.146756 -0.03669,-0.08467 -0.03669,-0.183445 v -1.557871 h 0.287867 v 1.529649 q 0,0.107245 0.0508,0.158045 0.0508,0.0508 0.127001,0.0508 0.0762,0 0.127,-0.0508 0.0508,-0.0508 0.0508,-0.158045 v -1.529649 z m 0.460025,2.009428 v -1.738494 h -0.333023 v -0.270934 h 0.953913 v 0.270934 h -0.333023 v 1.738494 z m 0.747893,0 v -2.009428 h 0.857958 v 0.270934 H 22.2622 v 0.589847 h 0.496713 v 0.270934 H 22.2622 v 0.589846 h 0.570091 v 0.287867 z m 1.975563,-1.43087 h -0.287867 v -0.06491 q 0,-0.09878 -0.04798,-0.169334 -0.04516,-0.07338 -0.155223,-0.07338 -0.05927,0 -0.09596,0.02258 -0.03669,0.02258 -0.05927,0.05645 -0.02258,0.03669 -0.03104,0.08467 -0.0085,0.04516 -0.0085,0.09596 0,0.05927 0.0028,0.09878 0.0056,0.03951 0.02258,0.07055 0.01693,0.03105 0.04798,0.05362 0.03387,0.02258 0.09031,0.04516 l 0.220134,0.08749 q 0.09596,0.03669 0.155223,0.08749 0.05927,0.04798 0.09313,0.112889 0.03104,0.06773 0.04233,0.155223 0.01129,0.08467 0.01129,0.194734 0,0.127 -0.0254,0.237067 -0.0254,0.107245 -0.08185,0.183445 -0.05927,0.07902 -0.155222,0.124178 -0.09596,0.04516 -0.234245,0.04516 -0.104423,0 -0.194734,-0.03669 -0.09031,-0.03669 -0.155223,-0.101601 -0.06491,-0.06491 -0.104422,-0.149578 -0.03669,-0.08749 -0.03669,-0.189089 v -0.107262 h 0.287867 v 0.09031 q 0,0.07902 0.04516,0.143934 0.04798,0.06209 0.158045,0.06209 0.07338,0 0.112889,-0.01976 0.04233,-0.02258 0.06491,-0.06209 0.02258,-0.03951 0.0254,-0.09313 0.0056,-0.05644 0.0056,-0.124178 0,-0.07902 -0.0056,-0.129823 -0.0056,-0.0508 -0.02258,-0.08185 -0.01976,-0.03104 -0.05362,-0.0508 -0.03105,-0.01975 -0.08467,-0.04233 l -0.205954,-0.08466 q -0.186267,-0.0762 -0.251178,-0.200378 -0.06209,-0.127001 -0.06209,-0.31609 0,-0.112889 0.03104,-0.21449 0.03104,-0.1016 0.09313,-0.174978 0.05927,-0.07338 0.149578,-0.115711 0.09313,-0.04516 0.220134,-0.04516 0.107245,0 0.194734,0.03951 0.09031,0.03951 0.155222,0.104423 0.129823,0.135467 0.129823,0.310445 z"
       id="text16-0-5"
       style="font-size:2.82223px;line-height:1.25;font-family:'DIN Condensed';-inkscape-font-specification:'DIN Condensed, ';text-align:center;text-anchor:middle;fill:#333333;stroke-width:0.264583"
       aria-label="MUTES" /><path
       d="m 23.93362,67.219312 v -1.507069 h 0.207433 l 0.277284,0.797983 h 0.0042 l 0.275168,-0.797983 h 0.20955 v 1.507069 h -0.2159 v -0.916518 h -0.0042 l -0.213783,0.6477 h -0.107951 l -0.211667,-0.6477 h -0.0042 v 0.916518 z m 1.875369,-1.507069 v 1.168401 q 0,0.07408 -0.02752,0.137583 -0.0254,0.06138 -0.07408,0.110068 -0.04868,0.04868 -0.112184,0.0762 -0.0635,0.02752 -0.135467,0.02752 -0.07197,0 -0.135467,-0.02752 -0.06138,-0.02752 -0.110067,-0.0762 -0.04868,-0.04868 -0.0762,-0.110068 -0.02752,-0.0635 -0.02752,-0.137583 v -1.168401 h 0.2159 v 1.147234 q 0,0.08043 0.0381,0.118534 0.0381,0.0381 0.09525,0.0381 0.05715,0 0.09525,-0.0381 0.0381,-0.0381 0.0381,-0.118534 v -1.147234 z m 0.345018,1.507069 v -1.30387 H 25.90424 v -0.203199 h 0.715435 v 0.203199 h -0.249767 v 1.30387 z m 0.560919,0 v -1.507069 h 0.643468 v 0.203199 h -0.427567 v 0.442384 h 0.372533 v 0.203201 h -0.372533 v 0.442385 h 0.427567 v 0.2159 z m 0.78317,0 v -1.507069 h 0.319617 q 0.186267,0 0.281517,0.101599 0.09737,0.101601 0.09737,0.287868 v 0.704851 q 0,0.211667 -0.103717,0.313267 -0.1016,0.09948 -0.294217,0.09948 z m 0.2159,-1.30387 v 1.100669 h 0.09948 q 0.09102,0 0.129117,-0.04445 0.0381,-0.04657 0.0381,-0.143934 V 66.10171 q 0,-0.0889 -0.03598,-0.137584 -0.03598,-0.04868 -0.131233,-0.04868 z"
       id="text17-2-4"
       style="font-size:2.11667px;line-height:1.25;font-family:'DIN Condensed';-inkscape-font-specification:'DIN Condensed, ';text-align:center;text-anchor:middle;fill:#333333;stroke-width:0.264583"
       aria-label="MUTED" /><path
       d="m 23.93362,69.656969 q 0,-0.09102 0.03175,-0.160867 0.03175,-0.06985 0.08467,-0.116416 0.0508,-0.04445 0.1143,-0.06773 0.06562,-0.02328 0.131233,-0.02328 0.06562,0 0.129117,0.02328 0.06562,0.02328 0.118534,0.06773 0.0508,0.04657 0.08255,0.116416 0.03175,0.06985 0.03175,0.160867 v 0.795868 q 0,0.09525 -0.03175,0.162984 -0.03175,0.06773 -0.08255,0.112183 -0.05292,0.04657 -0.118534,0.06985 -0.0635,0.02328 -0.129117,0.02328 -0.06562,0 -0.131233,-0.02328 -0.0635,-0.02328 -0.1143,-0.06985 -0.05292,-0.04445 -0.08467,-0.112183 -0.03175,-0.06773 -0.03175,-0.162984 z m 0.2159,0.795868 q 0,0.07832 0.04233,0.116417 0.04445,0.03598 0.103716,0.03598 0.05927,0 0.101601,-0.03598 0.04445,-0.0381 0.04445,-0.116417 v -0.795868 q 0,-0.07832 -0.04445,-0.1143 -0.04233,-0.0381 -0.101601,-0.0381 -0.05927,0 -0.103716,0.0381 -0.04233,0.03598 -0.04233,0.1143 z m 0.698503,0.355601 v -1.507069 h 0.32385 q 0.0889,0 0.156634,0.02328 0.06773,0.02328 0.122766,0.08255 0.05503,0.05927 0.0762,0.139701 0.02117,0.07832 0.02117,0.213783 0,0.1016 -0.0127,0.17145 -0.01058,0.06985 -0.04868,0.131234 -0.04445,0.07408 -0.118534,0.116417 -0.07408,0.04022 -0.194733,0.04022 h -0.110067 v 0.588434 z m 0.2159,-1.303869 v 0.512234 h 0.103717 q 0.06562,0 0.1016,-0.01905 0.03598,-0.01905 0.05292,-0.05292 0.01693,-0.03175 0.01905,-0.07832 0.0042,-0.04657 0.0042,-0.103717 0,-0.05292 -0.0021,-0.09948 -0.0021,-0.04868 -0.01905,-0.08467 -0.01693,-0.03598 -0.0508,-0.05503 -0.03387,-0.01905 -0.09737,-0.01905 z m 0.645583,1.303869 v -1.507069 h 0.643468 v 0.2032 h -0.427567 v 0.442384 h 0.372534 v 0.2032 h -0.372534 v 0.442385 h 0.427567 v 0.2159 z m 0.774703,0 v -1.507069 h 0.207434 l 0.325967,0.908051 h 0.0042 v -0.908051 h 0.215901 v 1.507069 H 27.03451 l -0.3302,-0.905935 h -0.0042 v 0.905935 z"
       id="text17-1-0-3"
       style="font-size:2.11667px;line-height:1.25;font-family:'DIN Condensed';-inkscape-font-specification:'DIN Condensed, ';text-align:center;text-anchor:middle;fill:#333333;stroke-width:0.264583"
       aria-label="OPEN" /><rect
       style="fill:#ff6600;stroke:none;stroke-width:0.999997;stroke-linejoin:round;stroke-dasharray:none"
       id="rect7-6-8"
       width="17.97559"
       height="28.577"
       x="6.2522049"
       y="89.921494"
       ry="1.1935531" /><rect
       style="fill:#ececec;stroke-width:1;stroke-linejoin:round"
       id="rect1-0-8"
       width="15.824839"
       height="23.570999"
       x="7.32758"
       y="93.860489"
       ry="0.72435015" /><path
       d="m 9.2625297,93.430209 v -3.014131 h 0.6476994 q 0.1777999,0 0.3132669,0.04657 0.135466,0.04657 0.245533,0.1651 0.110066,0.118533 0.1524,0.2794 0.04233,0.156633 0.04233,0.427566 0,0.2032 -0.0254,0.3429 -0.02117,0.1397 -0.09737,0.262466 -0.0889,0.148167 -0.237066,0.232833 -0.148167,0.08043 -0.3894665,0.08043 H 9.6943293 v 1.176866 z m 0.4317996,-2.607731 v 1.024466 h 0.2074332 q 0.1312335,0 0.2031995,-0.0381 0.07197,-0.0381 0.105834,-0.105833 0.03387,-0.0635 0.0381,-0.156634 0.0085,-0.09313 0.0085,-0.207433 0,-0.105833 -0.0042,-0.198966 -0.0042,-0.09737 -0.0381,-0.169333 -0.03387,-0.07197 -0.1016,-0.110067 -0.06773,-0.0381 -0.1947332,-0.0381 z m 1.2657637,0.3048 q 0,-0.182033 0.0635,-0.321733 0.0635,-0.1397 0.169333,-0.232833 0.1016,-0.0889 0.2286,-0.135467 0.131233,-0.04657 0.262467,-0.04657 0.131233,0 0.258233,0.04657 0.131233,0.04657 0.237066,0.135467 0.1016,0.09313 0.1651,0.232833 0.0635,0.1397 0.0635,0.321733 v 1.591732 q 0,0.1905 -0.0635,0.325966 -0.0635,0.135467 -0.1651,0.224367 -0.105833,0.09313 -0.237066,0.1397 -0.127,0.04657 -0.258233,0.04657 -0.131234,0 -0.262467,-0.04657 -0.127,-0.04657 -0.2286,-0.1397 -0.105833,-0.0889 -0.169333,-0.224367 -0.0635,-0.135466 -0.0635,-0.325966 z m 0.4318,1.591732 q 0,0.156633 0.08467,0.232833 0.0889,0.07197 0.207434,0.07197 0.118533,0 0.203199,-0.07197 0.0889,-0.0762 0.0889,-0.232833 v -1.591732 q 0,-0.156633 -0.0889,-0.2286 -0.08467,-0.0762 -0.203199,-0.0762 -0.118534,0 -0.207434,0.0762 -0.08467,0.07197 -0.08467,0.2286 z m 1.397001,0.711199 v -3.014131 h 0.4318 v 2.582332 h 0.855132 v 0.431799 z m 1.57904,0 v -1.274232 l -0.592667,-1.739899 h 0.4572 l 0.347133,1.198033 h 0.0085 l 0.3471,-1.198033 h 0.457199 l -0.592666,1.739899 v 1.274232 z m 2.00237,-2.302931 q 0,-0.182033 0.0635,-0.321733 0.0635,-0.1397 0.169333,-0.232833 0.1016,-0.0889 0.2286,-0.135467 0.131233,-0.04657 0.262467,-0.04657 0.131233,0 0.258233,0.04657 0.131233,0.04657 0.237066,0.135467 0.1016,0.09313 0.1651,0.232833 0.0635,0.1397 0.0635,0.321733 v 1.591732 q 0,0.1905 -0.0635,0.325966 -0.0635,0.135467 -0.1651,0.224367 -0.105833,0.09313 -0.237066,0.1397 -0.127,0.04657 -0.258233,0.04657 -0.131234,0 -0.262467,-0.04657 -0.127,-0.04657 -0.2286,-0.1397 -0.105833,-0.0889 -0.169333,-0.224367 -0.0635,-0.135466 -0.0635,-0.325966 z m 0.4318,1.591732 q 0,0.156633 0.08467,0.232833 0.0889,0.07197 0.207434,0.07197 0.118533,0 0.203199,-0.07197 0.0889,-0.0762 0.0889,-0.232833 v -1.591732 q 0,-0.156633 -0.0889,-0.2286 -0.08467,-0.0762 -0.203199,-0.0762 -0.118534,0 -0.207434,0.0762 -0.08467,0.07197 -0.08467,0.2286 z m 2.794,-2.302932 v 2.336798 q 0,0.148167 -0.05503,0.275167 -0.0508,0.122766 -0.148166,0.220133 -0.09737,0.09737 -0.224367,0.1524 -0.127,0.05503 -0.270933,0.05503 -0.143933,0 -0.270933,-0.05503 -0.122767,-0.05503 -0.220133,-0.1524 -0.09737,-0.09737 -0.1524,-0.220133 -0.05503,-0.127 -0.05503,-0.275167 v -2.336798 h 0.431799 v 2.294465 q 0,0.160867 0.0762,0.237067 0.0762,0.0762 0.1905,0.0762 0.1143,0 0.1905,-0.0762 0.0762,-0.0762 0.0762,-0.237067 v -2.294465 z m 0.690036,3.014131 v -2.607731 h -0.499533 v -0.4064 h 1.430865 v 0.4064 h -0.499533 v 2.607731 z"
       id="text7"
       style="font-size:4.23333px;line-height:1.25;font-family:'DIN Condensed';-inkscape-font-specification:'DIN Condensed, ';text-align:center;text-anchor:middle;fill:#ececec;stroke-width:0.264583"
       aria-label="POLY OUT" /><path
       d="m 15.030451,98.021351 v 0.186267 q 0,0.1397 -0.05503,0.2667 -0.0508,0.122766 -0.143933,0.220133 -0.09313,0.09737 -0.220133,0.156633 -0.122766,0.05503 -0.2667,0.05503 -0.122766,0 -0.249766,-0.03387 -0.127,-0.03387 -0.2286,-0.118534 -0.1016,-0.08467 -0.169333,-0.215899 -0.0635,-0.135467 -0.0635,-0.3429 v -1.659465 q 0,-0.148167 0.0508,-0.275167 0.0508,-0.127 0.143933,-0.220133 0.09313,-0.09313 0.220133,-0.143933 0.131233,-0.05503 0.287867,-0.05503 0.304799,0 0.495299,0.198966 0.09313,0.09737 0.143933,0.232833 0.05503,0.131233 0.05503,0.287867 v 0.169333 h -0.4318 v -0.143933 q 0,-0.127 -0.07197,-0.220134 -0.07197,-0.09313 -0.194734,-0.09313 -0.160866,0 -0.215899,0.1016 -0.0508,0.09737 -0.0508,0.249767 v 1.540932 q 0,0.131233 0.05503,0.220133 0.05927,0.0889 0.207433,0.0889 0.04233,0 0.0889,-0.0127 0.0508,-0.01693 0.09313,-0.0508 0.0381,-0.03387 0.0635,-0.09313 0.0254,-0.05927 0.0254,-0.148166 v -0.148167 z m 1.816096,-2.154765 -0.618066,3.014131 h -0.380999 l -0.613833,-3.014131 h 0.457199 l 0.3429,2.103965 h 0.0085 l 0.347133,-2.103965 z"
       id="text8"
       style="font-size:4.23333px;line-height:1.25;font-family:'DIN Condensed';-inkscape-font-specification:'DIN Condensed, ';text-align:center;text-anchor:middle;fill:#333333;stroke-width:0.264583"
       aria-label="CV" /><g
       id="text9"
       style="font-size:3.52778px;line-height:1.15;font-family:'DIN Condensed';-inkscape-font-specification:'DIN Condensed, ';text-align:center;text-anchor:middle;fill:#333333;stroke-width:0.264583"
       aria-label="NOTES 1-6&#10;MUTES 7-12"><path
         d="m 9.5761424,112.13248 v -2.51178 h 0.3457225 l 0.5432781,1.51342 h 0.0071 v -1.51342 h 0.359833 v 2.51178 h -0.338667 l -0.5503334,-1.50989 h -0.00706 v 1.50989 z m 1.5592796,-1.91912 q 0,-0.15169 0.05292,-0.26811 0.05292,-0.11641 0.141111,-0.19402 0.08467,-0.0741 0.1905,-0.11289 0.109361,-0.0388 0.218722,-0.0388 0.109362,0 0.215195,0.0388 0.109361,0.0388 0.197556,0.11289 0.08467,0.0776 0.137583,0.19402 0.05292,0.11642 0.05292,0.26811 v 1.32645 q 0,0.15875 -0.05292,0.27164 -0.05292,0.11289 -0.137583,0.18697 -0.08819,0.0776 -0.197556,0.11642 -0.105833,0.0388 -0.215195,0.0388 -0.109361,0 -0.218722,-0.0388 -0.105833,-0.0388 -0.1905,-0.11642 -0.08819,-0.0741 -0.141111,-0.18697 -0.05292,-0.11289 -0.05292,-0.27164 z m 0.359834,1.32645 q 0,0.13053 0.07056,0.19403 0.07408,0.06 0.172861,0.06 0.09878,0 0.169334,-0.06 0.07408,-0.0635 0.07408,-0.19403 v -1.32645 q 0,-0.13052 -0.07408,-0.1905 -0.07056,-0.0635 -0.169334,-0.0635 -0.09878,0 -0.172861,0.0635 -0.07056,0.06 -0.07056,0.1905 z m 1.3582,0.59267 v -2.17312 h -0.416278 v -0.33866 h 1.19239 v 0.33866 H 13.21329 v 2.17312 z m 0.934864,0 v -2.51178 h 1.072445 v 0.33866 h -0.712611 v 0.73731 h 0.620889 v 0.33867 h -0.620889 v 0.7373 h 0.712611 v 0.35984 z m 2.469449,-1.78859 h -0.359833 v -0.0811 q 0,-0.12347 -0.05997,-0.21166 -0.05645,-0.0917 -0.194028,-0.0917 -0.07408,0 -0.119945,0.0282 -0.04586,0.0282 -0.07408,0.0705 -0.02822,0.0459 -0.03881,0.10584 -0.01058,0.0564 -0.01058,0.11994 0,0.0741 0.0035,0.12347 0.0071,0.0494 0.02822,0.0882 0.02117,0.0388 0.05997,0.067 0.04233,0.0282 0.112889,0.0564 l 0.275167,0.10936 q 0.119944,0.0459 0.194028,0.10936 0.07408,0.06 0.116417,0.14111 0.0388,0.0847 0.05292,0.19403 0.01411,0.10583 0.01411,0.24342 0,0.15875 -0.03175,0.29633 -0.03175,0.13406 -0.102305,0.22931 -0.07408,0.0988 -0.194028,0.15522 -0.119945,0.0564 -0.292806,0.0564 -0.130528,0 -0.243417,-0.0459 -0.112889,-0.0459 -0.194028,-0.127 -0.08114,-0.0811 -0.130528,-0.18697 -0.04586,-0.10936 -0.04586,-0.23636 v -0.13406 h 0.359834 v 0.11289 q 0,0.0988 0.05644,0.17992 0.05997,0.0776 0.197556,0.0776 0.09172,0 0.141111,-0.0247 0.05292,-0.0282 0.08114,-0.0776 0.02822,-0.0494 0.03175,-0.11641 0.0071,-0.0706 0.0071,-0.15522 0,-0.0988 -0.0071,-0.16228 -0.0071,-0.0635 -0.02822,-0.10231 -0.02469,-0.0388 -0.06703,-0.0635 -0.0388,-0.0247 -0.105833,-0.0529 l -0.257528,-0.10583 q -0.232834,-0.0953 -0.313973,-0.25047 -0.07761,-0.15875 -0.07761,-0.39511 0,-0.14111 0.03881,-0.26811 0.0388,-0.127 0.116417,-0.21873 0.07408,-0.0917 0.186972,-0.14463 0.116417,-0.0564 0.275167,-0.0564 0.134055,0 0.243417,0.0494 0.112889,0.0494 0.194027,0.13053 0.162278,0.16933 0.162278,0.38805 z m 1.301755,1.78859 v -2.13078 l -0.359834,0.26458 v -0.381 l 0.359834,-0.26458 h 0.359833 v 2.51178 z m 0.920749,-0.79728 v -0.35984 h 1.061862 v 0.35984 z m 2.278946,-1.7145 -0.409223,1.0548 0.0071,0.007 q 0.01764,-0.0141 0.05292,-0.0212 0.0388,-0.0106 0.09878,-0.0106 0.09525,0 0.176389,0.0459 0.08114,0.0459 0.127,0.11642 0.02469,0.0388 0.03881,0.0776 0.01411,0.0388 0.02469,0.1023 0.0071,0.0635 0.01058,0.16228 0.0035,0.0952 0.0035,0.24342 0,0.12347 -0.0035,0.20461 -0.0035,0.0776 -0.01058,0.13053 -0.01058,0.0564 -0.02822,0.0952 -0.01411,0.0388 -0.0388,0.0811 -0.07056,0.11641 -0.1905,0.17991 -0.116417,0.0635 -0.264584,0.0635 -0.148167,0 -0.264583,-0.0635 -0.116417,-0.067 -0.186973,-0.17991 -0.02822,-0.0423 -0.04586,-0.0811 -0.01411,-0.0388 -0.02117,-0.0952 -0.01058,-0.0529 -0.01411,-0.13053 -0.0035,-0.0811 -0.0035,-0.20461 0,-0.11642 0.0035,-0.1905 0.0035,-0.0776 0.01058,-0.13406 0.0071,-0.0529 0.02117,-0.0952 0.01411,-0.0459 0.03175,-0.0953 l 0.472723,-1.26294 z m -0.229306,1.52753 q 0,-0.0811 -0.05292,-0.13053 -0.05292,-0.0494 -0.123472,-0.0494 -0.07056,0 -0.123472,0.0494 -0.05292,0.0494 -0.05292,0.13053 v 0.46566 q 0,0.0811 0.05292,0.13053 0.05292,0.0494 0.123472,0.0494 0.07056,0 0.123472,-0.0494 0.05292,-0.0494 0.05292,-0.13053 z"
         id="path9"
         style="fill:#333333" /><path
         d="m 8.715367,116.18942 v -2.51178 h 0.3457224 l 0.4621392,1.32998 h 0.00706 L 9.9889,113.67764 h 0.34925 v 2.51178 H 9.9783122 v -1.52752 h -0.00706 l -0.3563058,1.0795 H 9.4350341 l -0.352778,-1.0795 h -0.00706 v 1.52752 z m 3.125612,-2.51178 v 1.94734 q 0,0.12347 -0.04586,0.2293 -0.04233,0.10231 -0.123472,0.18345 -0.08114,0.0811 -0.186973,0.127 -0.105833,0.0459 -0.225777,0.0459 -0.119945,0 -0.225778,-0.0459 -0.102306,-0.0459 -0.183445,-0.127 -0.08114,-0.0811 -0.127,-0.18345 -0.04586,-0.10583 -0.04586,-0.2293 v -1.94734 h 0.359833 v 1.91206 q 0,0.13406 0.0635,0.19756 0.0635,0.0635 0.158751,0.0635 0.09525,0 0.15875,-0.0635 0.0635,-0.0635 0.0635,-0.19756 v -1.91206 z m 0.57503,2.51178 v -2.17311 h -0.416278 v -0.33867 h 1.19239 v 0.33867 h -0.416278 v 2.17311 z m 0.934865,0 v -2.51178 h 1.072445 v 0.33867 h -0.712612 v 0.73731 h 0.620889 v 0.33866 h -0.620889 v 0.73731 h 0.712612 v 0.35983 z m 2.469449,-1.78858 h -0.359834 v -0.0811 q 0,-0.12347 -0.05997,-0.21167 -0.05645,-0.0917 -0.194028,-0.0917 -0.07408,0 -0.119945,0.0282 -0.04586,0.0282 -0.07408,0.0706 -0.02822,0.0459 -0.03881,0.10583 -0.01058,0.0564 -0.01058,0.11995 0,0.0741 0.0035,0.12347 0.0071,0.0494 0.02822,0.0882 0.02117,0.0388 0.05997,0.067 0.04233,0.0282 0.112889,0.0564 l 0.275167,0.10936 q 0.119945,0.0459 0.194028,0.10936 0.07408,0.06 0.116417,0.14111 0.0388,0.0847 0.05292,0.19403 0.01411,0.10583 0.01411,0.24341 0,0.15875 -0.03175,0.29634 -0.03175,0.13405 -0.102306,0.2293 -0.07408,0.0988 -0.194028,0.15523 -0.119944,0.0564 -0.292806,0.0564 -0.130527,0 -0.243416,-0.0459 -0.112889,-0.0459 -0.194028,-0.127 -0.08114,-0.0811 -0.130528,-0.18697 -0.04586,-0.10936 -0.04586,-0.23636 v -0.13406 h 0.359833 v 0.11289 q 0,0.0988 0.05645,0.17992 0.05997,0.0776 0.197555,0.0776 0.09172,0 0.141112,-0.0247 0.05292,-0.0282 0.08114,-0.0776 0.02822,-0.0494 0.03175,-0.11642 0.0071,-0.0705 0.0071,-0.15522 0,-0.0988 -0.0071,-0.16228 -0.0071,-0.0635 -0.02822,-0.1023 -0.02469,-0.0388 -0.06703,-0.0635 -0.0388,-0.0247 -0.105833,-0.0529 l -0.257528,-0.10583 q -0.232833,-0.0953 -0.313972,-0.25047 -0.07761,-0.15875 -0.07761,-0.39512 0,-0.14111 0.0388,-0.26811 0.03881,-0.127 0.116417,-0.21872 0.07408,-0.0917 0.186972,-0.14464 0.116417,-0.0564 0.275167,-0.0564 0.134056,0 0.243417,0.0494 0.112889,0.0494 0.194028,0.13052 0.162278,0.16934 0.162278,0.38806 z m 0.956032,1.78858 0.631472,-2.17311 h -0.395111 v 0.28928 h -0.3175 v -0.62795 h 1.072445 v 0.35984 l -0.610306,2.15194 z m 1.266472,-0.79727 v -0.35984 h 1.061861 v 0.35984 z m 1.763889,0.79727 v -2.13078 l -0.359833,0.26459 v -0.381 l 0.359833,-0.26459 h 0.359834 v 2.51178 z m 0.885473,0 v -0.33866 l 0.649111,-1.22414 q 0.04939,-0.0917 0.05645,-0.15875 0.0071,-0.0706 0.0071,-0.17286 0,-0.0459 -0.0035,-0.0953 0,-0.0529 -0.01764,-0.0917 -0.01764,-0.0388 -0.05292,-0.0635 -0.03528,-0.0282 -0.102306,-0.0282 -0.08114,0 -0.130527,0.0459 -0.04586,0.0459 -0.04586,0.13406 v 0.20461 h -0.359833 v -0.19756 q 0,-0.11289 0.04233,-0.21166 0.04233,-0.0988 0.116417,-0.17286 0.07056,-0.0741 0.169333,-0.11642 0.09878,-0.0459 0.211667,-0.0459 0.141111,0 0.239889,0.0529 0.102306,0.0494 0.169334,0.13759 0.0635,0.0882 0.09172,0.20108 0.03175,0.11289 0.03175,0.23989 0,0.0917 -0.0035,0.15522 -0.0035,0.06 -0.01411,0.11642 -0.01058,0.0564 -0.03528,0.11289 -0.02469,0.0564 -0.06703,0.13758 l -0.529167,1.01953 h 0.649112 v 0.35983 z"
         id="path10"
         style="fill:#333333" /></g></g></svg>
