<?xml version="1.0" encoding="UTF-8" standalone="no"?>
<svg
   sodipodi:docname="Chord4Roy-White.svg"
   inkscape:version="1.3.2 (091e20e, 2023-11-25)"
   id="svg8"
   version="1.1"
   viewBox="0 0 30.479999 128.5"
   height="128.5mm"
   width="30.48mm"
   xml:space="preserve"
   xmlns:inkscape="http://www.inkscape.org/namespaces/inkscape"
   xmlns:sodipodi="http://sodipodi.sourceforge.net/DTD/sodipodi-0.dtd"
   xmlns="http://www.w3.org/2000/svg"
   xmlns:svg="http://www.w3.org/2000/svg"
   xmlns:rdf="http://www.w3.org/1999/02/22-rdf-syntax-ns#"
   xmlns:cc="http://creativecommons.org/ns#"
   xmlns:dc="http://purl.org/dc/elements/1.1/"><defs
     id="defs2" /><sodipodi:namedview
     inkscape:window-maximized="0"
     inkscape:window-y="23"
     inkscape:window-x="0"
     inkscape:window-height="769"
     inkscape:window-width="1252"
     showgrid="false"
     inkscape:document-rotation="0"
     inkscape:current-layer="layer1"
     inkscape:document-units="mm"
     inkscape:cy="351.7374"
     inkscape:cx="70.955046"
     inkscape:zoom="2.3042759"
     inkscape:pageshadow="2"
     inkscape:pageopacity="0.0"
     borderopacity="1.0"
     bordercolor="#666666"
     pagecolor="#ffffff"
     id="base"
     inkscape:showpageshadow="2"
     inkscape:pagecheckerboard="0"
     inkscape:deskcolor="#d1d1d1"
     showguides="true"><sodipodi:guide
       position="-13.153348,135.69712"
       orientation="1,0"
       id="guide5"
       inkscape:locked="false" /><sodipodi:guide
       position="42.379222,141.53976"
       orientation="1,0"
       id="guide7"
       inkscape:locked="false" /><sodipodi:guide
       position="15.24,121.18112"
       orientation="1,0"
       id="guide17"
       inkscape:locked="false" /></sodipodi:namedview><metadata
     id="metadata5"><rdf:RDF><cc:Work
         rdf:about=""><dc:format>image/svg+xml</dc:format><dc:type
           rdf:resource="http://purl.org/dc/dcmitype/StillImage" /></cc:Work></rdf:RDF></metadata><g
     id="layer1"
     inkscape:groupmode="layer"
     inkscape:label="Layer 1"><rect
       style="fill:#ececec;fill-opacity:1;stroke:none;stroke-width:0.499994;stroke-linecap:round;stroke-miterlimit:4;stroke-dasharray:none;stop-color:#000000"
       id="rect1015"
       width="30.48"
       height="128.5"
       x="0"
       y="-3.541667e-07" /><path
       d="m 9.1406764,127.14313 v -0.22003 h -0.0085 q -0.08463,0.11848 -0.173481,0.18195 -0.08462,0.0635 -0.241181,0.0635 -0.07616,0 -0.156555,-0.0254 -0.07616,-0.0212 -0.148094,-0.0846 -0.07193,-0.0592 -0.118475,-0.16925 -0.04231,-0.11424 -0.04231,-0.29195 0,-0.18195 0.02962,-0.31735 0.02962,-0.13963 0.110012,-0.23271 0.07616,-0.0889 0.207331,-0.13117 0.131168,-0.0466 0.334268,-0.0466 0.02116,0 0.04654,0 0.02539,0 0.04654,0.004 0.02116,0.004 0.05077,0.004 0.02962,0 0.06347,0.004 v -0.22426 q 0,-0.11001 -0.04654,-0.18194 -0.04654,-0.0719 -0.16925,-0.0719 -0.08463,0 -0.156556,0.055 -0.0677,0.055 -0.08886,0.16079 h -0.418893 q 0.01693,-0.28772 0.194638,-0.46544 0.08462,-0.0846 0.203099,-0.13116 0.118475,-0.0508 0.266568,-0.0508 0.1354,0 0.253875,0.0423 0.118474,0.0423 0.20733,0.12694 0.08462,0.0846 0.1354,0.21156 0.05078,0.12694 0.05078,0.29619 v 1.49363 z m 0,-0.92241 q -0.07193,-0.0127 -0.118474,-0.0127 -0.139631,0 -0.241181,0.0677 -0.09732,0.0635 -0.09732,0.23695 0,0.12271 0.05924,0.19887 0.05924,0.0762 0.165018,0.0762 0.110012,0 0.16925,-0.0719 0.06347,-0.0719 0.06347,-0.2031 z m 1.2059066,0.30465 q 0,0.10155 0.05501,0.15655 0.05924,0.055 0.156556,0.055 0.122706,0 0.160787,-0.0719 0.04231,-0.0719 0.05078,-0.14386 h 0.431587 q 0,0.28349 -0.173481,0.45697 -0.08462,0.0889 -0.2031,0.13963 -0.118474,0.0508 -0.266568,0.0508 -0.203099,0 -0.346961,-0.0846 -0.139631,-0.0846 -0.2157936,-0.22426 -0.04654,-0.0846 -0.06347,-0.19463 -0.01693,-0.11001 -0.01693,-0.24118 v -0.70662 q 0,-0.13117 0.01693,-0.24118 0.01693,-0.11001 0.06347,-0.19464 0.07616,-0.13963 0.2157936,-0.22425 0.143862,-0.0846 0.346961,-0.0846 0.148094,0 0.266568,0.0508 0.122706,0.0508 0.207331,0.13963 0.16925,0.1904 0.16925,0.49505 h -0.431596 q 0,-0.13117 -0.05924,-0.1904 -0.05501,-0.0635 -0.152325,-0.0635 -0.09732,0 -0.156556,0.0635 -0.05501,0.0592 -0.05501,0.18194 z m 1.133976,0.61776 v -3.01265 h 0.414662 l 0.554292,1.59518 h 0.0085 l 0.550062,-1.59518 h 0.418892 v 3.01265 H 12.995343 V 125.311 h -0.0085 l -0.427355,1.29476 H 12.343732 L 11.920608,125.311 h -0.0085 v 1.83213 z m 2.2891,-1.42593 q 0,-0.13117 0.01693,-0.24118 0.01692,-0.11001 0.06347,-0.19464 0.07616,-0.13963 0.215793,-0.22425 0.143862,-0.0846 0.346961,-0.0846 0.2031,0 0.342731,0.0846 0.143862,0.0846 0.220024,0.22425 0.04654,0.0846 0.06347,0.19464 0.01693,0.11001 0.01693,0.24118 v 0.70662 q 0,0.13117 -0.01693,0.24118 -0.01692,0.11001 -0.06347,0.19463 -0.07616,0.13964 -0.220024,0.22426 -0.139631,0.0846 -0.342731,0.0846 -0.203099,0 -0.346961,-0.0846 -0.139631,-0.0846 -0.215793,-0.22426 -0.04654,-0.0846 -0.06347,-0.19463 -0.01693,-0.11001 -0.01693,-0.24118 z m 0.431587,0.77432 q 0,0.1227 0.05501,0.18617 0.05924,0.0592 0.156555,0.0592 0.09732,0 0.152325,-0.0592 0.05924,-0.0635 0.05924,-0.18617 v -0.84202 q 0,-0.12271 -0.05924,-0.18194 -0.05501,-0.0635 -0.152325,-0.0635 -0.09732,0 -0.156555,0.0635 -0.05501,0.0592 -0.05501,0.18194 z m 1.603643,-0.0465 q 0,0.13117 0.05078,0.21156 0.05077,0.0804 0.160787,0.0804 0.09732,0 0.156556,-0.0719 0.05924,-0.0762 0.05924,-0.19464 v -0.83355 q 0,-0.10155 -0.06347,-0.16502 -0.05924,-0.0677 -0.152325,-0.0677 -0.122706,0 -0.16925,0.0762 -0.04231,0.0762 -0.04231,0.17771 z m 0.427355,0.69816 v -0.19464 q -0.04231,0.0465 -0.08039,0.0889 -0.03808,0.0381 -0.08463,0.0677 -0.04654,0.0296 -0.105781,0.0465 -0.05924,0.0169 -0.139631,0.0169 -0.270799,0 -0.37658,-0.20309 -0.03808,-0.0719 -0.05501,-0.17772 -0.01693,-0.10578 -0.01693,-0.28349 v -0.81663 q 0,-0.23272 0.01269,-0.34273 0.02539,-0.21156 0.198868,-0.31734 0.08039,-0.055 0.241181,-0.055 0.126937,0 0.224256,0.0592 0.10155,0.055 0.173481,0.16079 h 0.0085 v -1.06205 h 0.431587 v 3.01265 z m 2.077539,-2.14524 v 2.14524 h -0.431587 v -0.20733 h -0.0085 q -0.0677,0.10155 -0.165018,0.16925 -0.09309,0.0635 -0.241181,0.0635 -0.08039,0 -0.160787,-0.0254 -0.08039,-0.0296 -0.143862,-0.0931 -0.06347,-0.0635 -0.10155,-0.16079 -0.03808,-0.10155 -0.03808,-0.24541 v -1.64595 h 0.431586 v 1.48516 q 0,0.11848 0.05501,0.18618 0.05501,0.0677 0.156556,0.0677 0.122706,0 0.16925,-0.0762 0.04654,-0.0762 0.04654,-0.22003 v -1.44285 z m 0.330036,-0.86741 h 0.431586 v 2.40758 q 0,0.12271 0.04231,0.16925 0.04654,0.0423 0.16925,0.055 v 0.40619 q -0.148093,0 -0.266568,-0.0254 -0.118475,-0.0212 -0.2031,-0.0889 -0.08462,-0.0635 -0.131168,-0.17771 -0.04231,-0.11848 -0.04231,-0.30888 z m 2.060617,2.10293 h -0.854711 v 0.29196 q 0,0.10155 0.05501,0.15655 0.05924,0.055 0.156556,0.055 0.122706,0 0.160787,-0.0719 0.04231,-0.0719 0.05078,-0.14386 h 0.431587 q 0,0.28349 -0.173481,0.45697 -0.08463,0.0889 -0.2031,0.13963 -0.118474,0.0508 -0.266568,0.0508 -0.203099,0 -0.346961,-0.0846 -0.139631,-0.0846 -0.215794,-0.22426 -0.04654,-0.0846 -0.06347,-0.19463 -0.01693,-0.11001 -0.01693,-0.24118 v -0.70662 q 0,-0.13117 0.01693,-0.24118 0.01693,-0.11001 0.06347,-0.19464 0.07616,-0.13963 0.215794,-0.22425 0.143862,-0.0846 0.346961,-0.0846 0.148094,0 0.266568,0.0508 0.122706,0.0508 0.207331,0.13963 0.16925,0.1904 0.16925,0.47813 z m -0.854711,-0.3385 h 0.423124 v -0.24541 q 0,-0.12271 -0.05924,-0.18194 -0.05501,-0.0635 -0.152325,-0.0635 -0.09732,0 -0.156556,0.0635 -0.05501,0.0592 -0.05501,0.18194 z m 1.954837,-0.29619 q -0.0042,-0.11001 -0.07193,-0.16501 -0.06347,-0.055 -0.148093,-0.055 -0.10155,0 -0.156556,0.0677 -0.05501,0.0635 -0.05501,0.14809 0,0.0592 0.02962,0.11848 0.02962,0.055 0.152324,0.10155 l 0.253875,0.10155 q 0.24118,0.0931 0.330037,0.25387 0.09309,0.16079 0.09309,0.3512 0,0.13539 -0.05078,0.25387 -0.04654,0.11424 -0.131169,0.2031 -0.08462,0.0889 -0.203099,0.13963 -0.118475,0.0508 -0.258106,0.0508 -0.262337,0 -0.440049,-0.16501 -0.08886,-0.0804 -0.143862,-0.19887 -0.05501,-0.12271 -0.05924,-0.28349 h 0.406199 q 0.01269,0.0888 0.05924,0.16501 0.05077,0.0762 0.173481,0.0762 0.09309,0 0.165018,-0.0592 0.07616,-0.0635 0.07616,-0.17348 0,-0.0889 -0.04654,-0.15233 -0.04654,-0.0635 -0.169249,-0.11001 l -0.207331,-0.0762 q -0.2031,-0.0762 -0.321574,-0.22426 -0.114244,-0.15232 -0.114244,-0.36812 0,-0.13539 0.05078,-0.24964 0.05078,-0.11847 0.139631,-0.2031 0.08462,-0.0846 0.198868,-0.12693 0.114244,-0.0465 0.245412,-0.0465 0.131168,0 0.241181,0.0465 0.114243,0.0465 0.194637,0.13116 0.08039,0.0846 0.126937,0.2031 0.04654,0.11425 0.04654,0.24541 z"
       id="text1"
       style="font-size:4.23124px;line-height:1.25;font-family:'DIN Condensed';-inkscape-font-specification:'DIN Condensed, ';text-align:center;text-anchor:middle;fill:#333333;stroke-width:0.264583"
       aria-label="acModules" /><rect
       style="opacity:1;fill:#333333;stroke:none;stroke-width:1.1;stroke-linecap:round;stroke-linejoin:round"
       id="rect11"
       width="22"
       height="13"
       x="4.2399998"
       y="7.3188806" /><path
       style="font-size:4.26869px;line-height:1.25;font-family:'Square Sans Serif 7';-inkscape-font-specification:'Square Sans Serif 7, ';text-align:center;text-anchor:middle;stroke-width:0.264583"
       d="M 4.3482046,120.81949 H 2.0551928 v 1.4304 h 2.2930118 v 0.4768 H 1.673024 v -2.384 h 2.6751806 z m 0.7643346,1.9072 H 4.7303705 v -2.384 h 0.3821687 v 0.9536 h 1.9108432 v -0.9536 h 0.3821687 v 2.384 H 7.0233824 v -0.9536 H 5.1125392 Z m 2.6751777,-2.384 h 2.6751801 v 2.384 H 7.7877169 Z m 0.3821686,1.9072 h 1.9108435 v -1.4304 H 8.1698855 Z m 3.0573465,0.4768 h -0.382169 v -2.384 h 2.675181 v 1.4304 h -0.382169 l 0.382169,0.9536 h -0.42803 l -0.382168,-0.9536 h -1.482814 z m 0,-1.4304 h 1.910843 v -0.4768 h -1.910843 z m 2.675178,1.4304 v -2.384 h 2.293012 l 0.382168,0.4768 v 1.4304 l -0.382168,0.4768 z m 2.293012,-0.4768 v -1.4304 h -1.910844 v 1.4304 z"
       id="path1" /><path
       style="font-size:4.26869px;line-height:1.25;font-family:'Square Sans Serif 7';-inkscape-font-specification:'Square Sans Serif 7, ';text-align:center;text-anchor:middle;stroke-width:0.264583"
       d="m 20.39927,122.72669 h -0.382168 v -2.384 h 2.67518 v 1.4304 h -0.382168 l 0.382168,0.9536 h -0.428028 l -0.382169,-0.9536 H 20.39927 Z m 0,-1.4304 h 1.910844 v -0.4768 H 20.39927 Z m 2.675178,-0.9536 h 2.675182 v 2.384 h -2.675182 z m 0.382169,1.9072 h 1.910844 v -1.4304 h -1.910844 z m 2.675179,-1.9072 h 0.382168 v 0.9536 h 1.910843 v -0.9536 h 0.382169 v 2.384 h -2.67518 v -0.4768 h 2.293011 v -0.4768 h -2.293011 z"
       id="path3" /><path
       d="m 8.7333585,27.634418 v 0.939799 h 0.2455331 q 0.1142999,0 0.1820332,-0.02963 0.067733,-0.03387 0.1058332,-0.09313 0.033867,-0.05927 0.046567,-0.143933 0.0127,-0.0889 0.0127,-0.2032 0,-0.1143 -0.0127,-0.198967 -0.0127,-0.0889 -0.0508,-0.1524 -0.080433,-0.118533 -0.3047998,-0.118533 z m -0.4317997,2.607731 v -3.01413 h 0.6942661 q 0.7619994,0 0.7619994,0.884765 0,0.2667 -0.084667,0.452967 -0.080433,0.186266 -0.2878665,0.300566 l 0.4656663,1.375832 H 9.3937579 L 8.9915916,28.955217 H 8.7333585 v 1.286932 z M 10.07956,27.939218 q 0,-0.182033 0.0635,-0.321733 0.0635,-0.1397 0.169333,-0.232833 0.1016,-0.0889 0.2286,-0.135467 0.131233,-0.04657 0.262466,-0.04657 0.131233,0 0.258233,0.04657 0.131234,0.04657 0.237067,0.135467 0.1016,0.09313 0.1651,0.232833 0.0635,0.1397 0.0635,0.321733 v 1.591732 q 0,0.1905 -0.0635,0.325966 -0.0635,0.135467 -0.1651,0.224367 -0.105833,0.09313 -0.237067,0.1397 -0.127,0.04657 -0.258233,0.04657 -0.131233,0 -0.262466,-0.04657 -0.127,-0.04657 -0.2286,-0.1397 -0.105833,-0.0889 -0.169333,-0.224367 -0.0635,-0.135466 -0.0635,-0.325966 z m 0.431799,1.591732 q 0,0.156633 0.08467,0.232833 0.0889,0.07197 0.207433,0.07197 0.118533,0 0.2032,-0.07197 0.0889,-0.0762 0.0889,-0.232833 v -1.591732 q 0,-0.156633 -0.0889,-0.2286 -0.08467,-0.0762 -0.2032,-0.0762 -0.118533,0 -0.207433,0.0762 -0.08467,0.07197 -0.08467,0.2286 z m 1.371602,-1.591732 q 0,-0.182033 0.0635,-0.321733 0.0635,-0.1397 0.169333,-0.232833 0.1016,-0.0889 0.2286,-0.135467 0.131233,-0.04657 0.262466,-0.04657 0.131233,0 0.258233,0.04657 0.131234,0.04657 0.237067,0.135467 0.1016,0.09313 0.1651,0.232833 0.0635,0.1397 0.0635,0.321733 v 1.591732 q 0,0.1905 -0.0635,0.325966 -0.0635,0.135467 -0.1651,0.224367 -0.105833,0.09313 -0.237067,0.1397 -0.127,0.04657 -0.258233,0.04657 -0.131233,0 -0.262466,-0.04657 -0.127,-0.04657 -0.2286,-0.1397 -0.105833,-0.0889 -0.169333,-0.224367 -0.0635,-0.135466 -0.0635,-0.325966 z m 0.431799,1.591732 q 0,0.156633 0.08467,0.232833 0.0889,0.07197 0.207433,0.07197 0.118533,0 0.2032,-0.07197 0.0889,-0.0762 0.0889,-0.232833 v -1.591732 q 0,-0.156633 -0.0889,-0.2286 -0.08467,-0.0762 -0.2032,-0.0762 -0.118533,0 -0.207433,0.0762 -0.08467,0.07197 -0.08467,0.2286 z m 1.629838,0.711199 v -2.607731 h -0.499533 v -0.406399 h 1.430866 v 0.406399 h -0.499533 v 2.607731 z m 1.892306,0 v -3.01413 h 0.414866 l 0.651933,1.816098 h 0.0085 v -1.816098 h 0.4318 v 3.01413 h -0.4064 L 16.27717,28.430284 h -0.0085 v 1.811865 z m 1.871132,-2.302931 q 0,-0.182033 0.0635,-0.321733 0.0635,-0.1397 0.169333,-0.232833 0.1016,-0.0889 0.2286,-0.135467 0.131233,-0.04657 0.262466,-0.04657 0.131234,0 0.258233,0.04657 0.131234,0.04657 0.237067,0.135467 0.1016,0.09313 0.1651,0.232833 0.0635,0.1397 0.0635,0.321733 v 1.591732 q 0,0.1905 -0.0635,0.325966 -0.0635,0.135467 -0.1651,0.224367 -0.105833,0.09313 -0.237067,0.1397 -0.126999,0.04657 -0.258233,0.04657 -0.131233,0 -0.262466,-0.04657 -0.127,-0.04657 -0.2286,-0.1397 -0.105833,-0.0889 -0.169333,-0.224367 -0.0635,-0.135466 -0.0635,-0.325966 z m 0.4318,1.591732 q 0,0.156633 0.08467,0.232833 0.0889,0.07197 0.207433,0.07197 0.118534,0 0.2032,-0.07197 0.0889,-0.0762 0.0889,-0.232833 v -1.591732 q 0,-0.156633 -0.0889,-0.2286 -0.08467,-0.0762 -0.2032,-0.0762 -0.118533,0 -0.207433,0.0762 -0.08467,0.07197 -0.08467,0.2286 z m 1.629838,0.711199 v -2.607731 h -0.499532 v -0.406399 h 1.430865 v 0.406399 h -0.499533 v 2.607731 z m 1.121835,0 v -3.01413 h 1.286933 v 0.406399 h -0.855133 v 0.884766 h 0.745066 v 0.4064 h -0.745066 v 0.884766 h 0.855133 v 0.431799 z"
       id="text15"
       style="font-size:4.23333px;line-height:1.25;font-family:'DIN Condensed';-inkscape-font-specification:'DIN Condensed, ';text-align:center;text-anchor:middle;stroke-width:0.264583"
       aria-label="ROOT NOTE" /><path
       d="m 12.283017,45.257787 v 0.186267 q 0,0.1397 -0.05503,0.2667 -0.0508,0.122766 -0.143933,0.220133 -0.09313,0.09737 -0.220133,0.156633 -0.122767,0.05503 -0.2667,0.05503 -0.122767,0 -0.249767,-0.03387 -0.127,-0.03387 -0.2286,-0.118534 -0.101599,-0.08467 -0.169333,-0.2159 -0.0635,-0.135466 -0.0635,-0.342899 v -1.659466 q 0,-0.148166 0.0508,-0.275166 0.0508,-0.127 0.143934,-0.220133 0.09313,-0.09313 0.220133,-0.143933 0.131233,-0.05503 0.287866,-0.05503 0.3048,0 0.4953,0.198967 0.09313,0.09737 0.143933,0.232833 0.05503,0.131233 0.05503,0.287866 v 0.169334 h -0.431799 v -0.143934 q 0,-0.126999 -0.07197,-0.220133 -0.07197,-0.09313 -0.194733,-0.09313 -0.160867,0 -0.2159,0.1016 -0.0508,0.09737 -0.0508,0.249766 v 1.540932 q 0,0.131234 0.05503,0.220134 0.05927,0.0889 0.207433,0.0889 0.04233,0 0.0889,-0.0127 0.0508,-0.01693 0.09313,-0.0508 0.0381,-0.03387 0.0635,-0.09313 0.0254,-0.05927 0.0254,-0.148166 v -0.148167 z m 0.351365,0.859366 v -3.014131 h 0.431799 v 1.291166 h 0.5334 v -1.291166 h 0.4318 v 3.014131 h -0.4318 v -1.341965 h -0.5334 v 1.341965 z m 1.778001,-2.302931 q 0,-0.182033 0.0635,-0.321733 0.0635,-0.1397 0.169333,-0.232833 0.1016,-0.0889 0.2286,-0.135467 0.131233,-0.04657 0.262466,-0.04657 0.131233,0 0.258233,0.04657 0.131233,0.04657 0.237067,0.135467 0.1016,0.09313 0.165099,0.232833 0.0635,0.1397 0.0635,0.321733 v 1.591732 q 0,0.1905 -0.0635,0.325966 -0.0635,0.135467 -0.165099,0.224367 -0.105834,0.09313 -0.237067,0.1397 -0.127,0.04657 -0.258233,0.04657 -0.131233,0 -0.262466,-0.04657 -0.127,-0.04657 -0.2286,-0.1397 -0.105833,-0.0889 -0.169333,-0.224367 -0.0635,-0.135466 -0.0635,-0.325966 z m 0.431799,1.591732 q 0,0.156633 0.08467,0.232833 0.0889,0.07197 0.207433,0.07197 0.118533,0 0.2032,-0.07197 0.0889,-0.0762 0.0889,-0.232833 v -1.591732 q 0,-0.156633 -0.0889,-0.2286 -0.08467,-0.0762 -0.2032,-0.0762 -0.118533,0 -0.207433,0.0762 -0.08467,0.07197 -0.08467,0.2286 z m 1.828801,-1.896532 v 0.939799 h 0.245533 q 0.1143,0 0.182034,-0.02963 0.06773,-0.03387 0.105833,-0.09313 0.03387,-0.05927 0.04657,-0.143934 0.0127,-0.0889 0.0127,-0.203199 0,-0.1143 -0.0127,-0.198967 -0.0127,-0.0889 -0.0508,-0.1524 -0.08043,-0.118533 -0.304799,-0.118533 z m -0.431799,2.607731 v -3.014131 h 0.694266 q 0.761999,0 0.761999,0.884766 0,0.2667 -0.08467,0.452967 -0.08043,0.186266 -0.287866,0.300566 l 0.465666,1.375832 h -0.457199 l -0.402167,-1.286932 h -0.258233 v 1.286932 z m 1.803401,0 v -3.014131 h 0.639232 q 0.372533,0 0.563033,0.2032 0.194733,0.2032 0.194733,0.575733 v 1.409699 q 0,0.423333 -0.207433,0.626533 -0.2032,0.198966 -0.588433,0.198966 z m 0.431799,-2.607731 v 2.201332 h 0.198967 q 0.182033,0 0.258233,-0.0889 0.0762,-0.09313 0.0762,-0.287867 v -1.452032 q 0,-0.1778 -0.07197,-0.275166 -0.07197,-0.09737 -0.262466,-0.09737 z"
       id="text15-2"
       style="font-size:4.23333px;line-height:1.25;font-family:'DIN Condensed';-inkscape-font-specification:'DIN Condensed, ';text-align:center;text-anchor:middle;stroke-width:0.264583"
       aria-label="CHORD" /><path
       style="font-size:4.26869px;line-height:1.25;font-family:'Square Sans Serif 7';-inkscape-font-specification:'Square Sans Serif 7, ';text-align:center;text-anchor:middle;fill:#ff6600;stroke-width:0.264583"
       d="M 18.547257,120.34269 H 19.0308 l -1.058333,0.9536 h 1.280302 v -0.9536 h 0.382169 v 2.384 h -0.382169 v -0.9536 h -1.716736 l -0.256459,0.24076 -0.319817,-0.24076 z"
       id="path3-9"
       sodipodi:nodetypes="ccccccccccccc" /><path
       d="m 5.2399921,62.392363 h -0.287868 v -0.06491 q 0,-0.09878 -0.04798,-0.169334 -0.04515,-0.07338 -0.155222,-0.07338 -0.05927,0 -0.09596,0.02258 -0.03669,0.02258 -0.05927,0.05644 -0.02258,0.03669 -0.03104,0.08467 -0.0085,0.04516 -0.0085,0.09596 0,0.05927 0.0028,0.09878 0.0056,0.03951 0.02258,0.07056 0.01693,0.03104 0.04798,0.05362 0.03387,0.02258 0.09031,0.04516 l 0.220134,0.08749 q 0.09596,0.03669 0.155223,0.08749 0.05927,0.04798 0.09313,0.11289 0.03105,0.06773 0.04233,0.155222 0.01129,0.08467 0.01129,0.194734 0,0.127001 -0.0254,0.237067 -0.0254,0.107245 -0.08185,0.183445 -0.05927,0.07902 -0.155223,0.124179 -0.09596,0.04515 -0.234245,0.04515 -0.104422,0 -0.194734,-0.03669 -0.09031,-0.03669 -0.155222,-0.1016 -0.06491,-0.06491 -0.104423,-0.149578 -0.03669,-0.08749 -0.03669,-0.18909 v -0.107244 h 0.287868 v 0.09031 q 0,0.07902 0.04516,0.143934 0.04798,0.06209 0.158045,0.06209 0.07338,0 0.112889,-0.01976 0.04233,-0.02258 0.06491,-0.06209 0.02258,-0.03951 0.0254,-0.09313 0.0056,-0.05645 0.0056,-0.124179 0,-0.07902 -0.0056,-0.129822 -0.0056,-0.0508 -0.02258,-0.08185 -0.01976,-0.03104 -0.05362,-0.0508 -0.03105,-0.01976 -0.08467,-0.04233 l -0.206023,-0.08467 q -0.186267,-0.0762 -0.251179,-0.200379 -0.06209,-0.127 -0.06209,-0.316089 0,-0.11289 0.03105,-0.21449 0.03104,-0.1016 0.09313,-0.174978 0.05927,-0.07338 0.149579,-0.115712 0.09313,-0.04516 0.220134,-0.04516 0.107244,0 0.194733,0.03951 0.09031,0.03951 0.155223,0.104422 0.129823,0.135467 0.129823,0.310446 z m 0.403579,1.430871 V 62.08474 h -0.333023 v -0.270934 h 0.953914 v 0.270934 h -0.333023 v 1.738494 z m 1.016005,0 v -0.849491 l -0.395112,-1.159937 h 0.304801 l 0.231422,0.798691 h 0.0056 l 0.2314227,-0.798691 h 0.304801 l -0.395113,1.159937 v 0.849491 z m 0.8269144,0 v -2.009428 h 0.287867 v 1.72156 h 0.5700907 v 0.287868 z m 1.0442264,0 V 61.813806 H 9.3886746 V 62.08474 H 8.8185849 v 0.589846 H 9.3152966 V 62.94552 H 8.8185849 v 0.589846 h 0.5700897 v 0.287868 z"
       id="text16-9"
       style="font-size:2.82223px;line-height:1.25;font-family:'DIN Condensed';-inkscape-font-specification:'DIN Condensed, ';text-align:center;text-anchor:middle;fill:#333333;stroke-width:0.264583"
       aria-label="STYLE" /><path
       d="m 9.6461203,70.80844 v -1.507069 h 0.315384 q 0.1037167,0 0.1756837,0.03175 0.07408,0.03175 0.12065,0.08467 0.04657,0.05292 0.06562,0.122767 0.02117,0.06773 0.02117,0.141817 v 0.05503 q 0,0.06138 -0.01058,0.103717 -0.0085,0.04233 -0.02752,0.07408 -0.03598,0.05927 -0.110067,0.1016 0.0762,0.03598 0.112184,0.105833 0.03598,0.06985 0.03598,0.190501 v 0.08467 q 0,0.198966 -0.09737,0.3048 -0.09525,0.105833 -0.3069177,0.105833 z m 0.215901,-0.698501 v 0.482601 h 0.09313 q 0.06562,0 0.1015997,-0.01905 0.0381,-0.01905 0.05715,-0.05292 0.01905,-0.03387 0.02328,-0.08043 0.0042,-0.04657 0.0042,-0.1016 0,-0.05715 -0.0064,-0.09948 -0.0064,-0.04233 -0.0254,-0.07197 -0.02117,-0.02963 -0.05715,-0.04233 -0.03598,-0.01482 -0.09525,-0.01482 z m 0,-0.605367 v 0.414867 h 0.09737 q 0.1079507,0 0.1439337,-0.05292 0.0381,-0.05503 0.0381,-0.15875 0,-0.1016 -0.04233,-0.1524 -0.04022,-0.0508 -0.1481667,-0.0508 z m 1.0964377,0.776818 -0.105834,-0.546101 h -0.0042 l -0.105834,0.546101 z m -0.533401,0.52705 0.33655,-1.507069 h 0.179917 l 0.336551,1.507069 h -0.2159 l -0.0635,-0.32385 h -0.294217 l -0.0635,0.32385 z m 1.174751,-1.303868 v 0.469901 h 0.122767 q 0.05715,0 0.09102,-0.01482 0.03387,-0.01693 0.05292,-0.04657 0.01693,-0.02963 0.02328,-0.07197 0.0064,-0.04445 0.0064,-0.1016 0,-0.05715 -0.0064,-0.09948 -0.0064,-0.04445 -0.0254,-0.0762 -0.04022,-0.05927 -0.152401,-0.05927 z m -0.215901,1.303868 v -1.507069 h 0.347134 q 0.381001,0 0.381001,0.442385 0,0.13335 -0.04233,0.226483 -0.04022,0.09313 -0.143934,0.150284 l 0.232834,0.687917 h -0.228601 l -0.201083,-0.643467 h -0.129117 v 0.643467 z"
       id="text17-5-1"
       style="font-size:2.11667px;line-height:1.25;font-family:'DIN Condensed';-inkscape-font-specification:'DIN Condensed, ';text-align:center;text-anchor:middle;fill:#333333;stroke-width:0.264583"
       aria-label="BAR" /><path
       d="m 9.6461203,66.074193 q 0,-0.09102 0.03175,-0.160867 0.03175,-0.06985 0.08467,-0.116417 0.0508,-0.04445 0.1143,-0.06773 0.06562,-0.02328 0.1312327,-0.02328 0.06562,0 0.129117,0.02328 0.06562,0.02328 0.118534,0.06773 0.0508,0.04657 0.08255,0.116417 0.03175,0.06985 0.03175,0.160867 v 0.795868 q 0,0.09525 -0.03175,0.162984 -0.03175,0.06773 -0.08255,0.112183 -0.05292,0.04657 -0.118534,0.06985 -0.0635,0.02328 -0.129117,0.02328 -0.06562,0 -0.1312327,-0.02328 -0.0635,-0.02328 -0.1143,-0.06985 -0.05292,-0.04445 -0.08467,-0.112183 -0.03175,-0.06773 -0.03175,-0.162984 z m 0.2159,0.795868 q 0,0.07832 0.04233,0.116417 0.04445,0.03598 0.1037157,0.03598 0.05927,0 0.101601,-0.03598 0.04445,-0.0381 0.04445,-0.116417 v -0.795868 q 0,-0.07832 -0.04445,-0.1143 -0.04233,-0.0381 -0.101601,-0.0381 -0.05927,0 -0.1037157,0.0381 -0.04233,0.03598 -0.04233,0.1143 z m 0.6985027,0.355601 v -1.507069 h 0.32385 q 0.0889,0 0.156634,0.02328 0.06773,0.02328 0.122766,0.08255 0.05503,0.05927 0.0762,0.1397 0.02117,0.07832 0.02117,0.213784 0,0.1016 -0.0127,0.17145 -0.01058,0.06985 -0.04868,0.131234 -0.04445,0.07408 -0.118534,0.116417 -0.07408,0.04022 -0.194733,0.04022 h -0.110067 v 0.588435 z m 0.2159,-1.303869 v 0.512234 h 0.103717 q 0.06562,0 0.1016,-0.01905 0.03598,-0.01905 0.05292,-0.05292 0.01693,-0.03175 0.01905,-0.07832 0.0042,-0.04657 0.0042,-0.103716 0,-0.05292 -0.0021,-0.09948 -0.0021,-0.04868 -0.01905,-0.08467 -0.01693,-0.03598 -0.0508,-0.05503 -0.03387,-0.01905 -0.09737,-0.01905 z m 0.645583,1.303869 v -1.507069 h 0.643468 v 0.2032 h -0.427567 v 0.442384 h 0.372534 v 0.2032 h -0.372534 v 0.442384 h 0.427567 v 0.215901 z m 0.774703,0 v -1.507069 h 0.207434 l 0.325967,0.908051 h 0.0042 v -0.908051 h 0.215901 v 1.507069 H 12.74701 l -0.3302,-0.905935 h -0.0042 v 0.905935 z"
       id="text17-1-5"
       style="font-size:2.11667px;line-height:1.25;font-family:'DIN Condensed';-inkscape-font-specification:'DIN Condensed, ';text-align:center;text-anchor:middle;fill:#333333;stroke-width:0.264583"
       aria-label="OPEN" /><path
       d="m 18.265919,63.823227 v -2.009428 h 0.276579 l 0.369712,1.063981 h 0.0056 l 0.366889,-1.063981 H 19.5641 v 2.009428 h -0.287867 v -1.222025 h -0.0056 l -0.285045,0.863602 h -0.143934 l -0.282223,-0.863602 h -0.0056 v 1.222025 z m 2.500496,-2.009428 v 1.557871 q 0,0.09878 -0.03669,0.183445 -0.03387,0.08185 -0.09878,0.146756 -0.06491,0.06491 -0.149579,0.101601 -0.08467,0.03669 -0.180622,0.03669 -0.09596,0 -0.180623,-0.03669 -0.08185,-0.03669 -0.146756,-0.101601 -0.06491,-0.06491 -0.1016,-0.146756 -0.03669,-0.08467 -0.03669,-0.183445 v -1.557871 h 0.287867 v 1.529649 q 0,0.107245 0.0508,0.158045 0.0508,0.0508 0.127001,0.0508 0.0762,0 0.127,-0.0508 0.0508,-0.0508 0.0508,-0.158045 v -1.529649 z m 0.460025,2.009428 v -1.738494 h -0.333023 v -0.270934 h 0.953913 v 0.270934 h -0.333023 v 1.738494 z m 0.747893,0 v -2.009428 h 0.857958 v 0.270934 H 22.2622 v 0.589847 h 0.496713 v 0.270934 H 22.2622 v 0.589846 h 0.570091 v 0.287867 z m 1.975563,-1.43087 h -0.287867 v -0.06491 q 0,-0.09878 -0.04798,-0.169334 -0.04516,-0.07338 -0.155223,-0.07338 -0.05927,0 -0.09596,0.02258 -0.03669,0.02258 -0.05927,0.05645 -0.02258,0.03669 -0.03104,0.08467 -0.0085,0.04516 -0.0085,0.09596 0,0.05927 0.0028,0.09878 0.0056,0.03951 0.02258,0.07055 0.01693,0.03105 0.04798,0.05362 0.03387,0.02258 0.09031,0.04516 l 0.220134,0.08749 q 0.09596,0.03669 0.155223,0.08749 0.05927,0.04798 0.09313,0.112889 0.03104,0.06773 0.04233,0.155223 0.01129,0.08467 0.01129,0.194734 0,0.127 -0.0254,0.237067 -0.0254,0.107245 -0.08185,0.183445 -0.05927,0.07902 -0.155222,0.124178 -0.09596,0.04516 -0.234245,0.04516 -0.104423,0 -0.194734,-0.03669 -0.09031,-0.03669 -0.155223,-0.101601 -0.06491,-0.06491 -0.104422,-0.149578 -0.03669,-0.08749 -0.03669,-0.189089 v -0.107262 h 0.287867 v 0.09031 q 0,0.07902 0.04516,0.143934 0.04798,0.06209 0.158045,0.06209 0.07338,0 0.112889,-0.01976 0.04233,-0.02258 0.06491,-0.06209 0.02258,-0.03951 0.0254,-0.09313 0.0056,-0.05644 0.0056,-0.124178 0,-0.07902 -0.0056,-0.129823 -0.0056,-0.0508 -0.02258,-0.08185 -0.01976,-0.03104 -0.05362,-0.0508 -0.03105,-0.01975 -0.08467,-0.04233 l -0.205954,-0.08466 q -0.186267,-0.0762 -0.251178,-0.200378 -0.06209,-0.127001 -0.06209,-0.31609 0,-0.112889 0.03104,-0.21449 0.03104,-0.1016 0.09313,-0.174978 0.05927,-0.07338 0.149578,-0.115711 0.09313,-0.04516 0.220134,-0.04516 0.107245,0 0.194734,0.03951 0.09031,0.03951 0.155222,0.104423 0.129823,0.135467 0.129823,0.310445 z"
       id="text16-0-5"
       style="font-size:2.82223px;line-height:1.25;font-family:'DIN Condensed';-inkscape-font-specification:'DIN Condensed, ';text-align:center;text-anchor:middle;fill:#333333;stroke-width:0.264583"
       aria-label="MUTES" /><path
       d="m 23.93362,67.219312 v -1.507069 h 0.207433 l 0.277284,0.797983 h 0.0042 l 0.275168,-0.797983 h 0.20955 v 1.507069 h -0.2159 v -0.916518 h -0.0042 l -0.213783,0.6477 h -0.107951 l -0.211667,-0.6477 h -0.0042 v 0.916518 z m 1.875369,-1.507069 v 1.168401 q 0,0.07408 -0.02752,0.137583 -0.0254,0.06138 -0.07408,0.110068 -0.04868,0.04868 -0.112184,0.0762 -0.0635,0.02752 -0.135467,0.02752 -0.07197,0 -0.135467,-0.02752 -0.06138,-0.02752 -0.110067,-0.0762 -0.04868,-0.04868 -0.0762,-0.110068 -0.02752,-0.0635 -0.02752,-0.137583 v -1.168401 h 0.2159 v 1.147234 q 0,0.08043 0.0381,0.118534 0.0381,0.0381 0.09525,0.0381 0.05715,0 0.09525,-0.0381 0.0381,-0.0381 0.0381,-0.118534 v -1.147234 z m 0.345018,1.507069 v -1.30387 H 25.90424 v -0.203199 h 0.715435 v 0.203199 h -0.249767 v 1.30387 z m 0.560919,0 v -1.507069 h 0.643468 v 0.203199 h -0.427567 v 0.442384 h 0.372533 v 0.203201 h -0.372533 v 0.442385 h 0.427567 v 0.2159 z m 0.78317,0 v -1.507069 h 0.319617 q 0.186267,0 0.281517,0.101599 0.09737,0.101601 0.09737,0.287868 v 0.704851 q 0,0.211667 -0.103717,0.313267 -0.1016,0.09948 -0.294217,0.09948 z m 0.2159,-1.30387 v 1.100669 h 0.09948 q 0.09102,0 0.129117,-0.04445 0.0381,-0.04657 0.0381,-0.143934 V 66.10171 q 0,-0.0889 -0.03598,-0.137584 -0.03598,-0.04868 -0.131233,-0.04868 z"
       id="text17-2-4"
       style="font-size:2.11667px;line-height:1.25;font-family:'DIN Condensed';-inkscape-font-specification:'DIN Condensed, ';text-align:center;text-anchor:middle;fill:#333333;stroke-width:0.264583"
       aria-label="MUTED" /><path
       d="m 23.93362,69.656969 q 0,-0.09102 0.03175,-0.160867 0.03175,-0.06985 0.08467,-0.116416 0.0508,-0.04445 0.1143,-0.06773 0.06562,-0.02328 0.131233,-0.02328 0.06562,0 0.129117,0.02328 0.06562,0.02328 0.118534,0.06773 0.0508,0.04657 0.08255,0.116416 0.03175,0.06985 0.03175,0.160867 v 0.795868 q 0,0.09525 -0.03175,0.162984 -0.03175,0.06773 -0.08255,0.112183 -0.05292,0.04657 -0.118534,0.06985 -0.0635,0.02328 -0.129117,0.02328 -0.06562,0 -0.131233,-0.02328 -0.0635,-0.02328 -0.1143,-0.06985 -0.05292,-0.04445 -0.08467,-0.112183 -0.03175,-0.06773 -0.03175,-0.162984 z m 0.2159,0.795868 q 0,0.07832 0.04233,0.116417 0.04445,0.03598 0.103716,0.03598 0.05927,0 0.101601,-0.03598 0.04445,-0.0381 0.04445,-0.116417 v -0.795868 q 0,-0.07832 -0.04445,-0.1143 -0.04233,-0.0381 -0.101601,-0.0381 -0.05927,0 -0.103716,0.0381 -0.04233,0.03598 -0.04233,0.1143 z m 0.698503,0.355601 v -1.507069 h 0.32385 q 0.0889,0 0.156634,0.02328 0.06773,0.02328 0.122766,0.08255 0.05503,0.05927 0.0762,0.139701 0.02117,0.07832 0.02117,0.213783 0,0.1016 -0.0127,0.17145 -0.01058,0.06985 -0.04868,0.131234 -0.04445,0.07408 -0.118534,0.116417 -0.07408,0.04022 -0.194733,0.04022 h -0.110067 v 0.588434 z m 0.2159,-1.303869 v 0.512234 h 0.103717 q 0.06562,0 0.1016,-0.01905 0.03598,-0.01905 0.05292,-0.05292 0.01693,-0.03175 0.01905,-0.07832 0.0042,-0.04657 0.0042,-0.103717 0,-0.05292 -0.0021,-0.09948 -0.0021,-0.04868 -0.01905,-0.08467 -0.01693,-0.03598 -0.0508,-0.05503 -0.03387,-0.01905 -0.09737,-0.01905 z m 0.645583,1.303869 v -1.507069 h 0.643468 v 0.2032 h -0.427567 v 0.442384 h 0.372534 v 0.2032 h -0.372534 v 0.442385 h 0.427567 v 0.2159 z m 0.774703,0 v -1.507069 h 0.207434 l 0.325967,0.908051 h 0.0042 v -0.908051 h 0.215901 v 1.507069 H 27.03451 l -0.3302,-0.905935 h -0.0042 v 0.905935 z"
       id="text17-1-0-3"
       style="font-size:2.11667px;line-height:1.25;font-family:'DIN Condensed';-inkscape-font-specification:'DIN Condensed, ';text-align:center;text-anchor:middle;fill:#333333;stroke-width:0.264583"
       aria-label="OPEN" /><rect
       style="fill:#ff6600;stroke:none;stroke-width:0.999995;stroke-linejoin:round;stroke-dasharray:none"
       id="rect7-6-8"
       width="17.97559"
       height="26.68026"
       x="6.2522049"
       y="89.84774"
       ry="1.1143334" /><rect
       style="fill:#ececec;stroke-width:1;stroke-linejoin:round"
       id="rect1-0-8"
       width="15.824839"
       height="22.006521"
       x="7.32758"
       y="93.525299"
       ry="0.67627287" /><path
       d="m 7.1458648,93.239535 v -3.014131 h 0.6476994 q 0.1777999,0 0.3132664,0.04657 0.1354666,0.04657 0.2455332,0.165099 0.1100666,0.118534 0.1523998,0.2794 0.042333,0.156633 0.042333,0.427567 0,0.203199 -0.0254,0.342899 -0.021167,0.1397 -0.097367,0.262467 -0.0889,0.148166 -0.2370665,0.232833 -0.1481665,0.08043 -0.3894663,0.08043 H 7.5776644 v 1.176866 z m 0.4317996,-2.607731 v 1.024465 h 0.2074332 q 0.1312332,0 0.2031998,-0.0381 0.071967,-0.0381 0.1058333,-0.105833 0.033867,-0.0635 0.0381,-0.156633 0.00847,-0.09313 0.00847,-0.207433 0,-0.105833 -0.00423,-0.198967 -0.00423,-0.09737 -0.0381,-0.169333 -0.033867,-0.07197 -0.1015999,-0.110066 -0.067733,-0.0381 -0.1947332,-0.0381 z m 1.2657639,0.304799 q 0,-0.182033 0.0635,-0.321733 0.0635,-0.1397 0.1693332,-0.232833 0.1015999,-0.0889 0.2285998,-0.135466 0.1312332,-0.04657 0.2624665,-0.04657 0.1312332,0 0.2582331,0.04657 0.1312332,0.04657 0.2370661,0.135466 0.1016,0.09313 0.1651,0.232833 0.0635,0.1397 0.0635,0.321733 v 1.591732 q 0,0.1905 -0.0635,0.325967 -0.0635,0.135466 -0.1651,0.224366 -0.1058329,0.09313 -0.2370661,0.1397 -0.1269999,0.04657 -0.2582331,0.04657 -0.1312333,0 -0.2624665,-0.04657 -0.1269999,-0.04657 -0.2285998,-0.1397 -0.1058332,-0.0889 -0.1693332,-0.224366 -0.0635,-0.135467 -0.0635,-0.325967 z m 0.4317996,1.591732 q 0,0.156634 0.084667,0.232834 0.0889,0.07197 0.2074332,0.07197 0.1185332,0 0.2031998,-0.07197 0.0889,-0.0762 0.0889,-0.232834 v -1.591732 q 0,-0.156633 -0.0889,-0.228599 -0.084667,-0.0762 -0.2031998,-0.0762 -0.1185333,0 -0.2074332,0.0762 -0.084667,0.07197 -0.084667,0.228599 z m 1.3970011,0.7112 v -3.014131 h 0.4318 v 2.582331 h 0.855132 v 0.4318 z m 1.57904,0 v -1.274232 l -0.592667,-1.739899 h 0.4572 l 0.347133,1.198032 h 0.0085 l 0.347133,-1.198032 h 0.457199 l -0.592666,1.739899 v 1.274232 z m 3.399369,-0.859366 v 0.186266 q 0,0.1397 -0.05503,0.2667 -0.0508,0.122767 -0.143933,0.220133 -0.09313,0.09737 -0.220134,0.156633 -0.122766,0.05503 -0.266699,0.05503 -0.122767,0 -0.249767,-0.03387 -0.127,-0.03387 -0.2286,-0.118533 -0.1016,-0.08467 -0.169333,-0.2159 -0.0635,-0.135466 -0.0635,-0.3429 v -1.659465 q 0,-0.148166 0.0508,-0.275166 0.0508,-0.127 0.143933,-0.220133 0.09313,-0.09313 0.220134,-0.143934 Q 14.799742,90.2 14.956375,90.2 q 0.3048,0 0.4953,0.198967 0.09313,0.09737 0.143933,0.232833 0.05503,0.131233 0.05503,0.287866 v 0.169333 h -0.4318 v -0.143933 q 0,-0.127 -0.07197,-0.220133 -0.07197,-0.09313 -0.194733,-0.09313 -0.160867,0 -0.2159,0.1016 -0.0508,0.09737 -0.0508,0.249766 v 1.540932 q 0,0.131233 0.05503,0.220133 0.05927,0.0889 0.207433,0.0889 0.04233,0 0.0889,-0.0127 0.0508,-0.01693 0.09313,-0.0508 0.0381,-0.03387 0.0635,-0.09313 0.0254,-0.05927 0.0254,-0.148167 v -0.148166 z m 1.816097,-2.154765 -0.618066,3.014131 h -0.381 l -0.613833,-3.014131 h 0.4572 l 0.3429,2.103965 h 0.0085 l 0.347134,-2.103965 z m 1.020234,0.711199 q 0,-0.182033 0.0635,-0.321733 0.0635,-0.1397 0.169334,-0.232833 0.1016,-0.0889 0.228599,-0.135466 0.131234,-0.04657 0.262467,-0.04657 0.131233,0 0.258233,0.04657 0.131233,0.04657 0.237066,0.135466 0.1016,0.09313 0.1651,0.232833 0.0635,0.1397 0.0635,0.321733 v 1.591732 q 0,0.1905 -0.0635,0.325967 -0.0635,0.135466 -0.1651,0.224366 -0.105833,0.09313 -0.237066,0.1397 -0.127,0.04657 -0.258233,0.04657 -0.131233,0 -0.262467,-0.04657 -0.126999,-0.04657 -0.228599,-0.1397 -0.105834,-0.0889 -0.169334,-0.224366 -0.0635,-0.135467 -0.0635,-0.325967 z m 0.4318,1.591732 q 0,0.156634 0.08467,0.232834 0.0889,0.07197 0.207433,0.07197 0.118533,0 0.2032,-0.07197 0.0889,-0.0762 0.0889,-0.232834 v -1.591732 q 0,-0.156633 -0.0889,-0.228599 -0.08467,-0.0762 -0.2032,-0.0762 -0.118533,0 -0.207433,0.0762 -0.08467,0.07197 -0.08467,0.228599 z m 2.793999,-2.302931 v 2.336798 q 0,0.148167 -0.05503,0.275166 -0.0508,0.122767 -0.148167,0.220134 -0.09737,0.09737 -0.224366,0.152399 -0.127,0.05503 -0.270933,0.05503 -0.143933,0 -0.270933,-0.05503 -0.122767,-0.05503 -0.220133,-0.152399 -0.09737,-0.09737 -0.1524,-0.220134 -0.05503,-0.126999 -0.05503,-0.275166 v -2.336798 h 0.431799 v 2.294465 q 0,0.160866 0.0762,0.237066 0.0762,0.0762 0.1905,0.0762 0.1143,0 0.1905,-0.0762 0.0762,-0.0762 0.0762,-0.237066 v -2.294465 z m 0.690037,3.014131 v -2.607731 h -0.499533 v -0.4064 h 1.430865 v 0.4064 h -0.499533 v 2.607731 z"
       id="text2"
       style="font-size:4.23333px;line-height:1.25;font-family:'DIN Condensed';-inkscape-font-specification:'DIN Condensed, ';text-align:center;text-anchor:middle;fill:#ececec;stroke-width:0.264583"
       aria-label="POLY CV OUT" /><g
       id="text3"
       style="font-size:3.175px;line-height:1.05;font-family:'DIN Condensed';-inkscape-font-specification:'DIN Condensed, ';text-align:center;text-anchor:middle;stroke-width:0.264583"
       aria-label="NOTES 1-6&#10;MUTES 7-12&#10;ROOT NOTE 13"><path
         style="fill:#333333"
         d="m 10.133015,107.55359 v -2.2606 h 0.31115 l 0.48895,1.36207 h 0.0063 v -1.36207 h 0.32385 v 2.2606 h -0.3048 l -0.4953,-1.3589 h -0.0063 v 1.3589 z m 1.403351,-1.7272 q 0,-0.13653 0.04763,-0.2413 0.04763,-0.10478 0.127,-0.17463 0.0762,-0.0667 0.17145,-0.1016 0.09843,-0.0349 0.19685,-0.0349 0.09843,0 0.193675,0.0349 0.09842,0.0349 0.1778,0.1016 0.0762,0.0699 0.123825,0.17463 0.04763,0.10477 0.04763,0.2413 v 1.1938 q 0,0.14287 -0.04763,0.24447 -0.04763,0.1016 -0.123825,0.16828 -0.07938,0.0699 -0.1778,0.10477 -0.09525,0.0349 -0.193675,0.0349 -0.09842,0 -0.19685,-0.0349 -0.09525,-0.0349 -0.17145,-0.10477 -0.07938,-0.0667 -0.127,-0.16828 -0.04763,-0.1016 -0.04763,-0.24447 z m 0.32385,1.1938 q 0,0.11747 0.0635,0.17462 0.06668,0.054 0.155575,0.054 0.0889,0 0.1524,-0.054 0.06668,-0.0572 0.06668,-0.17462 v -1.1938 q 0,-0.11748 -0.06668,-0.17145 -0.0635,-0.0571 -0.1524,-0.0571 -0.0889,0 -0.155575,0.0571 -0.0635,0.054 -0.0635,0.17145 z m 1.22238,0.5334 v -1.9558 h -0.37465 v -0.3048 h 1.07315 v 0.3048 h -0.37465 v 1.9558 z m 0.841377,0 v -2.2606 h 0.9652 v 0.3048 h -0.64135 v 0.66357 h 0.5588 v 0.3048 h -0.5588 v 0.66358 h 0.64135 v 0.32385 z m 2.222503,-1.60973 h -0.32385 v -0.073 q 0,-0.11113 -0.05397,-0.1905 -0.0508,-0.0825 -0.174625,-0.0825 -0.06668,0 -0.10795,0.0254 -0.04128,0.0254 -0.06668,0.0635 -0.0254,0.0413 -0.03493,0.0953 -0.0095,0.0508 -0.0095,0.10795 0,0.0667 0.0032,0.11112 0.0063,0.0445 0.0254,0.0794 0.01905,0.0349 0.05398,0.0603 0.0381,0.0254 0.1016,0.0508 l 0.24765,0.0984 q 0.10795,0.0413 0.174625,0.0984 0.06668,0.054 0.104775,0.127 0.03492,0.0762 0.04763,0.17463 0.0127,0.0953 0.0127,0.21907 0,0.14288 -0.02858,0.2667 -0.02858,0.12065 -0.09208,0.20638 -0.06667,0.0889 -0.174625,0.1397 -0.10795,0.0508 -0.263525,0.0508 -0.117475,0 -0.219075,-0.0413 -0.1016,-0.0413 -0.174625,-0.1143 -0.07302,-0.073 -0.117475,-0.16827 -0.04128,-0.0984 -0.04128,-0.21273 v -0.12065 h 0.32385 v 0.1016 q 0,0.0889 0.0508,0.16193 0.05397,0.0699 0.1778,0.0699 0.08255,0 0.127,-0.0222 0.04763,-0.0254 0.07302,-0.0699 0.0254,-0.0444 0.02858,-0.10477 0.0063,-0.0635 0.0063,-0.1397 0,-0.0889 -0.0063,-0.14605 -0.0063,-0.0571 -0.0254,-0.0921 -0.02223,-0.0349 -0.06033,-0.0571 -0.03492,-0.0222 -0.09525,-0.0476 l -0.231775,-0.0952 q -0.20955,-0.0857 -0.282575,-0.22543 -0.06985,-0.14287 -0.06985,-0.3556 0,-0.127 0.03493,-0.2413 0.03492,-0.1143 0.104775,-0.19685 0.06668,-0.0825 0.168275,-0.13017 0.104775,-0.0508 0.24765,-0.0508 0.12065,0 0.219075,0.0444 0.1016,0.0445 0.174625,0.11747 0.14605,0.1524 0.14605,0.34925 z m 1.171578,1.60973 v -1.9177 l -0.32385,0.23812 v -0.3429 l 0.32385,-0.23812 h 0.32385 v 2.2606 z m 0.828674,-0.71755 v -0.32385 h 0.955675 v 0.32385 z m 2.051049,-1.54305 -0.3683,0.94932 0.0063,0.006 q 0.01588,-0.0127 0.04763,-0.0191 0.03493,-0.01 0.0889,-0.01 0.08573,0 0.15875,0.0413 0.07303,0.0413 0.1143,0.10478 0.02223,0.0349 0.03493,0.0699 0.0127,0.0349 0.02222,0.0921 0.0064,0.0572 0.0095,0.14605 0.0032,0.0857 0.0032,0.21908 0,0.11112 -0.0032,0.18415 -0.0032,0.0698 -0.0095,0.11747 -0.0095,0.0508 -0.0254,0.0857 -0.0127,0.0349 -0.03493,0.073 -0.0635,0.10478 -0.17145,0.16193 -0.104775,0.0572 -0.238125,0.0572 -0.13335,0 -0.238125,-0.0572 -0.104775,-0.0603 -0.168275,-0.16193 -0.0254,-0.0381 -0.04128,-0.073 -0.0127,-0.0349 -0.01905,-0.0857 -0.0095,-0.0476 -0.0127,-0.11747 -0.0032,-0.073 -0.0032,-0.18415 0,-0.10478 0.0032,-0.17145 0.0032,-0.0699 0.0095,-0.12065 0.0064,-0.0476 0.01905,-0.0857 0.0127,-0.0413 0.02858,-0.0857 l 0.42545,-1.13665 z m -0.206375,1.37477 q 0,-0.073 -0.04763,-0.11747 -0.04763,-0.0444 -0.111125,-0.0444 -0.0635,0 -0.111125,0.0444 -0.04763,0.0444 -0.04763,0.11747 v 0.4191 q 0,0.073 0.04763,0.11748 0.04763,0.0444 0.111125,0.0444 0.0635,0 0.111125,-0.0444 0.04763,-0.0444 0.04763,-0.11748 z"
         id="path4" /><path
         style="fill:#333333"
         d="m 9.358318,110.88734 v -2.2606 h 0.31115 l 0.415925,1.19697 h 0.0063 l 0.41275,-1.19697 h 0.314325 v 2.2606 h -0.32385 v -1.37478 h -0.0063 l -0.320675,0.97155 h -0.161925 l -0.3175,-0.97155 h -0.00635 v 1.37478 z m 2.813049,-2.2606 v 1.7526 q 0,0.11112 -0.04128,0.20637 -0.0381,0.0921 -0.111125,0.1651 -0.07302,0.073 -0.168275,0.1143 -0.09525,0.0413 -0.2032,0.0413 -0.10795,0 -0.2032,-0.0413 -0.09208,-0.0413 -0.1651,-0.1143 -0.07302,-0.073 -0.1143,-0.1651 -0.04128,-0.0953 -0.04128,-0.20637 v -1.7526 h 0.32385 v 1.72085 q 0,0.12065 0.05715,0.1778 0.05715,0.0571 0.142875,0.0571 0.08573,0 0.142875,-0.0571 0.05715,-0.0572 0.05715,-0.1778 v -1.72085 z m 0.517527,2.2606 v -1.9558 h -0.37465 v -0.3048 h 1.07315 v 0.3048 h -0.37465 v 1.9558 z m 0.841377,0 v -2.2606 h 0.9652 v 0.3048 h -0.64135 v 0.66357 h 0.5588 v 0.3048 h -0.5588 v 0.66358 h 0.64135 v 0.32385 z m 2.222503,-1.60973 h -0.32385 v -0.073 q 0,-0.11113 -0.05397,-0.1905 -0.0508,-0.0825 -0.174625,-0.0825 -0.06668,0 -0.10795,0.0254 -0.04127,0.0254 -0.06668,0.0635 -0.0254,0.0413 -0.03492,0.0953 -0.0095,0.0508 -0.0095,0.10795 0,0.0667 0.0032,0.11112 0.0063,0.0444 0.0254,0.0794 0.01905,0.0349 0.05397,0.0603 0.0381,0.0254 0.1016,0.0508 l 0.24765,0.0984 q 0.10795,0.0413 0.174625,0.0984 0.06668,0.054 0.104775,0.127 0.03492,0.0762 0.04763,0.17463 0.0127,0.0952 0.0127,0.21907 0,0.14288 -0.02858,0.2667 -0.02858,0.12065 -0.09208,0.20638 -0.06668,0.0889 -0.174625,0.1397 -0.10795,0.0508 -0.263525,0.0508 -0.117475,0 -0.219075,-0.0413 -0.1016,-0.0413 -0.174625,-0.1143 -0.07302,-0.073 -0.117475,-0.16827 -0.04127,-0.0984 -0.04127,-0.21273 v -0.12065 h 0.32385 v 0.1016 q 0,0.0889 0.0508,0.16193 0.05398,0.0698 0.1778,0.0698 0.08255,0 0.127,-0.0222 0.04763,-0.0254 0.07303,-0.0699 0.0254,-0.0444 0.02857,-0.10477 0.0064,-0.0635 0.0064,-0.1397 0,-0.0889 -0.0064,-0.14605 -0.0063,-0.0572 -0.0254,-0.0921 -0.02222,-0.0349 -0.06032,-0.0571 -0.03493,-0.0222 -0.09525,-0.0476 l -0.231775,-0.0953 q -0.20955,-0.0857 -0.282575,-0.22543 -0.06985,-0.14287 -0.06985,-0.3556 0,-0.127 0.03492,-0.2413 0.03493,-0.1143 0.104775,-0.19685 0.06668,-0.0825 0.168275,-0.13017 0.104775,-0.0508 0.24765,-0.0508 0.12065,0 0.219075,0.0444 0.1016,0.0444 0.174625,0.11747 0.14605,0.1524 0.14605,0.34925 z m 0.860428,1.60973 0.568325,-1.9558 h -0.3556 v 0.26035 h -0.28575 v -0.56515 h 0.9652 v 0.32385 l -0.549275,1.93675 z m 1.139824,-0.71755 v -0.32385 h 0.955675 v 0.32385 z m 1.5875,0.71755 v -1.9177 l -0.32385,0.23812 v -0.3429 l 0.32385,-0.23812 h 0.32385 v 2.2606 z m 0.796924,0 v -0.3048 l 0.5842,-1.10173 q 0.04445,-0.0826 0.0508,-0.14287 0.0064,-0.0635 0.0064,-0.15558 0,-0.0413 -0.0032,-0.0857 0,-0.0476 -0.01588,-0.0825 -0.01588,-0.0349 -0.04763,-0.0571 -0.03175,-0.0254 -0.09208,-0.0254 -0.07302,0 -0.117475,0.0413 -0.04127,0.0413 -0.04127,0.12065 v 0.18415 h -0.32385 v -0.1778 q 0,-0.1016 0.0381,-0.1905 0.0381,-0.0889 0.104775,-0.15557 0.0635,-0.0667 0.1524,-0.10478 0.0889,-0.0413 0.1905,-0.0413 0.127,0 0.2159,0.0476 0.09208,0.0444 0.1524,0.12383 0.05715,0.0794 0.08255,0.18097 0.02858,0.1016 0.02858,0.2159 0,0.0825 -0.0032,0.1397 -0.0032,0.054 -0.0127,0.10478 -0.0095,0.0508 -0.03175,0.1016 -0.02222,0.0508 -0.06032,0.12382 l -0.47625,0.91758 h 0.5842 v 0.32385 z"
         id="path5" /><path
         style="fill:#333333"
         d="m 8.8995213,112.26529 v 0.70485 h 0.18415 q 0.085725,0 0.136525,-0.0222 0.0508,-0.0254 0.079375,-0.0698 0.0254,-0.0445 0.034925,-0.10795 0.00953,-0.0667 0.00953,-0.1524 0,-0.0857 -0.00953,-0.14922 -0.00953,-0.0667 -0.0381,-0.1143 -0.060325,-0.0889 -0.2286,-0.0889 z m -0.3238499,1.9558 v -2.2606 h 0.5206999 q 0.5715,0 0.5715,0.66357 0,0.20003 -0.0635,0.33973 -0.060325,0.1397 -0.2159,0.22542 l 0.34925,1.03188 h -0.3429 l -0.301625,-0.9652 h -0.193675 v 0.9652 z m 1.3335018,-1.7272 q 0,-0.13653 0.047625,-0.2413 0.047625,-0.10478 0.1269998,-0.17463 0.0762,-0.0667 0.17145,-0.1016 0.09843,-0.0349 0.19685,-0.0349 0.09843,0 0.193675,0.0349 0.09843,0.0349 0.1778,0.1016 0.0762,0.0699 0.123825,0.17463 0.04763,0.10477 0.04763,0.2413 v 1.1938 q 0,0.14287 -0.04763,0.24447 -0.04763,0.1016 -0.123825,0.16828 -0.07937,0.0698 -0.1778,0.10477 -0.09525,0.0349 -0.193675,0.0349 -0.09842,0 -0.19685,-0.0349 -0.09525,-0.0349 -0.17145,-0.10477 -0.07938,-0.0667 -0.1269998,-0.16828 -0.047625,-0.1016 -0.047625,-0.24447 z m 0.3238498,1.1938 q 0,0.11747 0.0635,0.17462 0.06668,0.054 0.155575,0.054 0.0889,0 0.1524,-0.054 0.06668,-0.0571 0.06668,-0.17462 v -1.1938 q 0,-0.11748 -0.06668,-0.17145 -0.0635,-0.0572 -0.1524,-0.0572 -0.0889,0 -0.155575,0.0572 -0.0635,0.054 -0.0635,0.17145 z m 1.028702,-1.1938 q 0,-0.13653 0.04763,-0.2413 0.04763,-0.10478 0.127,-0.17463 0.0762,-0.0667 0.17145,-0.1016 0.09843,-0.0349 0.19685,-0.0349 0.09842,0 0.193675,0.0349 0.09843,0.0349 0.1778,0.1016 0.0762,0.0699 0.123825,0.17463 0.04763,0.10477 0.04763,0.2413 v 1.1938 q 0,0.14287 -0.04763,0.24447 -0.04763,0.1016 -0.123825,0.16828 -0.07938,0.0698 -0.1778,0.10477 -0.09525,0.0349 -0.193675,0.0349 -0.09843,0 -0.19685,-0.0349 -0.09525,-0.0349 -0.17145,-0.10477 -0.07937,-0.0667 -0.127,-0.16828 -0.04763,-0.1016 -0.04763,-0.24447 z m 0.32385,1.1938 q 0,0.11747 0.0635,0.17462 0.06668,0.054 0.155575,0.054 0.0889,0 0.1524,-0.054 0.06668,-0.0571 0.06668,-0.17462 v -1.1938 q 0,-0.11748 -0.06668,-0.17145 -0.0635,-0.0572 -0.1524,-0.0572 -0.0889,0 -0.155575,0.0572 -0.0635,0.054 -0.0635,0.17145 z m 1.22238,0.5334 v -1.9558 h -0.37465 v -0.3048 h 1.07315 v 0.3048 h -0.37465 v 1.9558 z m 1.41923,0 v -2.2606 h 0.31115 l 0.48895,1.36207 h 0.0064 v -1.36207 h 0.32385 v 2.2606 h -0.3048 l -0.4953,-1.3589 h -0.0063 v 1.3589 z m 1.40335,-1.7272 q 0,-0.13653 0.04763,-0.2413 0.04763,-0.10478 0.127,-0.17463 0.0762,-0.0667 0.17145,-0.1016 0.09842,-0.0349 0.19685,-0.0349 0.09843,0 0.193675,0.0349 0.09842,0.0349 0.1778,0.1016 0.0762,0.0699 0.123825,0.17463 0.04763,0.10477 0.04763,0.2413 v 1.1938 q 0,0.14287 -0.04763,0.24447 -0.04763,0.1016 -0.123825,0.16828 -0.07937,0.0698 -0.1778,0.10477 -0.09525,0.0349 -0.193675,0.0349 -0.09842,0 -0.19685,-0.0349 -0.09525,-0.0349 -0.17145,-0.10477 -0.07938,-0.0667 -0.127,-0.16828 -0.04763,-0.1016 -0.04763,-0.24447 z m 0.32385,1.1938 q 0,0.11747 0.0635,0.17462 0.06668,0.054 0.155575,0.054 0.0889,0 0.1524,-0.054 0.06668,-0.0571 0.06668,-0.17462 v -1.1938 q 0,-0.11748 -0.06668,-0.17145 -0.0635,-0.0572 -0.1524,-0.0572 -0.0889,0 -0.155575,0.0572 -0.0635,0.054 -0.0635,0.17145 z m 1.22238,0.5334 v -1.9558 h -0.37465 v -0.3048 h 1.07315 v 0.3048 h -0.37465 v 1.9558 z m 0.841377,0 v -2.2606 h 0.9652 v 0.3048 h -0.64135 v 0.66357 h 0.5588 v 0.3048 h -0.5588 v 0.66358 h 0.64135 v 0.32385 z m 2.10503,0 v -1.9177 l -0.32385,0.23812 v -0.3429 l 0.32385,-0.23812 h 0.32385 v 2.2606 z m 1.181099,-1.3081 q 0.14605,0 0.200025,-0.0349 0.05715,-0.0349 0.05715,-0.16192 v -0.2921 q 0,-0.0699 -0.04445,-0.1143 -0.04127,-0.0445 -0.1143,-0.0445 -0.08573,0 -0.123825,0.054 -0.03492,0.054 -0.03492,0.10478 v 0.18415 h -0.32385 v -0.18733 q 0,-0.0984 0.0381,-0.18732 0.0381,-0.0889 0.104775,-0.1524 0.06668,-0.0635 0.155575,-0.1016 0.0889,-0.0381 0.1905,-0.0381 0.13335,0 0.219075,0.054 0.0889,0.0508 0.13335,0.10478 0.03175,0.0381 0.05398,0.0762 0.0254,0.0381 0.04127,0.0921 0.02858,0.10478 0.02858,0.31115 0,0.11748 -0.0064,0.1905 -0.0032,0.073 -0.02222,0.12065 -0.02222,0.0508 -0.0635,0.0857 -0.0381,0.0349 -0.10795,0.0762 0.0762,0.0476 0.1143,0.0889 0.04127,0.0413 0.06032,0.0953 0.01905,0.0571 0.02223,0.13652 0.0032,0.0762 0.0032,0.19685 0,0.11113 -0.0064,0.18415 -0.0032,0.073 -0.0127,0.12065 -0.0095,0.0508 -0.0254,0.0857 -0.01587,0.0349 -0.04127,0.073 -0.06032,0.0889 -0.155575,0.14923 -0.09208,0.0571 -0.244475,0.0571 -0.0762,0 -0.161925,-0.0254 -0.08573,-0.0254 -0.155575,-0.0826 -0.06985,-0.0571 -0.117475,-0.14923 -0.04445,-0.0921 -0.04445,-0.22542 v -0.18415 h 0.32385 v 0.16827 q 0,0.0762 0.04127,0.127 0.04445,0.0476 0.117475,0.0476 0.07303,0 0.1143,-0.0476 0.04445,-0.0508 0.04445,-0.13335 v -0.32385 q 0,-0.13335 -0.0508,-0.17462 -0.02858,-0.0254 -0.07938,-0.0318 -0.04763,-0.006 -0.127,-0.006 z"
         id="path6" /></g></g></svg>
