<?xml version="1.0" encoding="UTF-8" standalone="no"?>
<svg
   sodipodi:docname="CRBVi-Dark.svg"
   inkscape:version="1.3.2 (091e20e, 2023-11-25)"
   id="svg8"
   version="1.1"
   viewBox="0 0 152.4 128.5"
   height="128.5mm"
   width="152.39999mm"
   xml:space="preserve"
   xmlns:inkscape="http://www.inkscape.org/namespaces/inkscape"
   xmlns:sodipodi="http://sodipodi.sourceforge.net/DTD/sodipodi-0.dtd"
   xmlns="http://www.w3.org/2000/svg"
   xmlns:svg="http://www.w3.org/2000/svg"
   xmlns:rdf="http://www.w3.org/1999/02/22-rdf-syntax-ns#"
   xmlns:cc="http://creativecommons.org/ns#"
   xmlns:dc="http://purl.org/dc/elements/1.1/"><defs
     id="defs2" /><sodipodi:namedview
     inkscape:window-maximized="0"
     inkscape:window-y="23"
     inkscape:window-x="0"
     inkscape:window-height="769"
     inkscape:window-width="1252"
     showgrid="false"
     inkscape:document-rotation="0"
     inkscape:current-layer="layer1"
     inkscape:document-units="mm"
     inkscape:cy="407.73006"
     inkscape:cx="320.62837"
     inkscape:zoom="1.0619771"
     inkscape:pageshadow="2"
     inkscape:pageopacity="0.0"
     borderopacity="1.0"
     bordercolor="#666666"
     pagecolor="#ffffff"
     id="base"
     inkscape:showpageshadow="2"
     inkscape:pagecheckerboard="0"
     inkscape:deskcolor="#d1d1d1"
     showguides="false"><sodipodi:guide
       position="8.3548827,69.396939"
       orientation="1,0"
       id="guide5"
       inkscape:locked="false" /><sodipodi:guide
       position="42.379221,141.53976"
       orientation="1,0"
       id="guide7"
       inkscape:locked="false" /></sodipodi:namedview><metadata
     id="metadata5"><rdf:RDF><cc:Work
         rdf:about=""><dc:format>image/svg+xml</dc:format><dc:type
           rdf:resource="http://purl.org/dc/dcmitype/StillImage" /></cc:Work></rdf:RDF></metadata><g
     id="layer1"
     inkscape:groupmode="layer"
     inkscape:label="Layer 1"><rect
       style="fill:#333333;fill-opacity:1;stroke:none;stroke-width:0.499994;stroke-linecap:round;stroke-miterlimit:4;stroke-dasharray:none;stop-color:#000000"
       id="rect1015"
       width="152.39999"
       height="128.5"
       x="0"
       y="-3.541667e-07" /><g
       id="g9"
       transform="translate(-48.830454,7.64459)"><path
         d="M 57.447711,5.78056 V 5.56053 h -0.008 q -0.0846,0.11848 -0.17348,0.18195 -0.0846,0.0635 -0.24119,0.0635 -0.0762,0 -0.15655,-0.0254 -0.0762,-0.0212 -0.14809,-0.0846 -0.0719,-0.0592 -0.11848,-0.16925 -0.0423,-0.11424 -0.0423,-0.29195 0,-0.18195 0.0296,-0.31735 0.0296,-0.13963 0.11001,-0.23271 0.0762,-0.0889 0.20733,-0.13117 0.13117,-0.0466 0.33427,-0.0466 0.0212,0 0.0465,0 0.0254,0 0.0465,0.004 0.0212,0.004 0.0508,0.004 0.0296,0 0.0635,0.004 V 4.29469 q 0,-0.11001 -0.0465,-0.18194 -0.0465,-0.0719 -0.16925,-0.0719 -0.0846,0 -0.15655,0.055 -0.0677,0.055 -0.0889,0.16079 h -0.4189 q 0.0169,-0.28772 0.19464,-0.46544 0.0846,-0.0846 0.2031,-0.13116 0.11847,-0.0508 0.26657,-0.0508 0.1354,0 0.25387,0.0423 0.11848,0.0423 0.20733,0.12694 0.0846,0.0846 0.1354,0.21156 0.0508,0.12694 0.0508,0.29619 v 1.49363 z m 0,-0.92241 q -0.0719,-0.0127 -0.11848,-0.0127 -0.13963,0 -0.24118,0.0677 -0.0973,0.0635 -0.0973,0.23695 0,0.12271 0.0592,0.19887 0.0592,0.0762 0.16502,0.0762 0.11001,0 0.16925,-0.0719 0.0635,-0.0719 0.0635,-0.2031 z m 1.2059,0.30465 q 0,0.10155 0.055,0.15655 0.0592,0.055 0.15656,0.055 0.12271,0 0.16079,-0.0719 0.0423,-0.0719 0.0508,-0.14386 h 0.43158 q 0,0.28349 -0.17348,0.45697 -0.0846,0.0889 -0.2031,0.13963 -0.11847,0.0508 -0.26657,0.0508 -0.20309,0 -0.34696,-0.0846 -0.13963,-0.0846 -0.21579,-0.22426 -0.0465,-0.0846 -0.0635,-0.19463 -0.0169,-0.11001 -0.0169,-0.24118 V 4.3547 q 0,-0.13117 0.0169,-0.24118 0.0169,-0.11001 0.0635,-0.19464 0.0762,-0.13963 0.21579,-0.22425 0.14387,-0.0846 0.34696,-0.0846 0.1481,0 0.26657,0.0508 0.12271,0.0508 0.20733,0.13963 0.16925,0.1904 0.16925,0.49505 h -0.43159 q 0,-0.13117 -0.0592,-0.1904 -0.055,-0.0635 -0.15233,-0.0635 -0.0973,0 -0.15655,0.0635 -0.055,0.0592 -0.055,0.18194 z m 1.13398,0.61776 V 2.76791 h 0.41466 l 0.55429,1.59518 h 0.008 l 0.55007,-1.59518 h 0.41889 v 3.01265 h -0.43163 V 3.94843 h -0.008 l -0.42735,1.29476 h -0.21576 l -0.42312,-1.29476 h -0.008 v 1.83213 z m 2.2891,-1.42593 q 0,-0.13117 0.0169,-0.24118 0.0169,-0.11001 0.0635,-0.19464 0.0762,-0.13963 0.21579,-0.22425 0.14386,-0.0846 0.34696,-0.0846 0.2031,0 0.34273,0.0846 0.14387,0.0846 0.22003,0.22425 0.0465,0.0846 0.0635,0.19464 0.0169,0.11001 0.0169,0.24118 v 0.70662 q 0,0.13117 -0.0169,0.24118 -0.0169,0.11001 -0.0635,0.19463 -0.0762,0.13964 -0.22003,0.22426 -0.13963,0.0846 -0.34273,0.0846 -0.2031,0 -0.34696,-0.0846 -0.13963,-0.0846 -0.21579,-0.22426 -0.0465,-0.0846 -0.0635,-0.19463 -0.0169,-0.11001 -0.0169,-0.24118 z m 0.43159,0.77432 q 0,0.1227 0.055,0.18617 0.0592,0.0592 0.15655,0.0592 0.0973,0 0.15233,-0.0592 0.0592,-0.0635 0.0592,-0.18617 V 4.28693 q 0,-0.12271 -0.0592,-0.18194 -0.055,-0.0635 -0.15233,-0.0635 -0.0973,0 -0.15655,0.0635 -0.055,0.0592 -0.055,0.18194 z m 1.60364,-0.0465 q 0,0.13117 0.0508,0.21156 0.0508,0.0804 0.16079,0.0804 0.0973,0 0.15655,-0.0719 0.0592,-0.0762 0.0592,-0.19464 V 4.27432 q 0,-0.10155 -0.0635,-0.16502 -0.0592,-0.0677 -0.15232,-0.0677 -0.12271,0 -0.16925,0.0762 -0.0423,0.0762 -0.0423,0.17771 z m 0.42735,0.69816 V 5.58597 q -0.0423,0.0465 -0.0804,0.0889 -0.0381,0.0381 -0.0846,0.0677 -0.0465,0.0296 -0.10578,0.0465 -0.0592,0.0169 -0.13963,0.0169 -0.2708,0 -0.37658,-0.20308 -0.0381,-0.0719 -0.055,-0.17772 -0.0169,-0.10578 -0.0169,-0.28349 V 4.32505 q 0,-0.23273 0.0127,-0.34274 0.0254,-0.21156 0.19887,-0.31734 0.0804,-0.055 0.24118,-0.055 0.12694,0 0.22426,0.0592 0.10155,0.055 0.17348,0.16079 h 0.008 V 2.76791 h 0.43159 v 3.01265 z m 2.07754,-2.14524 v 2.14524 h -0.43158 V 5.57328 h -0.008 q -0.0677,0.10155 -0.16502,0.16925 -0.0931,0.0635 -0.24118,0.0635 -0.0804,0 -0.16079,-0.0254 -0.0804,-0.0296 -0.14386,-0.0931 -0.0635,-0.0635 -0.10155,-0.16079 -0.0381,-0.10155 -0.0381,-0.24541 V 3.63538 h 0.43158 v 1.48517 q 0,0.11847 0.055,0.18617 0.055,0.0677 0.15656,0.0677 0.12271,0 0.16925,-0.0762 0.0465,-0.0762 0.0465,-0.22003 V 3.63534 Z m 0.33004,-0.86741 h 0.43159 v 2.40758 q 0,0.12271 0.0423,0.16925 0.0465,0.0423 0.16925,0.055 v 0.40619 q -0.1481,0 -0.26657,-0.0254 -0.11848,-0.0212 -0.2031,-0.0889 -0.0846,-0.0635 -0.13117,-0.17771 -0.0423,-0.11848 -0.0423,-0.30888 z m 2.06062,2.10293 h -0.85471 v 0.29196 q 0,0.10155 0.055,0.15655 0.0592,0.055 0.15655,0.055 0.12271,0 0.16079,-0.0719 0.0423,-0.0719 0.0508,-0.14386 h 0.43159 q 0,0.28349 -0.17349,0.45697 -0.0846,0.0889 -0.2031,0.13963 -0.11847,0.0508 -0.26656,0.0508 -0.2031,0 -0.34696,-0.0846 -0.13964,-0.0846 -0.2158,-0.22426 -0.0465,-0.0846 -0.0635,-0.19463 -0.0169,-0.11001 -0.0169,-0.24118 V 4.35475 q 0,-0.13117 0.0169,-0.24118 0.0169,-0.11001 0.0635,-0.19464 0.0762,-0.13963 0.2158,-0.22425 0.14386,-0.0846 0.34696,-0.0846 0.14809,0 0.26656,0.0508 0.12271,0.0508 0.20734,0.13963 0.16925,0.1904 0.16925,0.47813 z m -0.85471,-0.3385 h 0.42312 V 4.28698 q 0,-0.12271 -0.0592,-0.18194 -0.055,-0.0635 -0.15233,-0.0635 -0.0973,0 -0.15655,0.0635 -0.055,0.0592 -0.055,0.18194 z m 1.95483,-0.29619 q -0.004,-0.11001 -0.0719,-0.16501 -0.0635,-0.055 -0.14809,-0.055 -0.10155,0 -0.15656,0.0677 -0.055,0.0635 -0.055,0.14809 0,0.0592 0.0296,0.11848 0.0296,0.055 0.15233,0.10155 l 0.25387,0.10155 q 0.24118,0.0931 0.33004,0.25387 0.0931,0.16079 0.0931,0.3512 0,0.13539 -0.0508,0.25387 -0.0465,0.11424 -0.13117,0.2031 -0.0846,0.0889 -0.2031,0.13963 -0.11847,0.0508 -0.2581,0.0508 -0.26234,0 -0.44005,-0.16501 -0.0889,-0.0804 -0.14387,-0.19887 -0.055,-0.12271 -0.0592,-0.28349 h 0.4062 q 0.0127,0.0888 0.0592,0.16501 0.0508,0.0762 0.17348,0.0762 0.0931,0 0.16502,-0.0592 0.0762,-0.0635 0.0762,-0.17348 0,-0.0889 -0.0465,-0.15233 -0.0465,-0.0635 -0.16925,-0.11001 l -0.20733,-0.0762 q -0.2031,-0.0762 -0.32157,-0.22426 -0.11425,-0.15232 -0.11425,-0.36812 0,-0.13539 0.0508,-0.24964 0.0508,-0.11847 0.13964,-0.2031 0.0846,-0.0846 0.19886,-0.12693 0.11425,-0.0465 0.24542,-0.0465 0.13116,0 0.24118,0.0465 0.11424,0.0465 0.19463,0.13116 0.0804,0.0846 0.12694,0.2031 0.0465,0.11425 0.0465,0.24541 z"
         id="text1"
         style="font-size:4.23124px;line-height:1.25;font-family:'DIN Condensed';-inkscape-font-specification:'DIN Condensed, ';text-align:center;text-anchor:middle;fill:#ececec;stroke-width:0.264583"
         aria-label="acModules" /><path
         d="M 71.965851,4.37769 V 3.47598 h 0.33867 v 0.90171 h 0.9017 v 0.33866 h -0.9017 v 0.9017 h -0.33867 v -0.9017 h -0.9017 V 4.37769 Z"
         id="text2"
         style="font-size:4.23333px;line-height:1.25;font-family:'DIN Condensed';-inkscape-font-specification:'DIN Condensed, ';text-align:center;text-anchor:middle;fill:#ff6600;stroke-width:0.264583"
         aria-label="+" /><path
         style="font-size:3.1592px;line-height:1.25;font-family:'Heysei Synthesizer';-inkscape-font-specification:'Heysei Synthesizer';text-align:center;text-anchor:middle;fill:#ececec;stroke-width:0.264583"
         d="M 74.558937,5.80604 Q 74.278188,5.79064 74.250422,5.57157 L 74.02212,3.76367 q 0.02777,-0.21288 0.308516,-0.2283 h 0.246812 q 0.280749,0.0154 0.308516,0.23447 l 0.129576,0.99342 0.234472,-0.99959 q 0.03085,-0.20054 0.302346,-0.2283 h 0.148087 q 0.271494,0.0278 0.302345,0.2283 l 0.234472,0.99959 0.129577,-0.99342 q 0.02777,-0.21905 0.308515,-0.23447 h 0.246813 q 0.28075,0.0154 0.308516,0.2283 l -0.228302,1.8079 q -0.02777,0.21905 -0.308516,0.23447 h -0.549157 q -0.237557,0 -0.327027,-0.19128 l -0.19128,-0.69107 -0.191279,0.69107 q -0.08947,0.19128 -0.327027,0.19128 z m 3.683677,-0.8515 Q 77.96495,4.95154 77.826118,4.85894 77.687286,4.76334 77.637924,4.56585 L 77.415792,3.76988 q 0.02777,-0.21905 0.308516,-0.23447 h 0.246812 q 0.268409,0.0154 0.308516,0.2283 l 0.166599,0.61703 h 0.555328 l 0.166598,-0.61703 q 0.04011,-0.21288 0.308516,-0.2283 h 0.246812 q 0.280749,0.0154 0.308516,0.23447 l -0.222131,0.79597 q -0.04936,0.19745 -0.188195,0.29309 -0.138832,0.0926 -0.416496,0.0956 h -0.04936 v 0.61703 q -0.02777,0.21905 -0.308515,0.23447 H 78.600495 Q 78.319746,5.79064 78.29198,5.57157 V 4.95454 Z m 2.585361,0.8515 Q 80.550311,5.80304 80.389883,5.70115 80.23254,5.59625 80.217114,5.42965 V 3.91176 q 0.01543,-0.1666 0.172769,-0.26841 0.160428,-0.1049 0.438092,-0.10798 h 1.838753 q 0.160428,0.006 0.166599,0.19745 V 3.9241 q -0.0062,0.19128 -0.172769,0.19745 h -1.58577 v 1.10448 h 0.900865 V 4.96688 H 81.537561 Q 81.377133,4.96088 81.370962,4.76943 V 4.57815 q 0.0062,-0.19128 0.172769,-0.19745 h 0.678735 q 0.277664,0.003 0.435007,0.10798 0.160428,0.10181 0.175854,0.26841 v 0.67256 q -0.01543,0.1666 -0.175854,0.2715 -0.157343,0.10181 -0.435007,0.10489 z m 2.850685,0 Q 83.400996,5.80304 83.240567,5.70115 83.083224,5.59625 83.067799,5.42965 V 3.91176 q 0.01543,-0.1666 0.172768,-0.26841 0.160429,-0.1049 0.438093,-0.10798 h 1.39449 q 0.277664,0.003 0.435007,0.10798 0.160428,0.10181 0.175854,0.26841 v 1.51789 q -0.01543,0.1666 -0.175854,0.2715 -0.157343,0.10181 -0.435007,0.10489 z M 84.823253,5.22603 V 4.11538 h -0.891611 v 1.11065 z m 1.403746,0.58001 Q 85.946249,5.79064 85.918483,5.57157 V 3.76984 q 0.02777,-0.21905 0.308516,-0.23447 h 0.20979 q 0.259153,0.009 0.462774,0.25298 l 0.771289,0.80214 V 3.76984 q 0.02777,-0.21905 0.308515,-0.23447 h 0.246813 q 0.280749,0.0154 0.308515,0.23447 V 5.57157 Q 88.506925,5.79062 88.22618,5.80604 H 88.016389 Q 87.757236,5.79704 87.553616,5.55306 L 86.782327,4.75092 v 0.82065 q -0.02777,0.21905 -0.308516,0.23447 z m 2.850684,0 Q 88.796933,5.79064 88.769167,5.57157 V 3.76675 q 0.02777,-0.21596 0.308516,-0.23138 h 0.246812 q 0.280749,0.0154 0.308516,0.23447 v 1.80173 q -0.02777,0.21905 -0.308516,0.23447 z m 3.412183,-0.37639 q -0.01543,0.1666 -0.175854,0.2715 -0.157343,0.10181 -0.435007,0.10489 H 90.478344 Q 90.20068,5.80304 90.040252,5.70115 89.882909,5.59625 89.867483,5.42965 V 3.76984 q 0.02777,-0.21905 0.308516,-0.23447 h 0.246812 q 0.28075,0.0154 0.308516,0.23447 v 1.45619 h 0.900866 V 3.76675 q 0.02777,-0.21596 0.308515,-0.23138 h 0.240642 q 0.28075,0.0154 0.308516,0.23447 z m 0.542987,0.37639 Q 92.752104,5.79064 92.724338,5.57157 V 3.76984 q 0.02777,-0.21905 0.308515,-0.23447 h 0.481285 q 0.20362,0.003 0.290004,0.19128 l 0.475114,0.93789 h 0.0062 L 94.76057,3.72665 q 0.08638,-0.1882 0.290004,-0.19128 h 0.481285 q 0.280749,0.0154 0.308515,0.23447 v 1.80173 q -0.02777,0.21905 -0.308515,0.23447 H 95.285046 Q 95.004297,5.79064 94.976531,5.57157 V 4.98539 L 94.661845,5.62093 Q 94.581635,5.80296 94.37184,5.80604 H 94.192901 Q 93.98311,5.80304 93.902896,5.62093 L 93.58821,4.98539 v 0.58618 q -0.02777,0.21905 -0.308515,0.23447 z"
         id="text3"
         aria-label="WYGONIUM" /></g><g
       id="g11"
       transform="translate(2.6406207)"><g
         id="g10"
         transform="matrix(0.55135733,0,0,0.55135733,91.828245,6.0345266)"
         style="stroke-width:1.81371"><path
           id="path5"
           style="font-size:6.90696px;line-height:1.25;font-family:'Heysei Synthesizer';-inkscape-font-specification:'Heysei Synthesizer';text-align:center;text-anchor:middle;fill:#ececec;stroke-width:0.479876"
           d="m 74.264272,8.0340191 c 0.0353,1.6529502 -0.0161,3.3157709 0,4.9645509 h 1.20044 c 0.4092,-0.02248 0.63388,-0.19336 0.67438,-0.51263 v -1.33532 h 1.59215 l 0.36432,1.34876 c 0.0584,0.31029 0.28316,0.47669 0.67438,0.49919 h 0.5395 c 0.40921,-0.02248 0.63388,-0.19336 0.67438,-0.51263 l -0.4315,-1.537891 c -0.10342,-0.21584 -0.31702,-0.36393 -0.64079,-0.44493 0.28779,-0.02698 0.53522,-0.10798 0.74207,-0.24288 0.20687,-0.1349 0.32115,-0.3235597 0.34365,-0.5663797 V 8.8572191 c -0.0225,-0.24283 -0.15012,-0.43865 -0.38395,-0.58704 -0.22933,-0.15267 -0.54666,-0.23065 -0.95137,-0.23565 -1.46584,0 -2.93183,0.0015 -4.39766,-5.1e-4 z m 1.87482,1.26814 h 1.96991 v 0.3240102 c -0.0225,0.16192 -0.11681,0.24731 -0.28319,0.25631 h -1.68672 z" /><path
           id="path7"
           style="font-size:6.90696px;line-height:1.25;font-family:'Heysei Synthesizer';-inkscape-font-specification:'Heysei Synthesizer';text-align:center;text-anchor:middle;fill:#ececec;stroke-width:0.479876"
           d="m 80.510402,8.0340191 c -0.006,1.4217 0,4.9650709 0,4.9650709 0,0 3.07181,0.01008 4.39766,-5.2e-4 0.4047,-0.0045 0.72152,-0.08054 0.95085,-0.22893 0.23385,-0.15289 0.36197,-0.35093 0.38447,-0.59376 v -0.90382 c -0.0225,-0.220341 -0.099,-0.386781 -0.22944,-0.499191 -0.13041,-0.11241 -0.32794,-0.19782 -0.59325,-0.25632 0.26531,-0.05845 0.46284,-0.14389 0.59325,-0.25631 0.13043,-0.11242 0.20694,-0.2788697 0.22944,-0.4991997 V 8.8572191 c -0.0225,-0.24283 -0.15064,-0.43865 -0.38447,-0.58704 -0.22933,-0.15267 -0.54615,-0.23065 -0.95085,-0.23565 -1.45441,0 -4.39766,-5.1e-4 -4.39766,-5.1e-4 z m 1.87482,1.26814 h 1.96939 v 0.3240102 c -0.0225,0.16192 -0.11682,0.24731 -0.28319,0.25631 h -1.6862 z m 0,1.8484609 h 1.6862 c 0.16639,0.009 0.26069,0.09443 0.28319,0.25632 v 0.32349 h -1.96939 z" /><path
           style="font-size:6.90696px;line-height:1.25;font-family:'Heysei Synthesizer';-inkscape-font-specification:'Heysei Synthesizer';text-align:center;text-anchor:middle;fill:#ff6600;stroke-width:0.479876"
           d="m 73.697612,13.0864 c -0.009,0.23383 -0.1529,0.35524 -0.43169,0.36423 h -0.37772 c -0.2788,-0.009 -0.4227,-0.13041 -0.43169,-0.36423 V 7.7577891 c 0.009,-0.23383 0.1529,-0.35525 0.43169,-0.36424 h 0.37772 c 0.2788,0.009 0.4227,0.13041 0.43169,0.36424 z"
           id="path4" /><path
           style="font-size:6.90696px;line-height:1.25;font-family:'Heysei Synthesizer';-inkscape-font-specification:'Heysei Synthesizer';text-align:center;text-anchor:middle;fill:#ececec;stroke-width:0.479876"
           d="m 66.156612,8.8572391 c 0.0225,-0.24283 0.14837,-0.43844 0.37772,-0.58683 0.23383,-0.15289 0.5531,-0.23158 0.9578,-0.23607 h 3.06227 c 0.40471,0.005 0.72173,0.0834 0.95106,0.23607 0.23383,0.14839 0.36198,0.344 0.38447,0.58683 v 0.7824202 c -0.0405,0.31927 -0.2653,0.4901497 -0.67451,0.5126297 h -0.53961 c -0.4092,-0.0225 -0.63404,-0.1933397 -0.67451,-0.5126297 V 9.3024091 h -1.96956 V 11.73064 h 1.96956 v -0.33726 c 0.0405,-0.31927 0.2653,-0.490141 0.67451,-0.512621 h 0.53961 c 0.4092,0.0225 0.63404,0.193341 0.67451,0.512621 v 0.78243 c -0.0225,0.24283 -0.15062,0.44068 -0.38447,0.59357 -0.22933,0.14839 -0.54635,0.22484 -0.95106,0.22933 h -3.06227 c -0.4047,-0.005 -0.72397,-0.0811 -0.9578,-0.22933 -0.22933,-0.15289 -0.35524,-0.35074 -0.37772,-0.59357 z"
           id="text4" /></g><rect
         style="fill:#ff6600;stroke:none;stroke-width:0.1;stroke-linejoin:round"
         id="rect4"
         width="2.6419139"
         height="2.7453852"
         x="139.91747"
         y="10.456285" /><path
         d="m 141.51284,10.864529 -0.39553,1.928898 h -0.24382 l -0.39283,-1.928898 h 0.29259 l 0.21944,1.346436 h 0.005 l 0.22215,-1.346436 z m 0.149,1.928898 V 11.4199 h 0.27633 v 1.373527 z m 0,-1.652567 v -0.276331 h 0.27633 v 0.276331 z"
         id="text4-5"
         style="font-size:4.65063px;line-height:1.25;font-family:'DIN Condensed';-inkscape-font-specification:'DIN Condensed, ';text-align:center;text-anchor:middle;fill:#333333;stroke-width:0.264583"
         aria-label="Vi" /></g><path
       style="fill:none;stroke:#1a1a1a;stroke-width:0.264583px;stroke-linecap:butt;stroke-linejoin:miter;stroke-opacity:1"
       d="m 7.1999998,94.999999 v -80 l 138.0486602,0"
       id="path3"
       sodipodi:nodetypes="ccc" /><path
       style="fill:none;stroke:#4d4d4d;stroke-width:0.264583px;stroke-linecap:butt;stroke-linejoin:miter;stroke-opacity:1"
       d="m 145.2,14.999999 v 80 H 7.1999998"
       id="path3-9"
       sodipodi:nodetypes="ccc" /><path
       d="m 63.809585,121.22604 h -0.32385 v -0.073 q 0,-0.11113 -0.05397,-0.1905 -0.0508,-0.0825 -0.174625,-0.0825 -0.06667,0 -0.10795,0.0254 -0.04128,0.0254 -0.06668,0.0635 -0.0254,0.0413 -0.03493,0.0952 -0.0095,0.0508 -0.0095,0.10795 0,0.0667 0.0032,0.11112 0.0063,0.0444 0.0254,0.0794 0.01905,0.0349 0.05398,0.0603 0.0381,0.0254 0.1016,0.0508 l 0.24765,0.0984 q 0.10795,0.0413 0.174625,0.0984 0.06667,0.054 0.104775,0.127 0.03493,0.0762 0.04763,0.17463 0.0127,0.0952 0.0127,0.21907 0,0.14288 -0.02858,0.2667 -0.02858,0.12065 -0.09207,0.20638 -0.06668,0.0889 -0.174625,0.1397 -0.10795,0.0508 -0.263525,0.0508 -0.117475,0 -0.219075,-0.0413 -0.1016,-0.0413 -0.174625,-0.1143 -0.07303,-0.073 -0.117475,-0.16827 -0.04127,-0.0984 -0.04127,-0.21273 v -0.12065 h 0.32385 v 0.1016 q 0,0.0889 0.0508,0.16193 0.05397,0.0699 0.1778,0.0699 0.08255,0 0.127,-0.0222 0.04762,-0.0254 0.07302,-0.0699 0.0254,-0.0444 0.02858,-0.10477 0.0063,-0.0635 0.0063,-0.1397 0,-0.0889 -0.0063,-0.14605 -0.0063,-0.0572 -0.0254,-0.0921 -0.02223,-0.0349 -0.06033,-0.0572 -0.03493,-0.0222 -0.09525,-0.0476 l -0.231775,-0.0953 q -0.20955,-0.0857 -0.282575,-0.22543 -0.06985,-0.14287 -0.06985,-0.3556 0,-0.127 0.03493,-0.2413 0.03493,-0.1143 0.104775,-0.19685 0.06668,-0.0825 0.168275,-0.13017 0.104775,-0.0508 0.24765,-0.0508 0.12065,0 0.219075,0.0444 0.1016,0.0444 0.174625,0.11747 0.14605,0.1524 0.14605,0.34925 z m 0.2286,1.60973 v -2.2606 h 0.31115 l 0.48895,1.36207 h 0.0063 v -1.36207 h 0.32385 v 2.2606 h -0.3048 l -0.4953,-1.3589 h -0.0064 v 1.3589 z m 2.076451,-0.79058 -0.15875,-0.81915 h -0.0063 l -0.15875,0.81915 z m -0.8001,0.79058 0.504825,-2.2606 h 0.269875 l 0.504825,2.2606 h -0.32385 l -0.09525,-0.48578 h -0.441325 l -0.09525,0.48578 z m 1.438274,0 v -2.2606 h 0.485775 q 0.13335,0 0.23495,0.0349 0.1016,0.0349 0.18415,0.12383 0.08255,0.0889 0.1143,0.20955 0.03175,0.11747 0.03175,0.32067 0,0.1524 -0.01905,0.25718 -0.01587,0.10477 -0.07303,0.19685 -0.06668,0.11112 -0.1778,0.17462 -0.111125,0.0603 -0.2921,0.0603 h -0.1651 v 0.88265 z m 0.32385,-1.9558 v 0.76835 h 0.155575 q 0.09842,0 0.1524,-0.0286 0.05397,-0.0286 0.07937,-0.0794 0.0254,-0.0476 0.02857,-0.11748 0.0064,-0.0699 0.0064,-0.15557 0,-0.0794 -0.0032,-0.14923 -0.0032,-0.073 -0.02857,-0.127 -0.0254,-0.054 -0.0762,-0.0825 -0.0508,-0.0286 -0.14605,-0.0286 z"
       id="text6"
       style="font-size:3.175px;line-height:1.25;font-family:'DIN Condensed';-inkscape-font-specification:'DIN Condensed, ';text-align:center;text-anchor:middle;fill:#ececec;stroke-width:0.264583"
       aria-label="SNAP" /><path
       d="m 39.990207,121.10857 q 0,-0.13653 0.04762,-0.2413 0.04763,-0.10478 0.127,-0.17463 0.0762,-0.0667 0.17145,-0.1016 0.09842,-0.0349 0.19685,-0.0349 0.09842,0 0.193675,0.0349 0.09843,0.0349 0.1778,0.1016 0.0762,0.0698 0.123825,0.17463 0.04763,0.10477 0.04763,0.2413 v 1.1938 q 0,0.14287 -0.04763,0.24447 -0.04762,0.1016 -0.123825,0.16828 -0.07937,0.0699 -0.1778,0.10477 -0.09525,0.0349 -0.193675,0.0349 -0.09842,0 -0.19685,-0.0349 -0.09525,-0.0349 -0.17145,-0.10477 -0.07937,-0.0667 -0.127,-0.16828 -0.04762,-0.1016 -0.04762,-0.24447 z m 0.32385,1.1938 q 0,0.11747 0.0635,0.17462 0.06668,0.054 0.155575,0.054 0.0889,0 0.1524,-0.054 0.06668,-0.0571 0.06668,-0.17462 v -1.1938 q 0,-0.11748 -0.06668,-0.17145 -0.0635,-0.0572 -0.1524,-0.0572 -0.0889,0 -0.155575,0.0572 -0.0635,0.054 -0.0635,0.17145 z m 2.076452,-0.11113 v 0.1397 q 0,0.10478 -0.04127,0.20003 -0.0381,0.0921 -0.10795,0.1651 -0.06985,0.073 -0.1651,0.11747 -0.09208,0.0413 -0.200025,0.0413 -0.09208,0 -0.187325,-0.0254 -0.09525,-0.0254 -0.17145,-0.0889 -0.0762,-0.0635 -0.127,-0.16193 -0.04763,-0.1016 -0.04763,-0.25717 v -1.2446 q 0,-0.11113 0.0381,-0.20638 0.0381,-0.0952 0.10795,-0.1651 0.06985,-0.0699 0.1651,-0.10795 0.09842,-0.0413 0.2159,-0.0413 0.2286,0 0.371475,0.14922 0.06985,0.073 0.10795,0.17463 0.04127,0.0984 0.04127,0.2159 v 0.127 h -0.32385 v -0.10795 q 0,-0.0952 -0.05398,-0.1651 -0.05397,-0.0699 -0.14605,-0.0699 -0.12065,0 -0.161925,0.0762 -0.0381,0.073 -0.0381,0.18732 v 1.1557 q 0,0.0984 0.04128,0.1651 0.04445,0.0667 0.155575,0.0667 0.03175,0 0.06668,-0.01 0.0381,-0.0127 0.06985,-0.0381 0.02858,-0.0254 0.04762,-0.0698 0.01905,-0.0445 0.01905,-0.11112 v -0.11113 z m 0.476249,0.64453 v -1.9558 h -0.37465 v -0.3048 h 1.07315 v 0.3048 h -0.37465 v 1.9558 z m 1.320801,-0.79058 -0.15875,-0.81915 h -0.0063 l -0.15875,0.81915 z m -0.8001,0.79058 0.504825,-2.2606 h 0.269875 l 0.504825,2.2606 h -0.32385 l -0.09525,-0.48578 h -0.441325 l -0.09525,0.48578 z m 2.419347,-2.2606 -0.46355,2.2606 h -0.28575 l -0.460375,-2.2606 h 0.3429 l 0.257175,1.57797 h 0.0063 l 0.26035,-1.57797 z m 0.193674,2.2606 v -2.2606 h 0.9652 v 0.3048 h -0.64135 v 0.66357 h 0.5588 v 0.3048 h -0.5588 v 0.66358 h 0.64135 v 0.32385 z m 2.222502,-1.60973 h -0.32385 v -0.073 q 0,-0.11113 -0.05397,-0.1905 -0.0508,-0.0825 -0.174625,-0.0825 -0.06668,0 -0.10795,0.0254 -0.04127,0.0254 -0.06667,0.0635 -0.0254,0.0413 -0.03493,0.0952 -0.0095,0.0508 -0.0095,0.10795 0,0.0667 0.0032,0.11112 0.0064,0.0444 0.0254,0.0794 0.01905,0.0349 0.05398,0.0603 0.0381,0.0254 0.1016,0.0508 l 0.24765,0.0984 q 0.10795,0.0413 0.174625,0.0984 0.06668,0.054 0.104775,0.127 0.03493,0.0762 0.04762,0.17463 0.0127,0.0952 0.0127,0.21907 0,0.14288 -0.02858,0.2667 -0.02858,0.12065 -0.09208,0.20638 -0.06667,0.0889 -0.174625,0.1397 -0.10795,0.0508 -0.263525,0.0508 -0.117475,0 -0.219075,-0.0413 -0.1016,-0.0413 -0.174625,-0.1143 -0.07303,-0.073 -0.117475,-0.16827 -0.04127,-0.0984 -0.04127,-0.21273 v -0.12065 h 0.32385 v 0.1016 q 0,0.0889 0.0508,0.16193 0.05398,0.0699 0.1778,0.0699 0.08255,0 0.127,-0.0222 0.04763,-0.0254 0.07303,-0.0699 0.0254,-0.0444 0.02858,-0.10477 0.0063,-0.0635 0.0063,-0.1397 0,-0.0889 -0.0063,-0.14605 -0.0063,-0.0572 -0.0254,-0.0921 -0.02222,-0.0349 -0.06032,-0.0572 -0.03493,-0.0222 -0.09525,-0.0476 l -0.231775,-0.0953 q -0.20955,-0.0857 -0.282575,-0.22543 -0.06985,-0.14287 -0.06985,-0.3556 0,-0.127 0.03493,-0.2413 0.03493,-0.1143 0.104775,-0.19685 0.06667,-0.0825 0.168275,-0.13017 0.104775,-0.0508 0.24765,-0.0508 0.12065,0 0.219075,0.0444 0.1016,0.0444 0.174625,0.11747 0.14605,0.1524 0.14605,0.34925 z"
       id="text6-4"
       style="font-size:3.175px;line-height:1.25;font-family:'DIN Condensed';-inkscape-font-specification:'DIN Condensed, ';text-align:center;text-anchor:middle;fill:#ececec;stroke-width:0.264583"
       aria-label="OCTAVES" /><path
       d="m 84.366635,122.19124 v 0.1397 q 0,0.10478 -0.0413,0.20003 -0.0381,0.0921 -0.10795,0.1651 -0.0699,0.073 -0.1651,0.11747 -0.0921,0.0413 -0.20003,0.0413 -0.0921,0 -0.18732,-0.0254 -0.0953,-0.0254 -0.17145,-0.0889 -0.0762,-0.0635 -0.127,-0.16193 -0.0476,-0.1016 -0.0476,-0.25717 v -1.2446 q 0,-0.11113 0.0381,-0.20638 0.0381,-0.0952 0.10795,-0.1651 0.0698,-0.0699 0.1651,-0.10795 0.0984,-0.0413 0.2159,-0.0413 0.2286,0 0.37148,0.14922 0.0699,0.073 0.10795,0.17463 0.0413,0.0984 0.0413,0.2159 v 0.127 h -0.32385 v -0.10795 q 0,-0.0952 -0.054,-0.1651 -0.054,-0.0699 -0.14605,-0.0699 -0.12065,0 -0.16193,0.0762 -0.0381,0.073 -0.0381,0.18732 v 1.1557 q 0,0.0984 0.0413,0.1651 0.0444,0.0667 0.15557,0.0667 0.0318,0 0.0667,-0.01 0.0381,-0.0127 0.0699,-0.0381 0.0286,-0.0254 0.0476,-0.0698 0.0191,-0.0445 0.0191,-0.11112 v -0.11113 z m 1.31127,-1.61607 v 1.7526 q 0,0.11112 -0.0413,0.20637 -0.0381,0.0921 -0.11113,0.1651 -0.073,0.073 -0.16827,0.1143 -0.0952,0.0413 -0.2032,0.0413 -0.10795,0 -0.2032,-0.0413 -0.0921,-0.0413 -0.1651,-0.1143 -0.073,-0.073 -0.1143,-0.1651 -0.0413,-0.0953 -0.0413,-0.20637 v -1.7526 h 0.32385 v 1.72085 q 0,0.12065 0.0571,0.1778 0.0572,0.0572 0.14288,0.0572 0.0857,0 0.14287,-0.0572 0.0571,-0.0571 0.0571,-0.1778 v -1.72085 z m 0.62866,0.3048 v 0.70485 h 0.18415 q 0.0857,0 0.13652,-0.0222 0.0508,-0.0254 0.0794,-0.0699 0.0254,-0.0444 0.0349,-0.10795 0.01,-0.0667 0.01,-0.1524 0,-0.0857 -0.01,-0.14922 -0.01,-0.0667 -0.0381,-0.1143 -0.0603,-0.0889 -0.2286,-0.0889 z m -0.32385,1.9558 v -2.2606 h 0.5207 q 0.5715,0 0.5715,0.66357 0,0.20003 -0.0635,0.33973 -0.0603,0.1397 -0.2159,0.22542 l 0.34925,1.03188 h -0.3429 l -0.30163,-0.9652 h -0.19367 v 0.9652 z m 2.451097,-2.2606 -0.463547,2.2606 h -0.28575 l -0.46038,-2.2606 h 0.3429 l 0.25718,1.57797 h 0.006 l 0.26035,-1.57797 z m 0.19367,2.2606 v -2.2606 h 0.9652 v 0.3048 h -0.64135 v 0.66357 h 0.5588 v 0.3048 h -0.5588 v 0.66358 h 0.64135 v 0.32385 z"
       id="text6-9"
       style="font-size:3.175px;line-height:1.25;font-family:'DIN Condensed';-inkscape-font-specification:'DIN Condensed, ';text-align:center;text-anchor:middle;fill:#ececec;stroke-width:0.264583"
       aria-label="CURVE" /><path
       d="m 13.705189,122.83577 v -2.2606 h 0.473074 q 0.155575,0 0.263525,0.0476 0.111125,0.0476 0.180975,0.127 0.06985,0.0794 0.09842,0.18415 0.03175,0.1016 0.03175,0.21272 v 0.0825 q 0,0.0921 -0.01588,0.15558 -0.0127,0.0635 -0.04127,0.11112 -0.05398,0.0889 -0.1651,0.1524 0.1143,0.054 0.168275,0.15875 0.05398,0.10478 0.05398,0.28575 v 0.127 q 0,0.29845 -0.14605,0.4572 -0.142875,0.15875 -0.460375,0.15875 z m 0.323849,-1.04775 v 0.7239 h 0.1397 q 0.09843,0 0.1524,-0.0286 0.05715,-0.0286 0.08573,-0.0794 0.02857,-0.0508 0.03493,-0.12065 0.0063,-0.0698 0.0063,-0.1524 0,-0.0857 -0.0095,-0.14922 -0.0095,-0.0635 -0.0381,-0.10795 -0.03175,-0.0445 -0.08573,-0.0635 -0.05398,-0.0222 -0.142875,-0.0222 z m 0,-0.90805 v 0.6223 h 0.14605 q 0.161925,0 0.2159,-0.0794 0.05715,-0.0825 0.05715,-0.23813 0,-0.1524 -0.0635,-0.2286 -0.06032,-0.0762 -0.22225,-0.0762 z m 1.644655,1.16523 -0.15875,-0.81915 h -0.0064 l -0.15875,0.81915 z m -0.8001,0.79057 0.504825,-2.2606 h 0.269875 l 0.504825,2.2606 h -0.32385 L 15.734018,122.35 h -0.441325 l -0.09525,0.48577 z m 2.486024,-1.60972 h -0.32385 v -0.073 q 0,-0.11112 -0.05398,-0.1905 -0.0508,-0.0825 -0.174625,-0.0825 -0.06667,0 -0.10795,0.0254 -0.04127,0.0254 -0.06667,0.0635 -0.0254,0.0413 -0.03493,0.0952 -0.0095,0.0508 -0.0095,0.10795 0,0.0667 0.0032,0.11113 0.0063,0.0444 0.0254,0.0794 0.01905,0.0349 0.05398,0.0603 0.0381,0.0254 0.1016,0.0508 l 0.24765,0.0984 q 0.10795,0.0413 0.174625,0.0984 0.06668,0.054 0.104775,0.127 0.03493,0.0762 0.04762,0.17462 0.0127,0.0953 0.0127,0.21908 0,0.14287 -0.02857,0.2667 -0.02858,0.12065 -0.09208,0.20637 -0.06668,0.0889 -0.174625,0.1397 -0.10795,0.0508 -0.263525,0.0508 -0.117475,0 -0.219075,-0.0413 -0.1016,-0.0413 -0.174625,-0.1143 -0.07303,-0.073 -0.117475,-0.16828 -0.04127,-0.0984 -0.04127,-0.21272 v -0.12065 h 0.32385 v 0.1016 q 0,0.0889 0.0508,0.16192 0.05398,0.0699 0.1778,0.0699 0.08255,0 0.127,-0.0222 0.04763,-0.0254 0.07303,-0.0699 0.0254,-0.0444 0.02858,-0.10478 0.0063,-0.0635 0.0063,-0.1397 0,-0.0889 -0.0063,-0.14605 -0.0064,-0.0571 -0.0254,-0.0921 -0.02222,-0.0349 -0.06032,-0.0572 -0.03493,-0.0222 -0.09525,-0.0476 l -0.231775,-0.0952 q -0.20955,-0.0857 -0.282575,-0.22542 -0.06985,-0.14288 -0.06985,-0.3556 0,-0.127 0.03493,-0.2413 0.03492,-0.1143 0.104775,-0.19685 0.06667,-0.0825 0.168275,-0.13018 0.104775,-0.0508 0.24765,-0.0508 0.12065,0 0.219075,0.0444 0.1016,0.0445 0.174625,0.11748 0.14605,0.1524 0.14605,0.34925 z m 0.2413,1.60972 v -2.2606 h 0.9652 v 0.3048 h -0.64135 v 0.66358 h 0.5588 v 0.3048 h -0.5588 v 0.66357 h 0.64135 v 0.32385 z m 1.746256,-1.7272 q 0,-0.13652 0.04763,-0.2413 0.04762,-0.10477 0.127,-0.17462 0.0762,-0.0667 0.17145,-0.1016 0.09842,-0.0349 0.19685,-0.0349 0.09842,0 0.193675,0.0349 0.09842,0.0349 0.1778,0.1016 0.0762,0.0698 0.123825,0.17462 0.04762,0.10478 0.04762,0.2413 v 1.1938 q 0,0.14288 -0.04762,0.24448 -0.04763,0.1016 -0.123825,0.16827 -0.07937,0.0699 -0.1778,0.10478 -0.09525,0.0349 -0.193675,0.0349 -0.09842,0 -0.19685,-0.0349 -0.09525,-0.0349 -0.17145,-0.10478 -0.07938,-0.0667 -0.127,-0.16827 -0.04763,-0.1016 -0.04763,-0.24448 z m 0.32385,1.1938 q 0,0.11748 0.0635,0.17463 0.06667,0.054 0.155575,0.054 0.0889,0 0.1524,-0.054 0.06667,-0.0571 0.06667,-0.17463 v -1.1938 q 0,-0.11747 -0.06667,-0.17145 -0.0635,-0.0571 -0.1524,-0.0571 -0.0889,0 -0.155575,0.0571 -0.0635,0.054 -0.0635,0.17145 z m 2.076452,-0.11112 v 0.1397 q 0,0.10477 -0.04127,0.20002 -0.0381,0.0921 -0.10795,0.1651 -0.06985,0.073 -0.1651,0.11748 -0.09207,0.0413 -0.200025,0.0413 -0.09208,0 -0.187325,-0.0254 -0.09525,-0.0254 -0.17145,-0.0889 -0.0762,-0.0635 -0.127,-0.16192 -0.04762,-0.1016 -0.04762,-0.25718 v -1.2446 q 0,-0.11112 0.0381,-0.20637 0.0381,-0.0952 0.10795,-0.1651 0.06985,-0.0699 0.1651,-0.10795 0.09842,-0.0413 0.2159,-0.0413 0.2286,0 0.371475,0.14923 0.06985,0.073 0.10795,0.17462 0.04127,0.0984 0.04127,0.2159 v 0.127 h -0.32385 v -0.10795 q 0,-0.0953 -0.05398,-0.1651 -0.05398,-0.0698 -0.14605,-0.0698 -0.12065,0 -0.161925,0.0762 -0.0381,0.073 -0.0381,0.18733 v 1.1557 q 0,0.0984 0.04127,0.1651 0.04445,0.0667 0.155575,0.0667 0.03175,0 0.06668,-0.01 0.0381,-0.0127 0.06985,-0.0381 0.02858,-0.0254 0.04763,-0.0699 0.01905,-0.0444 0.01905,-0.11113 v -0.11112 z m 0.476248,0.64452 v -1.9558 h -0.37465 v -0.3048 h 1.07315 v 0.3048 h -0.37465 v 1.9558 z m 1.320801,-0.79057 -0.15875,-0.81915 h -0.0063 l -0.15875,0.81915 z m -0.8001,0.79057 0.504825,-2.2606 h 0.269875 l 0.504825,2.2606 h -0.32385 L 23.604849,122.35 h -0.441325 l -0.09525,0.48577 z m 2.419348,-2.2606 -0.46355,2.2606 h -0.28575 l -0.460375,-2.2606 h 0.3429 l 0.257175,1.57798 h 0.0063 l 0.26035,-1.57798 z m 0.193673,2.2606 v -2.2606 h 0.9652 v 0.3048 h -0.64135 v 0.66358 h 0.5588 v 0.3048 h -0.5588 v 0.66357 h 0.64135 v 0.32385 z"
       id="text21"
       style="font-size:3.175px;line-height:1.25;font-family:'DIN Condensed';-inkscape-font-specification:'DIN Condensed, ';text-align:center;text-anchor:middle;fill:#ececec;stroke-width:0.264583"
       aria-label="BASE OCTAVE" /><g
       id="g42"
       transform="translate(-18.693545,3.8892516)"><circle
         style="opacity:1;fill:#ff6600;stroke:#ff6600;stroke-width:0.5;stroke-linecap:round;stroke-dasharray:none"
         id="path25"
         cx="100.34624"
         cy="113.6462"
         r="2.0428581" /><path
         style="fill:none;stroke:#f9f9f9;stroke-width:0.264583px;stroke-linecap:butt;stroke-linejoin:miter;stroke-opacity:1"
         d="m 99.257183,114.73526 2.178117,-2.17812"
         id="path21" /></g><g
       id="g41"
       transform="translate(-25.768657,3.8892516)"><circle
         style="fill:#ff6600;stroke:#ff6600;stroke-width:0.5;stroke-linecap:round;stroke-dasharray:none"
         id="path25-9"
         cx="117.02754"
         cy="113.6462"
         r="2.0428581" /><path
         style="fill:none;stroke:#f9f9f9;stroke-width:0.264583px;stroke-linecap:butt;stroke-linejoin:miter;stroke-opacity:1"
         d="m 115.93848,114.73526 h 1.08906 v -2.17812 h 1.08906"
         id="path22" /></g><g
       id="g44"
       transform="translate(-22.945841,2.3625006)"><circle
         style="fill:#ff6600;stroke:#ff6600;stroke-width:0.5;stroke-linecap:round;stroke-dasharray:none"
         id="path25-8"
         cx="100.30719"
         cy="103.74953"
         r="2.0428581" /><path
         style="fill:none;stroke:#f9f9f9;stroke-width:0.264583px;stroke-linecap:butt;stroke-linejoin:miter;stroke-opacity:1"
         d="m 99.218132,104.83859 c 1.916278,-0.28288 2.178118,-2.17812 2.178118,-2.17812"
         id="path23"
         sodipodi:nodetypes="cc" /></g><circle
       style="fill:#ff6600;stroke:#ff6600;stroke-width:0.5;stroke-linecap:round;stroke-dasharray:none"
       id="path25-3"
       cx="86.417702"
       cy="99.563972"
       r="2.0428581" /><path
       style="fill:none;stroke:#f9f9f9;stroke-width:0.264583px;stroke-linecap:butt;stroke-linejoin:miter;stroke-opacity:1"
       d="m 85.328625,100.65297 c 1.72894,0.0187 0.61746,-2.178127 2.17812,-2.178127"
       id="path23-8-4"
       sodipodi:nodetypes="cc" /><circle
       style="fill:#ff6600;stroke:#ff6600;stroke-width:0.5;stroke-linecap:round;stroke-dasharray:none"
       id="path25-07"
       cx="39.159641"
       cy="117.53547"
       r="2.0428581" /><path
       d="m 39.070962,118.6245 v -1.9177 l -0.32385,0.23813 v -0.3429 l 0.32385,-0.23813 h 0.32385 v 2.2606 z"
       id="text24"
       style="font-size:3.175px;line-height:1.25;font-family:'DIN Condensed';-inkscape-font-specification:'DIN Condensed, ';text-align:center;text-anchor:middle;fill:#f9f9f9;stroke-width:0.264583"
       aria-label="1" /><circle
       style="fill:#ff6600;stroke:#ff6600;stroke-width:0.5;stroke-linecap:round;stroke-dasharray:none"
       id="path25-07-8"
       cx="49.573223"
       cy="117.53547"
       r="2.0428581" /><path
       d="m 49.474756,117.35758 q 0.14605,0 0.200024,-0.0349 0.05715,-0.0349 0.05715,-0.16193 v -0.2921 q 0,-0.0699 -0.04445,-0.1143 -0.04127,-0.0444 -0.1143,-0.0444 -0.08573,0 -0.123825,0.054 -0.03492,0.054 -0.03492,0.10477 v 0.18415 h -0.323849 v -0.18732 q 0,-0.0984 0.0381,-0.18733 0.0381,-0.0889 0.104775,-0.1524 0.06668,-0.0635 0.155575,-0.1016 0.0889,-0.0381 0.1905,-0.0381 0.13335,0 0.219075,0.054 0.0889,0.0508 0.13335,0.10477 0.03175,0.0381 0.05398,0.0762 0.0254,0.0381 0.04127,0.0921 0.02857,0.10477 0.02857,0.31115 0,0.11747 -0.0063,0.1905 -0.0032,0.073 -0.02222,0.12065 -0.02223,0.0508 -0.0635,0.0857 -0.0381,0.0349 -0.10795,0.0762 0.0762,0.0476 0.1143,0.0889 0.04127,0.0413 0.06033,0.0952 0.01905,0.0572 0.02222,0.13653 0.0032,0.0762 0.0032,0.19685 0,0.11112 -0.0063,0.18415 -0.0032,0.073 -0.0127,0.12065 -0.0095,0.0508 -0.0254,0.0857 -0.01587,0.0349 -0.04127,0.073 -0.06032,0.0889 -0.155575,0.14922 -0.09207,0.0572 -0.244475,0.0572 -0.0762,0 -0.161925,-0.0254 -0.08572,-0.0254 -0.155575,-0.0825 -0.06985,-0.0572 -0.117475,-0.14922 -0.04445,-0.0921 -0.04445,-0.22543 v -0.18415 h 0.32385 v 0.16828 q 0,0.0762 0.04127,0.127 0.04445,0.0476 0.117475,0.0476 0.07303,0 0.1143,-0.0476 0.04445,-0.0508 0.04445,-0.13335 v -0.32385 q 0,-0.13335 -0.0508,-0.17463 -0.02858,-0.0254 -0.07938,-0.0317 -0.04762,-0.006 -0.127,-0.006 z"
       id="text24-9"
       style="font-size:3.175px;line-height:1.25;font-family:'DIN Condensed';-inkscape-font-specification:'DIN Condensed, ';text-align:center;text-anchor:middle;fill:#f9f9f9;stroke-width:0.264583"
       aria-label="3" /><circle
       style="fill:#ff6600;stroke:#ff6600;stroke-width:0.5;stroke-linecap:round;stroke-dasharray:none"
       id="path25-07-6"
       cx="44.084305"
       cy="99.641212"
       r="2.0428581" /><path
       d="m 43.60177,100.78104 v -0.3048 l 0.5842,-1.101727 q 0.04445,-0.0825 0.0508,-0.14288 0.0063,-0.0635 0.0063,-0.15557 0,-0.0413 -0.0032,-0.0857 0,-0.0476 -0.01587,-0.0825 -0.01587,-0.0349 -0.04762,-0.0572 -0.03175,-0.0254 -0.09208,-0.0254 -0.07303,0 -0.117475,0.0413 -0.04127,0.0413 -0.04127,0.12065 v 0.18415 h -0.32385 v -0.1778 q 0,-0.1016 0.0381,-0.1905 0.0381,-0.0889 0.104775,-0.15558 0.0635,-0.0667 0.1524,-0.10477 0.0889,-0.0413 0.1905,-0.0413 0.127,0 0.2159,0.0476 0.09207,0.0444 0.1524,0.12382 0.05715,0.0794 0.08255,0.18098 0.02858,0.1016 0.02858,0.2159 0,0.0825 -0.0032,0.1397 -0.0032,0.054 -0.0127,0.10477 -0.0095,0.0508 -0.03175,0.1016 -0.02223,0.0508 -0.06033,0.12383 l -0.47625,0.917577 h 0.5842 v 0.32385 z"
       id="text24-9-1"
       style="font-size:3.175px;line-height:1.25;font-family:'DIN Condensed';-inkscape-font-specification:'DIN Condensed, ';text-align:center;text-anchor:middle;fill:#f9f9f9;stroke-width:0.264583"
       aria-label="2" /><circle
       style="fill:#ff6600;stroke:#ff6600;stroke-width:0.5;stroke-linecap:round;stroke-dasharray:none"
       id="path25-07-3"
       cx="15.210819"
       cy="117.53547"
       r="2.0428581" /><path
       d="m 13.749003,117.93867 v -0.32385 h 0.955675 v 0.32385 z m 2.168525,-1.54305 v 0.3048 h -0.64135 v 0.6096 q 0.04445,-0.0444 0.1143,-0.073 0.06985,-0.0317 0.155575,-0.0317 0.1651,0 0.2667,0.1016 0.104775,0.0984 0.104775,0.29845 v 0.5842 q 0,0.1143 -0.04128,0.2032 -0.0381,0.0889 -0.104775,0.1524 -0.06668,0.0635 -0.155575,0.0984 -0.08573,0.0318 -0.180975,0.0318 -0.09525,0 -0.18415,-0.0318 -0.08573,-0.0349 -0.1524,-0.0984 -0.06668,-0.0635 -0.10795,-0.1524 -0.0381,-0.0889 -0.0381,-0.2032 v -0.0952 h 0.32385 v 0.0825 q 0,0.0825 0.04445,0.13017 0.04763,0.0444 0.12065,0.0444 0.07302,0 0.111125,-0.0444 0.04128,-0.0445 0.04128,-0.12382 v -0.53023 q 0,-0.0667 -0.04445,-0.1143 -0.04127,-0.0476 -0.10795,-0.0476 -0.04128,0 -0.06985,0.0159 -0.02858,0.0127 -0.04763,0.0317 -0.01905,0.0191 -0.02857,0.0413 -0.01588,0.0286 -0.01905,0.0349 h -0.28575 v -1.2192 z"
       id="text25"
       style="font-size:3.175px;line-height:1.25;font-family:'DIN Condensed';-inkscape-font-specification:'DIN Condensed, ';text-align:center;text-anchor:middle;fill:#f9f9f9;stroke-width:0.264583"
       aria-label="-5" /><circle
       style="fill:#ff6600;stroke:#ff6600;stroke-width:0.5;stroke-linecap:round;stroke-dasharray:none"
       id="path25-07-3-6"
       cx="11.120054"
       cy="113.20572"
       r="2.0428581" /><path
       d="m 9.6582373,113.60896 v -0.32385 h 0.9556747 v 0.32385 z m 1.7684737,0.71755 v -0.33655 h -0.644525 v -0.3048 l 0.466725,-1.61925 h 0.3429 l -0.485775,1.61925 h 0.320675 v -0.64452 h 0.32385 v 0.64452 h 0.155575 v 0.3048 h -0.155575 v 0.33655 z"
       id="text25-1"
       style="font-size:3.175px;line-height:1.25;font-family:'DIN Condensed';-inkscape-font-specification:'DIN Condensed, ';text-align:center;text-anchor:middle;fill:#f9f9f9;stroke-width:0.264583"
       aria-label="-4" /><circle
       style="fill:#ff6600;stroke:#ff6600;stroke-width:0.5;stroke-linecap:round;stroke-dasharray:none"
       id="path25-07-3-6-1"
       cx="10.052804"
       cy="107.48932"
       r="2.0428581" /><path
       d="m 8.5909869,107.89254 v -0.32385 h 0.9556744 v 0.32385 z m 1.5874991,-0.59055 q 0.14605,0 0.200025,-0.0349 0.05715,-0.0349 0.05715,-0.16192 v -0.2921 q 0,-0.0699 -0.04445,-0.1143 -0.04127,-0.0444 -0.1143,-0.0444 -0.08572,0 -0.123825,0.054 -0.03493,0.054 -0.03493,0.10478 v 0.18415 H 9.7943063 v -0.18733 q 0,-0.0984 0.0381,-0.18732 0.0381,-0.0889 0.104775,-0.1524 0.06668,-0.0635 0.1555747,-0.1016 0.0889,-0.0381 0.1905,-0.0381 0.13335,0 0.219075,0.054 0.0889,0.0508 0.13335,0.10478 0.03175,0.0381 0.05398,0.0762 0.0254,0.0381 0.04127,0.0921 0.02857,0.10478 0.02857,0.31115 0,0.11748 -0.0063,0.1905 -0.0032,0.073 -0.02222,0.12065 -0.02222,0.0508 -0.0635,0.0857 -0.0381,0.0349 -0.10795,0.0762 0.0762,0.0476 0.1143,0.0889 0.04127,0.0413 0.06032,0.0952 0.01905,0.0572 0.02222,0.13652 0.0032,0.0762 0.0032,0.19685 0,0.11113 -0.0063,0.18415 -0.0032,0.073 -0.0127,0.12065 -0.0095,0.0508 -0.0254,0.0857 -0.01588,0.0349 -0.04127,0.073 -0.06032,0.0889 -0.155575,0.14923 -0.09208,0.0571 -0.244475,0.0571 -0.0762,0 -0.161925,-0.0254 -0.08573,-0.0254 -0.1555747,-0.0825 -0.06985,-0.0572 -0.117475,-0.14923 -0.04445,-0.0921 -0.04445,-0.22542 v -0.18415 h 0.3238497 v 0.16827 q 0,0.0762 0.04127,0.127 0.04445,0.0476 0.117475,0.0476 0.07303,0 0.1143,-0.0476 0.04445,-0.0508 0.04445,-0.13335 v -0.32385 q 0,-0.13335 -0.0508,-0.17462 -0.02858,-0.0254 -0.07937,-0.0318 -0.04763,-0.006 -0.127,-0.006 z"
       id="text25-1-4"
       style="font-size:3.175px;line-height:1.25;font-family:'DIN Condensed';-inkscape-font-specification:'DIN Condensed, ';text-align:center;text-anchor:middle;fill:#f9f9f9;stroke-width:0.264583"
       aria-label="-3" /><circle
       style="fill:#ff6600;stroke:#ff6600;stroke-width:0.5;stroke-linecap:round;stroke-dasharray:none"
       id="path25-07-3-6-1-0"
       cx="12.365175"
       cy="102.39713"
       r="2.0428581" /><path
       d="m 10.903358,102.80036 v -0.32386 h 0.955675 v 0.32386 z m 1.203324,0.71755 v -0.3048 l 0.5842,-1.10173 q 0.04445,-0.0825 0.0508,-0.14288 0.0064,-0.0635 0.0064,-0.15557 0,-0.0413 -0.0032,-0.0857 0,-0.0476 -0.01587,-0.0825 -0.01588,-0.0349 -0.04763,-0.0572 -0.03175,-0.0254 -0.09208,-0.0254 -0.07303,0 -0.117475,0.0413 -0.04127,0.0413 -0.04127,0.12065 v 0.18415 h -0.32385 v -0.1778 q 0,-0.1016 0.0381,-0.1905 0.0381,-0.0889 0.104775,-0.15557 0.0635,-0.0667 0.1524,-0.10478 0.0889,-0.0413 0.1905,-0.0413 0.127,0 0.2159,0.0476 0.09208,0.0444 0.1524,0.12383 0.05715,0.0794 0.08255,0.18097 0.02858,0.1016 0.02858,0.2159 0,0.0825 -0.0032,0.1397 -0.0032,0.054 -0.0127,0.10477 -0.0095,0.0508 -0.03175,0.1016 -0.02222,0.0508 -0.06032,0.12383 l -0.47625,0.91758 h 0.5842 v 0.32385 z"
       id="text25-1-4-9"
       style="font-size:3.175px;line-height:1.25;font-family:'DIN Condensed';-inkscape-font-specification:'DIN Condensed, ';text-align:center;text-anchor:middle;fill:#f9f9f9;stroke-width:0.264583"
       aria-label="-2" /><circle
       style="fill:#ff6600;stroke:#ff6600;stroke-width:0.5;stroke-linecap:round;stroke-dasharray:none"
       id="path25-07-3-6-1-0-2"
       cx="17.044405"
       cy="99.233513"
       r="2.0428581" /><path
       d="m 15.582591,99.636733 v -0.32385 h 0.955675 v 0.32385 z m 1.587499,0.717547 v -1.917697 l -0.32385,0.23812 v -0.3429 l 0.32385,-0.23812 h 0.32385 v 2.260597 z"
       id="text25-1-4-9-4"
       style="font-size:3.175px;line-height:1.25;font-family:'DIN Condensed';-inkscape-font-specification:'DIN Condensed, ';text-align:center;text-anchor:middle;fill:#f9f9f9;stroke-width:0.264583"
       aria-label="-1" /><circle
       style="fill:#ff6600;stroke:#ff6600;stroke-width:0.5;stroke-linecap:round;stroke-dasharray:none"
       id="path25-07-3-6-5"
       cx="24.81702"
       cy="117.53547"
       r="2.0428581" /><path
       d="m 24.899569,118.65623 v -0.33655 h -0.644525 v -0.3048 l 0.466725,-1.61925 h 0.3429 l -0.485775,1.61925 h 0.320675 v -0.64453 h 0.32385 v 0.64453 h 0.155575 v 0.3048 h -0.155575 v 0.33655 z"
       id="text25-1-0"
       style="font-size:3.175px;line-height:1.25;font-family:'DIN Condensed';-inkscape-font-specification:'DIN Condensed, ';text-align:center;text-anchor:middle;fill:#f9f9f9;stroke-width:0.264583"
       aria-label="4" /><circle
       style="fill:#ff6600;stroke:#ff6600;stroke-width:0.5;stroke-linecap:round;stroke-dasharray:none"
       id="path25-07-3-6-1-7"
       cx="28.89052"
       cy="113.20572"
       r="2.0428581" /><path
       d="m 28.792097,113.01842 q 0.14605,0 0.200025,-0.0349 0.05715,-0.0349 0.05715,-0.16192 v -0.2921 q 0,-0.0699 -0.04445,-0.1143 -0.04127,-0.0444 -0.1143,-0.0444 -0.08572,0 -0.123825,0.054 -0.03493,0.054 -0.03493,0.10478 v 0.18415 h -0.32385 v -0.18733 q 0,-0.0984 0.0381,-0.18732 0.0381,-0.0889 0.104775,-0.1524 0.06667,-0.0635 0.155575,-0.1016 0.0889,-0.0381 0.1905,-0.0381 0.13335,0 0.219075,0.054 0.0889,0.0508 0.13335,0.10478 0.03175,0.0381 0.05398,0.0762 0.0254,0.0381 0.04127,0.0921 0.02858,0.10478 0.02858,0.31115 0,0.11748 -0.0064,0.1905 -0.0032,0.073 -0.02222,0.12065 -0.02222,0.0508 -0.0635,0.0857 -0.0381,0.0349 -0.10795,0.0762 0.0762,0.0476 0.1143,0.0889 0.04127,0.0413 0.06032,0.0952 0.01905,0.0572 0.02223,0.13652 0.0032,0.0762 0.0032,0.19685 0,0.11113 -0.0064,0.18415 -0.0032,0.073 -0.0127,0.12065 -0.0095,0.0508 -0.0254,0.0857 -0.01587,0.0349 -0.04127,0.073 -0.06032,0.0889 -0.155575,0.14923 -0.09208,0.0571 -0.244475,0.0571 -0.0762,0 -0.161925,-0.0254 -0.08573,-0.0254 -0.155575,-0.0826 -0.06985,-0.0571 -0.117475,-0.14923 -0.04445,-0.0921 -0.04445,-0.22542 v -0.18415 h 0.32385 v 0.16827 q 0,0.0762 0.04127,0.127 0.04445,0.0476 0.117475,0.0476 0.07303,0 0.1143,-0.0476 0.04445,-0.0508 0.04445,-0.13335 v -0.32385 q 0,-0.13335 -0.0508,-0.17462 -0.02857,-0.0254 -0.07937,-0.0318 -0.04763,-0.006 -0.127,-0.006 z"
       id="text25-1-4-6"
       style="font-size:3.175px;line-height:1.25;font-family:'DIN Condensed';-inkscape-font-specification:'DIN Condensed, ';text-align:center;text-anchor:middle;fill:#f9f9f9;stroke-width:0.264583"
       aria-label="3" /><circle
       style="fill:#ff6600;stroke:#ff6600;stroke-width:0.5;stroke-linecap:round;stroke-dasharray:none"
       id="path25-07-3-6-1-0-3"
       cx="29.843985"
       cy="107.48932"
       r="2.0428581" /><path
       d="m 29.361388,108.61006 v -0.3048 l 0.5842,-1.10172 q 0.04445,-0.0825 0.0508,-0.14288 0.0063,-0.0635 0.0063,-0.15557 0,-0.0413 -0.0032,-0.0857 0,-0.0476 -0.01588,-0.0825 -0.01587,-0.0349 -0.04762,-0.0571 -0.03175,-0.0254 -0.09208,-0.0254 -0.07303,0 -0.117475,0.0413 -0.04127,0.0413 -0.04127,0.12065 v 0.18415 h -0.32385 v -0.1778 q 0,-0.1016 0.0381,-0.1905 0.0381,-0.0889 0.104775,-0.15558 0.0635,-0.0667 0.1524,-0.10477 0.0889,-0.0413 0.1905,-0.0413 0.127,0 0.2159,0.0476 0.09207,0.0444 0.1524,0.12382 0.05715,0.0794 0.08255,0.18098 0.02857,0.1016 0.02857,0.2159 0,0.0825 -0.0032,0.1397 -0.0032,0.054 -0.0127,0.10477 -0.0095,0.0508 -0.03175,0.1016 -0.02222,0.0508 -0.06032,0.12383 l -0.47625,0.91757 h 0.5842 v 0.32385 z"
       id="text25-1-4-9-9"
       style="font-size:3.175px;line-height:1.25;font-family:'DIN Condensed';-inkscape-font-specification:'DIN Condensed, ';text-align:center;text-anchor:middle;fill:#f9f9f9;stroke-width:0.264583"
       aria-label="2" /><circle
       style="fill:#ff6600;stroke:#ff6600;stroke-width:0.5;stroke-linecap:round;stroke-dasharray:none"
       id="path25-07-3-6-1-0-2-8"
       cx="27.669531"
       cy="102.39713"
       r="2.0428581" /><path
       d="m 27.504649,103.51791 v -1.9177 l -0.32385,0.23812 v -0.3429 l 0.32385,-0.23812 h 0.32385 v 2.2606 z"
       id="text25-1-4-9-4-3"
       style="font-size:3.175px;line-height:1.25;font-family:'DIN Condensed';-inkscape-font-specification:'DIN Condensed, ';text-align:center;text-anchor:middle;fill:#f9f9f9;stroke-width:0.264583"
       aria-label="1" /><circle
       style="fill:#ff6600;stroke:#ff6600;stroke-width:0.5;stroke-linecap:round;stroke-dasharray:none"
       id="path25-07-3-6-1-0-2-4"
       cx="23.028008"
       cy="99.233513"
       r="2.0428581" /><path
       d="m 22.54541,98.560403 q 0,-0.1143 0.0381,-0.2032 0.04128,-0.0889 0.10795,-0.1524 0.06668,-0.0635 0.1524,-0.0953 0.0889,-0.0349 0.18415,-0.0349 0.09525,0 0.180975,0.0349 0.0889,0.0318 0.155575,0.0953 0.06668,0.0635 0.104775,0.1524 0.04127,0.0889 0.04127,0.2032 v 1.32715 q 0,0.114297 -0.04127,0.203197 -0.0381,0.0889 -0.104775,0.1524 -0.06667,0.0635 -0.155575,0.0984 -0.08572,0.0318 -0.180975,0.0318 -0.09525,0 -0.18415,-0.0318 -0.08572,-0.0349 -0.1524,-0.0984 -0.06667,-0.0635 -0.10795,-0.1524 -0.0381,-0.0889 -0.0381,-0.203197 z m 0.32385,1.32715 q 0,0.0699 0.04445,0.117467 0.04445,0.0444 0.1143,0.0444 0.06985,0 0.1143,-0.0444 0.04445,-0.0476 0.04445,-0.117467 v -1.32715 q 0,-0.0699 -0.04445,-0.1143 -0.04445,-0.0476 -0.1143,-0.0476 -0.06985,0 -0.1143,0.0476 -0.04445,0.0444 -0.04445,0.1143 z"
       id="text25-1-4-9-4-9"
       style="font-size:3.175px;line-height:1.25;font-family:'DIN Condensed';-inkscape-font-specification:'DIN Condensed, ';text-align:center;text-anchor:middle;fill:#f9f9f9;stroke-width:0.264583"
       aria-label="0" /><path
       style="fill:none;stroke:#ff6600;stroke-width:0.499998;stroke-linecap:butt;stroke-linejoin:miter;stroke-dasharray:none;stroke-opacity:1"
       d="m 86.455785,111.16287 v 8.41543"
       id="path40-3-4" /><path
       style="fill:none;stroke:#ff6600;stroke-width:0.499997;stroke-linecap:butt;stroke-linejoin:miter;stroke-dasharray:none;stroke-opacity:1"
       d="M 44.106629,108.76718 V 119.5783"
       id="path40-3-1" /><path
       style="fill:none;stroke:#ff6600;stroke-width:0.499997;stroke-linecap:butt;stroke-linejoin:miter;stroke-dasharray:none;stroke-opacity:1"
       d="M 20.013916,108.76718 V 119.5783"
       id="path40-3-1-9" /><path
       style="fill:none;stroke:#ff6600;stroke-width:0.499997;stroke-linecap:butt;stroke-linejoin:miter;stroke-dasharray:none;stroke-opacity:1"
       d="M 65.251067,108.69854 V 119.5783"
       id="path40-3-1-2" /><g
       id="g43"
       transform="translate(-21.224235,2.3629196)"><circle
         style="fill:#ff6600;stroke:#ff6600;stroke-width:0.5;stroke-linecap:round;stroke-dasharray:none"
         id="path25-0"
         cx="116.77446"
         cy="103.74911"
         r="2.0428581" /><path
         style="fill:none;stroke:#f9f9f9;stroke-width:0.264583px;stroke-linecap:butt;stroke-linejoin:miter;stroke-opacity:1"
         d="m 115.6854,104.83859 c 0.0199,-1.85413 1.58276,-2.19865 2.17812,-2.17812"
         id="path23-8"
         sodipodi:nodetypes="cc" /></g><path
       style="fill:#ececec;stroke:#ff6600;stroke-width:0.499997;stroke-linecap:butt;stroke-linejoin:miter;stroke-dasharray:none;stroke-opacity:1"
       d="m 86.455785,108.6299 v 10.94841"
       id="path40-3-1-2-8" /><path
       style="fill:none;stroke:#ff6600;stroke-width:0.499997;stroke-linecap:butt;stroke-linejoin:miter;stroke-dasharray:none;stroke-opacity:1"
       d="M 123.86976,118.77177 H 112.92135"
       id="path40-3-1-2-8-8" /><path
       d="m 107.42809,99.800753 v -2.2606 h 0.31115 l 0.48895,1.36208 h 0.006 v -1.36208 h 0.32385 v 2.2606 h -0.3048 l -0.4953,-1.3589 h -0.006 v 1.3589 z m 1.40335,-1.7272 q 0,-0.13652 0.0476,-0.2413 0.0476,-0.10477 0.127,-0.17462 0.0762,-0.0667 0.17145,-0.1016 0.0984,-0.0349 0.19685,-0.0349 0.0984,0 0.19367,0.0349 0.0984,0.0349 0.1778,0.1016 0.0762,0.0699 0.12383,0.17462 0.0476,0.10478 0.0476,0.2413 v 1.1938 q 0,0.14288 -0.0476,0.24448 -0.0476,0.1016 -0.12383,0.16827 -0.0794,0.0698 -0.1778,0.10478 -0.0953,0.0349 -0.19367,0.0349 -0.0984,0 -0.19685,-0.0349 -0.0952,-0.0349 -0.17145,-0.10478 -0.0794,-0.0667 -0.127,-0.16827 -0.0476,-0.1016 -0.0476,-0.24448 z m 0.32385,1.1938 q 0,0.11748 0.0635,0.17463 0.0667,0.054 0.15558,0.054 0.0889,0 0.1524,-0.054 0.0667,-0.0571 0.0667,-0.17463 v -1.1938 q 0,-0.11747 -0.0667,-0.17145 -0.0635,-0.0572 -0.1524,-0.0572 -0.0889,0 -0.15558,0.0572 -0.0635,0.054 -0.0635,0.17145 z m 1.22238,0.5334 v -1.9558 h -0.37465 v -0.3048 h 1.07315 v 0.3048 h -0.37465 v 1.9558 z m 0.84138,0 v -2.2606 h 0.9652 v 0.3048 h -0.64135 v 0.66358 h 0.5588 v 0.3048 h -0.5588 v 0.66357 h 0.64135 v 0.32385 z m 2.25743,-2.2606 q -0.0921,0.32703 -0.127,0.67628 -0.0349,0.34925 -0.0349,0.70167 0,0.32703 0.0413,0.62548 0.0445,0.29527 0.12065,0.574677 h -0.10795 q -0.0953,-0.136527 -0.16828,-0.298457 -0.0699,-0.15875 -0.1143,-0.3302 -0.0476,-0.17145 -0.073,-0.33972 -0.0222,-0.16828 -0.0222,-0.32068 0,-0.16192 0.0254,-0.33337 0.0254,-0.17145 0.0762,-0.3429 0.0952,-0.33973 0.27623,-0.61278 z m 0.054,2.2606 0.4572,-1.18427 -0.42227,-1.07633 h 0.3429 l 0.24447,0.66993 0.24765,-0.66993 h 0.3429 l -0.4318,1.07633 0.46673,1.18427 h -0.3429 l -0.28258,-0.762 -0.2794,0.762 z m 1.30175,0.317507 q 0.0921,-0.327027 0.127,-0.676277 0.0349,-0.34925 0.0349,-0.70168 0,-0.32702 -0.0444,-0.6223 -0.0413,-0.29845 -0.11748,-0.57785 h 0.10795 q 0.0953,0.14288 0.1651,0.30163 0.073,0.15557 0.12065,0.32702 0.0444,0.17145 0.0667,0.33973 0.0254,0.16827 0.0254,0.32067 0,0.16193 -0.0254,0.33338 -0.0254,0.17145 -0.073,0.3429 -0.1016,0.3429 -0.2794,0.612777 z"
       id="text1-9"
       style="font-size:3.175px;line-height:1.25;font-family:'DIN Condensed';-inkscape-font-specification:'DIN Condensed, ';text-align:center;text-anchor:middle;fill:#ececec;stroke-width:0.264583"
       aria-label="NOTE (X)" /><path
       d="m 121.77804,97.540153 -0.46355,2.2606 h -0.28575 l -0.46038,-2.2606 h 0.3429 l 0.25718,1.57798 h 0.006 l 0.26035,-1.57798 z m 0.17462,0.5334 q 0,-0.13652 0.0476,-0.2413 0.0476,-0.10477 0.127,-0.17462 0.0762,-0.0667 0.17145,-0.1016 0.0984,-0.0349 0.19685,-0.0349 0.0984,0 0.19367,0.0349 0.0984,0.0349 0.1778,0.1016 0.0762,0.0699 0.12383,0.17462 0.0476,0.10478 0.0476,0.2413 v 1.1938 q 0,0.14288 -0.0476,0.24448 -0.0476,0.1016 -0.12383,0.16827 -0.0794,0.0698 -0.1778,0.10478 -0.0952,0.0349 -0.19367,0.0349 -0.0984,0 -0.19685,-0.0349 -0.0953,-0.0349 -0.17145,-0.10478 -0.0794,-0.0667 -0.127,-0.16827 -0.0476,-0.1016 -0.0476,-0.24448 z m 0.32385,1.1938 q 0,0.11748 0.0635,0.17463 0.0667,0.054 0.15558,0.054 0.0889,0 0.1524,-0.054 0.0667,-0.0571 0.0667,-0.17463 v -1.1938 q 0,-0.11747 -0.0667,-0.17145 -0.0635,-0.0572 -0.1524,-0.0572 -0.0889,0 -0.15558,0.0572 -0.0635,0.054 -0.0635,0.17145 z m 1.04775,0.5334 v -2.2606 h 0.32385 v 1.93675 h 0.64135 v 0.32385 z m 2.22251,-2.2606 v 1.7526 q 0,0.11113 -0.0413,0.20638 -0.0381,0.0921 -0.11112,0.1651 -0.073,0.073 -0.16828,0.1143 -0.0952,0.0413 -0.2032,0.0413 -0.10795,0 -0.2032,-0.0413 -0.0921,-0.0413 -0.1651,-0.1143 -0.073,-0.073 -0.1143,-0.1651 -0.0413,-0.0953 -0.0413,-0.20638 v -1.7526 h 0.32385 v 1.72085 q 0,0.12065 0.0571,0.1778 0.0572,0.0572 0.14287,0.0572 0.0857,0 0.14288,-0.0572 0.0571,-0.0571 0.0571,-0.1778 v -1.72085 z m 0.3048,2.2606 v -2.2606 h 0.31115 l 0.41592,1.19698 h 0.006 l 0.41275,-1.19698 h 0.31433 v 2.2606 h -0.32385 v -1.37477 h -0.006 l -0.32068,0.97155 h -0.16192 l -0.3175,-0.97155 h -0.006 v 1.37477 z m 1.7653,0 v -2.2606 h 0.9652 v 0.3048 h -0.64135 v 0.66358 h 0.5588 v 0.3048 h -0.5588 v 0.66357 h 0.64135 v 0.32385 z m 2.25743,-2.2606 q -0.0921,0.32703 -0.127,0.67628 -0.0349,0.34925 -0.0349,0.70167 0,0.32703 0.0413,0.62548 0.0444,0.29527 0.12065,0.574677 h -0.10795 q -0.0952,-0.136527 -0.16828,-0.298457 -0.0699,-0.15875 -0.1143,-0.3302 -0.0476,-0.17145 -0.073,-0.33972 -0.0222,-0.16828 -0.0222,-0.32068 0,-0.16192 0.0254,-0.33337 0.0254,-0.17145 0.0762,-0.3429 0.0952,-0.33973 0.27623,-0.61278 z m 0.51435,2.2606 v -0.95567 l -0.4445,-1.30493 h 0.3429 l 0.26035,0.89853 h 0.006 l 0.26035,-0.89853 h 0.3429 l -0.4445,1.30493 v 0.95567 z m 0.8382,0.317507 q 0.0921,-0.327027 0.127,-0.676277 0.0349,-0.34925 0.0349,-0.70168 0,-0.32702 -0.0445,-0.6223 -0.0413,-0.29845 -0.11748,-0.57785 h 0.10795 q 0.0952,0.14288 0.1651,0.30163 0.073,0.15557 0.12065,0.32702 0.0445,0.17145 0.0667,0.33973 0.0254,0.16827 0.0254,0.32067 0,0.16193 -0.0254,0.33338 -0.0254,0.17145 -0.073,0.3429 -0.1016,0.3429 -0.2794,0.612777 z"
       id="text1-5"
       style="font-size:3.175px;line-height:1.25;font-family:'DIN Condensed';-inkscape-font-specification:'DIN Condensed, ';text-align:center;text-anchor:middle;fill:#ececec;stroke-width:0.264583"
       aria-label="VOLUME (Y)" /><path
       d="m 138.17369,98.222783 q 0,-0.13653 0.0476,-0.2413 0.0476,-0.10478 0.127,-0.17463 0.0762,-0.0667 0.17145,-0.1016 0.0984,-0.0349 0.19685,-0.0349 0.0984,0 0.19367,0.0349 0.0984,0.0349 0.1778,0.1016 0.0762,0.0699 0.12383,0.17463 0.0476,0.10477 0.0476,0.2413 v 0.1143 h -0.32385 v -0.1143 q 0,-0.11748 -0.0667,-0.17145 -0.0635,-0.0572 -0.1524,-0.0572 -0.0889,0 -0.15558,0.0572 -0.0635,0.054 -0.0635,0.17145 v 1.1938 q 0,0.11747 0.0635,0.17462 0.0667,0.054 0.15558,0.054 0.0889,0 0.1524,-0.054 0.0667,-0.0571 0.0667,-0.17462 v -0.42545 h -0.25717 v -0.28575 h 0.58102 v 0.7112 q 0,0.14287 -0.0476,0.24447 -0.0476,0.1016 -0.12383,0.16828 -0.0794,0.0699 -0.1778,0.10477 -0.0953,0.0349 -0.19367,0.0349 -0.0984,0 -0.19685,-0.0349 -0.0952,-0.0349 -0.17145,-0.10477 -0.0794,-0.0667 -0.127,-0.16828 -0.0476,-0.1016 -0.0476,-0.24447 z m 2.02566,0.93662 -0.15875,-0.81915 h -0.006 l -0.15875,0.81915 z m -0.8001,0.79058 0.50482,-2.2606 h 0.26988 l 0.50482,2.2606 h -0.32385 l -0.0952,-0.48578 h -0.44132 l -0.0952,0.48578 z m 1.47637,0 v -1.9558 h -0.37465 v -0.3048 h 1.07315 v 0.3048 h -0.37465 v 1.9558 z m 0.84138,0 v -2.2606 h 0.9652 v 0.3048 h -0.64135 v 0.66357 h 0.5588 v 0.3048 h -0.5588 v 0.66358 h 0.64135 v 0.32385 z"
       id="text1-5-7"
       style="font-size:3.175px;line-height:1.25;font-family:'DIN Condensed';-inkscape-font-specification:'DIN Condensed, ';text-align:center;text-anchor:middle;fill:#ececec;stroke-width:0.264583"
       aria-label="GATE" /><path
       d="m 108.47883,113.64592 v -2.2606 h 0.9652 v 0.3048 h -0.64135 v 0.66357 h 0.5588 v 0.3048 h -0.5588 v 0.66358 h 0.64135 v 0.32385 z m 1.016,0 0.4572,-1.18428 -0.42228,-1.07632 h 0.3429 l 0.24448,0.66992 0.24765,-0.66992 h 0.3429 l -0.4318,1.07632 0.46672,1.18428 h -0.3429 l -0.28257,-0.762 -0.2794,0.762 z m 1.60655,0 v -1.9558 h -0.37465 v -0.3048 h 1.07315 v 0.3048 h -0.37465 v 1.9558 z m 1.44145,0 v -2.2606 h 0.32385 v 2.2606 z m 0.62548,0 v -2.2606 h 0.31115 l 0.48895,1.36207 h 0.006 v -1.36207 h 0.32385 v 2.2606 h -0.3048 l -0.4953,-1.3589 h -0.006 v 1.3589 z"
       id="text7"
       style="font-size:3.175px;line-height:1.25;font-family:'DIN Condensed';-inkscape-font-specification:'DIN Condensed, ';text-align:center;text-anchor:middle;fill:#ececec;stroke-width:0.264583"
       aria-label="EXT IN" /><path
       d="m 123.30206,111.38532 -0.46355,2.2606 h -0.28575 l -0.46037,-2.2606 h 0.3429 l 0.25717,1.57797 h 0.006 l 0.26035,-1.57797 z m 1.22238,1.61607 v 0.1397 q 0,0.10478 -0.0413,0.20003 -0.0381,0.0921 -0.10795,0.1651 -0.0699,0.073 -0.1651,0.11747 -0.0921,0.0413 -0.20002,0.0413 -0.0921,0 -0.18733,-0.0254 -0.0952,-0.0254 -0.17145,-0.0889 -0.0762,-0.0635 -0.127,-0.16193 -0.0476,-0.1016 -0.0476,-0.25717 v -1.2446 q 0,-0.11113 0.0381,-0.20638 0.0381,-0.0952 0.10795,-0.1651 0.0699,-0.0699 0.1651,-0.10795 0.0984,-0.0413 0.2159,-0.0413 0.2286,0 0.37147,0.14922 0.0698,0.073 0.10795,0.17463 0.0413,0.0984 0.0413,0.2159 v 0.127 h -0.32385 v -0.10795 q 0,-0.0953 -0.054,-0.1651 -0.054,-0.0699 -0.14605,-0.0699 -0.12065,0 -0.16192,0.0762 -0.0381,0.073 -0.0381,0.18732 v 1.1557 q 0,0.0984 0.0413,0.1651 0.0444,0.0667 0.15558,0.0667 0.0317,0 0.0667,-0.01 0.0381,-0.0127 0.0699,-0.0381 0.0286,-0.0254 0.0476,-0.0699 0.0191,-0.0444 0.0191,-0.11112 v -0.11113 z m 0.91757,-0.14605 -0.15875,-0.81915 h -0.006 l -0.15875,0.81915 z m -0.8001,0.79058 0.50483,-2.2606 h 0.26987 l 0.50483,2.2606 h -0.32385 l -0.0953,-0.48578 h -0.44133 l -0.0953,0.48578 z m 2.00978,-1.7272 q 0,-0.13653 0.0476,-0.2413 0.0476,-0.10478 0.127,-0.17463 0.0762,-0.0667 0.17145,-0.1016 0.0984,-0.0349 0.19685,-0.0349 0.0984,0 0.19368,0.0349 0.0984,0.0349 0.1778,0.1016 0.0762,0.0699 0.12382,0.17463 0.0476,0.10477 0.0476,0.2413 v 1.1938 q 0,0.14287 -0.0476,0.24447 -0.0476,0.1016 -0.12382,0.16828 -0.0794,0.0698 -0.1778,0.10477 -0.0952,0.0349 -0.19368,0.0349 -0.0984,0 -0.19685,-0.0349 -0.0952,-0.0349 -0.17145,-0.10477 -0.0794,-0.0667 -0.127,-0.16828 -0.0476,-0.1016 -0.0476,-0.24447 z m 0.32385,1.1938 q 0,0.11747 0.0635,0.17462 0.0667,0.054 0.15557,0.054 0.0889,0 0.1524,-0.054 0.0667,-0.0571 0.0667,-0.17462 v -1.1938 q 0,-0.11748 -0.0667,-0.17145 -0.0635,-0.0572 -0.1524,-0.0572 -0.0889,0 -0.15557,0.0572 -0.0635,0.054 -0.0635,0.17145 z m 2.0955,-1.7272 v 1.7526 q 0,0.11112 -0.0413,0.20637 -0.0381,0.0921 -0.11112,0.1651 -0.073,0.073 -0.16828,0.1143 -0.0953,0.0413 -0.2032,0.0413 -0.10795,0 -0.2032,-0.0413 -0.0921,-0.0413 -0.1651,-0.1143 -0.073,-0.073 -0.1143,-0.1651 -0.0413,-0.0953 -0.0413,-0.20637 v -1.7526 h 0.32385 v 1.72085 q 0,0.12065 0.0572,0.1778 0.0571,0.0572 0.14287,0.0572 0.0857,0 0.14288,-0.0572 0.0572,-0.0571 0.0572,-0.1778 v -1.72085 z m 0.51753,2.2606 v -1.9558 h -0.37465 v -0.3048 h 1.07315 v 0.3048 h -0.37465 v 1.9558 z"
       id="text8"
       style="font-size:3.175px;line-height:1.25;font-family:'DIN Condensed';-inkscape-font-specification:'DIN Condensed, ';text-align:center;text-anchor:middle;fill:#ececec;stroke-width:0.264583"
       aria-label="VCA OUT" /><path
       style="fill:none;stroke:#ffb380;stroke-width:0.264583px;stroke-linecap:butt;stroke-linejoin:round;stroke-opacity:1"
       d="M 111.37304,121.46342 V 125 h 29.10414 v -3.53658"
       id="path11"
       sodipodi:nodetypes="cccc" /><path
       style="fill:none;stroke:#ffb380;stroke-width:0.264583px;stroke-linecap:butt;stroke-linejoin:miter;stroke-opacity:1"
       d="M 126.09925,121.46342 V 125"
       id="path12" /><path
       id="rect13"
       style="fill:#333333;stroke-width:0.499999;stroke-linecap:round"
       d="m 124.01993,123.01929 h 4.01907 l -0.31276,2.70349 h -3.70631 z"
       sodipodi:nodetypes="ccccc" /><path
       d="m 124.54298,125.1378 v -1.50707 h 0.32385 q 0.0889,0 0.15663,0.0233 0.0677,0.0233 0.12277,0.0825 0.055,0.0593 0.0762,0.1397 0.0212,0.0783 0.0212,0.21379 0,0.1016 -0.0127,0.17145 -0.0106,0.0699 -0.0487,0.13123 -0.0444,0.0741 -0.11853,0.11642 -0.0741,0.0402 -0.19474,0.0402 h -0.11006 v 0.58843 z m 0.2159,-1.30387 v 0.51224 h 0.10371 q 0.0656,0 0.1016,-0.0191 0.036,-0.019 0.0529,-0.0529 0.0169,-0.0318 0.0191,-0.0783 0.004,-0.0466 0.004,-0.10372 0,-0.0529 -0.002,-0.0995 -0.002,-0.0487 -0.019,-0.0847 -0.0169,-0.036 -0.0508,-0.055 -0.0339,-0.019 -0.0974,-0.019 z m 0.63288,0.1524 q 0,-0.091 0.0318,-0.16087 0.0318,-0.0699 0.0847,-0.11641 0.0508,-0.0444 0.1143,-0.0677 0.0656,-0.0233 0.13123,-0.0233 0.0656,0 0.12912,0.0233 0.0656,0.0233 0.11853,0.0677 0.0508,0.0466 0.0825,0.11641 0.0318,0.0699 0.0318,0.16087 v 0.79587 q 0,0.0953 -0.0318,0.16298 -0.0318,0.0677 -0.0825,0.11219 -0.0529,0.0466 -0.11853,0.0699 -0.0635,0.0233 -0.12912,0.0233 -0.0656,0 -0.13123,-0.0233 -0.0635,-0.0233 -0.1143,-0.0699 -0.0529,-0.0444 -0.0847,-0.11219 -0.0318,-0.0677 -0.0318,-0.16298 z m 0.2159,0.79587 q 0,0.0783 0.0423,0.11642 0.0444,0.036 0.10372,0.036 0.0593,0 0.1016,-0.036 0.0444,-0.0381 0.0444,-0.11642 v -0.79587 q 0,-0.0783 -0.0444,-0.1143 -0.0423,-0.0381 -0.1016,-0.0381 -0.0593,0 -0.10372,0.0381 -0.0423,0.036 -0.0423,0.1143 z m 0.6985,0.3556 v -1.50707 h 0.2159 v 1.29117 h 0.42757 v 0.2159 z m 0.78952,0 v -0.63712 l -0.29633,-0.86995 h 0.2286 l 0.17357,0.59902 h 0.004 l 0.17357,-0.59902 h 0.2286 l -0.29633,0.86995 v 0.63712 z"
       id="text10"
       style="font-size:2.11667px;line-height:1.25;font-family:'DIN Condensed';-inkscape-font-specification:'DIN Condensed, ';text-align:center;text-anchor:middle;fill:#ff9955;stroke-width:0.264583"
       aria-label="POLY" /><g
       id="g15"
       style="fill:#333333"
       transform="translate(-0.52916667)"><path
         style="color:#000000;fill:#333333;-inkscape-stroke:none"
         d="m 103.01953,97.521484 -0.002,0.263672 0.26562,0.002 v -0.265625 z m -0.002,1.058594 v 0.265625 h 0.26367 l 0.002,-0.263672 z m 0,1.058594 -0.002,0.263672 h 0.26562 v -0.263672 z m -0.002,1.056638 v 0.26367 l 0.26367,0.002 0.002,-0.26367 z m 0,1.0586 v 0.26562 h 0.26367 v -0.26562 z m -0.002,1.05859 v 0.26563 h 0.26367 v -0.26563 z m 0,1.05859 v 0.26563 h 0.26367 v -0.26563 z m -0.002,1.0586 v 0.26562 h 0.26367 v -0.26562 z m -0.002,1.05859 v 0.26563 h 0.26562 v -0.26563 z m 0,1.0586 v 0.26367 h 0.26367 v -0.26367 z m -0.002,1.05859 v 0.26367 h 0.26563 v -0.26367 z m 0,1.05859 v 0.26367 h 0.26367 v -0.26367 z m -0.002,1.05664 v 0.26368 h 0.26562 v -0.26368 z m 0,1.05664 v 0.26563 h 0.26367 v -0.26563 z m -0.002,1.0586 v 0.26367 h 0.26562 v -0.26367 z m 0,1.05664 v 0.26562 h 0.26367 l 0.002,-0.26562 z m 0,1.05859 -0.002,0.26367 0.26563,0.002 v -0.26563 z m -0.002,1.0586 v 0.26562 h 0.26368 l 0.002,-0.26562 z m 0,1.06054 -0.002,0.26367 h 0.26563 v -0.26367 z m -0.002,1.0586 v 0.26367 h 0.26563 v -0.26367 z m 0,1.05859 v 0.26367 h 0.26367 v -0.26367 z m -0.002,1.05859 v 0.26368 h 0.26562 v -0.26368 z m 0,1.0586 v 0.26367 h 0.26367 v -0.26367 z m -0.002,1.05664 v 0.26758 h 0.26563 v -0.26758 z m 0,1.06055 v 0.26367 h 0.26368 v -0.26367 z m -0.002,1.05859 v 0.26367 h 0.26563 v -0.26367 z"
         id="path14" /></g><path
       style="font-size:3.175px;line-height:1.25;font-family:'DIN Condensed';-inkscape-font-specification:'DIN Condensed, ';text-align:center;text-anchor:middle;fill:#ececec;stroke-width:0.264583"
       d="m 136.49255,111.69009 v 0.70485 h 0.18415 q 0.0857,0 0.13653,-0.0222 0.0508,-0.0254 0.0794,-0.0699 0.0254,-0.0444 0.0349,-0.10795 0.01,-0.0667 0.01,-0.1524 0,-0.0857 -0.01,-0.14923 -0.01,-0.0667 -0.0381,-0.1143 -0.0603,-0.0889 -0.2286,-0.0889 z m -0.32385,1.9558 v -2.2606 h 0.5207 q 0.5715,0 0.5715,0.66358 0,0.20002 -0.0635,0.33972 -0.0603,0.1397 -0.2159,0.22543 l 0.34925,1.03187 h -0.3429 l -0.30162,-0.9652 h -0.19368 v 0.9652 z m 2.0066,-0.79057 -0.15875,-0.81915 h -0.006 l -0.15875,0.81915 z m -0.8001,0.79057 0.50483,-2.2606 h 0.26987 l 0.50483,2.2606 h -0.32385 l -0.0952,-0.48577 h -0.44133 l -0.0952,0.48577 z m 3.00037,-2.2606 -0.33655,2.2606 h -0.3048 l -0.24764,-1.46685 h -0.006 l -0.24448,1.46685 h -0.3048 l -0.33654,-2.2606 h 0.34289 l 0.16193,1.4351 h 0.006 l 0.25399,-1.4351 h 0.24765 l 0.26353,1.47003 h 0.006 l 0.15558,-1.47003 z m 0.77471,0.5334 q 0,-0.13652 0.0476,-0.2413 0.0476,-0.10477 0.127,-0.17462 0.0762,-0.0667 0.17145,-0.1016 0.0984,-0.0349 0.19685,-0.0349 0.0984,0 0.19368,0.0349 0.0984,0.0349 0.1778,0.1016 0.0762,0.0699 0.12382,0.17462 0.0476,0.10478 0.0476,0.2413 v 1.1938 q 0,0.14288 -0.0476,0.24448 -0.0476,0.1016 -0.12382,0.16827 -0.0794,0.0699 -0.1778,0.10478 -0.0952,0.0349 -0.19368,0.0349 -0.0984,0 -0.19685,-0.0349 -0.0952,-0.0349 -0.17145,-0.10478 -0.0794,-0.0667 -0.127,-0.16827 -0.0476,-0.1016 -0.0476,-0.24448 z m 0.32385,1.1938 q 0,0.11748 0.0635,0.17463 0.0667,0.054 0.15557,0.054 0.0889,0 0.1524,-0.054 0.0667,-0.0571 0.0667,-0.17463 v -1.1938 q 0,-0.11747 -0.0667,-0.17145 -0.0635,-0.0572 -0.1524,-0.0572 -0.0889,0 -0.15557,0.0572 -0.0635,0.054 -0.0635,0.17145 z m 2.0955,-1.7272 v 1.7526 q 0,0.11113 -0.0413,0.20638 -0.0381,0.0921 -0.11112,0.1651 -0.073,0.073 -0.16828,0.1143 -0.0952,0.0413 -0.2032,0.0413 -0.10795,0 -0.2032,-0.0413 -0.0921,-0.0413 -0.1651,-0.1143 -0.073,-0.073 -0.1143,-0.1651 -0.0413,-0.0953 -0.0413,-0.20638 v -1.7526 h 0.32385 v 1.72085 q 0,0.12065 0.0571,0.1778 0.0572,0.0572 0.14287,0.0572 0.0857,0 0.14288,-0.0572 0.0572,-0.0571 0.0572,-0.1778 v -1.72085 z m 0.51753,2.2606 v -1.9558 h -0.37465 v -0.3048 h 1.07315 v 0.3048 h -0.37465 v 1.9558 z"
       id="text17"
       aria-label="RAW OUT" /></g></svg>
