<?xml version="1.0" encoding="UTF-8" standalone="no"?>
<svg
   sodipodi:docname="Merc8or-White.svg"
   inkscape:version="1.3.2 (091e20e, 2023-11-25)"
   id="svg8"
   version="1.1"
   viewBox="0 0 30.479999 128.5"
   height="128.5mm"
   width="30.48mm"
   xml:space="preserve"
   xmlns:inkscape="http://www.inkscape.org/namespaces/inkscape"
   xmlns:sodipodi="http://sodipodi.sourceforge.net/DTD/sodipodi-0.dtd"
   xmlns="http://www.w3.org/2000/svg"
   xmlns:svg="http://www.w3.org/2000/svg"
   xmlns:rdf="http://www.w3.org/1999/02/22-rdf-syntax-ns#"
   xmlns:cc="http://creativecommons.org/ns#"
   xmlns:dc="http://purl.org/dc/elements/1.1/"><defs
     id="defs2" /><sodipodi:namedview
     inkscape:window-maximized="0"
     inkscape:window-y="23"
     inkscape:window-x="0"
     inkscape:window-height="769"
     inkscape:window-width="1252"
     showgrid="false"
     inkscape:document-rotation="0"
     inkscape:current-layer="layer1"
     inkscape:document-units="mm"
     inkscape:cy="273.21645"
     inkscape:cx="47.528901"
     inkscape:zoom="1.6726665"
     inkscape:pageshadow="2"
     inkscape:pageopacity="0.0"
     borderopacity="1.0"
     bordercolor="#666666"
     pagecolor="#ffffff"
     id="base"
     inkscape:showpageshadow="2"
     inkscape:pagecheckerboard="0"
     inkscape:deskcolor="#d1d1d1"
     showguides="false"><sodipodi:guide
       position="8.3548828,69.396941"
       orientation="1,0"
       id="guide5"
       inkscape:locked="false" /><sodipodi:guide
       position="42.379222,141.53976"
       orientation="1,0"
       id="guide7"
       inkscape:locked="false" /></sodipodi:namedview><metadata
     id="metadata5"><rdf:RDF><cc:Work
         rdf:about=""><dc:format>image/svg+xml</dc:format><dc:type
           rdf:resource="http://purl.org/dc/dcmitype/StillImage" /></cc:Work></rdf:RDF></metadata><g
     id="layer1"
     inkscape:groupmode="layer"
     inkscape:label="Layer 1"><rect
       style="fill:#ececec;fill-opacity:1;stroke:none;stroke-width:0.499994;stroke-linecap:round;stroke-miterlimit:4;stroke-dasharray:none;stop-color:#000000"
       id="rect1015"
       width="30.48"
       height="128.5"
       x="0"
       y="-3.541667e-07" /><path
       d="m 9.1406763,127.14313 v -0.22003 h -0.0085 q -0.08463,0.11848 -0.173481,0.18195 -0.08462,0.0635 -0.241181,0.0635 -0.07616,0 -0.156555,-0.0254 -0.07616,-0.0212 -0.148094,-0.0846 -0.07193,-0.0592 -0.118475,-0.16925 -0.04231,-0.11424 -0.04231,-0.29195 0,-0.18195 0.02962,-0.31735 0.02962,-0.13963 0.110012,-0.23271 0.07616,-0.0889 0.207331,-0.13117 0.131168,-0.0466 0.334268,-0.0466 0.02116,0 0.04654,0 0.02539,0 0.04654,0.004 0.02116,0.004 0.05077,0.004 0.02962,0 0.06347,0.004 v -0.22426 q 0,-0.11001 -0.04654,-0.18194 -0.04654,-0.0719 -0.16925,-0.0719 -0.08463,0 -0.156556,0.055 -0.0677,0.055 -0.08886,0.16079 h -0.418893 q 0.01693,-0.28772 0.194638,-0.46544 0.08462,-0.0846 0.203099,-0.13116 0.118475,-0.0508 0.266568,-0.0508 0.1354,0 0.253875,0.0423 0.118474,0.0423 0.20733,0.12694 0.08462,0.0846 0.1354,0.21156 0.05078,0.12694 0.05078,0.29619 v 1.49363 z m 0,-0.92241 q -0.07193,-0.0127 -0.118474,-0.0127 -0.139631,0 -0.241181,0.0677 -0.09732,0.0635 -0.09732,0.23695 0,0.12271 0.05924,0.19887 0.05924,0.0762 0.165018,0.0762 0.110012,0 0.16925,-0.0719 0.06347,-0.0719 0.06347,-0.2031 z m 1.2059067,0.30465 q 0,0.10155 0.05501,0.15655 0.05924,0.055 0.156556,0.055 0.122706,0 0.160787,-0.0719 0.04231,-0.0719 0.05078,-0.14386 h 0.431587 q 0,0.28349 -0.173481,0.45697 -0.08462,0.0889 -0.2031,0.13963 -0.118474,0.0508 -0.266568,0.0508 -0.203099,0 -0.346961,-0.0846 -0.139631,-0.0846 -0.2157937,-0.22426 -0.04654,-0.0846 -0.06347,-0.19463 -0.01693,-0.11001 -0.01693,-0.24118 v -0.70662 q 0,-0.13117 0.01693,-0.24118 0.01693,-0.11001 0.06347,-0.19464 0.07616,-0.13963 0.2157937,-0.22425 0.143862,-0.0846 0.346961,-0.0846 0.148094,0 0.266568,0.0508 0.122706,0.0508 0.207331,0.13963 0.16925,0.1904 0.16925,0.49505 h -0.431596 q 0,-0.13117 -0.05924,-0.1904 -0.05501,-0.0635 -0.152325,-0.0635 -0.09732,0 -0.156556,0.0635 -0.05501,0.0592 -0.05501,0.18194 z m 1.133976,0.61776 v -3.01265 h 0.414662 l 0.554292,1.59518 h 0.0085 l 0.550062,-1.59518 h 0.418892 v 3.01265 H 12.995343 V 125.311 h -0.0085 l -0.427355,1.29476 H 12.343732 L 11.920608,125.311 h -0.0085 v 1.83213 z m 2.2891,-1.42593 q 0,-0.13117 0.01693,-0.24118 0.01692,-0.11001 0.06347,-0.19464 0.07616,-0.13963 0.215793,-0.22425 0.143862,-0.0846 0.346961,-0.0846 0.2031,0 0.342731,0.0846 0.143862,0.0846 0.220024,0.22425 0.04654,0.0846 0.06347,0.19464 0.01693,0.11001 0.01693,0.24118 v 0.70662 q 0,0.13117 -0.01693,0.24118 -0.01692,0.11001 -0.06347,0.19463 -0.07616,0.13964 -0.220024,0.22426 -0.139631,0.0846 -0.342731,0.0846 -0.203099,0 -0.346961,-0.0846 -0.139631,-0.0846 -0.215793,-0.22426 -0.04654,-0.0846 -0.06347,-0.19463 -0.01693,-0.11001 -0.01693,-0.24118 z m 0.431587,0.77432 q 0,0.1227 0.05501,0.18617 0.05924,0.0592 0.156555,0.0592 0.09732,0 0.152325,-0.0592 0.05924,-0.0635 0.05924,-0.18617 v -0.84202 q 0,-0.12271 -0.05924,-0.18194 -0.05501,-0.0635 -0.152325,-0.0635 -0.09732,0 -0.156555,0.0635 -0.05501,0.0592 -0.05501,0.18194 z m 1.603643,-0.0465 q 0,0.13117 0.05078,0.21156 0.05077,0.0804 0.160787,0.0804 0.09732,0 0.156556,-0.0719 0.05924,-0.0762 0.05924,-0.19464 v -0.83355 q 0,-0.10155 -0.06347,-0.16502 -0.05924,-0.0677 -0.152325,-0.0677 -0.122706,0 -0.16925,0.0762 -0.04231,0.0762 -0.04231,0.17771 z m 0.427355,0.69816 v -0.19464 q -0.04231,0.0465 -0.08039,0.0889 -0.03808,0.0381 -0.08463,0.0677 -0.04654,0.0296 -0.105781,0.0465 -0.05924,0.0169 -0.139631,0.0169 -0.270799,0 -0.37658,-0.20309 -0.03808,-0.0719 -0.05501,-0.17772 -0.01693,-0.10578 -0.01693,-0.28349 v -0.81663 q 0,-0.23272 0.01269,-0.34273 0.02539,-0.21156 0.198868,-0.31734 0.08039,-0.055 0.241181,-0.055 0.126937,0 0.224256,0.0592 0.10155,0.055 0.173481,0.16079 h 0.0085 v -1.06205 h 0.431587 v 3.01265 z m 2.077539,-2.14524 v 2.14524 h -0.431587 v -0.20733 h -0.0085 q -0.0677,0.10155 -0.165018,0.16925 -0.09309,0.0635 -0.241181,0.0635 -0.08039,0 -0.160787,-0.0254 -0.08039,-0.0296 -0.143862,-0.0931 -0.06347,-0.0635 -0.10155,-0.16079 -0.03808,-0.10155 -0.03808,-0.24541 v -1.64595 h 0.431586 v 1.48516 q 0,0.11848 0.05501,0.18618 0.05501,0.0677 0.156556,0.0677 0.122706,0 0.16925,-0.0762 0.04654,-0.0762 0.04654,-0.22003 v -1.44285 z m 0.330036,-0.86741 h 0.431586 v 2.40758 q 0,0.12271 0.04231,0.16925 0.04654,0.0423 0.16925,0.055 v 0.40619 q -0.148093,0 -0.266568,-0.0254 -0.118475,-0.0212 -0.2031,-0.0889 -0.08462,-0.0635 -0.131168,-0.17771 -0.04231,-0.11848 -0.04231,-0.30888 z m 2.060617,2.10293 h -0.854711 v 0.29196 q 0,0.10155 0.05501,0.15655 0.05924,0.055 0.156556,0.055 0.122706,0 0.160787,-0.0719 0.04231,-0.0719 0.05078,-0.14386 h 0.431587 q 0,0.28349 -0.173481,0.45697 -0.08463,0.0889 -0.2031,0.13963 -0.118474,0.0508 -0.266568,0.0508 -0.203099,0 -0.346961,-0.0846 -0.139631,-0.0846 -0.215794,-0.22426 -0.04654,-0.0846 -0.06347,-0.19463 -0.01693,-0.11001 -0.01693,-0.24118 v -0.70662 q 0,-0.13117 0.01693,-0.24118 0.01693,-0.11001 0.06347,-0.19464 0.07616,-0.13963 0.215794,-0.22425 0.143862,-0.0846 0.346961,-0.0846 0.148094,0 0.266568,0.0508 0.122706,0.0508 0.207331,0.13963 0.16925,0.1904 0.16925,0.47813 z m -0.854711,-0.3385 h 0.423124 v -0.24541 q 0,-0.12271 -0.05924,-0.18194 -0.05501,-0.0635 -0.152325,-0.0635 -0.09732,0 -0.156556,0.0635 -0.05501,0.0592 -0.05501,0.18194 z m 1.954837,-0.29619 q -0.0042,-0.11001 -0.07193,-0.16501 -0.06347,-0.055 -0.148093,-0.055 -0.10155,0 -0.156556,0.0677 -0.05501,0.0635 -0.05501,0.14809 0,0.0592 0.02962,0.11848 0.02962,0.055 0.152324,0.10155 l 0.253875,0.10155 q 0.24118,0.0931 0.330037,0.25387 0.09309,0.16079 0.09309,0.3512 0,0.13539 -0.05078,0.25387 -0.04654,0.11424 -0.131169,0.2031 -0.08462,0.0889 -0.203099,0.13963 -0.118475,0.0508 -0.258106,0.0508 -0.262337,0 -0.440049,-0.16501 -0.08886,-0.0804 -0.143862,-0.19887 -0.05501,-0.12271 -0.05924,-0.28349 h 0.406199 q 0.01269,0.0888 0.05924,0.16501 0.05077,0.0762 0.173481,0.0762 0.09309,0 0.165018,-0.0592 0.07616,-0.0635 0.07616,-0.17348 0,-0.0889 -0.04654,-0.15233 -0.04654,-0.0635 -0.169249,-0.11001 l -0.207331,-0.0762 q -0.2031,-0.0762 -0.321574,-0.22426 -0.114244,-0.15232 -0.114244,-0.36812 0,-0.13539 0.05078,-0.24964 0.05078,-0.11847 0.139631,-0.2031 0.08462,-0.0846 0.198868,-0.12693 0.114244,-0.0465 0.245412,-0.0465 0.131168,0 0.241181,0.0465 0.114243,0.0465 0.194637,0.13116 0.08039,0.0846 0.126937,0.2031 0.04654,0.11425 0.04654,0.24541 z"
       id="text1"
       style="font-size:4.23124px;line-height:1.25;font-family:'DIN Condensed';-inkscape-font-specification:'DIN Condensed, ';text-align:center;text-anchor:middle;fill:#333333;stroke-width:0.264583"
       aria-label="acModules" /><g
       id="g1"
       transform="translate(-10.160001)"><path
         style="font-size:5.07175px;line-height:1.25;font-family:'Square Sans Serif 7';-inkscape-font-specification:'Square Sans Serif 7, ';text-align:center;text-anchor:middle;fill:#333333;stroke-width:0.264583"
         d="m 13.095718,120.89882 v 1.83445 h -0.455714 v -2.82223 h 0.455714 l 1.367144,2.20134 1.367143,-2.20134 h 0.455715 v 2.82223 h -0.455715 v -1.83445 l -1.139286,1.83445 h -0.455715 z m 6.835716,0.70556 h -2.734287 v 0.56445 h 2.734287 v 0.56444 h -3.190002 v -2.82223 h 3.190002 v 0.56444 h -2.734287 v 0.56446 h 2.734287 z m 0.911425,1.12889 h -0.455714 v -2.82223 h 3.190001 v 1.69334 h -0.455714 l 0.455714,1.12889 h -0.5104 l -0.455714,-1.12889 h -1.768173 z m 0,-1.69333 h 2.278573 v -0.56446 h -2.278573 z m 6.38,-0.56446 h -2.734286 v 1.69335 h 2.734286 v 0.56444 h -3.190001 v -2.82223 h 3.190001 z"
         id="path1" /><path
         style="font-size:5.07175px;line-height:1.25;font-family:'Square Sans Serif 7';-inkscape-font-specification:'Square Sans Serif 7, ';text-align:center;text-anchor:middle;fill:#ff6600;stroke-width:0.264583"
         d="m 27.678571,119.91104 h 3.190002 v 2.82223 h -3.190002 z m 0.455715,2.25779 h 2.278572 v -0.56445 h -2.278572 z m 0,-1.12889 h 2.278572 v -0.56446 h -2.278572 z"
         id="path2" /><path
         style="font-size:5.07175px;line-height:1.25;font-family:'Square Sans Serif 7';-inkscape-font-specification:'Square Sans Serif 7, ';text-align:center;text-anchor:middle;fill:#333333;stroke-width:0.264583"
         d="m 31.324284,119.91104 h 3.190001 v 2.82223 h -3.190001 z m 0.455714,2.25779 h 2.278573 v -1.69335 h -2.278573 z m 3.645712,0.56444 h -0.455715 v -2.82223 h 3.190002 v 1.69334 h -0.455714 l 0.455714,1.12889 h -0.5104 l -0.455714,-1.12889 H 35.42571 Z m 0,-1.69333 h 2.278573 v -0.56446 H 35.42571 Z"
         id="path3" /></g><rect
       style="fill:#ff6600;stroke:none;stroke-width:0.999998;stroke-linejoin:round;stroke-dasharray:none"
       id="rect7-6-8-0-4-2"
       width="14.757377"
       height="49.699471"
       x="14.661977"
       y="66.992867"
       ry="1.6706486" /><g
       id="g14"
       transform="translate(2.0827762)"><path
         style="font-size:4.23333px;line-height:1.25;font-family:'DIN Condensed';-inkscape-font-specification:'DIN Condensed, ';text-align:center;text-anchor:middle;fill:#e6e6e6;stroke-width:0.264583"
         d="m 21.450114,70.501549 v -2.607731 h -0.499533 v -0.4064 h 1.430865 v 0.4064 h -0.499533 v 2.607731 z"
         id="path12" /><path
         style="font-size:4.23333px;line-height:1.25;font-family:'DIN Condensed';-inkscape-font-specification:'DIN Condensed, ';text-align:center;text-anchor:middle;fill:#e6e6e6;stroke-width:0.264583"
         d="m 20.760078,67.487418 v 2.336798 q 0,0.148167 -0.05503,0.275166 -0.0508,0.122767 -0.148166,0.220134 -0.09737,0.09737 -0.224367,0.152399 -0.127,0.05503 -0.270933,0.05503 -0.143933,0 -0.270933,-0.05503 -0.122767,-0.05503 -0.220133,-0.152399 -0.09737,-0.09737 -0.1524,-0.220134 -0.05503,-0.126999 -0.05503,-0.275166 v -2.336798 h 0.431799 v 2.294465 q 0,0.160866 0.0762,0.237066 0.0762,0.0762 0.1905,0.0762 0.1143,0 0.1905,-0.0762 0.0762,-0.0762 0.0762,-0.237066 v -2.294465 z"
         id="path11" /><path
         id="text18-0"
         style="font-size:4.23333px;line-height:1.25;font-family:'DIN Condensed';-inkscape-font-specification:'DIN Condensed, ';text-align:center;text-anchor:middle;fill:#e6e6e6;stroke-width:0.264583"
         d="m 18.258317,67.462032 c -0.08749,0 -0.175027,0.01546 -0.262516,0.04651 -0.08467,0.03104 -0.161194,0.07613 -0.228927,0.135392 -0.07056,0.06209 -0.126648,0.139928 -0.168982,0.233061 -0.04233,0.09313 -0.06356,0.200072 -0.06356,0.321427 v 1.592151 c 0,0.127 0.02123,0.23525 0.06356,0.325562 0.04233,0.09031 0.09843,0.165525 0.168982,0.224792 0.06773,0.06209 0.144261,0.10848 0.228927,0.139526 0.08749,0.03105 0.175027,0.04651 0.262516,0.04651 0.08749,0 0.173199,-0.01546 0.257865,-0.04651 0.08749,-0.03105 0.166639,-0.07744 0.237195,-0.139526 0.06773,-0.05927 0.123032,-0.134482 0.165365,-0.224792 0.04233,-0.09031 0.06356,-0.198562 0.06356,-0.325562 v -1.592151 c 0,-0.121355 -0.02123,-0.228294 -0.06356,-0.321427 -0.04233,-0.09313 -0.09763,-0.170974 -0.165365,-0.233061 -0.07056,-0.05926 -0.149706,-0.104346 -0.237195,-0.135392 -0.08467,-0.03105 -0.170376,-0.04651 -0.257865,-0.04651 z m 0,0.432015 c 0.07902,0 0.146642,0.02516 0.203088,0.07596 0.05927,0.04798 0.08888,0.123988 0.08888,0.22841 v 1.592151 c 0,0.104423 -0.02962,0.181744 -0.08888,0.232544 -0.05644,0.04798 -0.124066,0.07183 -0.203088,0.07183 -0.07902,0 -0.148473,-0.02385 -0.207739,-0.07183 -0.05645,-0.0508 -0.08475,-0.128121 -0.08475,-0.232544 v -1.592151 c 0,-0.104419 0.0283,-0.18043 0.08475,-0.22841 0.05927,-0.0508 0.128717,-0.07596 0.207739,-0.07596 z" /></g><rect
       style="fill:#ececec;stroke-width:0.999999;stroke-linejoin:round"
       id="rect1-0-8-2-2-1"
       width="12.606627"
       height="44.825691"
       x="15.73735"
       y="70.794472"
       ry="1.0752267" /><path
       d="m 19.106963,76.91156 v -3.014131 h 0.4318 v 1.291166 h 0.5334 v -1.291166 h 0.431799 v 3.014131 h -0.431799 v -1.341965 h -0.5334 v 1.341965 z m 1.816101,0 v -3.014131 h 0.4318 v 3.014131 z m 0.825502,-2.302931 q 0,-0.182034 0.0635,-0.321733 0.0635,-0.1397 0.169333,-0.232834 0.1016,-0.0889 0.2286,-0.135466 0.131233,-0.04657 0.262466,-0.04657 0.131233,0 0.258233,0.04657 0.131233,0.04657 0.237067,0.135466 0.1016,0.09313 0.1651,0.232834 0.0635,0.139699 0.0635,0.321733 v 0.1524 h -0.431799 v -0.1524 q 0,-0.156634 -0.0889,-0.2286 -0.08467,-0.0762 -0.2032,-0.0762 -0.118533,0 -0.207433,0.0762 -0.08467,0.07197 -0.08467,0.2286 v 1.591732 q 0,0.156633 0.08467,0.232833 0.0889,0.07197 0.207433,0.07197 0.118533,0 0.2032,-0.07197 0.0889,-0.0762 0.0889,-0.232833 v -0.567267 h -0.3429 v -0.380999 h 0.774699 v 0.948266 q 0,0.190499 -0.0635,0.325966 -0.0635,0.135467 -0.1651,0.224367 -0.105834,0.09313 -0.237067,0.139699 -0.127,0.04657 -0.258233,0.04657 -0.131233,0 -0.262466,-0.04657 -0.127,-0.04657 -0.2286,-0.139699 -0.105833,-0.0889 -0.169333,-0.224367 -0.0635,-0.135467 -0.0635,-0.325966 z m 1.828801,2.302931 v -3.014131 h 0.431799 v 1.291166 h 0.5334 v -1.291166 h 0.431799 v 3.014131 h -0.431799 v -1.341965 h -0.5334 v 1.341965 z"
       id="text19-0"
       style="font-size:4.23333px;line-height:1.25;font-family:'DIN Condensed';-inkscape-font-specification:'DIN Condensed, ';text-align:center;text-anchor:middle;fill:#333333;stroke-width:0.264583"
       aria-label="HIGH" /><path
       d="m 19.261478,101.01173 v -3.014134 h 0.431799 v 2.582334 h 0.855133 v 0.4318 z m 1.540935,-2.302935 q 0,-0.182033 0.0635,-0.321733 0.0635,-0.1397 0.169333,-0.232833 0.1016,-0.0889 0.2286,-0.135467 0.131233,-0.04657 0.262467,-0.04657 0.131233,0 0.258233,0.04657 0.131233,0.04657 0.237066,0.135467 0.1016,0.09313 0.1651,0.232833 0.0635,0.1397 0.0635,0.321733 v 1.591735 q 0,0.1905 -0.0635,0.32596 -0.0635,0.13547 -0.1651,0.22437 -0.105833,0.0931 -0.237066,0.1397 -0.127,0.0466 -0.258233,0.0466 -0.131234,0 -0.262467,-0.0466 -0.127,-0.0466 -0.2286,-0.1397 -0.105833,-0.0889 -0.169333,-0.22437 -0.0635,-0.13546 -0.0635,-0.32596 z m 0.4318,1.591735 q 0,0.15663 0.08467,0.23283 0.0889,0.072 0.207434,0.072 0.118533,0 0.203199,-0.072 0.0889,-0.0762 0.0889,-0.23283 v -1.591735 q 0,-0.156633 -0.0889,-0.2286 -0.08467,-0.0762 -0.203199,-0.0762 -0.118534,0 -0.207434,0.0762 -0.08467,0.07197 -0.08467,0.2286 z m 3.585636,-2.302934 -0.448733,3.014134 h -0.406399 l -0.3302,-1.955802 h -0.0085 l -0.325966,1.955802 h -0.4064 l -0.448733,-3.014134 h 0.4572 l 0.2159,1.913465 h 0.0085 l 0.338667,-1.913465 h 0.330199 l 0.351367,1.960031 h 0.0085 l 0.207434,-1.960031 z"
       id="text19-2-3"
       style="font-size:4.23333px;line-height:1.25;font-family:'DIN Condensed';-inkscape-font-specification:'DIN Condensed, ';text-align:center;text-anchor:middle;fill:#333333;stroke-width:0.264583"
       aria-label="LOW" /><rect
       style="fill:#ff6600;stroke:none;stroke-width:0.999998;stroke-linejoin:round;stroke-dasharray:none"
       id="rect7-6-8-0-4"
       width="14.757377"
       height="49.699471"
       x="1.0606458"
       y="66.992867"
       ry="1.6706486" /><rect
       style="fill:#ececec;stroke-width:0.999999;stroke-linejoin:round"
       id="rect1-0-8-2-2"
       width="12.606627"
       height="44.825691"
       x="2.1360204"
       y="70.794472"
       ry="1.0752267" /><g
       id="g10"
       transform="translate(2.1822657)"><path
         style="font-size:4.23333px;line-height:1.25;font-family:'DIN Condensed';-inkscape-font-specification:'DIN Condensed, ';text-align:center;text-anchor:middle;fill:#e6e6e6;stroke-width:0.264583"
         d="M 5.920503,70.501549 V 67.487418 H 6.33537 l 0.651932,1.816098 h 0.0085 v -1.816098 h 0.4318 v 3.014131 h -0.4064 L 6.360803,68.689684 h -0.0085 v 1.811865 z"
         id="path8" /><path
         style="font-size:4.23333px;line-height:1.25;font-family:'DIN Condensed';-inkscape-font-specification:'DIN Condensed, ';text-align:center;text-anchor:middle;fill:#e6e6e6;stroke-width:0.264583"
         d="m 5.086535,70.501549 v -3.014131 h 0.4318 v 3.014131 z"
         id="text18" /></g><path
       d="m 5.5056335,76.91156 v -3.014131 h 0.4318 v 1.291166 h 0.533399 v -1.291166 h 0.4318 v 3.014131 h -0.4318 v -1.341965 h -0.533399 v 1.341965 z m 1.816101,0 v -3.014131 h 0.4318 v 3.014131 z m 0.825501,-2.302931 q 0,-0.182034 0.0635,-0.321733 0.0635,-0.1397 0.169334,-0.232834 0.1016,-0.0889 0.228599,-0.135466 0.131234,-0.04657 0.262467,-0.04657 0.1312327,0 0.2582327,0.04657 0.131233,0.04657 0.237066,0.135466 0.1015997,0.09313 0.1650997,0.232834 0.0635,0.139699 0.0635,0.321733 v 0.1524 H 9.1632352 v -0.1524 q 0,-0.156634 -0.0889,-0.2286 -0.08467,-0.0762 -0.2031997,-0.0762 -0.118533,0 -0.207433,0.0762 -0.08467,0.07197 -0.08467,0.2286 v 1.591732 q 0,0.156633 0.08467,0.232833 0.0889,0.07197 0.207433,0.07197 0.1185327,0 0.2031997,-0.07197 0.0889,-0.0762 0.0889,-0.232833 V 75.633094 H 8.8203355 v -0.380999 h 0.7746984 v 0.948266 q 0,0.190499 -0.0635,0.325966 -0.0635,0.135467 -0.1650997,0.224367 -0.105833,0.09313 -0.237066,0.139699 -0.127,0.04657 -0.2582327,0.04657 -0.131233,0 -0.262467,-0.04657 -0.126999,-0.04657 -0.228599,-0.139699 -0.105834,-0.0889 -0.169334,-0.224367 -0.0635,-0.135467 -0.0635,-0.325966 z m 1.8288002,2.302931 v -3.014131 h 0.4318003 v 1.291166 h 0.533399 v -1.291166 h 0.431799 v 3.014131 h -0.431799 v -1.341965 h -0.533399 v 1.341965 z"
       id="text19"
       style="font-size:4.23333px;line-height:1.25;font-family:'DIN Condensed';-inkscape-font-specification:'DIN Condensed, ';text-align:center;text-anchor:middle;fill:#333333;stroke-width:0.264583"
       aria-label="HIGH" /><path
       d="m 5.6601485,101.01173 v -3.014134 h 0.4318 v 2.582334 h 0.855133 v 0.4318 z m 1.540936,-2.302935 q 0,-0.182033 0.0635,-0.321733 0.0635,-0.1397 0.169333,-0.232833 0.1016,-0.0889 0.2286,-0.135467 0.131233,-0.04657 0.262466,-0.04657 0.131234,0 0.258233,0.04657 0.131234,0.04657 0.237067,0.135467 0.1016,0.09313 0.1651,0.232833 0.0635,0.1397 0.0635,0.321733 v 1.591735 q 0,0.1905 -0.0635,0.32596 -0.0635,0.13547 -0.1651,0.22437 -0.105833,0.0931 -0.237067,0.1397 -0.126999,0.0466 -0.258233,0.0466 -0.131233,0 -0.262466,-0.0466 -0.127,-0.0466 -0.2286,-0.1397 -0.105833,-0.0889 -0.169333,-0.22437 -0.0635,-0.13546 -0.0635,-0.32596 z m 0.4318,1.591735 q 0,0.15663 0.08467,0.23283 0.0889,0.072 0.207433,0.072 0.118534,0 0.2032,-0.072 0.0889,-0.0762 0.0889,-0.23283 v -1.591735 q 0,-0.156633 -0.0889,-0.2286 -0.08467,-0.0762 -0.2032,-0.0762 -0.118533,0 -0.207433,0.0762 -0.08467,0.07197 -0.08467,0.2286 z m 3.5856345,-2.302934 -0.448733,3.014134 h -0.406399 l -0.330199,-1.955802 h -0.0085 L 9.6987219,101.01173 H 9.2923222 L 8.8435895,97.997596 h 0.4571997 l 0.2158987,1.913465 h 0.0085 l 0.338666,-1.913465 h 0.3302001 l 0.351366,1.960031 h 0.0085 l 0.207433,-1.960031 z"
       id="text19-2"
       style="font-size:4.23333px;line-height:1.25;font-family:'DIN Condensed';-inkscape-font-specification:'DIN Condensed, ';text-align:center;text-anchor:middle;fill:#333333;stroke-width:0.264583"
       aria-label="LOW" /></g></svg>
