<?xml version="1.0" encoding="UTF-8" standalone="no"?>
<svg
   sodipodi:docname="MOREc8or-White.svg"
   inkscape:version="1.3.2 (091e20e, 2023-11-25)"
   id="svg8"
   version="1.1"
   viewBox="0 0 15.239999 128.5"
   height="128.5mm"
   width="15.24mm"
   xml:space="preserve"
   xmlns:inkscape="http://www.inkscape.org/namespaces/inkscape"
   xmlns:sodipodi="http://sodipodi.sourceforge.net/DTD/sodipodi-0.dtd"
   xmlns="http://www.w3.org/2000/svg"
   xmlns:svg="http://www.w3.org/2000/svg"
   xmlns:rdf="http://www.w3.org/1999/02/22-rdf-syntax-ns#"
   xmlns:cc="http://creativecommons.org/ns#"
   xmlns:dc="http://purl.org/dc/elements/1.1/"><defs
     id="defs2"><inkscape:path-effect
       effect="fillet_chamfer"
       id="path-effect18"
       is_visible="true"
       lpeversion="1"
       nodesatellites_param="F,0,0,1,0,0,0,1 @ F,0,0,1,0,1.3229167,0,1 @ F,0,0,1,0,1.3229167,0,1 @ F,0,0,1,0,0,0,1"
       radius="5"
       unit="px"
       method="auto"
       mode="F"
       chamfer_steps="1"
       flexible="false"
       use_knot_distance="true"
       apply_no_radius="true"
       apply_with_radius="true"
       only_selected="false"
       hide_knots="false" /><mask
       maskUnits="userSpaceOnUse"
       id="mask6"><rect
         style="fill:#ececec;fill-opacity:1;stroke:none;stroke-width:0.499994;stroke-linecap:round;stroke-miterlimit:4;stroke-dasharray:none;stop-color:#000000"
         id="rect7"
         width="30.48"
         height="128.5"
         x="0"
         y="-3.541667e-07" /></mask></defs><sodipodi:namedview
     inkscape:window-maximized="0"
     inkscape:window-y="23"
     inkscape:window-x="0"
     inkscape:window-height="769"
     inkscape:window-width="1252"
     showgrid="false"
     inkscape:document-rotation="0"
     inkscape:current-layer="layer1"
     inkscape:document-units="mm"
     inkscape:cy="91.703468"
     inkscape:cx="27.451685"
     inkscape:zoom="3.3695563"
     inkscape:pageshadow="2"
     inkscape:pageopacity="0.0"
     borderopacity="1.0"
     bordercolor="#666666"
     pagecolor="#ffffff"
     id="base"
     inkscape:showpageshadow="2"
     inkscape:pagecheckerboard="0"
     inkscape:deskcolor="#d1d1d1"
     showguides="false"><sodipodi:guide
       position="8.3548828,69.396941"
       orientation="1,0"
       id="guide5"
       inkscape:locked="false" /><sodipodi:guide
       position="42.379222,141.53976"
       orientation="1,0"
       id="guide7"
       inkscape:locked="false" /></sodipodi:namedview><metadata
     id="metadata5"><rdf:RDF><cc:Work
         rdf:about=""><dc:format>image/svg+xml</dc:format><dc:type
           rdf:resource="http://purl.org/dc/dcmitype/StillImage" /></cc:Work></rdf:RDF></metadata><g
     id="layer1"
     inkscape:groupmode="layer"
     inkscape:label="Layer 1"><rect
       style="fill:#ececec;fill-opacity:1;stroke:none;stroke-width:0.499994;stroke-linecap:round;stroke-miterlimit:4;stroke-dasharray:none;stop-color:#000000"
       id="rect1015-3"
       width="15.24"
       height="128.5"
       x="-4.5776366e-07"
       y="-3.541667e-07" /><path
       style="fill:none;stroke:#ff6600;stroke-width:0.500001;stroke-linecap:butt;stroke-linejoin:miter;stroke-dasharray:none;stroke-opacity:1"
       d="M 2.094881,121.28979 H 0"
       id="path16-8" /><path
       style="fill:none;stroke:#ff6600;stroke-width:7.10001;stroke-linecap:round;stroke-linejoin:miter;stroke-dasharray:none;stroke-opacity:1"
       d="m 7.619998,15.319229 v 8.817965"
       id="path7-1" /><path
       d="m 8.761922,126.28053 h -0.22003 v 0.008 q 0.118481,0.0846 0.18195,0.17348 0.0635,0.0846 0.0635,0.24118 0,0.0762 -0.0254,0.15656 -0.0212,0.0762 -0.0846,0.14809 -0.0592,0.0719 -0.169251,0.11847 -0.114239,0.0423 -0.29195,0.0423 -0.18195,0 -0.31735,-0.0296 -0.13963,-0.0296 -0.23271,-0.11001 -0.0889,-0.0762 -0.13117,-0.20733 -0.0466,-0.13117 -0.0466,-0.33427 0,-0.0212 0,-0.0465 0,-0.0254 0.004,-0.0465 0.004,-0.0212 0.004,-0.0508 0,-0.0296 0.004,-0.0635 h -0.22426 q -0.11001,0 -0.18194,0.0465 -0.0719,0.0465 -0.0719,0.16925 0,0.0846 0.055,0.15656 0.055,0.0677 0.16079,0.0889 v 0.41889 q -0.28772,-0.0169 -0.46544,-0.19464 -0.0846,-0.0846 -0.13116,-0.20309 -0.0508,-0.11848 -0.0508,-0.26657 0,-0.1354 0.0423,-0.25388 0.0423,-0.11847 0.12694,-0.20733 0.0846,-0.0846 0.21156,-0.1354 0.12694,-0.0508 0.29619,-0.0508 h 1.49363 z m -0.92241,0 q -0.0127,0.0719 -0.0127,0.11847 0,0.13963 0.0677,0.24118 0.0635,0.0973 0.236949,0.0973 0.12271,0 0.19887,-0.0592 0.0762,-0.0592 0.0762,-0.16501 0,-0.11002 -0.0719,-0.16925 -0.0719,-0.0635 -0.2031,-0.0635 z m 0.30465,-1.20591 q 0.10155,0 0.15655,-0.055 0.055,-0.0592 0.055,-0.15655 0,-0.12271 -0.0719,-0.16079 -0.0719,-0.0423 -0.14386,-0.0508 v -0.43159 q 0.28349,0 0.45697,0.17348 0.0889,0.0846 0.13963,0.2031 0.0508,0.11848 0.0508,0.26657 0,0.2031 -0.0846,0.34696 -0.0846,0.13963 -0.22426,0.2158 -0.0846,0.0465 -0.19463,0.0635 -0.11001,0.0169 -0.24118,0.0169 h -0.70662 q -0.13117,0 -0.24118,-0.0169 -0.11001,-0.0169 -0.19464,-0.0635 -0.13963,-0.0762 -0.22425,-0.2158 -0.0846,-0.14386 -0.0846,-0.34696 0,-0.14809 0.0508,-0.26657 0.0508,-0.1227 0.13963,-0.20733 0.1904,-0.16925 0.49505,-0.16925 v 0.4316 q -0.13117,0 -0.1904,0.0592 -0.0635,0.055 -0.0635,0.15232 0,0.0973 0.0635,0.15656 0.0592,0.055 0.18194,0.055 z m 0.61776,-1.13397 h -3.01265 v -0.41467 l 1.59518,-0.55429 v -0.008 l -1.59518,-0.55006 v -0.41889 h 3.01265 v 0.43162 H 6.929793 v 0.008 l 1.294759,0.42736 v 0.21575 l -1.294759,0.42313 v 0.008 h 1.83213 z m -1.42593,-2.2891 q -0.131169,0 -0.24118,-0.0169 -0.11001,-0.0169 -0.19464,-0.0635 -0.13963,-0.0762 -0.22425,-0.2158 -0.0846,-0.14386 -0.0846,-0.34696 0,-0.2031 0.0846,-0.34273 0.0846,-0.14386 0.22425,-0.22002 0.0846,-0.0465 0.19464,-0.0635 0.110011,-0.0169 0.24118,-0.0169 h 0.70662 q 0.13117,0 0.24118,0.0169 0.110011,0.0169 0.194631,0.0635 0.13964,0.0762 0.22426,0.22002 0.0846,0.13963 0.0846,0.34273 0,0.2031 -0.0846,0.34696 -0.0846,0.13963 -0.22426,0.2158 -0.0846,0.0465 -0.194631,0.0635 -0.11001,0.0169 -0.24118,0.0169 z m 0.774321,-0.43159 q 0.122699,0 0.18617,-0.055 0.0592,-0.0592 0.0592,-0.15656 0,-0.0973 -0.0592,-0.15232 -0.0635,-0.0592 -0.18617,-0.0592 H 7.268292 q -0.12271,0 -0.18194,0.0592 -0.0635,0.055 -0.0635,0.15232 0,0.0973 0.0635,0.15656 0.0592,0.055 0.18194,0.055 z m -0.0465,-1.60364 q 0.13117,0 0.21156,-0.0508 0.0804,-0.0508 0.0804,-0.16079 0,-0.0973 -0.0719,-0.15656 -0.0762,-0.0592 -0.19464,-0.0592 h -0.83355 q -0.101551,0 -0.16502,0.0635 -0.0677,0.0592 -0.0677,0.15233 0,0.1227 0.0762,0.16925 0.0762,0.0423 0.17771,0.0423 z m 0.69816,-0.42736 h -0.19464 q 0.0465,0.0423 0.0889,0.0804 0.0381,0.0381 0.0677,0.0846 0.0296,0.0465 0.0465,0.10578 0.0169,0.0592 0.0169,0.13963 0,0.2708 -0.203091,0.37658 -0.0719,0.0381 -0.177719,0.055 -0.10578,0.0169 -0.28349,0.0169 H 7.306402 q -0.23272,0 -0.34273,-0.0127 -0.21156,-0.0254 -0.31734,-0.19887 -0.055,-0.0804 -0.055,-0.24118 0,-0.12693 0.0592,-0.22425 0.055,-0.10155 0.16079,-0.17348 v -0.008 h -1.06205 v -0.43159 h 3.01265 z m -2.14524,-2.07754 h 2.14524 v 0.43159 h -0.20733 v 0.009 q 0.10155,0.0677 0.16925,0.16502 0.0635,0.0931 0.0635,0.24118 0,0.0804 -0.0254,0.16078 -0.0296,0.0804 -0.0931,0.14387 -0.0635,0.0635 -0.16079,0.10155 -0.101551,0.0381 -0.245411,0.0381 h -1.64595 v -0.43159 h 1.48516 q 0.11848,0 0.18618,-0.055 0.0677,-0.055 0.0677,-0.15656 0,-0.1227 -0.0762,-0.16925 -0.0762,-0.0465 -0.22003,-0.0465 h -1.44285 z m -0.86741,-0.33003 v -0.43159 h 2.407579 q 0.12271,0 0.169251,-0.0423 0.0423,-0.0465 0.055,-0.16925 h 0.40619 q 0,0.14809 -0.0254,0.26657 -0.0212,0.11847 -0.0889,0.2031 -0.0635,0.0846 -0.177711,0.13117 -0.11848,0.0423 -0.30888,0.0423 z m 2.10293,-2.06062 v 0.85471 h 0.29196 q 0.10155,0 0.15655,-0.055 0.055,-0.0592 0.055,-0.15656 0,-0.1227 -0.0719,-0.16078 -0.0719,-0.0423 -0.14386,-0.0508 v -0.43159 q 0.28349,0 0.45697,0.17348 0.0889,0.0846 0.139629,0.2031 0.0508,0.11847 0.0508,0.26657 0,0.2031 -0.0846,0.34696 -0.0846,0.13963 -0.22426,0.21579 -0.0846,0.0465 -0.19463,0.0635 -0.11001,0.0169 -0.24118,0.0169 h -0.70662 q -0.13117,0 -0.24118,-0.0169 -0.11001,-0.0169 -0.19464,-0.0635 -0.13963,-0.0762 -0.22425,-0.21579 -0.0846,-0.14386 -0.0846,-0.34696 0,-0.1481 0.0508,-0.26657 0.0508,-0.12271 0.13963,-0.20733 0.1904,-0.16925 0.47813,-0.16925 z m -0.3385,0.85471 v -0.42312 H 7.268342 q -0.122709,0 -0.181939,0.0592 -0.0635,0.055 -0.0635,0.15232 0,0.0973 0.0635,0.15656 0.0592,0.055 0.181939,0.055 z m -0.29619,-1.95484 q -0.11001,0.004 -0.16501,0.0719 -0.055,0.0635 -0.055,0.1481 0,0.10155 0.0677,0.15655 0.0635,0.055 0.14809,0.055 0.0592,0 0.11848,-0.0296 0.055,-0.0296 0.10155,-0.15232 l 0.10155,-0.25388 q 0.0931,-0.24118 0.25387,-0.33003 0.16079,-0.0931 0.3512,-0.0931 0.13539,0 0.25387,0.0508 0.11424,0.0465 0.2031,0.13116 0.0889,0.0846 0.13963,0.2031 0.0508,0.11848 0.0508,0.25811 0,0.26234 -0.16501,0.44005 -0.0804,0.0889 -0.19887,0.14386 -0.12271,0.055 -0.28349,0.0592 v -0.4062 q 0.0888,-0.0127 0.16501,-0.0592 0.0762,-0.0508 0.0762,-0.17348 0,-0.0931 -0.0592,-0.16502 -0.0635,-0.0762 -0.17348,-0.0762 -0.0889,0 -0.15233,0.0465 -0.0635,0.0465 -0.11001,0.16925 l -0.0762,0.20733 q -0.0762,0.2031 -0.22426,0.32158 -0.15232,0.11424 -0.36812,0.11424 -0.13539,0 -0.24964,-0.0508 -0.11847,-0.0508 -0.2031,-0.13963 -0.0846,-0.0846 -0.12693,-0.19887 -0.0465,-0.11424 -0.0465,-0.24541 0,-0.13117 0.0465,-0.24118 0.0465,-0.11424 0.13116,-0.19464 0.0846,-0.0804 0.2031,-0.12694 0.11425,-0.0465 0.24541,-0.0465 z"
       id="text1-3"
       style="font-size:4.23124px;line-height:1.25;font-family:'DIN Condensed';-inkscape-font-specification:'DIN Condensed, ';text-align:center;text-anchor:middle;fill:#333333;stroke-width:0.264583"
       aria-label="acModules" /><path
       d="m 4.686297,71.619893 v -3.014131 h 0.4318 v 1.291166 h 0.5334 v -1.291166 h 0.431799 v 3.014131 H 5.651497 v -1.341965 h -0.5334 v 1.341965 z m 1.816101,0 v -3.014131 h 0.4318 v 3.014131 z M 7.3279,69.316962 q 0,-0.182034 0.0635,-0.321733 0.0635,-0.1397 0.169333,-0.232834 0.1016,-0.0889 0.2286,-0.135466 0.131233,-0.04657 0.262466,-0.04657 0.131233,0 0.258233,0.04657 0.131233,0.04657 0.237067,0.135466 0.1016,0.09313 0.1651,0.232834 0.0635,0.139699 0.0635,0.321733 v 0.1524 H 8.3439 v -0.1524 q 0,-0.156634 -0.0889,-0.2286 -0.08467,-0.0762 -0.2032,-0.0762 -0.118533,0 -0.207433,0.0762 -0.08467,0.07197 -0.08467,0.2286 v 1.591732 q 0,0.156633 0.08467,0.232833 0.0889,0.07197 0.207433,0.07197 0.118533,0 0.2032,-0.07197 0.0889,-0.0762 0.0889,-0.232833 V 70.341427 H 8.001 v -0.380999 h 0.774699 v 0.948266 q 0,0.190499 -0.0635,0.325966 -0.0635,0.135467 -0.1651,0.224367 -0.105834,0.09313 -0.237067,0.139699 -0.127,0.04657 -0.258233,0.04657 -0.131233,0 -0.262466,-0.04657 -0.127,-0.04657 -0.2286,-0.139699 Q 7.4549,71.370127 7.3914,71.23466 7.3279,71.099193 7.3279,70.908694 Z m 1.828801,2.302931 V 68.605762 H 9.5885 v 1.291166 h 0.5334 v -1.291166 h 0.431799 v 3.014131 H 10.1219 V 70.277928 H 9.5885 v 1.341965 z"
       id="text19-0-6"
       style="font-size:4.23333px;line-height:1.25;font-family:'DIN Condensed';-inkscape-font-specification:'DIN Condensed, ';text-align:center;text-anchor:middle;fill:#333333;stroke-width:0.264583"
       aria-label="HIGH" /><path
       d="m 4.840813,87.253397 v -3.014134 h 0.431799 v 2.582334 h 0.855133 v 0.4318 z m 1.540935,-2.302935 q 0,-0.182033 0.0635,-0.321733 0.0635,-0.1397 0.169333,-0.232833 0.1016,-0.0889 0.2286,-0.135467 0.131233,-0.04657 0.262467,-0.04657 0.131233,0 0.258233,0.04657 0.131233,0.04657 0.237066,0.135467 0.1016,0.09313 0.1651,0.232833 0.0635,0.1397 0.0635,0.321733 v 1.591735 q 0,0.1905 -0.0635,0.32596 -0.0635,0.13547 -0.1651,0.22437 -0.105833,0.0931 -0.237066,0.1397 -0.127,0.0466 -0.258233,0.0466 -0.131234,0 -0.262467,-0.0466 -0.127,-0.0466 -0.2286,-0.1397 -0.105833,-0.0889 -0.169333,-0.22437 -0.0635,-0.13546 -0.0635,-0.32596 z m 0.4318,1.591735 q 0,0.15663 0.08467,0.23283 0.0889,0.072 0.207434,0.072 0.118533,0 0.203199,-0.072 0.0889,-0.0762 0.0889,-0.23283 v -1.591735 q 0,-0.156633 -0.0889,-0.2286 -0.08467,-0.0762 -0.203199,-0.0762 -0.118534,0 -0.207434,0.0762 -0.08467,0.07197 -0.08467,0.2286 z m 3.585636,-2.302934 -0.448733,3.014134 H 9.544052 l -0.3302,-1.955802 h -0.0085 l -0.325966,1.955802 h -0.4064 L 8.024253,84.239263 h 0.4572 l 0.2159,1.913465 h 0.0085 L 9.04452,84.239263 h 0.330199 l 0.351367,1.960031 h 0.0085 L 9.94202,84.239263 Z"
       id="text19-2-3-1"
       style="font-size:4.23333px;line-height:1.25;font-family:'DIN Condensed';-inkscape-font-specification:'DIN Condensed, ';text-align:center;text-anchor:middle;fill:#333333;stroke-width:0.264583"
       aria-label="LOW" /><g
       id="g18"
       transform="rotate(90,40.036207,9.479976)"><path
         style="color:#000000;fill:#ff6600;-inkscape-stroke:none"
         d="m 61.222705,43.231758 v 0 c 5e-6,-0.919779 -0.752096,-1.673834 -1.671875,-1.673828 l -1.175092,7e-6 v 0.701172 h 1.175045 c 0.54147,0 0.972659,0.431186 0.972656,0.972656 v -1.4e-5"
         id="path8-0"
         sodipodi:nodetypes="ccsccscc" /><path
         d="m 61.222705,43.231772 v 0 c 3e-6,0.542745 0.431868,0.976471 0.97461,0.978515 l 1.54593,0.01367 -0.002,0.701172 -1.545931,-0.01563 c -0.920112,-0.0035 -1.67187,-0.757615 -1.671875,-1.677734 v 0"
         style="color:#000000;fill:#ff6600;-inkscape-stroke:none"
         id="path1-3"
         sodipodi:nodetypes="cccccccc" /></g><circle
       style="fill:#333333;stroke:none;stroke-width:0.2;stroke-linecap:round;stroke-dasharray:0.264583, 1.5875"
       id="path4-4-6"
       cx="7.6199985"
       cy="25.195528"
       r="3.75" /><circle
       style="fill:#333333;stroke:none;stroke-width:0.2;stroke-linecap:round;stroke-dasharray:0.264583, 1.5875"
       id="path4-7"
       cx="7.6199994"
       cy="15.212627"
       r="3" /><path
       style="color:#000000;fill:#ff6600;stroke-linecap:round;-inkscape-stroke:none"
       d="m 0,95.587006 h 7.30125 c 1.961221,4.32e-4 3.551213,-1.589561 3.550781,-3.550782 C 10.851384,90.075766 9.261708,88.486965 7.30125,88.487396 H 0 Z"
       id="path7-6"
       sodipodi:nodetypes="cccccc" /><path
       d="m 8.4366645,32.590114 q 0,-0.136525 0.047625,-0.2413 0.047625,-0.104775 0.127,-0.174625 0.0762,-0.06667 0.17145,-0.1016 0.098425,-0.03493 0.19685,-0.03493 0.098425,0 0.193675,0.03493 0.098425,0.03493 0.1778,0.1016 0.0762,0.06985 0.123825,0.174625 0.047625,0.104775 0.047625,0.2413 v 0.1143 h -0.32385 v -0.1143 q 0,-0.117475 -0.066675,-0.17145 -0.0635,-0.05715 -0.1524,-0.05715 -0.0889,0 -0.155575,0.05715 -0.0635,0.05398 -0.0635,0.17145 v 1.1938 q 0,0.117475 0.0635,0.174625 0.066675,0.05398 0.155575,0.05398 0.0889,0 0.1524,-0.05398 0.066675,-0.05715 0.066675,-0.174625 v -0.42545 h -0.257175 v -0.28575 h 0.581025 v 0.7112 q 0,0.142875 -0.047625,0.244475 -0.047625,0.1016 -0.123825,0.168275 -0.079375,0.06985 -0.1778,0.104775 -0.09525,0.03493 -0.193675,0.03493 -0.098425,0 -0.19685,-0.03493 -0.09525,-0.03493 -0.17145,-0.104775 -0.079375,-0.06667 -0.127,-0.168275 -0.047625,-0.1016 -0.047625,-0.244475 z m 2.0256515,0.936625 -0.15875,-0.81915 h -0.0063 l -0.15875,0.81915 z m -0.8000997,0.790575 0.5048247,-2.2606 h 0.269875 l 0.504825,2.2606 h -0.32385 l -0.09525,-0.485775 h -0.441325 l -0.09525,0.485775 z m 1.4763727,0 v -1.9558 h -0.37465 v -0.3048 h 1.07315 v 0.3048 h -0.37465 v 1.9558 z m 0.841377,0 v -2.2606 h 0.9652 v 0.3048 h -0.64135 v 0.663575 h 0.5588 v 0.3048 h -0.5588 v 0.663575 h 0.64135 v 0.32385 z"
       id="text6"
       style="font-size:3.175px;line-height:1.25;font-family:'DIN Condensed';-inkscape-font-specification:'DIN Condensed, ';text-align:center;text-anchor:middle;stroke-width:0.264583;fill:#333333"
       aria-label="GATE" /><path
       d="m 8.8113142,38.886154 v -1.9558 h -0.37465 v -0.3048 h 1.07315 v 0.3048 h -0.37465 v 1.9558 z m 1.1652273,-1.9558 v 0.70485 h 0.1841495 q 0.08573,0 0.136525,-0.02222 0.0508,-0.0254 0.07937,-0.06985 0.0254,-0.04445 0.03493,-0.10795 0.0095,-0.06667 0.0095,-0.1524 0,-0.08572 -0.0095,-0.149225 -0.0095,-0.06667 -0.0381,-0.1143 -0.06033,-0.0889 -0.2286,-0.0889 z m -0.32385,1.9558 v -2.2606 h 0.5206995 q 0.5715,0 0.5715,0.663575 0,0.200025 -0.0635,0.339725 -0.06032,0.1397 -0.2159,0.225425 l 0.34925,1.031875 h -0.3429 l -0.301625,-0.9652 H 9.9765415 v 0.9652 z m 1.3620765,0 v -2.2606 h 0.32385 v 2.2606 z m 0.619127,-1.7272 q 0,-0.136525 0.04763,-0.2413 0.04763,-0.104775 0.127,-0.174625 0.0762,-0.06667 0.17145,-0.1016 0.09843,-0.03493 0.19685,-0.03493 0.09843,0 0.193675,0.03493 0.09843,0.03493 0.1778,0.1016 0.0762,0.06985 0.123825,0.174625 0.04763,0.104775 0.04763,0.2413 v 0.1143 h -0.32385 v -0.1143 q 0,-0.117475 -0.06668,-0.17145 -0.0635,-0.05715 -0.1524,-0.05715 -0.0889,0 -0.155575,0.05715 -0.0635,0.05398 -0.0635,0.17145 v 1.1938 q 0,0.117475 0.0635,0.174625 0.06668,0.05397 0.155575,0.05397 0.0889,0 0.1524,-0.05397 0.06668,-0.05715 0.06668,-0.174625 v -0.42545 H 12.13872 v -0.28575 h 0.581025 v 0.7112 q 0,0.142875 -0.04763,0.244475 -0.04763,0.1016 -0.123825,0.168275 -0.07937,0.06985 -0.1778,0.104775 -0.09525,0.03493 -0.193675,0.03493 -0.09842,0 -0.19685,-0.03493 -0.09525,-0.03492 -0.17145,-0.104775 -0.07937,-0.06667 -0.127,-0.168275 -0.04763,-0.1016 -0.04763,-0.244475 z"
       id="text6-9"
       style="font-size:3.175px;line-height:1.25;font-family:'DIN Condensed';-inkscape-font-specification:'DIN Condensed, ';text-align:center;text-anchor:middle;stroke-width:0.264583;fill:#333333"
       aria-label="TRIG" /><g
       id="g1"
       transform="matrix(-1,0,0,1,14.921402,0)"><path
         style="color:#000000;fill:#ff6600;-inkscape-stroke:none"
         d="m 7.619609,56.351402 v 0.701172 h 3.988282 c 0.54147,0 0.972659,0.431186 0.972656,0.972656 v 32.86291 c -3e-6,0.542745 -0.431868,0.976471 -0.97461,0.978515 l -3.986328,0.01367 0.002,0.701172 3.986329,-0.01563 c 0.920112,-0.0035 1.67187,-0.757615 1.671875,-1.677734 v -32.86291 c 5e-6,-0.919779 -0.752096,-1.67383 -1.671875,-1.673828 z"
         id="path8"
         sodipodi:nodetypes="ccsccccccccsc" /><path
         style="fill:none;stroke:#ff6600;stroke-width:0.7;stroke-linecap:butt;stroke-linejoin:miter;stroke-dasharray:none;stroke-opacity:1"
         d="m 7.301404,76.771591 h 5.628688"
         id="path9" /></g><circle
       style="fill:#333333;stroke:none;stroke-width:0.2;stroke-linecap:round;stroke-dasharray:0.264583, 1.5875"
       id="path4"
       cx="7.6199985"
       cy="56.737946"
       r="3" /><path
       d="m 2.8395125,52.150445 v -3.014131 h 0.4317997 v 2.582332 h 0.8551326 v 0.431799 z m 1.5790356,0 v -3.014131 h 0.4317996 v 3.014131 z m 0.833968,0 v -3.014131 h 0.4148663 l 0.6519328,1.816099 h 0.00847 v -1.816099 h 0.4317996 v 3.014131 H 6.3531818 L 5.6927824,50.33858 h -0.00847 v 1.811865 z m 1.8965329,0 v -3.014131 h 0.4317996 v 1.375833 h 0.00847 l 0.6307626,-1.375833 h 0.4318 l -0.588433,1.206499 0.698499,1.807632 H 8.3047482 L 7.8136818,50.812713 7.5808486,51.248746 v 0.901699 z"
       id="text4"
       style="font-size:4.23333px;line-height:1.05;font-family:'DIN Condensed';-inkscape-font-specification:'DIN Condensed, ';text-align:center;text-anchor:middle;fill:#333333;stroke-width:0.264583"
       aria-label="LINK" /><circle
       style="fill:#333333;stroke:none;stroke-width:0.2;stroke-linecap:round;stroke-dasharray:0.264583, 1.5875"
       id="path4-0"
       cx="10.900486"
       cy="50.643379"
       r="1.5" /><g
       id="g2"
       transform="translate(0.26458297)"><path
         d="M 1.1098493,10.095964 V 7.0818336 H 1.541649 v 3.0141304 z m 0.833968,0 V 7.0818336 h 0.4148663 l 0.6519328,1.8160985 h 0.00847 V 7.0818336 H 3.4508827 V 10.095964 H 3.044483 L 2.3840836,8.2840993 h -0.00847 V 10.095964 Z M 5.3050822,7.0818336 4.6870161,10.095964 H 4.3060164 L 3.6921836,7.0818336 h 0.4571996 l 0.3428997,2.1039649 h 0.00847 L 4.8478826,7.0818336 Z M 5.5633134,10.095964 V 7.0818336 H 6.8502457 V 7.4882333 H 5.9951131 v 0.8847659 h 0.745066 V 8.7793989 H 5.9951131 V 9.6641648 H 6.8502457 V 10.095964 Z M 7.5614488,7.4882333 v 0.9397992 h 0.2455331 q 0.1142999,0 0.1820329,-0.029633 0.06773,-0.033867 0.105834,-0.093133 0.03387,-0.059267 0.04657,-0.1439332 0.0127,-0.0889 0.0127,-0.2031998 0,-0.1142999 -0.0127,-0.1989665 -0.0127,-0.0889 -0.0508,-0.1523999 Q 8.0101818,7.4882333 7.7858152,7.4882333 Z M 7.1296491,10.095964 V 7.0818336 h 0.6942661 q 0.7619996,0 0.7619996,0.884766 0,0.2666997 -0.08467,0.4529662 -0.08043,0.1862666 -0.287866,0.3005665 l 0.465666,1.3758317 h -0.4572 L 7.8196819,8.8090322 H 7.5614488 v 1.2869318 z m 2.0108357,0 V 7.4882333 H 8.6409518 V 7.0818336 H 10.071817 V 7.4882333 H 9.5722838 v 2.6077307 z"
         id="text4-5"
         style="font-size:4.23333px;line-height:1.05;font-family:'DIN Condensed';-inkscape-font-specification:'DIN Condensed, ';text-align:center;text-anchor:middle;fill:#333333;stroke-width:0.264583"
         aria-label="INVERT" /><circle
         style="fill:#333333;stroke:none;stroke-width:0.2;stroke-linecap:round;stroke-dasharray:0.264583, 1.5875"
         id="path4-0-9"
         cx="12.100984"
         cy="8.5888987"
         r="1.5" /></g><circle
       style="fill:#333333;stroke:none;stroke-width:0.2;stroke-linecap:round;stroke-dasharray:0.264583, 1.5875"
       id="path4-4-5"
       cx="7.6199985"
       cy="92.037201"
       r="3.75" /><g
       id="g15"
       transform="matrix(0.95476154,0,0,0.95476154,-29.009814,1.8023944)"
       style="stroke-width:1.04738"><path
         style="font-size:5.07175px;line-height:1.25;font-family:'Square Sans Serif 7';-inkscape-font-specification:'Square Sans Serif 7, ';text-align:center;text-anchor:middle;fill:#ff6600;stroke-width:0.277119"
         d="m 32.498578,112.13005 v -3.19001 h 2.82223 v 3.19001 z m 2.25779,-0.45572 v -2.27857 h -0.56445 v 2.27857 z m -1.12889,0 v -2.27857 h -0.56446 v 2.27857 z"
         id="path2-1" /><path
         style="font-size:5.07175px;line-height:1.25;font-family:'Square Sans Serif 7';-inkscape-font-specification:'Square Sans Serif 7, ';text-align:center;text-anchor:middle;fill:#333333;stroke-width:0.277119"
         d="m 32.498578,108.48433 v -3.19 h 2.82223 v 3.19 z m 2.25779,-0.45571 v -2.27857 h -1.69335 v 2.27857 z m 0.56444,-3.64571 v 0.45571 h -2.82223 v -3.19 h 1.69334 v 0.45571 l 1.12889,-0.45571 v 0.5104 l -1.12889,0.45571 v 1.76818 z m -1.69333,0 v -2.27858 h -0.56446 v 2.27858 z"
         id="path3-5" /><path
         style="font-size:5.07175px;line-height:1.25;font-family:'Square Sans Serif 7';-inkscape-font-specification:'Square Sans Serif 7, ';text-align:center;text-anchor:middle;fill:#333333;stroke-width:0.277119"
         d="m 33.063018,112.58576 v 2.73428 h 1.69335 v -2.73428 h 0.56444 v 3.19 h -2.82223 v -3.19 z"
         id="path15" /><path
         style="font-size:5.03875px;line-height:1.25;font-family:'Square Sans Serif 7';-inkscape-font-specification:'Square Sans Serif 7, ';text-align:center;text-anchor:middle;fill:#333333;stroke-width:0.277119"
         d="m 33.478221,130.36465 h 1.819339 v 0.45354 h -2.798982 v -0.45354 l 2.183205,-1.36062 -2.183205,-1.36062 v -0.45354 h 2.798982 v 0.45354 h -1.819339 l 1.819339,1.13385 v 0.45354 z m -0.979643,-3.62831 v -3.17479 h 2.798982 v 3.17479 z m 2.239186,-0.45355 v -2.26769 h -1.67939 v 2.26769 z m 0.559796,-3.62832 v 0.45355 h -2.798982 v -3.17479 h 1.679389 v 0.45355 l 1.119593,-0.45355 v 0.50797 l -1.119593,0.45354 v 1.75973 z m -1.679389,0 v -2.26769 h -0.559797 v 2.26769 z m 0.559796,-6.34955 v 2.72124 h 0.559797 v -2.72124 h 0.559796 v 3.17478 h -2.798982 v -3.17478 h 0.559796 v 2.72124 h 0.559797 v -2.72124 z"
         id="text9"
         aria-label="MORE" /></g><path
       style="fill:none;stroke:#ff6600;stroke-width:0.5;stroke-linecap:butt;stroke-linejoin:miter;stroke-dasharray:none;stroke-opacity:1"
       d="m 5.220105,112.84586 v 13.85671"
       id="path17" /><rect
       style="fill:#333333;stroke:none;stroke-width:0.499999;stroke-linecap:round;stroke-dasharray:none;stroke-dashoffset:0"
       id="rect18"
       width="4.7254381"
       height="6.8675432"
       x="2.5613742"
       y="32.037663"
       ry="0.36247194" /><path
       style="color:#000000;fill:#ff6600;stroke-linecap:round;-inkscape-stroke:none"
       d="m 0,80.321396 h 7.30125 c 1.961221,4.32e-4 3.551213,-1.589561 3.550781,-3.550782 C 10.851384,74.810156 9.261708,73.221355 7.30125,73.221786 H 0 Z"
       id="path7-6-0"
       sodipodi:nodetypes="cccccc" /><circle
       style="fill:#333333;stroke:none;stroke-width:0.2;stroke-linecap:round;stroke-dasharray:0.264583, 1.5875"
       id="path4-4"
       cx="7.6199985"
       cy="76.771591"
       r="3.75" /></g></svg>
