<?xml version="1.0" encoding="UTF-8" standalone="no"?>
<svg
   sodipodi:docname="Pick6p-White.svg"
   inkscape:version="1.3.2 (091e20e, 2023-11-25)"
   id="svg8"
   version="1.1"
   viewBox="0 0 40.64 128.5"
   height="128.5mm"
   width="40.639999mm"
   xml:space="preserve"
   xmlns:inkscape="http://www.inkscape.org/namespaces/inkscape"
   xmlns:sodipodi="http://sodipodi.sourceforge.net/DTD/sodipodi-0.dtd"
   xmlns="http://www.w3.org/2000/svg"
   xmlns:svg="http://www.w3.org/2000/svg"
   xmlns:rdf="http://www.w3.org/1999/02/22-rdf-syntax-ns#"
   xmlns:cc="http://creativecommons.org/ns#"
   xmlns:dc="http://purl.org/dc/elements/1.1/"><defs
     id="defs2" /><sodipodi:namedview
     inkscape:window-maximized="0"
     inkscape:window-y="23"
     inkscape:window-x="0"
     inkscape:window-height="769"
     inkscape:window-width="1252"
     showgrid="false"
     inkscape:document-rotation="0"
     inkscape:current-layer="layer1"
     inkscape:document-units="mm"
     inkscape:cy="446.15278"
     inkscape:cx="18.760443"
     inkscape:zoom="7.8089841"
     inkscape:pageshadow="2"
     inkscape:pageopacity="0.0"
     borderopacity="1.0"
     bordercolor="#666666"
     pagecolor="#ffffff"
     id="base"
     inkscape:showpageshadow="2"
     inkscape:pagecheckerboard="0"
     inkscape:deskcolor="#d1d1d1"
     showguides="false"><sodipodi:guide
       position="8.3548828,69.396941"
       orientation="1,0"
       id="guide5"
       inkscape:locked="false" /><sodipodi:guide
       position="42.379222,141.53976"
       orientation="1,0"
       id="guide7"
       inkscape:locked="false" /></sodipodi:namedview><metadata
     id="metadata5"><rdf:RDF><cc:Work
         rdf:about=""><dc:format>image/svg+xml</dc:format><dc:type
           rdf:resource="http://purl.org/dc/dcmitype/StillImage" /></cc:Work></rdf:RDF></metadata><g
     id="layer1"
     inkscape:groupmode="layer"
     inkscape:label="Layer 1"><rect
       style="fill:#ececec;fill-opacity:1;stroke:none;stroke-width:0.499994;stroke-linecap:round;stroke-miterlimit:4;stroke-dasharray:none;stop-color:#000000"
       id="rect1015"
       width="40.639999"
       height="128.5"
       x="0"
       y="-3.541667e-07" /><path
       d="m 14.220676,127.14313 v -0.22003 h -0.0085 q -0.08463,0.11848 -0.173481,0.18195 -0.08462,0.0635 -0.241181,0.0635 -0.07616,0 -0.156555,-0.0254 -0.07616,-0.0212 -0.148094,-0.0846 -0.07193,-0.0592 -0.118475,-0.16925 -0.04231,-0.11424 -0.04231,-0.29195 0,-0.18195 0.02962,-0.31735 0.02962,-0.13963 0.110012,-0.23271 0.07616,-0.0889 0.207331,-0.13117 0.131168,-0.0466 0.334268,-0.0466 0.02116,0 0.04654,0 0.02539,0 0.04654,0.004 0.02116,0.004 0.05077,0.004 0.02962,0 0.06347,0.004 v -0.22426 q 0,-0.11001 -0.04654,-0.18194 -0.04654,-0.0719 -0.16925,-0.0719 -0.08463,0 -0.156556,0.055 -0.0677,0.055 -0.08886,0.16079 h -0.418893 q 0.01693,-0.28772 0.194638,-0.46544 0.08462,-0.0846 0.203099,-0.13116 0.118475,-0.0508 0.266568,-0.0508 0.1354,0 0.253875,0.0423 0.118474,0.0423 0.20733,0.12694 0.08462,0.0846 0.1354,0.21156 0.05078,0.12694 0.05078,0.29619 v 1.49363 z m 0,-0.92241 q -0.07193,-0.0127 -0.118474,-0.0127 -0.139631,0 -0.241181,0.0677 -0.09732,0.0635 -0.09732,0.23695 0,0.12271 0.05924,0.19887 0.05924,0.0762 0.165018,0.0762 0.110012,0 0.16925,-0.0719 0.06347,-0.0719 0.06347,-0.2031 z m 1.205907,0.30465 q 0,0.10155 0.05501,0.15655 0.05924,0.055 0.156555,0.055 0.122706,0 0.160787,-0.0719 0.04231,-0.0719 0.05078,-0.14386 h 0.431587 q 0,0.28349 -0.173481,0.45697 -0.08462,0.0889 -0.2031,0.13963 -0.118474,0.0508 -0.266568,0.0508 -0.203098,0 -0.34696,-0.0846 -0.139631,-0.0846 -0.215794,-0.22426 -0.04654,-0.0846 -0.06347,-0.19463 -0.01693,-0.11001 -0.01693,-0.24118 v -0.70662 q 0,-0.13117 0.01693,-0.24118 0.01693,-0.11001 0.06347,-0.19464 0.07616,-0.13963 0.215794,-0.22425 0.143862,-0.0846 0.34696,-0.0846 0.148094,0 0.266568,0.0508 0.122706,0.0508 0.207331,0.13963 0.16925,0.1904 0.16925,0.49505 h -0.431596 q 0,-0.13117 -0.05924,-0.1904 -0.05501,-0.0635 -0.152325,-0.0635 -0.09732,0 -0.156555,0.0635 -0.05501,0.0592 -0.05501,0.18194 z m 1.133975,0.61776 v -3.01265 h 0.414662 l 0.554292,1.59518 h 0.0085 l 0.550062,-1.59518 h 0.418892 v 3.01265 H 18.075342 V 125.311 h -0.0085 l -0.427355,1.29476 H 17.423731 L 17.000607,125.311 h -0.0085 v 1.83213 z m 2.2891,-1.42593 q 0,-0.13117 0.01693,-0.24118 0.01692,-0.11001 0.06347,-0.19464 0.07616,-0.13963 0.215793,-0.22425 0.143862,-0.0846 0.346961,-0.0846 0.2031,0 0.342732,0.0846 0.143862,0.0846 0.220024,0.22425 0.04654,0.0846 0.06347,0.19464 0.01693,0.11001 0.01693,0.24118 v 0.70662 q 0,0.13117 -0.01693,0.24118 -0.01692,0.11001 -0.06347,0.19463 -0.07616,0.13964 -0.220024,0.22426 -0.139632,0.0846 -0.342732,0.0846 -0.203099,0 -0.346961,-0.0846 -0.139631,-0.0846 -0.215793,-0.22426 -0.04654,-0.0846 -0.06347,-0.19463 -0.01693,-0.11001 -0.01693,-0.24118 z m 0.431587,0.77432 q 0,0.1227 0.05501,0.18617 0.05924,0.0592 0.156555,0.0592 0.09732,0 0.152325,-0.0592 0.05924,-0.0635 0.05924,-0.18617 v -0.84202 q 0,-0.12271 -0.05924,-0.18194 -0.05501,-0.0635 -0.152325,-0.0635 -0.09732,0 -0.156555,0.0635 -0.05501,0.0592 -0.05501,0.18194 z m 1.603644,-0.0465 q 0,0.13117 0.05078,0.21156 0.05077,0.0804 0.160787,0.0804 0.09732,0 0.156556,-0.0719 0.05924,-0.0762 0.05924,-0.19464 v -0.83355 q 0,-0.10155 -0.06347,-0.16502 -0.05924,-0.0677 -0.152325,-0.0677 -0.122706,0 -0.16925,0.0762 -0.04231,0.0762 -0.04231,0.17771 z m 0.427355,0.69816 v -0.19464 q -0.04231,0.0465 -0.08039,0.0889 -0.03808,0.0381 -0.08463,0.0677 -0.04654,0.0296 -0.105781,0.0465 -0.05924,0.0169 -0.139631,0.0169 -0.270799,0 -0.37658,-0.20309 -0.03808,-0.0719 -0.05501,-0.17772 -0.01693,-0.10578 -0.01693,-0.28349 v -0.81663 q 0,-0.23272 0.01269,-0.34273 0.02539,-0.21156 0.198868,-0.31734 0.08039,-0.055 0.241181,-0.055 0.126937,0 0.224256,0.0592 0.10155,0.055 0.173481,0.16079 h 0.0085 v -1.06205 h 0.431587 v 3.01265 z m 2.07754,-2.14524 v 2.14524 h -0.431587 v -0.20733 h -0.0085 q -0.0677,0.10155 -0.165019,0.16925 -0.09309,0.0635 -0.241181,0.0635 -0.08039,0 -0.160787,-0.0254 -0.08039,-0.0296 -0.143862,-0.0931 -0.06347,-0.0635 -0.10155,-0.16079 -0.03808,-0.10155 -0.03808,-0.24541 v -1.64595 h 0.431586 v 1.48516 q 0,0.11848 0.05501,0.18618 0.05501,0.0677 0.156556,0.0677 0.122707,0 0.169251,-0.0762 0.04654,-0.0762 0.04654,-0.22003 v -1.44285 z m 0.330036,-0.86741 h 0.431586 v 2.40758 q 0,0.12271 0.04231,0.16925 0.04654,0.0423 0.16925,0.055 v 0.40619 q -0.148093,0 -0.266568,-0.0254 -0.118475,-0.0212 -0.2031,-0.0889 -0.08462,-0.0635 -0.131168,-0.17771 -0.04231,-0.11848 -0.04231,-0.30888 z m 2.060617,2.10293 h -0.854711 v 0.29196 q 0,0.10155 0.05501,0.15655 0.05924,0.055 0.156556,0.055 0.122706,0 0.160787,-0.0719 0.04231,-0.0719 0.05078,-0.14386 h 0.431587 q 0,0.28349 -0.173481,0.45697 -0.08463,0.0889 -0.2031,0.13963 -0.118474,0.0508 -0.266568,0.0508 -0.203099,0 -0.346961,-0.0846 -0.139631,-0.0846 -0.215794,-0.22426 -0.04654,-0.0846 -0.06347,-0.19463 -0.01693,-0.11001 -0.01693,-0.24118 v -0.70662 q 0,-0.13117 0.01693,-0.24118 0.01693,-0.11001 0.06347,-0.19464 0.07616,-0.13963 0.215794,-0.22425 0.143862,-0.0846 0.346961,-0.0846 0.148094,0 0.266568,0.0508 0.122706,0.0508 0.207331,0.13963 0.16925,0.1904 0.16925,0.47813 z m -0.854711,-0.3385 h 0.423124 v -0.24541 q 0,-0.12271 -0.05924,-0.18194 -0.05501,-0.0635 -0.152325,-0.0635 -0.09732,0 -0.156556,0.0635 -0.05501,0.0592 -0.05501,0.18194 z m 1.954837,-0.29619 q -0.0042,-0.11001 -0.07193,-0.16501 -0.06347,-0.055 -0.148093,-0.055 -0.10155,0 -0.156556,0.0677 -0.05501,0.0635 -0.05501,0.14809 0,0.0592 0.02962,0.11848 0.02962,0.055 0.152324,0.10155 l 0.253875,0.10155 q 0.24118,0.0931 0.330037,0.25387 0.09309,0.16079 0.09309,0.3512 0,0.13539 -0.05078,0.25387 -0.04654,0.11424 -0.131169,0.2031 -0.08462,0.0889 -0.203099,0.13963 -0.118475,0.0508 -0.258106,0.0508 -0.262337,0 -0.440049,-0.16501 -0.08886,-0.0804 -0.143862,-0.19887 -0.05501,-0.12271 -0.05924,-0.28349 h 0.406199 q 0.01269,0.0888 0.05924,0.16501 0.05077,0.0762 0.173481,0.0762 0.09309,0 0.165018,-0.0592 0.07616,-0.0635 0.07616,-0.17348 0,-0.0889 -0.04654,-0.15233 -0.04654,-0.0635 -0.169249,-0.11001 l -0.207331,-0.0762 q -0.2031,-0.0762 -0.321574,-0.22426 -0.114244,-0.15232 -0.114244,-0.36812 0,-0.13539 0.05078,-0.24964 0.05078,-0.11847 0.139631,-0.2031 0.08462,-0.0846 0.198868,-0.12693 0.114244,-0.0465 0.245412,-0.0465 0.131168,0 0.241181,0.0465 0.114243,0.0465 0.194637,0.13116 0.08039,0.0846 0.126937,0.2031 0.04654,0.11425 0.04654,0.24541 z"
       id="text1"
       style="font-size:4.23124px;line-height:1.25;font-family:'DIN Condensed';-inkscape-font-specification:'DIN Condensed, ';text-align:center;text-anchor:middle;fill:#333333;stroke-width:0.264583"
       aria-label="acModules" /><g
       id="g1"
       transform="translate(10.26421)"><g
         id="text3"
         style="font-size:5.03877px;line-height:1.25;font-family:'DIN Condensed';-inkscape-font-specification:'DIN Condensed, ';text-align:center;text-anchor:middle;stroke-width:0.264583"
         transform="matrix(0.89269637,0,0,1.1202017,-16.39065,0)"
         aria-label="PICK6"><path
           style="font-family:'Square Sans Serif 7';-inkscape-font-specification:'Square Sans Serif 7, ';fill:#333333"
           d="m 20.643032,109.56352 h -0.503877 v -2.51938 h 3.52714 v 1.51163 h -3.023263 z m 0,-1.51163 h 2.519386 v -0.50388 h -2.519386 z m 3.527136,-1.00775 h 0.503877 v 2.51938 h -0.503877 z m 4.534897,0.50387 h -3.023262 v 1.51164 h 3.023262 v 0.50387 h -3.527139 v -2.51938 h 3.527139 z m 0.503874,-0.50387 h 0.503877 v 1.00775 h 1.174033 l 1.345352,-1.00775 h 0.503877 v 0.25194 l -1.345352,1.00775 1.345352,1.00775 v 0.25194 h -0.503877 l -1.350391,-1.00775 h -1.168994 v 1.00775 h -0.503877 z"
           id="path7" /><path
           style="font-family:'Square Sans Serif 7';-inkscape-font-specification:'Square Sans Serif 7, ';fill:#ff6600"
           d="m 33.239951,107.04414 h 3.527139 v 0.50387 h -3.023262 v 0.50388 h 3.023262 v 1.51163 h -3.527139 z m 0.503877,2.01551 h 2.519385 v -0.50388 h -2.519385 z"
           id="path8" /></g><path
         style="font-size:2.57381px;line-height:1.25;font-family:'Square Sans Serif 7';-inkscape-font-specification:'Square Sans Serif 7, ';text-align:center;text-anchor:middle;fill:#333333;stroke-width:0.264583"
         d="m 18.767744,111.9725 h -0.257381 v -1.2869 h 1.801667 v 0.77214 h -1.544286 z m 0,-0.77214 h 1.286905 v -0.25738 h -1.286905 z"
         id="text11"
         transform="scale(0.91197575,1.0965204)"
         aria-label="p" /></g><path
       d="m 10.1018,15.575789 v -2.556931 l -0.4318001,0.3175 v -0.4572 L 10.1018,12.561659 h 0.431799 v 3.01413 z"
       id="text12"
       style="font-size:4.23333px;line-height:1.25;font-family:'DIN Condensed';-inkscape-font-specification:'DIN Condensed, ';text-align:center;text-anchor:middle;fill:#333333;stroke-width:0.264583"
       aria-label="1" /><path
       d="m 9.5165333,28.804958 v -0.406399 l 0.7789327,-1.468966 q 0.05927,-0.110066 0.06773,-0.1905 0.0085,-0.08467 0.0085,-0.207433 0,-0.05503 -0.0042,-0.1143 0,-0.0635 -0.02117,-0.110066 -0.02117,-0.04657 -0.0635,-0.0762 -0.04233,-0.03387 -0.122767,-0.03387 -0.09737,0 -0.156633,0.05503 -0.055033,0.05503 -0.055033,0.160867 V 26.65866 H 9.5165333 v -0.237066 q 0,-0.135467 0.0508,-0.254 0.0508,-0.118533 0.1396999,-0.207433 0.084667,-0.0889 0.2031998,-0.1397 0.118533,-0.05503 0.254,-0.05503 0.169333,0 0.287866,0.0635 0.122767,0.05927 0.2032,0.165099 0.0762,0.105834 0.110067,0.2413 0.0381,0.135467 0.0381,0.287867 0,0.110066 -0.0042,0.186266 -0.0042,0.07197 -0.01693,0.1397 -0.0127,0.06773 -0.04233,0.135467 -0.02963,0.06773 -0.08043,0.165099 l -0.634999,1.223433 h 0.778933 v 0.431799 z"
       id="text12-2"
       style="font-size:4.23333px;line-height:1.25;font-family:'DIN Condensed';-inkscape-font-specification:'DIN Condensed, ';text-align:center;text-anchor:middle;fill:#333333;stroke-width:0.264583"
       aria-label="2" /><path
       d="m 10.028766,40.289994 q 0.194733,0 0.2667,-0.04657 0.0762,-0.04657 0.0762,-0.2159 v -0.389466 q 0,-0.09313 -0.05927,-0.1524 -0.05503,-0.05927 -0.1524,-0.05927 -0.114299,0 -0.1650994,0.07197 -0.046567,0.07197 -0.046567,0.1397 v 0.245533 H 9.5165333 v -0.249767 q 0,-0.131233 0.0508,-0.249766 0.0508,-0.118533 0.1396999,-0.2032 0.0889,-0.08467 0.2074331,-0.135467 0.1185337,-0.0508 0.2539997,-0.0508 0.1778,0 0.2921,0.07197 0.118533,0.06773 0.1778,0.1397 0.04233,0.0508 0.07197,0.1016 0.03387,0.0508 0.05503,0.122766 0.0381,0.1397 0.0381,0.414867 0,0.156633 -0.0085,0.254 -0.0042,0.09737 -0.02963,0.160866 -0.02963,0.06773 -0.08467,0.1143 -0.0508,0.04657 -0.143933,0.1016 0.1016,0.0635 0.1524,0.118533 0.05503,0.05503 0.08043,0.127 0.0254,0.0762 0.02963,0.182033 0.0042,0.1016 0.0042,0.262467 0,0.148166 -0.0085,0.245533 -0.0042,0.09737 -0.01693,0.160866 -0.0127,0.06773 -0.03387,0.1143 -0.02117,0.04657 -0.05503,0.09737 -0.08043,0.118533 -0.207433,0.198966 -0.122767,0.0762 -0.325967,0.0762 -0.1016,0 -0.2158997,-0.03387 Q 9.8255664,41.991793 9.7324331,41.915593 9.6392999,41.839393 9.5757999,41.716627 9.5165333,41.59386 9.5165333,41.41606 V 41.170527 H 9.948333 v 0.224366 q 0,0.1016 0.055033,0.169334 0.05927,0.0635 0.156633,0.0635 0.09737,0 0.1524,-0.0635 0.05927,-0.06773 0.05927,-0.1778 v -0.4318 q 0,-0.1778 -0.06773,-0.232833 -0.0381,-0.03387 -0.105834,-0.04233 -0.0635,-0.0085 -0.169333,-0.0085 z"
       id="text12-2-7"
       style="font-size:4.23333px;line-height:1.25;font-family:'DIN Condensed';-inkscape-font-specification:'DIN Condensed, ';text-align:center;text-anchor:middle;fill:#333333;stroke-width:0.264583"
       aria-label="3" /><path
       d="M 10.270066,55.263294 V 54.814561 H 9.4107001 V 54.408162 L 10.033,52.249163 h 0.457199 l -0.6476993,2.158999 h 0.4275663 v -0.859366 h 0.4318 v 0.859366 h 0.207433 v 0.406399 h -0.207433 v 0.448733 z"
       id="text12-2-7-2"
       style="font-size:4.23333px;line-height:1.25;font-family:'DIN Condensed';-inkscape-font-specification:'DIN Condensed, ';text-align:center;text-anchor:middle;fill:#333333;stroke-width:0.264583"
       aria-label="4" /><path
       d="m 10.803466,65.478331 v 0.4064 H 9.948333 v 0.812799 q 0.059267,-0.05927 0.1524,-0.09737 0.09313,-0.04233 0.207433,-0.04233 0.220133,0 0.3556,0.135467 0.1397,0.131233 0.1397,0.397933 v 0.778933 q 0,0.1524 -0.05503,0.270933 -0.0508,0.118533 -0.1397,0.2032 -0.0889,0.08467 -0.207433,0.131233 -0.1143,0.04233 -0.2413,0.04233 -0.126999,0 -0.2455327,-0.04233 -0.1142999,-0.04657 -0.2031998,-0.131233 -0.0889,-0.08467 -0.1439332,-0.2032 -0.0508,-0.118533 -0.0508,-0.270933 v -0.127 H 9.948333 v 0.110066 q 0,0.110067 0.059267,0.173567 0.0635,0.05927 0.160866,0.05927 0.09737,0 0.148167,-0.05927 0.05503,-0.05927 0.05503,-0.1651 V 67.15473 q 0,-0.0889 -0.05927,-0.1524 -0.05503,-0.0635 -0.143933,-0.0635 -0.05503,0 -0.09313,0.02117 -0.0381,0.01693 -0.0635,0.04233 -0.0254,0.0254 -0.0381,0.05503 -0.021167,0.0381 -0.0254,0.04657 H 9.5673333 v -1.625599 z"
       id="text12-2-7-2-0"
       style="font-size:4.23333px;line-height:1.25;font-family:'DIN Condensed';-inkscape-font-specification:'DIN Condensed, ';text-align:center;text-anchor:middle;fill:#333333;stroke-width:0.264583"
       aria-label="5" /><path
       d="m 10.646832,78.707503 -0.491066,1.265766 0.0085,0.0085 q 0.02117,-0.01693 0.0635,-0.0254 0.04657,-0.0127 0.118533,-0.0127 0.1143,0 0.211666,0.05503 0.09737,0.05503 0.1524,0.1397 0.02963,0.04657 0.04657,0.09313 0.01693,0.04657 0.02963,0.122766 0.0085,0.0762 0.0127,0.194734 0.0042,0.114299 0.0042,0.292099 0,0.148167 -0.0042,0.245533 -0.0042,0.09313 -0.0127,0.156634 -0.0127,0.06773 -0.03387,0.1143 -0.01693,0.04657 -0.04657,0.09737 -0.08467,0.1397 -0.2286,0.2159 -0.1397,0.0762 -0.3175,0.0762 -0.1777994,0 -0.3174993,-0.0762 -0.1396999,-0.08043 -0.2243665,-0.2159 -0.033867,-0.0508 -0.055033,-0.09737 -0.016933,-0.04657 -0.0254,-0.1143 -0.0127,-0.0635 -0.016933,-0.156634 -0.00423,-0.09737 -0.00423,-0.245533 0,-0.1397 0.00423,-0.228599 0.00423,-0.09313 0.0127,-0.160867 0.00847,-0.0635 0.0254,-0.1143 0.016933,-0.05503 0.0381,-0.1143 L 10.16426,78.70753 Z m -0.275166,1.833032 q 0,-0.09737 -0.0635,-0.156633 -0.0635,-0.05927 -0.148167,-0.05927 -0.08467,0 -0.148166,0.05927 -0.0635,0.05927 -0.0635,0.156633 v 0.558799 q 0,0.09737 0.0635,0.156634 0.0635,0.05927 0.148166,0.05927 0.08467,0 0.148167,-0.05927 0.0635,-0.05927 0.0635,-0.156634 z"
       id="text12-2-7-2-0-6"
       style="font-size:4.23333px;line-height:1.25;font-family:'DIN Condensed';-inkscape-font-specification:'DIN Condensed, ';text-align:center;text-anchor:middle;fill:#333333;stroke-width:0.264583"
       aria-label="6" /><path
       d="M 9.6138999,94.950806 10.371666,92.343075 H 9.897533 v 0.347133 H 9.5165333 v -0.753533 h 1.2869327 v 0.4318 L 10.0711,94.950806 Z"
       id="text12-2-7-2-0-6-7"
       style="font-size:4.23333px;line-height:1.25;font-family:'DIN Condensed';-inkscape-font-specification:'DIN Condensed, ';text-align:center;text-anchor:middle;fill:#333333;stroke-width:0.264583"
       aria-label="7" /><path
       d="m 10.371666,105.78391 q 0,-0.0889 -0.0635,-0.14817 -0.0635,-0.0635 -0.148167,-0.0635 -0.08467,0 -0.148166,0.0635 -0.0635,0.0593 -0.0635,0.14817 v 0.44026 q 0,0.0889 0.0635,0.1524 0.0635,0.0593 0.148166,0.0593 0.08467,0 0.148167,-0.0593 0.0635,-0.0635 0.0635,-0.1524 z m -0.8551327,0.16933 q 0,-0.12277 0.00847,-0.20743 0.00847,-0.0889 0.029633,-0.1524 0.021167,-0.0635 0.046567,-0.1143 0.029633,-0.0508 0.071967,-0.10584 0.084667,-0.11006 0.2116665,-0.16933 0.1270002,-0.0635 0.2751662,-0.0635 0.148167,0 0.275167,0.0635 0.127,0.0593 0.211666,0.16933 0.04233,0.055 0.07197,0.10584 0.02963,0.0508 0.0508,0.1143 0.02117,0.0635 0.0254,0.1524 0.0085,0.0847 0.0085,0.20743 0,0.13546 -0.0042,0.2286 -0.0042,0.0931 -0.0254,0.1651 -0.02117,0.072 -0.06773,0.13123 -0.04233,0.055 -0.118533,0.11853 0.0762,0.0593 0.118533,0.11854 0.04657,0.0593 0.06773,0.1397 0.02117,0.0804 0.0254,0.19896 0.0042,0.1143 0.0042,0.28364 0,0.1397 -0.0085,0.23283 -0.0042,0.0889 -0.01693,0.15663 -0.0127,0.0677 -0.0381,0.1143 -0.02117,0.0466 -0.05503,0.0974 -0.07197,0.11007 -0.203199,0.1905 -0.131234,0.0762 -0.321734,0.0762 -0.1904996,0 -0.3217328,-0.0762 -0.1312332,-0.0804 -0.2031998,-0.1905 -0.033867,-0.0508 -0.059267,-0.0974 -0.021167,-0.0466 -0.033867,-0.1143 -0.0127,-0.0677 -0.021167,-0.15663 -0.00423,-0.0931 -0.00423,-0.23283 0,-0.16934 0.00423,-0.28364 0.00423,-0.11853 0.0254,-0.19896 0.021167,-0.0804 0.0635,-0.1397 0.046567,-0.0593 0.1227665,-0.11854 -0.0762,-0.0635 -0.1227665,-0.11853 -0.042333,-0.0593 -0.0635,-0.13123 -0.021167,-0.072 -0.0254,-0.1651 -0.00423,-0.0931 -0.00423,-0.2286 z m 0.8551327,1.016 q 0,-0.0889 -0.0635,-0.14817 -0.0635,-0.0635 -0.148167,-0.0635 -0.08467,0 -0.148166,0.0635 -0.0635,0.0593 -0.0635,0.14817 v 0.59266 q 0,0.0889 0.0635,0.1524 0.0635,0.0593 0.148166,0.0593 0.08467,0 0.148167,-0.0593 0.0635,-0.0635 0.0635,-0.1524 z"
       id="text12-2-7-2-0-6-7-0"
       style="font-size:4.23333px;line-height:1.25;font-family:'DIN Condensed';-inkscape-font-specification:'DIN Condensed, ';text-align:center;text-anchor:middle;fill:#333333;stroke-width:0.264583"
       aria-label="8" /><path
       d="m 30.739301,15.575789 v -2.556931 l -0.4318,0.3175 v -0.4572 l 0.4318,-0.317499 H 31.1711 v 3.01413 z"
       id="text12-26"
       style="font-size:4.23333px;line-height:1.25;font-family:'DIN Condensed';-inkscape-font-specification:'DIN Condensed, ';text-align:center;text-anchor:middle;fill:#333333;stroke-width:0.264583"
       aria-label="1" /><path
       d="m 30.154034,28.804958 v -0.406399 l 0.778933,-1.468966 q 0.05927,-0.110066 0.06773,-0.1905 0.0085,-0.08467 0.0085,-0.207433 0,-0.05503 -0.0042,-0.1143 0,-0.0635 -0.02117,-0.110066 -0.02117,-0.04657 -0.0635,-0.0762 -0.04233,-0.03387 -0.122767,-0.03387 -0.09737,0 -0.156633,0.05503 -0.05503,0.05503 -0.05503,0.160867 v 0.245539 h -0.431863 v -0.237066 q 0,-0.135467 0.0508,-0.254 0.0508,-0.118533 0.1397,-0.207433 0.08467,-0.0889 0.2032,-0.1397 0.118533,-0.05503 0.254,-0.05503 0.169333,0 0.287866,0.0635 0.122767,0.05927 0.2032,0.165099 0.0762,0.105834 0.110067,0.2413 0.0381,0.135467 0.0381,0.287867 0,0.110066 -0.0042,0.186266 -0.0042,0.07197 -0.01693,0.1397 -0.0127,0.06773 -0.04233,0.135467 -0.02963,0.06773 -0.08043,0.165099 l -0.634999,1.223433 h 0.778933 v 0.431799 z"
       id="text12-2-9"
       style="font-size:4.23333px;line-height:1.25;font-family:'DIN Condensed';-inkscape-font-specification:'DIN Condensed, ';text-align:center;text-anchor:middle;fill:#333333;stroke-width:0.264583"
       aria-label="2" /><path
       d="m 30.666267,40.289994 q 0.194733,0 0.2667,-0.04657 0.0762,-0.04657 0.0762,-0.2159 v -0.389466 q 0,-0.09313 -0.05927,-0.1524 -0.05503,-0.05927 -0.1524,-0.05927 -0.114299,0 -0.1651,0.07197 -0.04657,0.07197 -0.04657,0.1397 v 0.245533 h -0.431793 v -0.249767 q 0,-0.131233 0.0508,-0.249766 0.0508,-0.118533 0.1397,-0.2032 0.0889,-0.08467 0.207433,-0.135467 0.118534,-0.0508 0.254,-0.0508 0.1778,0 0.2921,0.07197 0.118533,0.06773 0.1778,0.1397 0.04233,0.0508 0.07197,0.1016 0.03387,0.0508 0.05503,0.122766 0.0381,0.1397 0.0381,0.414867 0,0.156633 -0.0085,0.254 -0.0042,0.09737 -0.02963,0.160866 -0.02963,0.06773 -0.08467,0.1143 -0.0508,0.04657 -0.143933,0.1016 0.1016,0.0635 0.1524,0.118533 0.05503,0.05503 0.08043,0.127 0.0254,0.0762 0.02963,0.182033 0.0042,0.1016 0.0042,0.262467 0,0.148166 -0.0085,0.245533 -0.0042,0.09737 -0.01693,0.160866 -0.0127,0.06773 -0.03387,0.1143 -0.02117,0.04657 -0.05503,0.09737 -0.08043,0.118533 -0.207433,0.198966 -0.122767,0.0762 -0.325967,0.0762 -0.1016,0 -0.2159,-0.03387 -0.114197,-0.03386 -0.20733,-0.110065 -0.09313,-0.0762 -0.156633,-0.198966 -0.05927,-0.122767 -0.05927,-0.300567 v -0.245533 h 0.4318 v 0.224366 q 0,0.1016 0.05503,0.169334 0.05927,0.0635 0.156633,0.0635 0.09737,0 0.1524,-0.0635 0.05927,-0.06773 0.05927,-0.1778 v -0.4318 q 0,-0.1778 -0.06773,-0.232833 -0.0381,-0.03387 -0.105834,-0.04233 -0.0635,-0.0085 -0.169333,-0.0085 z"
       id="text12-2-7-6"
       style="font-size:4.23333px;line-height:1.25;font-family:'DIN Condensed';-inkscape-font-specification:'DIN Condensed, ';text-align:center;text-anchor:middle;fill:#333333;stroke-width:0.264583"
       aria-label="3" /><path
       d="m 30.907567,55.263294 v -0.448733 h -0.859366 v -0.406399 l 0.6223,-2.158999 H 31.1277 L 30.48,54.408162 h 0.427567 v -0.859366 h 0.4318 v 0.859366 H 31.5468 v 0.406399 h -0.207433 v 0.448733 z"
       id="text12-2-7-2-4"
       style="font-size:4.23333px;line-height:1.25;font-family:'DIN Condensed';-inkscape-font-specification:'DIN Condensed, ';text-align:center;text-anchor:middle;fill:#333333;stroke-width:0.264583"
       aria-label="4" /><path
       d="m 31.440967,65.478331 v 0.4064 h -0.855133 v 0.812799 q 0.05927,-0.05927 0.1524,-0.09737 0.09313,-0.04233 0.207433,-0.04233 0.220133,0 0.3556,0.135467 0.1397,0.131233 0.1397,0.397933 v 0.778933 q 0,0.1524 -0.05503,0.270933 -0.0508,0.118533 -0.1397,0.2032 -0.0889,0.08467 -0.207433,0.131233 -0.1143,0.04233 -0.2413,0.04233 -0.126999,0 -0.245533,-0.04233 -0.1143,-0.04657 -0.2032,-0.131233 -0.0889,-0.08467 -0.143933,-0.2032 -0.0508,-0.118533 -0.0508,-0.270933 v -0.127 h 0.431796 v 0.110066 q 0,0.110067 0.05927,0.173567 0.0635,0.05927 0.160866,0.05927 0.09737,0 0.148167,-0.05927 0.05503,-0.05927 0.05503,-0.1651 V 67.15473 q 0,-0.0889 -0.05927,-0.1524 -0.05503,-0.0635 -0.143933,-0.0635 -0.05503,0 -0.09313,0.02117 -0.0381,0.01693 -0.0635,0.04233 -0.0254,0.0254 -0.0381,0.05503 -0.02117,0.0381 -0.0254,0.04657 h -0.381 v -1.625599 z"
       id="text12-2-7-2-0-5"
       style="font-size:4.23333px;line-height:1.25;font-family:'DIN Condensed';-inkscape-font-specification:'DIN Condensed, ';text-align:center;text-anchor:middle;fill:#333333;stroke-width:0.264583"
       aria-label="5" /><path
       d="m 31.284333,78.707503 -0.491066,1.265766 0.0085,0.0085 q 0.02117,-0.01693 0.0635,-0.0254 0.04657,-0.0127 0.118533,-0.0127 0.1143,0 0.211666,0.05503 0.09737,0.05503 0.1524,0.1397 0.02963,0.04657 0.04657,0.09313 0.01693,0.04657 0.02963,0.122766 0.0085,0.0762 0.0127,0.194734 0.0042,0.114299 0.0042,0.292099 0,0.148167 -0.0042,0.245533 -0.0042,0.09313 -0.0127,0.156634 -0.0127,0.06773 -0.03387,0.1143 -0.01693,0.04657 -0.04657,0.09737 -0.08467,0.1397 -0.2286,0.2159 -0.1397,0.0762 -0.3175,0.0762 -0.1778,0 -0.3175,-0.0762 -0.1397,-0.08043 -0.224366,-0.2159 -0.03387,-0.0508 -0.05503,-0.09737 -0.01693,-0.04657 -0.0254,-0.1143 -0.0127,-0.0635 -0.01693,-0.156634 -0.0042,-0.09737 -0.0042,-0.245533 0,-0.1397 0.0042,-0.228599 0.0042,-0.09313 0.0127,-0.160867 0.0085,-0.0635 0.0254,-0.1143 0.01693,-0.05503 0.0381,-0.1143 l 0.567267,-1.515532 z m -0.275166,1.833032 q 0,-0.09737 -0.0635,-0.156633 -0.0635,-0.05927 -0.148167,-0.05927 -0.08467,0 -0.148166,0.05927 -0.0635,0.05927 -0.0635,0.156633 v 0.558799 q 0,0.09737 0.0635,0.156634 0.0635,0.05927 0.148166,0.05927 0.08467,0 0.148167,-0.05927 0.0635,-0.05927 0.0635,-0.156634 z"
       id="text12-2-7-2-0-6-5"
       style="font-size:4.23333px;line-height:1.25;font-family:'DIN Condensed';-inkscape-font-specification:'DIN Condensed, ';text-align:center;text-anchor:middle;fill:#333333;stroke-width:0.264583"
       aria-label="6" /><path
       d="m 30.251401,94.950806 0.757766,-2.607731 h -0.474133 v 0.347133 h -0.381 v -0.753533 h 1.286933 v 0.4318 l -0.732366,2.582331 z"
       id="text12-2-7-2-0-6-7-8"
       style="font-size:4.23333px;line-height:1.25;font-family:'DIN Condensed';-inkscape-font-specification:'DIN Condensed, ';text-align:center;text-anchor:middle;fill:#333333;stroke-width:0.264583"
       aria-label="7" /><path
       d="m 31.009167,105.78391 q 0,-0.0889 -0.0635,-0.14817 -0.0635,-0.0635 -0.148167,-0.0635 -0.08467,0 -0.148166,0.0635 -0.0635,0.0593 -0.0635,0.14817 v 0.44026 q 0,0.0889 0.0635,0.1524 0.0635,0.0593 0.148166,0.0593 0.08467,0 0.148167,-0.0593 0.0635,-0.0635 0.0635,-0.1524 z m -0.855133,0.16933 q 0,-0.12277 0.0085,-0.20743 0.0085,-0.0889 0.02963,-0.1524 0.02117,-0.0635 0.04657,-0.1143 0.02963,-0.0508 0.07197,-0.10584 0.08467,-0.11006 0.211666,-0.16933 0.127001,-0.0635 0.275167,-0.0635 0.148167,0 0.275167,0.0635 0.127,0.0593 0.211666,0.16933 0.04233,0.055 0.07197,0.10584 0.02963,0.0508 0.0508,0.1143 0.02117,0.0635 0.0254,0.1524 0.0085,0.0847 0.0085,0.20743 0,0.13546 -0.0042,0.2286 -0.0042,0.0931 -0.0254,0.1651 -0.02117,0.072 -0.06773,0.13123 -0.04233,0.055 -0.118533,0.11853 0.0762,0.0593 0.118533,0.11854 0.04657,0.0593 0.06773,0.1397 0.02117,0.0804 0.0254,0.19896 0.0042,0.1143 0.0042,0.28364 0,0.1397 -0.0085,0.23283 -0.0042,0.0889 -0.01693,0.15663 -0.0127,0.0677 -0.0381,0.1143 -0.02117,0.0466 -0.05503,0.0974 -0.07197,0.11007 -0.203199,0.1905 -0.131234,0.0762 -0.321734,0.0762 -0.1905,0 -0.321733,-0.0762 -0.131233,-0.0804 -0.2032,-0.1905 -0.03387,-0.0508 -0.05927,-0.0974 -0.02117,-0.0466 -0.03387,-0.1143 -0.0127,-0.0677 -0.02117,-0.15663 -0.0042,-0.0931 -0.0042,-0.23283 0,-0.16934 0.0042,-0.28364 0.0042,-0.11853 0.0254,-0.19896 0.02117,-0.0804 0.0635,-0.1397 0.04657,-0.0593 0.122767,-0.11854 -0.0762,-0.0635 -0.122767,-0.11853 -0.04233,-0.0593 -0.0635,-0.13123 -0.02117,-0.072 -0.0254,-0.1651 -0.0042,-0.0931 -0.0042,-0.2286 z m 0.855133,1.016 q 0,-0.0889 -0.0635,-0.14817 -0.0635,-0.0635 -0.148167,-0.0635 -0.08467,0 -0.148166,0.0635 -0.0635,0.0593 -0.0635,0.14817 v 0.59266 q 0,0.0889 0.0635,0.1524 0.0635,0.0593 0.148166,0.0593 0.08467,0 0.148167,-0.0593 0.0635,-0.0635 0.0635,-0.1524 z"
       id="text12-2-7-2-0-6-7-0-3"
       style="font-size:4.23333px;line-height:1.25;font-family:'DIN Condensed';-inkscape-font-specification:'DIN Condensed, ';text-align:center;text-anchor:middle;fill:#333333;stroke-width:0.264583"
       aria-label="8" /><path
       style="fill:#cccccc;stroke:#cccccc;stroke-width:0.264583px;stroke-linecap:butt;stroke-linejoin:miter;stroke-opacity:1"
       d="M 20.319999,12.625673 V 114.65974"
       id="path1" /><path
       style="fill:#ff6600;stroke:#ffffff;stroke-width:0.5;stroke-dasharray:none"
       d="m 10.196011,9.7228968 c -0.4715152,0 -0.8159462,-0.5639261 -1.1035392,-0.9059779 C 8.3406438,7.8209371 7.7569868,6.6861372 7.4550648,5.472131 7.1729518,3.9617102 8.3457208,3.2447812 10.139426,3.2447812 c 1.967583,0 2.938108,0.8276891 2.742715,2.0756614 -0.134098,0.8672597 -0.507112,1.6776876 -0.923056,2.4431428 -0.398133,0.5396377 -1.089878,1.9505291 -1.763074,1.9593114 z"
       id="path5-3"
       sodipodi:nodetypes="ccccccc" /><path
       style="fill:#ff6600;stroke:#ffffff;stroke-width:0.5;stroke-dasharray:none"
       d="m 30.833512,9.7228968 c -0.471515,0 -0.815946,-0.5639261 -1.103539,-0.9059779 C 28.978145,7.8209371 28.394488,6.6861372 28.092566,5.472131 27.810453,3.9617102 28.983222,3.2447812 30.776927,3.2447812 c 1.967583,0 2.938108,0.8276891 2.742715,2.0756614 -0.134098,0.8672597 -0.507112,1.6776876 -0.923056,2.4431428 -0.398133,0.5396377 -1.089878,1.9505291 -1.763074,1.9593114 z"
       id="path5-3-0"
       sodipodi:nodetypes="ccccccc" /><g
       id="text2"
       style="font-size:3.175px;line-height:0.95;font-family:'DIN Condensed';-inkscape-font-specification:'DIN Condensed, ';text-align:center;text-anchor:middle;fill:#333333;stroke-width:0.264583"
       aria-label="CUSTOM&#10;PATTERNS"><path
         d="m 17.583698,5.335548 v 0.1397 q 0,0.104775 -0.04127,0.200025 -0.0381,0.092075 -0.10795,0.1651 -0.06985,0.073025 -0.1651,0.117475 -0.09208,0.041275 -0.200025,0.041275 -0.09208,0 -0.187325,-0.0254 -0.09525,-0.0254 -0.17145,-0.0889 -0.0762,-0.0635 -0.127,-0.161925 -0.04763,-0.1016 -0.04763,-0.257175 v -1.2446 q 0,-0.111125 0.0381,-0.206375 0.0381,-0.09525 0.10795,-0.1651 0.06985,-0.06985 0.1651,-0.10795 0.09843,-0.041275 0.2159,-0.041275 0.2286,0 0.371475,0.149225 0.06985,0.073025 0.10795,0.174625 0.04127,0.098425 0.04127,0.2159 v 0.127 h -0.32385 v -0.10795 q 0,-0.09525 -0.05398,-0.1651 -0.05398,-0.06985 -0.14605,-0.06985 -0.12065,0 -0.161925,0.0762 -0.0381,0.073025 -0.0381,0.187325 v 1.1557 q 0,0.098425 0.04127,0.1651 0.04445,0.066675 0.155575,0.066675 0.03175,0 0.06668,-0.00953 0.0381,-0.0127 0.06985,-0.0381 0.02858,-0.0254 0.04763,-0.06985 0.01905,-0.04445 0.01905,-0.111125 v -0.11112 z m 1.311274,-1.616075 v 1.7526 q 0,0.111125 -0.04127,0.206375 -0.0381,0.092075 -0.111125,0.1651 -0.07302,0.073025 -0.168275,0.1143 -0.09525,0.041275 -0.2032,0.041275 -0.10795,0 -0.2032,-0.041275 -0.09208,-0.041275 -0.1651,-0.1143 -0.07303,-0.073025 -0.1143,-0.1651 -0.04128,-0.09525 -0.04128,-0.206375 v -1.7526 h 0.32385 v 1.72085 q 0,0.12065 0.05715,0.1778 0.05715,0.05715 0.142875,0.05715 0.08573,0 0.142875,-0.05715 0.05715,-0.05715 0.05715,-0.1778 v -1.72085 z m 1.352552,0.650875 h -0.32385 V 4.297323 q 0,-0.111125 -0.05397,-0.1905 -0.0508,-0.08255 -0.174625,-0.08255 -0.06668,0 -0.10795,0.0254 -0.04127,0.0254 -0.06668,0.0635 -0.0254,0.041275 -0.03492,0.09525 -0.0095,0.0508 -0.0095,0.10795 0,0.066675 0.0032,0.111125 0.0064,0.04445 0.0254,0.079375 0.01905,0.034925 0.05397,0.060325 0.0381,0.0254 0.1016,0.0508 l 0.24765,0.098425 q 0.10795,0.041275 0.174625,0.098425 0.06668,0.053975 0.104775,0.127 0.03493,0.0762 0.04763,0.174625 0.0127,0.09525 0.0127,0.219075 0,0.142875 -0.02858,0.2667 -0.02858,0.12065 -0.09207,0.206375 -0.06668,0.0889 -0.174625,0.1397 -0.10795,0.0508 -0.263525,0.0508 -0.117475,0 -0.219075,-0.041275 -0.1016,-0.041275 -0.174625,-0.1143 -0.07303,-0.073025 -0.117475,-0.168275 -0.04127,-0.098425 -0.04127,-0.212725 v -0.12065 h 0.32385 v 0.1016 q 0,0.0889 0.0508,0.161925 0.05398,0.06985 0.1778,0.06985 0.08255,0 0.127,-0.022225 0.04763,-0.0254 0.07303,-0.06985 0.0254,-0.04445 0.02858,-0.104775 0.0063,-0.0635 0.0063,-0.1397 0,-0.0889 -0.0063,-0.14605 -0.0064,-0.05715 -0.0254,-0.092075 -0.02222,-0.034925 -0.06032,-0.05715 -0.03493,-0.022225 -0.09525,-0.047625 l -0.231775,-0.09525 q -0.20955,-0.085725 -0.282575,-0.225425 -0.06985,-0.142875 -0.06985,-0.3556 0,-0.127 0.03492,-0.2413 0.03493,-0.1143 0.104775,-0.19685 0.06668,-0.08255 0.168275,-0.130175 0.104775,-0.0508 0.24765,-0.0508 0.12065,0 0.219075,0.04445 0.1016,0.04445 0.174625,0.117475 0.14605,0.1524 0.14605,0.34925 z m 0.454025,1.609725 v -1.9558 h -0.37465 v -0.3048 h 1.07315 v 0.3048 h -0.37465 v 1.9558 z m 0.78423,-1.7272 q 0,-0.136525 0.04763,-0.2413 0.04763,-0.104775 0.127,-0.174625 0.0762,-0.066675 0.17145,-0.1016 0.09842,-0.034925 0.19685,-0.034925 0.09842,0 0.193675,0.034925 0.09842,0.034925 0.1778,0.1016 0.0762,0.06985 0.123825,0.174625 0.04763,0.104775 0.04763,0.2413 v 1.1938 q 0,0.142875 -0.04763,0.244475 -0.04763,0.1016 -0.123825,0.168275 -0.07938,0.06985 -0.1778,0.104775 -0.09525,0.034925 -0.193675,0.034925 -0.09843,0 -0.19685,-0.034925 -0.09525,-0.034925 -0.17145,-0.104775 -0.07937,-0.066675 -0.127,-0.168275 -0.04763,-0.1016 -0.04763,-0.244475 z m 0.32385,1.1938 q 0,0.117475 0.0635,0.174625 0.06668,0.053975 0.155575,0.053975 0.0889,0 0.1524,-0.053975 0.06668,-0.05715 0.06668,-0.174625 v -1.1938 q 0,-0.117475 -0.06668,-0.17145 -0.0635,-0.05715 -0.1524,-0.05715 -0.0889,0 -0.155575,0.05715 -0.0635,0.053975 -0.0635,0.17145 z m 1.047752,0.5334 v -2.2606 h 0.31115 l 0.415925,1.196975 h 0.0064 l 0.41275,-1.196975 h 0.314325 v 2.2606 h -0.32385 V 4.605298 h -0.0064 l -0.320675,0.97155 h -0.161925 l -0.3175,-0.97155 h -0.0064 v 1.374775 z"
         id="path2"
         style="fill:#333333" /><path
         d="m 15.775537,8.9963229 v -2.2606 h 0.485775 q 0.13335,0 0.23495,0.034925 0.1016,0.034925 0.18415,0.123825 0.08255,0.0889 0.1143,0.20955 0.03175,0.117475 0.03175,0.320675 0,0.1524 -0.01905,0.257175 -0.01587,0.104775 -0.07302,0.19685 -0.06668,0.111125 -0.1778,0.174625 -0.111125,0.060325 -0.2921,0.060325 h -0.1651 v 0.88265 z m 0.32385,-1.9558 v 0.76835 h 0.155575 q 0.09843,0 0.1524,-0.028575 0.05398,-0.028575 0.07938,-0.079375 0.0254,-0.047625 0.02858,-0.117475 0.0063,-0.06985 0.0063,-0.155575 0,-0.079375 -0.0032,-0.149225 -0.0032,-0.073025 -0.02858,-0.127 -0.0254,-0.053975 -0.0762,-0.08255 -0.0508,-0.028575 -0.14605,-0.028575 z m 1.504947,1.165225 -0.15875,-0.81915 h -0.0064 l -0.15875,0.81915 z m -0.8001,0.790575 0.504825,-2.2606 h 0.269875 l 0.504825,2.2606 h -0.32385 l -0.09525,-0.485775 h -0.441325 l -0.09525,0.485775 z m 1.476373,0 v -1.9558 h -0.37465 v -0.3048 h 1.07315 v 0.3048 h -0.37465 v 1.9558 z m 1.054102,0 v -1.9558 h -0.37465 v -0.3048 h 1.07315 v 0.3048 h -0.37465 v 1.9558 z m 0.841377,0 v -2.2606 h 0.9652 v 0.3048 h -0.64135 v 0.663575 h 0.5588 v 0.3048 h -0.5588 v 0.663575 h 0.64135 v 0.32385 z m 1.498603,-1.9558 v 0.70485 h 0.18415 q 0.08573,0 0.136525,-0.022225 0.0508,-0.0254 0.07938,-0.06985 0.0254,-0.04445 0.03492,-0.10795 0.0095,-0.066675 0.0095,-0.1524 0,-0.085725 -0.0095,-0.149225 -0.0095,-0.066675 -0.0381,-0.1143 -0.06032,-0.0889 -0.2286,-0.0889 z m -0.32385,1.9558 v -2.2606 h 0.5207 q 0.5715,0 0.5715,0.663575 0,0.200025 -0.0635,0.339725 -0.06033,0.1397 -0.2159,0.225425 l 0.34925,1.031875 h -0.3429 l -0.301625,-0.9652 h -0.193675 v 0.9652 z m 1.339852,0 v -2.2606 h 0.31115 l 0.48895,1.362075 h 0.0063 v -1.362075 h 0.32385 v 2.2606 h -0.3048 l -0.4953,-1.3589 h -0.0063 v 1.3589 z m 2.47015,-1.609725 h -0.32385 v -0.073025 q 0,-0.111125 -0.05398,-0.1905 -0.0508,-0.08255 -0.174625,-0.08255 -0.06668,0 -0.10795,0.0254 -0.04127,0.0254 -0.06668,0.0635 -0.0254,0.041275 -0.03492,0.09525 -0.0095,0.0508 -0.0095,0.10795 0,0.066675 0.0032,0.111125 0.0064,0.04445 0.0254,0.079375 0.01905,0.034925 0.05397,0.060325 0.0381,0.0254 0.1016,0.0508 l 0.24765,0.098425 q 0.10795,0.041275 0.174625,0.098425 0.06668,0.053975 0.104775,0.127 0.03493,0.0762 0.04763,0.174625 0.0127,0.09525 0.0127,0.219075 0,0.142875 -0.02858,0.2667 -0.02858,0.12065 -0.09208,0.206375 -0.06668,0.0889 -0.174625,0.1397 -0.10795,0.0508 -0.263525,0.0508 -0.117475,0 -0.219075,-0.041275 -0.1016,-0.041275 -0.174625,-0.1143 -0.07303,-0.073025 -0.117475,-0.168275 -0.04127,-0.098425 -0.04127,-0.212725 v -0.12065 h 0.32385 v 0.1016 q 0,0.0889 0.0508,0.161925 0.05398,0.06985 0.1778,0.06985 0.08255,0 0.127,-0.022225 0.04763,-0.0254 0.07303,-0.06985 0.0254,-0.04445 0.02858,-0.104775 0.0064,-0.0635 0.0064,-0.1397 0,-0.0889 -0.0064,-0.14605 -0.0064,-0.05715 -0.0254,-0.092075 -0.02222,-0.034925 -0.06032,-0.05715 -0.03493,-0.022225 -0.09525,-0.047625 l -0.231775,-0.09525 q -0.20955,-0.085725 -0.282575,-0.225425 -0.06985,-0.142875 -0.06985,-0.3556 0,-0.127 0.03492,-0.2413 0.03493,-0.1143 0.104775,-0.19685 0.06668,-0.08255 0.168275,-0.130175 0.104775,-0.0508 0.24765,-0.0508 0.12065,0 0.219075,0.04445 0.1016,0.04445 0.174625,0.117475 0.14605,0.1524 0.14605,0.34925 z"
         id="path3"
         style="fill:#333333" /></g><path
       style="fill:none;stroke:#000000;stroke-width:0.264583px;stroke-linecap:butt;stroke-linejoin:miter;stroke-opacity:1"
       d="M 10.793376,121.32213 H 0"
       id="path4" /><circle
       style="fill:#333333;stroke:none;stroke-width:0.499999;stroke-linecap:round;stroke-linejoin:round"
       id="path5"
       cx="9.999567"
       cy="121.32213"
       r="0.79380894" /></g></svg>
