<?xml version="1.0" encoding="UTF-8" standalone="no"?>
<svg
   sodipodi:docname="Pul5es-Dark.svg"
   inkscape:version="1.3.2 (091e20e, 2023-11-25)"
   id="svg8"
   version="1.1"
   viewBox="0 0 20.32 128.5"
   height="128.5mm"
   width="20.32mm"
   xml:space="preserve"
   xmlns:inkscape="http://www.inkscape.org/namespaces/inkscape"
   xmlns:sodipodi="http://sodipodi.sourceforge.net/DTD/sodipodi-0.dtd"
   xmlns="http://www.w3.org/2000/svg"
   xmlns:svg="http://www.w3.org/2000/svg"
   xmlns:rdf="http://www.w3.org/1999/02/22-rdf-syntax-ns#"
   xmlns:cc="http://creativecommons.org/ns#"
   xmlns:dc="http://purl.org/dc/elements/1.1/"><defs
     id="defs2" /><sodipodi:namedview
     inkscape:window-maximized="0"
     inkscape:window-y="23"
     inkscape:window-x="0"
     inkscape:window-height="769"
     inkscape:window-width="1252"
     showgrid="false"
     inkscape:document-rotation="0"
     inkscape:current-layer="layer1"
     inkscape:document-units="mm"
     inkscape:cy="184.21389"
     inkscape:cx="1.9597222"
     inkscape:zoom="1.275691"
     inkscape:pageshadow="2"
     inkscape:pageopacity="0.0"
     borderopacity="1.0"
     bordercolor="#666666"
     pagecolor="#ffffff"
     id="base"
     inkscape:showpageshadow="2"
     inkscape:pagecheckerboard="0"
     inkscape:deskcolor="#d1d1d1"
     showguides="false"><sodipodi:guide
       position="8.3548829,69.396941"
       orientation="1,0"
       id="guide5"
       inkscape:locked="false" /><sodipodi:guide
       position="42.379222,141.53976"
       orientation="1,0"
       id="guide7"
       inkscape:locked="false" /></sodipodi:namedview><metadata
     id="metadata5"><rdf:RDF><cc:Work
         rdf:about=""><dc:format>image/svg+xml</dc:format><dc:type
           rdf:resource="http://purl.org/dc/dcmitype/StillImage" /></cc:Work></rdf:RDF></metadata><g
     id="layer1"
     inkscape:groupmode="layer"
     inkscape:label="Layer 1"><rect
       style="fill:#333333;fill-opacity:1;stroke:none;stroke-width:0.499995;stroke-linecap:round;stroke-miterlimit:4;stroke-dasharray:none;stop-color:#000000"
       id="rect1015"
       width="20.320002"
       height="128.5"
       x="0"
       y="-3.541667e-07" /><path
       d="m 16.984042,126.11896 h -0.22003 v 0.008 q 0.11848,0.0846 0.18195,0.17348 0.0635,0.0846 0.0635,0.24119 0,0.0762 -0.0254,0.15655 -0.0212,0.0762 -0.0846,0.14809 -0.0592,0.0719 -0.16925,0.11848 -0.11424,0.0423 -0.29195,0.0423 -0.18195,0 -0.31735,-0.0296 -0.13963,-0.0296 -0.23271,-0.11001 -0.0889,-0.0762 -0.13117,-0.20733 -0.0466,-0.13117 -0.0466,-0.33427 0,-0.0212 0,-0.0465 0,-0.0254 0.004,-0.0465 0.004,-0.0212 0.004,-0.0508 0,-0.0296 0.004,-0.0635 h -0.22426 q -0.11001,0 -0.181941,0.0465 -0.0719,0.0465 -0.0719,0.16925 0,0.0846 0.055,0.15655 0.055,0.0677 0.160791,0.0889 v 0.4189 q -0.28772,-0.0169 -0.46544,-0.19464 -0.0846,-0.0846 -0.13116,-0.2031 -0.0508,-0.11847 -0.0508,-0.26657 0,-0.1354 0.0423,-0.25387 0.0423,-0.11848 0.12694,-0.20733 0.0846,-0.0846 0.21156,-0.1354 0.12694,-0.0508 0.29619,-0.0508 h 1.49363 z m -0.92241,0 q -0.0127,0.0719 -0.0127,0.11848 0,0.13963 0.0677,0.24118 0.0635,0.0973 0.23695,0.0973 0.12271,0 0.19887,-0.0592 0.0762,-0.0592 0.0762,-0.16502 0,-0.11001 -0.0719,-0.16925 -0.0719,-0.0635 -0.2031,-0.0635 z m 0.30465,-1.2059 q 0.10155,0 0.15655,-0.055 0.055,-0.0592 0.055,-0.15656 0,-0.12271 -0.0719,-0.16079 -0.0719,-0.0423 -0.14386,-0.0508 v -0.43158 q 0.28349,0 0.45697,0.17348 0.0889,0.0846 0.13963,0.2031 0.0508,0.11847 0.0508,0.26657 0,0.20309 -0.0846,0.34696 -0.0846,0.13963 -0.22426,0.21579 -0.0846,0.0465 -0.19463,0.0635 -0.11001,0.0169 -0.24118,0.0169 h -0.70662 q -0.13117,0 -0.24118,-0.0169 -0.11001,-0.0169 -0.19464,-0.0635 -0.13963,-0.0762 -0.22425,-0.21579 -0.0846,-0.14387 -0.0846,-0.34696 0,-0.1481 0.0508,-0.26657 0.0508,-0.12271 0.13963,-0.20733 0.1904,-0.16925 0.49505,-0.16925 v 0.43159 q -0.13117,0 -0.1904,0.0592 -0.0635,0.055 -0.0635,0.15233 0,0.0973 0.0635,0.15655 0.0592,0.055 0.18194,0.055 z m 0.61776,-1.13398 h -3.01265 v -0.41466 l 1.59518,-0.55429 v -0.008 l -1.59518,-0.55007 v -0.41889 h 3.01265 v 0.43163 h -1.83213 v 0.008 l 1.29476,0.42735 v 0.21576 l -1.29476,0.42312 v 0.008 h 1.83213 z m -1.42593,-2.2891 q -0.13117,0 -0.24118,-0.0169 -0.11001,-0.0169 -0.19464,-0.0635 -0.13963,-0.0762 -0.22425,-0.21579 -0.0846,-0.14386 -0.0846,-0.34696 0,-0.2031 0.0846,-0.34273 0.0846,-0.14387 0.22425,-0.22003 0.0846,-0.0465 0.19464,-0.0635 0.11001,-0.0169 0.24118,-0.0169 h 0.70662 q 0.13117,0 0.24118,0.0169 0.11001,0.0169 0.19463,0.0635 0.13964,0.0762 0.22426,0.22003 0.0846,0.13963 0.0846,0.34273 0,0.2031 -0.0846,0.34696 -0.0846,0.13963 -0.22426,0.21579 -0.0846,0.0465 -0.19463,0.0635 -0.11001,0.0169 -0.24118,0.0169 z m 0.77432,-0.43159 q 0.1227,0 0.18617,-0.055 0.0592,-0.0592 0.0592,-0.15655 0,-0.0973 -0.0592,-0.15233 -0.0635,-0.0592 -0.18617,-0.0592 h -0.84202 q -0.12271,0 -0.18194,0.0592 -0.0635,0.055 -0.0635,0.15233 0,0.0973 0.0635,0.15655 0.0592,0.055 0.18194,0.055 z m -0.0465,-1.60364 q 0.13117,0 0.21156,-0.0508 0.0804,-0.0508 0.0804,-0.16079 0,-0.0973 -0.0719,-0.15655 -0.0762,-0.0592 -0.19464,-0.0592 h -0.83355 q -0.10155,0 -0.16502,0.0635 -0.0677,0.0592 -0.0677,0.15232 0,0.12271 0.0762,0.16925 0.0762,0.0423 0.17771,0.0423 z m 0.69816,-0.42735 h -0.19464 q 0.0465,0.0423 0.0889,0.0804 0.0381,0.0381 0.0677,0.0846 0.0296,0.0465 0.0465,0.10578 0.0169,0.0592 0.0169,0.13963 0,0.2708 -0.203089,0.37658 -0.0719,0.0381 -0.17772,0.055 -0.10578,0.0169 -0.28349,0.0169 h -0.81663 q -0.232721,0 -0.342731,-0.0127 -0.21156,-0.0254 -0.31734,-0.19887 -0.055,-0.0804 -0.055,-0.24118 0,-0.12694 0.0592,-0.22426 0.055,-0.10155 0.16079,-0.17348 v -0.008 h -1.06205 v -0.43159 h 3.01265 z m -2.14524,-2.07754 h 2.14524 v 0.43158 h -0.20733 v 0.008 q 0.10155,0.0677 0.16925,0.16502 0.0635,0.0931 0.0635,0.24118 0,0.0804 -0.0254,0.16079 -0.0296,0.0804 -0.0931,0.14386 -0.0635,0.0635 -0.16079,0.10155 -0.10155,0.0381 -0.24541,0.0381 h -1.64595 v -0.43158 h 1.48516 q 0.11848,0 0.18618,-0.055 0.0677,-0.055 0.0677,-0.15656 0,-0.12271 -0.0762,-0.16925 -0.0762,-0.0465 -0.22003,-0.0465 h -1.44285 z m -0.86741,-0.33004 v -0.43159 h 2.40758 q 0.12271,0 0.16925,-0.0423 0.0423,-0.0465 0.055,-0.16925 h 0.40619 q 0,0.1481 -0.0254,0.26657 -0.0212,0.11848 -0.0889,0.2031 -0.0635,0.0846 -0.17771,0.13117 -0.11848,0.0423 -0.30888,0.0423 z m 2.10293,-2.06062 v 0.85471 h 0.29196 q 0.10155,0 0.15655,-0.055 0.055,-0.0592 0.055,-0.15655 0,-0.12271 -0.0719,-0.16079 -0.0719,-0.0423 -0.14386,-0.0508 v -0.43159 q 0.28349,0 0.45697,0.17349 0.0889,0.0846 0.13963,0.2031 0.0508,0.11847 0.0508,0.26656 0,0.2031 -0.0846,0.34696 -0.0846,0.13964 -0.22426,0.2158 -0.0846,0.0465 -0.19463,0.0635 -0.11001,0.0169 -0.24118,0.0169 h -0.70662 q -0.13117,0 -0.24118,-0.0169 -0.11001,-0.0169 -0.19464,-0.0635 -0.13963,-0.0762 -0.22425,-0.2158 -0.0846,-0.14386 -0.0846,-0.34696 0,-0.14809 0.0508,-0.26656 0.0508,-0.12271 0.13963,-0.20734 0.1904,-0.16925 0.47813,-0.16925 z m -0.3385,0.85471 v -0.42312 h -0.24541 q -0.12271,0 -0.18194,0.0592 -0.0635,0.055 -0.0635,0.15233 0,0.0973 0.0635,0.15655 0.0592,0.055 0.18194,0.055 z m -0.29619,-1.95483 q -0.11001,0.004 -0.16501,0.0719 -0.055,0.0635 -0.055,0.14809 0,0.10155 0.0677,0.15656 0.0635,0.055 0.14809,0.055 0.0592,0 0.11848,-0.0296 0.055,-0.0296 0.10155,-0.15233 l 0.10155,-0.25387 q 0.0931,-0.24118 0.25387,-0.33004 0.16079,-0.0931 0.3512,-0.0931 0.13539,0 0.25387,0.0508 0.11424,0.0465 0.2031,0.13117 0.0889,0.0846 0.13963,0.2031 0.0508,0.11847 0.0508,0.2581 0,0.26234 -0.16501,0.44005 -0.0804,0.0889 -0.19887,0.14387 -0.12271,0.055 -0.28349,0.0592 v -0.4062 q 0.0888,-0.0127 0.16501,-0.0592 0.0762,-0.0508 0.0762,-0.17348 0,-0.0931 -0.0592,-0.16502 -0.0635,-0.0762 -0.17348,-0.0762 -0.0889,0 -0.15233,0.0465 -0.0635,0.0465 -0.11001,0.16925 l -0.0762,0.20733 q -0.0762,0.2031 -0.22426,0.32157 -0.15232,0.11425 -0.36812,0.11425 -0.13539,0 -0.24964,-0.0508 -0.11847,-0.0508 -0.2031,-0.13964 -0.0846,-0.0846 -0.12693,-0.19886 -0.0465,-0.11425 -0.0465,-0.24542 0,-0.13116 0.0465,-0.24118 0.0465,-0.11424 0.13116,-0.19463 0.0846,-0.0804 0.2031,-0.12694 0.11425,-0.0465 0.24541,-0.0465 z"
       id="text1"
       style="font-size:4.23124px;line-height:1.25;font-family:'DIN Condensed';-inkscape-font-specification:'DIN Condensed, ';text-align:center;text-anchor:middle;fill:#ececec;stroke-width:0.264583"
       aria-label="acModules" /><g
       id="g12"
       transform="translate(1.8592671,5.2916667)"><path
         style="font-size:4.23333px;line-height:1.25;font-family:'Square Sans Serif 7';-inkscape-font-specification:'Square Sans Serif 7, ';text-align:center;text-anchor:middle;fill:#ececec;stroke-width:0.264583"
         d="m 4.2734421,121.15093 v 0.56445 h -2.82223 v -3.95113 h 1.69334 v 3.38668 z m -1.69334,0 v -2.82224 h -0.56445 v 2.82224 z m -1.12889,-3.95113 v -0.56444 h 2.25779 v -2.82224 h -2.25779 v -0.56445 h 2.82223 v 3.95113 z m 0,-4.51557 v -0.56445 h 2.25779 v -3.38668 h 0.56444 v 3.95113 z"
         id="path7" /><path
         style="font-size:4.23333px;line-height:1.25;font-family:'Square Sans Serif 7';-inkscape-font-specification:'Square Sans Serif 7, ';text-align:center;text-anchor:middle;fill:#ff6600;stroke-width:0.264583"
         d="m 1.4512121,108.16866 v -3.95114 h 0.56444 v 3.38669 h 0.56445 v -2.81348 l 0.5685374,-0.57321 h 0.2781326 0.267761 l 0.578909,0.58578 v 3.36536 h -0.56444 v -3.08784 l -0.282225,-0.29885 -0.282225,0.29885 v 3.08784 z"
         id="path9"
         sodipodi:nodetypes="ccccccccccccccccc" /><path
         style="font-size:4.23333px;line-height:1.25;font-family:'Square Sans Serif 7';-inkscape-font-specification:'Square Sans Serif 7, ';text-align:center;text-anchor:middle;fill:#ececec;stroke-width:0.264583"
         d="m 3.1445521,99.701953 v 3.386677 h 0.56445 v -3.386677 h 0.56444 v 3.951127 h -2.82223 v -3.951127 h 0.56444 v 3.386677 h 0.56445 v -3.386677 z m 1.12889,-4.515565 v 3.951128 h -0.56444 v -3.386681 h -0.56445 v 3.386681 h -1.69334 v -3.951128 h 0.56444 v 3.386681 h 0.56445 v -3.386681 z"
         id="path10" /></g><path
       d="m 6.6569153,6.052818 v 0.9397992 h 0.245533 q 0.1143,0 0.182033,-0.029633 0.06773,-0.033867 0.105833,-0.093133 0.03387,-0.059267 0.04657,-0.1439332 0.0127,-0.0889 0.0127,-0.2031999 0,-0.1142999 -0.0127,-0.1989665 -0.0127,-0.0889 -0.0508,-0.1523998 -0.08043,-0.1185338 -0.3048,-0.1185338 z m -0.4318,2.6077312 V 5.6464184 h 0.694266 q 0.762,0 0.762,0.8847659 0,0.2666998 -0.08467,0.4529663 -0.08043,0.1862665 -0.287867,0.3005664 l 0.465667,1.3758322 h -0.4572 L 6.9151483,7.3736169 h -0.258233 v 1.2869323 z m 1.803401,0 V 5.6464184 h 1.286933 V 6.052818 h -0.855133 v 0.8847659 h 0.745066 v 0.4063997 h -0.745066 v 0.8847659 h 0.855133 V 8.6605492 Z M 10.991851,6.514251 H 10.560052 V 6.416884 q 0,-0.1481666 -0.07197,-0.2539998 -0.06773,-0.1100666 -0.232834,-0.1100666 -0.0889,0 -0.143933,0.033867 -0.05503,0.033867 -0.0889,0.084667 -0.03387,0.055033 -0.04657,0.1269998 -0.0127,0.067733 -0.0127,0.1439333 0,0.0889 0.0042,0.1481665 0.0085,0.059267 0.03387,0.1058332 0.0254,0.046567 0.07197,0.080433 0.0508,0.033867 0.135467,0.067733 l 0.330199,0.1312332 q 0.143934,0.055033 0.232834,0.1312332 0.0889,0.071967 0.139699,0.1693332 0.04657,0.1015999 0.0635,0.2328332 0.01693,0.1269999 0.01693,0.2920997 0,0.1904999 -0.0381,0.3555997 -0.0381,0.1608665 -0.122766,0.2751665 -0.0889,0.1185332 -0.232833,0.1862665 -0.143933,0.067733 -0.351367,0.067733 -0.156633,0 -0.2920997,-0.055033 Q 9.8191883,8.5758826 9.7218223,8.478516 9.6244523,8.381149 9.5651893,8.2541495 9.5101593,8.1229163 9.5101593,7.9705164 V 7.8096499 h 0.4318 v 0.1354665 q 0,0.1185333 0.06773,0.2158998 0.07197,0.093133 0.237067,0.093133 0.110067,0 0.169333,-0.029633 0.0635,-0.033867 0.09737,-0.093133 0.03387,-0.059267 0.0381,-0.1396998 0.0085,-0.084667 0.0085,-0.1862666 0,-0.1185332 -0.0085,-0.1947331 -0.0085,-0.0762 -0.03387,-0.1227666 -0.02963,-0.046567 -0.08043,-0.0762 -0.04657,-0.029633 -0.127,-0.0635 L 10.001252,7.221217 Q 9.7218523,7.1069171 9.6244853,6.9206506 q -0.09313,-0.1904998 -0.09313,-0.4741329 0,-0.1693332 0.04657,-0.3217331 0.04657,-0.1523998 0.1397,-0.2624664 0.0889,-0.1100666 0.224366,-0.1735665 0.1397007,-0.067733 0.3302007,-0.067733 0.160866,0 0.292099,0.059267 0.135467,0.059267 0.232833,0.1566332 0.194734,0.2031998 0.194734,0.4656663 z m 0.321734,2.1462982 V 5.6464184 h 1.286932 V 6.052818 h -0.855133 v 0.8847659 h 0.745066 v 0.4063997 h -0.745066 v 0.8847659 h 0.855133 v 0.4317997 z m 1.849968,0 V 6.052818 H 12.664021 V 5.6464184 h 1.430865 V 6.052818 h -0.499533 v 2.6077312 z"
       id="text12"
       style="font-size:4.23333px;line-height:1.25;font-family:'DIN Condensed';-inkscape-font-specification:'DIN Condensed, ';text-align:center;text-anchor:middle;fill:#ececec;stroke-width:0.264583"
       aria-label="RESET" /><path
       d="m 8.5534483,23.745571 h -0.431799 v -0.09737 q 0,-0.148166 -0.07197,-0.253999 -0.06773,-0.110067 -0.232833,-0.110067 -0.0889,0 -0.143933,0.03387 -0.05503,0.03387 -0.0889,0.08467 -0.03387,0.05503 -0.04657,0.127 -0.0127,0.06773 -0.0127,0.143933 0,0.0889 0.0042,0.148167 0.0085,0.05927 0.03387,0.105833 0.0254,0.04657 0.07197,0.08043 0.0508,0.03387 0.135466,0.06773 l 0.3302,0.131233 q 0.143933,0.05503 0.232833,0.131233 0.0889,0.07197 0.1397,0.169333 0.04657,0.1016 0.0635,0.232833 0.01693,0.127 0.01693,0.2921 0,0.1905 -0.0381,0.3556 -0.0381,0.160866 -0.122767,0.275166 -0.0889,0.118534 -0.232833,0.186267 -0.143933,0.06773 -0.351366,0.06773 -0.156633,0 -0.2921,-0.05503 -0.135463,-0.05503 -0.232829,-0.152397 -0.09737,-0.09737 -0.156634,-0.224366 -0.05503,-0.131234 -0.05503,-0.283634 V 25.04097 h 0.4318 v 0.135466 q 0,0.118534 0.06773,0.2159 0.07197,0.09313 0.237066,0.09313 0.110067,0 0.169333,-0.02963 0.0635,-0.03387 0.09737,-0.09313 0.03387,-0.05927 0.0381,-0.1397 0.0085,-0.08467 0.0085,-0.186266 0,-0.118534 -0.0085,-0.194734 -0.0085,-0.0762 -0.03387,-0.122766 -0.02963,-0.04657 -0.08043,-0.0762 -0.04657,-0.02963 -0.127,-0.0635 l -0.309033,-0.127 q -0.279399,-0.1143 -0.376766,-0.300566 -0.09313,-0.1905 -0.09313,-0.474133 0,-0.169333 0.04657,-0.321733 0.04657,-0.1524 0.1397,-0.262467 0.0889,-0.110066 0.224366,-0.173566 0.1397,-0.06773 0.3302,-0.06773 0.160867,0 0.2921,0.05927 0.135466,0.05927 0.232833,0.156633 0.194733,0.2032 0.194733,0.465667 z m 0.605367,2.146298 v -2.607731 h -0.499533 v -0.4064 h 1.4308657 v 0.4064 H 9.5906153 v 2.607731 z m 1.1218357,0 v -3.014131 h 1.286932 v 0.4064 h -0.855132 v 0.884766 h 0.745066 v 0.4064 h -0.745066 v 0.884766 h 0.855132 v 0.431799 z m 1.566335,0 v -3.014131 h 0.6477 q 0.1778,0 0.313266,0.04657 0.135467,0.04657 0.245533,0.1651 0.110067,0.118533 0.1524,0.2794 0.04233,0.156633 0.04233,0.427566 0,0.2032 -0.0254,0.3429 -0.02117,0.1397 -0.09737,0.262466 -0.0889,0.148167 -0.237066,0.232833 -0.148167,0.08043 -0.389467,0.08043 H 12.27878 v 1.176865 z m 0.4318,-2.607731 v 1.024466 h 0.207433 q 0.131233,0 0.2032,-0.0381 0.07197,-0.0381 0.105833,-0.105833 0.03387,-0.0635 0.0381,-0.156634 0.0085,-0.09313 0.0085,-0.207433 0,-0.105833 -0.0042,-0.198966 -0.0042,-0.09737 -0.0381,-0.169333 -0.03387,-0.07197 -0.1016,-0.110067 -0.06773,-0.0381 -0.194733,-0.0381 z"
       id="text12-6"
       style="font-size:4.23333px;line-height:1.25;font-family:'DIN Condensed';-inkscape-font-specification:'DIN Condensed, ';text-align:center;text-anchor:middle;fill:#ececec;stroke-width:0.264583"
       aria-label="STEP" /><rect
       style="fill:#ff6600;stroke:none;stroke-width:0.999998;stroke-linejoin:round;stroke-dasharray:none"
       id="rect7-6-8-0-4-2"
       width="14.757377"
       height="17.373705"
       x="2.7813122"
       y="79.101395"
       ry="1.6706486" /><g
       id="g14"
       transform="translate(-9.7978877,12.108526)"
       style="fill:#333333"><path
         style="font-size:4.23333px;line-height:1.25;font-family:'DIN Condensed';-inkscape-font-specification:'DIN Condensed, ';text-align:center;text-anchor:middle;fill:#333333;stroke-width:0.264583"
         d="m 21.450114,70.501549 v -2.607731 h -0.499533 v -0.4064 h 1.430865 v 0.4064 h -0.499533 v 2.607731 z"
         id="path12" /><path
         style="font-size:4.23333px;line-height:1.25;font-family:'DIN Condensed';-inkscape-font-specification:'DIN Condensed, ';text-align:center;text-anchor:middle;fill:#333333;stroke-width:0.264583"
         d="m 20.760078,67.487418 v 2.336798 q 0,0.148167 -0.05503,0.275166 -0.0508,0.122767 -0.148166,0.220134 -0.09737,0.09737 -0.224367,0.152399 -0.127,0.05503 -0.270933,0.05503 -0.143933,0 -0.270933,-0.05503 -0.122767,-0.05503 -0.220133,-0.152399 -0.09737,-0.09737 -0.1524,-0.220134 -0.05503,-0.126999 -0.05503,-0.275166 v -2.336798 h 0.431799 v 2.294465 q 0,0.160866 0.0762,0.237066 0.0762,0.0762 0.1905,0.0762 0.1143,0 0.1905,-0.0762 0.0762,-0.0762 0.0762,-0.237066 v -2.294465 z"
         id="path11" /><path
         id="text18-0"
         style="font-size:4.23333px;line-height:1.25;font-family:'DIN Condensed';-inkscape-font-specification:'DIN Condensed, ';text-align:center;text-anchor:middle;fill:#333333;stroke-width:0.264583"
         d="m 18.258317,67.462032 c -0.08749,0 -0.175027,0.01546 -0.262516,0.04651 -0.08467,0.03104 -0.161194,0.07613 -0.228927,0.135392 -0.07056,0.06209 -0.126648,0.139928 -0.168982,0.233061 -0.04233,0.09313 -0.06356,0.200072 -0.06356,0.321427 v 1.592151 c 0,0.127 0.02123,0.23525 0.06356,0.325562 0.04233,0.09031 0.09843,0.165525 0.168982,0.224792 0.06773,0.06209 0.144261,0.10848 0.228927,0.139526 0.08749,0.03105 0.175027,0.04651 0.262516,0.04651 0.08749,0 0.173199,-0.01546 0.257865,-0.04651 0.08749,-0.03105 0.166639,-0.07744 0.237195,-0.139526 0.06773,-0.05927 0.123032,-0.134482 0.165365,-0.224792 0.04233,-0.09031 0.06356,-0.198562 0.06356,-0.325562 v -1.592151 c 0,-0.121355 -0.02123,-0.228294 -0.06356,-0.321427 -0.04233,-0.09313 -0.09763,-0.170974 -0.165365,-0.233061 -0.07056,-0.05926 -0.149706,-0.104346 -0.237195,-0.135392 -0.08467,-0.03105 -0.170376,-0.04651 -0.257865,-0.04651 z m 0,0.432015 c 0.07902,0 0.146642,0.02516 0.203088,0.07596 0.05927,0.04798 0.08888,0.123988 0.08888,0.22841 v 1.592151 c 0,0.104423 -0.02962,0.181744 -0.08888,0.232544 -0.05644,0.04798 -0.124066,0.07183 -0.203088,0.07183 -0.07902,0 -0.148473,-0.02385 -0.207739,-0.07183 -0.05645,-0.0508 -0.08475,-0.128121 -0.08475,-0.232544 v -1.592151 c 0,-0.104419 0.0283,-0.18043 0.08475,-0.22841 0.05927,-0.0508 0.128717,-0.07596 0.207739,-0.07596 z" /></g><rect
       style="fill:#333333;stroke-width:0.999999;stroke-linejoin:round"
       id="rect1-0-8-2-2-1"
       width="12.606628"
       height="12.499924"
       x="3.8566868"
       y="82.903"
       ry="1.0752267" /><circle
       style="fill:#333333;stroke-width:3.49999;stroke-linecap:round"
       id="path5"
       cx="10.16"
       cy="89.152962"
       r="3.75" /><rect
       style="fill:#ff6600;stroke:none;stroke-width:0.2;stroke-linecap:round"
       id="rect1-2"
       width="6.1666279"
       height="15.505868"
       x="-73.377693"
       y="2.4070661"
       ry="3.0833139"
       transform="rotate(-90)" /><path
       style="font-size:4.23333px;line-height:1.25;font-family:'DIN Condensed';-inkscape-font-specification:'DIN Condensed, ';text-align:center;text-anchor:middle;fill:#ececec;stroke-width:0.264583"
       d="m 6.8728163,65.438762 v -3.014131 h 0.431799 v 2.582331 h 0.855133 v 0.4318 z m 1.540935,-2.302931 q 0,-0.182034 0.0635,-0.321733 0.0635,-0.1397 0.169333,-0.232834 0.1016,-0.0889 0.2286,-0.135466 0.131233,-0.04657 0.262467,-0.04657 0.131233,0 0.258233,0.04657 0.131233,0.04657 0.237066,0.135466 0.1016,0.09313 0.1651,0.232834 0.0635,0.139699 0.0635,0.321733 v 1.591732 q 0,0.190499 -0.0635,0.325966 -0.0635,0.135467 -0.1651,0.224366 -0.105833,0.09313 -0.237066,0.1397 -0.127,0.04657 -0.258233,0.04657 -0.131234,0 -0.262467,-0.04657 -0.127,-0.04657 -0.2286,-0.1397 -0.105833,-0.0889 -0.169333,-0.224366 -0.0635,-0.135467 -0.0635,-0.325966 z m 0.4318,1.591732 q 0,0.156633 0.08467,0.232833 0.0889,0.07197 0.207433,0.07197 0.118533,0 0.2032,-0.07197 0.0889,-0.0762 0.0889,-0.232833 v -1.591732 q 0,-0.156634 -0.0889,-0.2286 -0.08467,-0.0762 -0.2032,-0.0762 -0.118533,0 -0.207433,0.0762 -0.08467,0.07197 -0.08467,0.2286 z m 1.3716017,-1.591732 q 0,-0.182034 0.0635,-0.321733 0.0635,-0.1397 0.169333,-0.232834 0.1016,-0.0889 0.2286,-0.135466 0.131233,-0.04657 0.262466,-0.04657 0.131233,0 0.258233,0.04657 0.131234,0.04657 0.237067,0.135466 0.1016,0.09313 0.1651,0.232834 0.0635,0.139699 0.0635,0.321733 v 1.591732 q 0,0.190499 -0.0635,0.325966 -0.0635,0.135467 -0.1651,0.224366 -0.105833,0.09313 -0.237067,0.1397 -0.127,0.04657 -0.258233,0.04657 -0.131233,0 -0.262466,-0.04657 -0.127,-0.04657 -0.2286,-0.1397 -0.105833,-0.0889 -0.169333,-0.224366 -0.0635,-0.135467 -0.0635,-0.325966 z m 0.431799,1.591732 q 0,0.156633 0.08467,0.232833 0.0889,0.07197 0.207434,0.07197 0.118533,0 0.203199,-0.07197 0.0889,-0.0762 0.0889,-0.232833 v -1.591732 q 0,-0.156634 -0.0889,-0.2286 -0.08467,-0.0762 -0.203199,-0.0762 -0.118534,0 -0.207434,0.0762 -0.08467,0.07197 -0.08467,0.2286 z m 1.397002,0.711199 v -3.014131 h 0.647699 q 0.1778,0 0.313267,0.04657 0.135466,0.04657 0.245533,0.1651 0.110066,0.118533 0.1524,0.279399 0.04233,0.156634 0.04233,0.427567 0,0.2032 -0.0254,0.342899 -0.02117,0.1397 -0.09737,0.262467 -0.0889,0.148166 -0.237067,0.232833 -0.148166,0.08043 -0.389466,0.08043 h -0.220133 v 1.176866 z m 0.431799,-2.607731 v 1.024466 h 0.207434 q 0.131233,0 0.203199,-0.0381 0.07197,-0.0381 0.105834,-0.105834 0.03387,-0.0635 0.0381,-0.156633 0.0085,-0.09313 0.0085,-0.207433 0,-0.105833 -0.0042,-0.198966 -0.0042,-0.09737 -0.0381,-0.169334 -0.03387,-0.07197 -0.1016,-0.110066 -0.06773,-0.0381 -0.194733,-0.0381 z"
       id="text12-6-9-1-1"
       aria-label="LOOP" /><rect
       style="fill:#ff6600;stroke:none;stroke-width:0.2;stroke-linecap:round"
       id="rect1"
       width="6.1666279"
       height="15.505868"
       x="-57.595165"
       y="2.4070673"
       ry="3.0833139"
       transform="rotate(-90)" /><path
       d="m 4.4153616,40.291102 q 0,-0.182033 0.0635,-0.321733 0.0635,-0.1397 0.169333,-0.232833 0.1015997,-0.0889 0.2285997,-0.135467 0.131233,-0.04657 0.262467,-0.04657 0.131233,0 0.258233,0.04657 0.131233,0.04657 0.237066,0.135467 0.1016,0.09313 0.1651,0.232833 0.0635,0.1397 0.0635,0.321733 v 1.591732 q 0,0.1905 -0.0635,0.325967 -0.0635,0.135466 -0.1651,0.224366 -0.105833,0.09313 -0.237066,0.1397 -0.127,0.04657 -0.258233,0.04657 -0.131234,0 -0.262467,-0.04657 -0.127,-0.04657 -0.2285997,-0.1397 -0.105833,-0.0889 -0.169333,-0.224366 -0.0635,-0.135467 -0.0635,-0.325967 z m 0.4317997,1.591732 q 0,0.156633 0.08467,0.232833 0.0889,0.07197 0.207433,0.07197 0.118533,0 0.2032,-0.07197 0.0889,-0.0762 0.0889,-0.232833 v -1.591732 q 0,-0.156633 -0.0889,-0.2286 -0.08467,-0.0762 -0.2032,-0.0762 -0.118533,0 -0.207433,0.0762 -0.08467,0.07197 -0.08467,0.2286 z m 2.794,-2.302931 v 2.336798 q 0,0.148166 -0.05503,0.275166 -0.0508,0.122767 -0.148167,0.220133 -0.09737,0.09737 -0.224366,0.1524 -0.127,0.05503 -0.270933,0.05503 -0.143933,0 -0.270933,-0.05503 -0.122767,-0.05503 -0.220134,-0.1524 -0.09737,-0.09737 -0.152399,-0.220133 -0.05503,-0.127 -0.05503,-0.275166 v -2.336798 h 0.431799 v 2.294464 q 0,0.160867 0.0762,0.237067 0.0762,0.0762 0.1905,0.0762 0.114299,0 0.190499,-0.0762 0.0762,-0.0762 0.0762,-0.237067 v -2.294464 z m 0.690035,3.014131 v -2.607732 h -0.499533 v -0.406399 h 1.430866 v 0.406399 h -0.499533 v 2.607732 z m 1.8838387,-2.302932 q 0,-0.182033 0.0635,-0.321733 0.0635,-0.1397 0.169333,-0.232833 0.1016,-0.0889 0.2286,-0.135467 0.131233,-0.04657 0.262466,-0.04657 0.131234,0 0.258233,0.04657 0.131234,0.04657 0.237067,0.135467 0.1016,0.09313 0.1651,0.232833 0.0635,0.1397 0.0635,0.321733 v 1.591732 q 0,0.1905 -0.0635,0.325967 -0.0635,0.135466 -0.1651,0.224366 -0.105833,0.09313 -0.237067,0.1397 -0.126999,0.04657 -0.258233,0.04657 -0.131233,0 -0.262466,-0.04657 -0.127,-0.04657 -0.2286,-0.1397 -0.105833,-0.0889 -0.169333,-0.224366 -0.0635,-0.135467 -0.0635,-0.325967 z m 0.4318,1.591732 q 0,0.156633 0.08467,0.232833 0.0889,0.07197 0.207433,0.07197 0.118534,0 0.2032,-0.07197 0.0889,-0.0762 0.0889,-0.232833 v -1.591732 q 0,-0.156633 -0.0889,-0.2286 -0.08467,-0.0762 -0.2032,-0.0762 -0.118533,0 -0.207433,0.0762 -0.08467,0.07197 -0.08467,0.2286 z m 1.380068,0.7112 v -3.014131 h 0.414866 l 0.651933,1.816098 h 0.0085 v -1.816098 h 0.4318 v 3.014131 h -0.4064 l -0.660399,-1.811866 h -0.0085 v 1.811866 z m 1.871132,0 v -0.4318 h 0.4318 v 0.4318 z m 0.787403,0 v -0.4318 h 0.4318 v 0.4318 z m 0.787403,0 v -0.4318 h 0.4318 v 0.4318 z"
       id="text2"
       style="font-size:4.23333px;line-height:1.25;font-family:'DIN Condensed';-inkscape-font-specification:'DIN Condensed, ';text-align:center;text-anchor:middle;fill:#ececec;stroke-width:0.264583"
       aria-label="OUT ON..." /><rect
       style="fill:#000000;fill-opacity:1;stroke:none;stroke-width:0.5;stroke-linecap:round;stroke-dasharray:none"
       id="rect2-4"
       width="12"
       height="5.3375092"
       x="4.1599994"
       y="44.010948" /><path
       style="fill:none;stroke:#1a1a1a;stroke-width:0.264583px;stroke-linecap:butt;stroke-linejoin:miter;stroke-opacity:1"
       d="M 4.1600006,49.359914 V 44.022405 H 16.16"
       id="path3" /><path
       style="fill:none;stroke:#4d4d4d;stroke-width:0.264583px;stroke-linecap:butt;stroke-linejoin:miter;stroke-opacity:1"
       d="m 16.16,44.022405 v 5.337509 H 4.1600006"
       id="path3-9" /></g></svg>
