<?xml version="1.0" encoding="UTF-8" standalone="no"?>
<svg
   sodipodi:docname="Pul5es-White.svg"
   inkscape:version="1.3.2 (091e20e, 2023-11-25)"
   id="svg8"
   version="1.1"
   viewBox="0 0 10.16 128.5"
   height="128.5mm"
   width="10.16mm"
   xml:space="preserve"
   xmlns:inkscape="http://www.inkscape.org/namespaces/inkscape"
   xmlns:sodipodi="http://sodipodi.sourceforge.net/DTD/sodipodi-0.dtd"
   xmlns="http://www.w3.org/2000/svg"
   xmlns:svg="http://www.w3.org/2000/svg"
   xmlns:rdf="http://www.w3.org/1999/02/22-rdf-syntax-ns#"
   xmlns:cc="http://creativecommons.org/ns#"
   xmlns:dc="http://purl.org/dc/elements/1.1/"><defs
     id="defs2" /><sodipodi:namedview
     inkscape:window-maximized="0"
     inkscape:window-y="23"
     inkscape:window-x="0"
     inkscape:window-height="769"
     inkscape:window-width="1252"
     showgrid="false"
     inkscape:document-rotation="0"
     inkscape:current-layer="layer1"
     inkscape:document-units="mm"
     inkscape:cy="348.23896"
     inkscape:cx="-41.637267"
     inkscape:zoom="1.1888388"
     inkscape:pageshadow="2"
     inkscape:pageopacity="0.0"
     borderopacity="1.0"
     bordercolor="#666666"
     pagecolor="#ffffff"
     id="base"
     inkscape:showpageshadow="2"
     inkscape:pagecheckerboard="0"
     inkscape:deskcolor="#d1d1d1"
     showguides="false"><sodipodi:guide
       position="8.3548829,69.396941"
       orientation="1,0"
       id="guide5"
       inkscape:locked="false" /><sodipodi:guide
       position="42.379222,141.53976"
       orientation="1,0"
       id="guide7"
       inkscape:locked="false" /></sodipodi:namedview><metadata
     id="metadata5"><rdf:RDF><cc:Work
         rdf:about=""><dc:format>image/svg+xml</dc:format><dc:type
           rdf:resource="http://purl.org/dc/dcmitype/StillImage" /></cc:Work></rdf:RDF></metadata><g
     id="layer1"
     inkscape:groupmode="layer"
     inkscape:label="Layer 1"><rect
       style="fill:#ececec;fill-opacity:1;stroke:none;stroke-width:0.499994;stroke-linecap:round;stroke-miterlimit:4;stroke-dasharray:none;stop-color:#000000"
       id="rect1015"
       width="10.16"
       height="128.5"
       x="0"
       y="-3.541667e-07" /><rect
       style="fill:#ff6600;stroke:none;stroke-width:0.999995;stroke-linejoin:round;stroke-dasharray:none"
       id="rect7-6-8-0-4"
       width="10.16"
       height="15.455176"
       x="0"
       y="58.416851"
       ry="0.519526" /><rect
       style="fill:#ececec;stroke-width:0.999998;stroke-linejoin:round"
       id="rect1-0-8-2-2"
       width="8.8051977"
       height="10.958229"
       x="0.67740077"
       y="62.330486"
       ry="0.26285326" /><path
       d="m 8.6833021,120.82678 h -0.22003 v 0.008 q 0.11848,0.0846 0.18195,0.17348 0.0635,0.0846 0.0635,0.24119 0,0.0762 -0.0254,0.15655 -0.0212,0.0762 -0.0846,0.14809 -0.0592,0.0719 -0.16925,0.11848 -0.11424,0.0423 -0.29195,0.0423 -0.18195,0 -0.31735,-0.0296 -0.13963,-0.0296 -0.23271,-0.11001 -0.0889,-0.0762 -0.13117,-0.20733 -0.0466,-0.13117 -0.0466,-0.33427 0,-0.0212 0,-0.0465 0,-0.0254 0.004,-0.0465 0.004,-0.0212 0.004,-0.0508 0,-0.0296 0.004,-0.0635 h -0.22426 q -0.11001,0 -0.18194,0.0465 -0.0719,0.0465 -0.0719,0.16925 0,0.0846 0.055,0.15655 0.055,0.0677 0.16079,0.0889 v 0.4189 q -0.28772,-0.0169 -0.46544,-0.19464 -0.0846,-0.0846 -0.13116,-0.2031 -0.0508,-0.11847 -0.0508,-0.26657 0,-0.1354 0.0423,-0.25387 0.0423,-0.11848 0.12694,-0.20733 0.0846,-0.0846 0.21156,-0.1354 0.12694,-0.0508 0.29619,-0.0508 h 1.49363 z m -0.92241,0 q -0.0127,0.0719 -0.0127,0.11848 0,0.13963 0.0677,0.24118 0.0635,0.0973 0.23695,0.0973 0.12271,0 0.19887,-0.0592 0.0762,-0.0592 0.0762,-0.16502 0,-0.11001 -0.0719,-0.16925 -0.0719,-0.0635 -0.2031,-0.0635 z m 0.30465,-1.2059 q 0.10155,0 0.15655,-0.055 0.055,-0.0592 0.055,-0.15656 0,-0.12271 -0.0719,-0.16079 -0.0719,-0.0423 -0.14386,-0.0508 v -0.43158 q 0.28349,0 0.45697,0.17348 0.0889,0.0846 0.13963,0.2031 0.0508,0.11847 0.0508,0.26657 0,0.20309 -0.0846,0.34696 -0.0846,0.13963 -0.22426,0.21579 -0.0846,0.0465 -0.19463,0.0635 -0.11001,0.0169 -0.24118,0.0169 h -0.70662 q -0.13117,0 -0.24118,-0.0169 -0.11001,-0.0169 -0.19464,-0.0635 -0.13963,-0.0762 -0.22425,-0.21579 -0.0846,-0.14387 -0.0846,-0.34696 0,-0.1481 0.0508,-0.26657 0.0508,-0.12271 0.13963,-0.20733 0.1904,-0.16925 0.49505,-0.16925 v 0.43159 q -0.13117,0 -0.1904,0.0592 -0.0635,0.055 -0.0635,0.15233 0,0.0973 0.0635,0.15655 0.0592,0.055 0.18194,0.055 z m 0.61776,-1.13398 h -3.01265 v -0.41466 l 1.59518,-0.55429 v -0.008 l -1.59518,-0.55007 v -0.41889 h 3.01265 v 0.43163 h -1.83213 v 0.008 l 1.29476,0.42735 v 0.21576 l -1.29476,0.42312 v 0.008 h 1.83213 z m -1.42593,-2.2891 q -0.13117,0 -0.24118,-0.0169 -0.11001,-0.0169 -0.19464,-0.0635 -0.13963,-0.0762 -0.22425,-0.21579 -0.0846,-0.14386 -0.0846,-0.34696 0,-0.2031 0.0846,-0.34273 0.0846,-0.14387 0.22425,-0.22003 0.0846,-0.0465 0.19464,-0.0635 0.11001,-0.0169 0.24118,-0.0169 h 0.70662 q 0.13117,0 0.24118,0.0169 0.11001,0.0169 0.19463,0.0635 0.13964,0.0762 0.22426,0.22003 0.0846,0.13963 0.0846,0.34273 0,0.2031 -0.0846,0.34696 -0.0846,0.13963 -0.22426,0.21579 -0.0846,0.0465 -0.19463,0.0635 -0.11001,0.0169 -0.24118,0.0169 z m 0.77432,-0.43159 q 0.1227,0 0.18617,-0.055 0.0592,-0.0592 0.0592,-0.15655 0,-0.0973 -0.0592,-0.15233 -0.0635,-0.0592 -0.18617,-0.0592 h -0.84202 q -0.12271,0 -0.18194,0.0592 -0.0635,0.055 -0.0635,0.15233 0,0.0973 0.0635,0.15655 0.0592,0.055 0.18194,0.055 z m -0.0465,-1.60364 q 0.13117,0 0.21156,-0.0508 0.0804,-0.0508 0.0804,-0.16079 0,-0.0973 -0.0719,-0.15655 -0.0762,-0.0592 -0.19464,-0.0592 h -0.83355 q -0.10155,0 -0.16502,0.0635 -0.0677,0.0592 -0.0677,0.15232 0,0.12271 0.0762,0.16925 0.0762,0.0423 0.17771,0.0423 z m 0.69816,-0.42735 h -0.19464 q 0.0465,0.0423 0.0889,0.0804 0.0381,0.0381 0.0677,0.0846 0.0296,0.0465 0.0465,0.10578 0.0169,0.0592 0.0169,0.13963 0,0.2708 -0.20309,0.37658 -0.0719,0.0381 -0.17772,0.055 -0.10578,0.0169 -0.28349,0.0169 h -0.81663 q -0.23272,0 -0.34273,-0.0127 -0.21156,-0.0254 -0.31734,-0.19887 -0.055,-0.0804 -0.055,-0.24118 0,-0.12694 0.0592,-0.22426 0.055,-0.10155 0.16079,-0.17348 v -0.008 h -1.06205 v -0.43159 h 3.01265 z m -2.14524,-2.07754 h 2.14524 v 0.43158 h -0.20733 v 0.008 q 0.10155,0.0677 0.16925,0.16502 0.0635,0.0931 0.0635,0.24118 0,0.0804 -0.0254,0.16079 -0.0296,0.0804 -0.0931,0.14386 -0.0635,0.0635 -0.16079,0.10155 -0.10155,0.0381 -0.24541,0.0381 h -1.64595 v -0.43158 h 1.48516 q 0.11848,0 0.18618,-0.055 0.0677,-0.055 0.0677,-0.15656 0,-0.12271 -0.0762,-0.16925 -0.0762,-0.0465 -0.22003,-0.0465 h -1.44285 z m -0.86741,-0.33004 v -0.43159 h 2.40758 q 0.12271,0 0.16925,-0.0423 0.0423,-0.0465 0.055,-0.16925 h 0.40619 q 0,0.1481 -0.0254,0.26657 -0.0212,0.11848 -0.0889,0.2031 -0.0635,0.0846 -0.17771,0.13117 -0.11848,0.0423 -0.30888,0.0423 z m 2.10293,-2.06062 v 0.85471 h 0.29196 q 0.10155,0 0.15655,-0.055 0.055,-0.0592 0.055,-0.15655 0,-0.12271 -0.0719,-0.16079 -0.0719,-0.0423 -0.14386,-0.0508 V 109.267 q 0.28349,0 0.45697,0.17349 0.0889,0.0846 0.13963,0.2031 0.0508,0.11847 0.0508,0.26656 0,0.2031 -0.0846,0.34696 -0.0846,0.13964 -0.22426,0.2158 -0.0846,0.0465 -0.19463,0.0635 -0.11001,0.0169 -0.24118,0.0169 h -0.70662 q -0.13117,0 -0.24118,-0.0169 -0.11001,-0.0169 -0.19464,-0.0635 -0.13963,-0.0762 -0.22425,-0.2158 -0.0846,-0.14386 -0.0846,-0.34696 0,-0.14809 0.0508,-0.26656 0.0508,-0.12271 0.13963,-0.20734 0.1904,-0.16925 0.47813,-0.16925 z m -0.3385,0.85471 v -0.42312 h -0.24541 q -0.12271,0 -0.18194,0.0592 -0.0635,0.055 -0.0635,0.15233 0,0.0973 0.0635,0.15655 0.0592,0.055 0.18194,0.055 z m -0.29619,-1.95483 q -0.11001,0.004 -0.16501,0.0719 -0.055,0.0635 -0.055,0.14809 0,0.10155 0.0677,0.15656 0.0635,0.055 0.14809,0.055 0.0592,0 0.11848,-0.0296 0.055,-0.0296 0.10155,-0.15233 l 0.10155,-0.25387 q 0.0931,-0.24118 0.25387,-0.33004 0.16079,-0.0931 0.3512,-0.0931 0.13539,0 0.25387,0.0508 0.11424,0.0465 0.2031,0.13117 0.0889,0.0846 0.13963,0.2031 0.0508,0.11847 0.0508,0.2581 0,0.26234 -0.16501,0.44005 -0.0804,0.0889 -0.19887,0.14387 -0.12271,0.055 -0.28349,0.0592 v -0.4062 q 0.0888,-0.0127 0.16501,-0.0592 0.0762,-0.0508 0.0762,-0.17348 0,-0.0931 -0.0592,-0.16502 -0.0635,-0.0762 -0.17348,-0.0762 -0.0889,0 -0.15233,0.0465 -0.0635,0.0465 -0.11001,0.16925 l -0.0762,0.20733 q -0.0762,0.2031 -0.22426,0.32157 -0.15232,0.11425 -0.36812,0.11425 -0.13539,0 -0.24964,-0.0508 -0.11847,-0.0508 -0.2031,-0.13964 -0.0846,-0.0846 -0.12693,-0.19886 -0.0465,-0.11425 -0.0465,-0.24542 0,-0.13116 0.0465,-0.24118 0.0465,-0.11424 0.13116,-0.19463 0.0846,-0.0804 0.2031,-0.12694 0.11425,-0.0465 0.24541,-0.0465 z"
       id="text1"
       style="font-size:4.23124px;line-height:1.25;font-family:'DIN Condensed';-inkscape-font-specification:'DIN Condensed, ';text-align:center;text-anchor:middle;fill:#333333;stroke-width:0.264583"
       aria-label="acModules" /><g
       id="g12"><path
         style="font-size:4.23333px;line-height:1.25;font-family:'Square Sans Serif 7';-inkscape-font-specification:'Square Sans Serif 7, ';text-align:center;text-anchor:middle;fill:#333333;stroke-width:0.264583"
         d="m 4.2734421,121.15093 v 0.56445 h -2.82223 v -3.95113 h 1.69334 v 3.38668 z m -1.69334,0 v -2.82224 h -0.56445 v 2.82224 z m -1.12889,-3.95113 v -0.56444 h 2.25779 v -2.82224 h -2.25779 v -0.56445 h 2.82223 v 3.95113 z m 0,-4.51557 v -0.56445 h 2.25779 v -3.38668 h 0.56444 v 3.95113 z"
         id="path7" /><path
         style="font-size:4.23333px;line-height:1.25;font-family:'Square Sans Serif 7';-inkscape-font-specification:'Square Sans Serif 7, ';text-align:center;text-anchor:middle;fill:#ff6600;stroke-width:0.264583"
         d="m 1.4512121,108.16866 v -3.95114 h 0.56444 v 3.38669 h 0.56445 v -2.81348 l 0.5685374,-0.57321 h 0.2781326 0.267761 l 0.578909,0.58578 v 3.36536 h -0.56444 v -3.08784 l -0.282225,-0.29885 -0.282225,0.29885 v 3.08784 z"
         id="path9"
         sodipodi:nodetypes="ccccccccccccccccc" /><path
         style="font-size:4.23333px;line-height:1.25;font-family:'Square Sans Serif 7';-inkscape-font-specification:'Square Sans Serif 7, ';text-align:center;text-anchor:middle;fill:#333333;stroke-width:0.264583"
         d="m 3.1445521,99.701953 v 3.386677 h 0.56445 v -3.386677 h 0.56444 v 3.951127 h -2.82223 v -3.951127 h 0.56444 v 3.386677 h 0.56445 v -3.386677 z m 1.12889,-4.515565 v 3.951128 h -0.56444 v -3.386681 h -0.56445 v 3.386681 h -1.69334 v -3.951128 h 0.56444 v 3.386681 h 0.56445 v -3.386681 z"
         id="path10" /></g><circle
       style="fill:#333333;stroke-width:3.49999;stroke-linecap:round"
       id="path5-8"
       cx="5.0799999"
       cy="15.610948"
       r="3.75" /><path
       d="m 1.7317998,7.1111514 v 0.9397992 h 0.2455331 q 0.1142999,0 0.1820332,-0.029633 0.067733,-0.033867 0.1058332,-0.093133 0.033867,-0.059267 0.046567,-0.1439332 0.0127,-0.0889 0.0127,-0.2031999 0,-0.1142999 -0.0127,-0.1989665 -0.0127,-0.0889 -0.0508,-0.1523998 Q 2.1805327,7.1111514 1.9561663,7.1111514 Z M 1.3000001,9.7188826 V 6.7047518 h 0.6942661 q 0.7619994,0 0.7619994,0.8847659 0,0.2666998 -0.084667,0.4529663 -0.080433,0.1862665 -0.2878664,0.3005664 L 2.8493988,9.7188826 H 2.3921992 L 1.9900329,8.4319503 H 1.7317998 v 1.2869323 z m 1.803401,0 V 6.7047518 H 4.3903334 V 7.1111514 H 3.5352008 v 0.8847659 h 0.745066 V 8.402317 H 3.5352008 V 9.2870829 H 4.3903334 V 9.7188826 Z M 6.0667356,7.5725844 H 5.634936 v -0.097367 q 0,-0.1481666 -0.071967,-0.2539998 -0.067733,-0.1100666 -0.2328331,-0.1100666 -0.0889,0 -0.1439333,0.033867 -0.055033,0.033867 -0.0889,0.084667 -0.033867,0.055033 -0.046567,0.1269998 -0.0127,0.067733 -0.0127,0.1439333 0,0.0889 0.00423,0.1481665 0.00847,0.059267 0.033867,0.1058332 0.0254,0.046567 0.071967,0.080433 0.0508,0.033867 0.1354665,0.067733 l 0.3301998,0.1312332 q 0.1439332,0.055033 0.2328331,0.1312332 0.0889,0.071967 0.1396999,0.1693332 0.046567,0.1015999 0.0635,0.2328332 0.016933,0.1269999 0.016933,0.2920997 0,0.1904999 -0.0381,0.3555997 -0.0381,0.1608665 -0.1227666,0.2751665 -0.0889,0.1185332 -0.2328331,0.1862665 -0.1439332,0.067733 -0.3513664,0.067733 -0.1566332,0 -0.2920998,-0.055033 Q 4.8941033,9.634216 4.7967367,9.5368494 4.6993701,9.4394828 4.6401035,9.3124829 4.5850702,9.1812497 4.5850702,9.0288498 V 8.8679833 h 0.4317997 v 0.1354665 q 0,0.1185333 0.067733,0.2158998 0.071967,0.093133 0.2370665,0.093133 0.1100666,0 0.1693332,-0.029633 0.0635,-0.033867 0.097367,-0.093133 0.033867,-0.059267 0.0381,-0.1396998 0.00847,-0.084667 0.00847,-0.1862666 0,-0.1185332 -0.00847,-0.1947331 -0.00847,-0.0762 -0.033867,-0.1227666 -0.029633,-0.046567 -0.080433,-0.0762 -0.046567,-0.029633 -0.1269999,-0.0635 L 5.0761365,8.2795504 Q 4.7967367,8.1652505 4.6993701,7.978984 4.6062369,7.7884842 4.6062369,7.5048511 q 0,-0.1693332 0.046567,-0.3217331 0.046567,-0.1523998 0.1396999,-0.2624664 0.0889,-0.1100666 0.2243665,-0.1735665 0.1396998,-0.067733 0.3301997,-0.067733 0.1608665,0 0.2920997,0.059267 0.1354666,0.059267 0.2328332,0.1566332 0.1947331,0.2031998 0.1947331,0.4656663 z M 6.3884692,9.7188826 V 6.7047518 H 7.6754014 V 7.1111514 H 6.8202688 v 0.8847659 h 0.745066 V 8.402317 h -0.745066 v 0.8847659 h 0.8551326 v 0.4317997 z m 1.8499687,0 V 7.1111514 H 7.738905 V 6.7047518 H 9.1697705 V 7.1111514 H 8.6702376 v 2.6077312 z"
       id="text12"
       style="font-size:4.23333px;line-height:1.25;font-family:'DIN Condensed';-inkscape-font-specification:'DIN Condensed, ';text-align:center;text-anchor:middle;fill:#333333;stroke-width:0.264583"
       aria-label="RESET" /><circle
       style="fill:#333333;stroke-width:3.49999;stroke-linecap:round"
       id="path5-8-9"
       cx="5.0799999"
       cy="32.203968"
       r="3.75" /><path
       d="M 3.4816654,24.165601 H 3.0498658 v -0.09737 q 0,-0.148166 -0.071967,-0.253999 -0.067733,-0.110067 -0.2328331,-0.110067 -0.0889,0 -0.1439332,0.03387 -0.055033,0.03387 -0.0889,0.08467 -0.033867,0.05503 -0.046567,0.127 -0.0127,0.06773 -0.0127,0.143933 0,0.0889 0.00423,0.148167 0.00847,0.05927 0.033867,0.105833 0.0254,0.04657 0.071967,0.08043 0.0508,0.03387 0.1354666,0.06773 l 0.3301997,0.131233 q 0.1439332,0.05503 0.2328331,0.131233 0.0889,0.07197 0.1396999,0.169333 0.046567,0.1016 0.0635,0.232833 0.016933,0.127 0.016933,0.2921 0,0.1905 -0.0381,0.3556 -0.0381,0.160866 -0.1227665,0.275166 -0.0889,0.118534 -0.2328332,0.186267 -0.1439332,0.06773 -0.3513664,0.06773 -0.1566332,0 -0.2920997,-0.05503 Q 2.309033,26.227233 2.2116665,26.129866 2.1142999,26.032499 2.0550333,25.9055 2,25.774266 2,25.621866 V 25.461 h 0.4317996 v 0.135466 q 0,0.118534 0.067733,0.2159 0.071967,0.09313 0.2370664,0.09313 0.1100666,0 0.1693332,-0.02963 0.0635,-0.03387 0.097367,-0.09313 0.033867,-0.05927 0.0381,-0.1397 0.00847,-0.08467 0.00847,-0.186266 0,-0.118534 -0.00847,-0.194734 -0.00847,-0.0762 -0.033867,-0.122766 -0.029633,-0.04657 -0.080433,-0.0762 -0.046567,-0.02963 -0.1269999,-0.0635 l -0.3090331,-0.127 q -0.2793997,-0.1143 -0.3767663,-0.300566 -0.093133,-0.1905 -0.093133,-0.474133 0,-0.169333 0.046567,-0.321733 0.046567,-0.1524 0.1396999,-0.262467 0.0889,-0.110066 0.2243665,-0.173566 0.1396999,-0.06773 0.3301997,-0.06773 0.1608666,0 0.2920998,0.05927 0.1354665,0.05927 0.2328331,0.156633 0.1947332,0.2032 0.1947332,0.465667 z m 0.6053667,2.146298 V 23.704168 H 3.5874992 v -0.4064 h 1.4308655 v 0.4064 H 4.5188318 v 2.607731 z m 1.1218355,0 v -3.014131 h 1.2869323 v 0.4064 H 5.6406673 v 0.884766 h 0.745066 v 0.4064 H 5.6406673 V 25.8801 h 0.8551326 v 0.431799 z m 1.5663355,0 v -3.014131 h 0.6476994 q 0.1777999,0 0.3132664,0.04657 0.1354666,0.04657 0.2455331,0.1651 0.1100666,0.118533 0.1523999,0.2794 0.042333,0.156633 0.042333,0.427566 0,0.2032 -0.0254,0.3429 -0.021167,0.1397 -0.097367,0.262466 -0.0889,0.148167 -0.2370665,0.232833 -0.1481666,0.08043 -0.3894664,0.08043 H 7.2070027 v 1.176865 z m 0.4317996,-2.607731 v 1.024466 h 0.2074332 q 0.1312332,0 0.2031998,-0.0381 0.071967,-0.0381 0.1058332,-0.105833 0.033867,-0.0635 0.0381,-0.156634 0.00847,-0.09313 0.00847,-0.207433 0,-0.105833 -0.00423,-0.198966 -0.00423,-0.09737 -0.0381,-0.169333 -0.033867,-0.07197 -0.1016,-0.110067 -0.067733,-0.0381 -0.1947331,-0.0381 z"
       id="text12-6"
       style="font-size:4.23333px;line-height:1.25;font-family:'DIN Condensed';-inkscape-font-specification:'DIN Condensed, ';text-align:center;text-anchor:middle;fill:#333333;stroke-width:0.264583"
       aria-label="STEP" /><circle
       style="fill:#333333;stroke-width:3.49999;stroke-linecap:round"
       id="path6"
       cx="5.0799999"
       cy="52.241982"
       r="2.75" /><g
       id="text12-6-9"
       style="font-size:4.23333px;line-height:1.05;font-family:'DIN Condensed';-inkscape-font-specification:'DIN Condensed, ';text-align:center;text-anchor:middle;fill:#ececec;stroke-width:0.264583"
       aria-label="OUT&#10;ON"><path
         d="m 2.6437162,40.601987 q 0,-0.182033 0.0635,-0.321733 0.0635,-0.1397 0.1693332,-0.232833 0.1015999,-0.0889 0.2285998,-0.135466 0.1312332,-0.04657 0.2624665,-0.04657 0.1312332,0 0.2582331,0.04657 0.1312332,0.04657 0.2370665,0.135466 0.1015999,0.09313 0.1650998,0.232833 0.0635,0.1397 0.0635,0.321733 v 1.591732 q 0,0.1905 -0.0635,0.325967 -0.0635,0.135466 -0.1650998,0.224366 -0.1058333,0.09313 -0.2370665,0.1397 -0.1269999,0.04657 -0.2582331,0.04657 -0.1312333,0 -0.2624665,-0.04657 -0.1269999,-0.04657 -0.2285998,-0.1397 -0.1058332,-0.0889 -0.1693332,-0.224366 -0.0635,-0.135467 -0.0635,-0.325967 z m 0.4317996,1.591732 q 0,0.156633 0.084667,0.232833 0.0889,0.07197 0.2074332,0.07197 0.1185332,0 0.2031998,-0.07197 0.0889,-0.0762 0.0889,-0.232833 v -1.591732 q 0,-0.156633 -0.0889,-0.2286 -0.084667,-0.0762 -0.2031998,-0.0762 -0.1185333,0 -0.2074332,0.0762 -0.084667,0.07197 -0.084667,0.2286 z M 5.869516,39.890788 v 2.336798 q 0,0.148166 -0.055033,0.275166 -0.0508,0.122767 -0.1481666,0.220133 -0.097367,0.09737 -0.2243664,0.1524 -0.1269999,0.05503 -0.2709331,0.05503 -0.1439333,0 -0.2709331,-0.05503 -0.1227666,-0.05503 -0.2201332,-0.1524 -0.097367,-0.09737 -0.1523999,-0.220133 -0.055033,-0.127 -0.055033,-0.275166 v -2.336798 h 0.4317997 v 2.294465 q 0,0.160866 0.0762,0.237066 0.0762,0.0762 0.1904999,0.0762 0.1142999,0 0.1904998,-0.0762 0.0762,-0.0762 0.0762,-0.237066 v -2.294465 z m 0.6900352,3.014131 V 40.297188 H 6.0600183 v -0.4064 h 1.4308655 v 0.4064 H 6.9913509 v 2.607731 z"
         id="path18"
         style="fill:#333333" /><path
         d="m 3.3083512,45.046983 q 0,-0.182033 0.0635,-0.321733 0.0635,-0.1397 0.1693332,-0.232833 0.1015999,-0.0889 0.2285998,-0.135466 0.1312332,-0.04657 0.2624664,-0.04657 0.1312333,0 0.2582332,0.04657 0.1312332,0.04657 0.2370664,0.135466 0.1015999,0.09313 0.1650999,0.232833 0.0635,0.1397 0.0635,0.321733 v 1.591732 q 0,0.1905 -0.0635,0.325967 -0.0635,0.135466 -0.1650999,0.224366 -0.1058332,0.09313 -0.2370664,0.1397 -0.1269999,0.04657 -0.2582332,0.04657 -0.1312332,0 -0.2624664,-0.04657 -0.1269999,-0.04657 -0.2285998,-0.1397 -0.1058333,-0.0889 -0.1693332,-0.224366 -0.0635,-0.135467 -0.0635,-0.325967 z m 0.4317997,1.591732 q 0,0.156634 0.084667,0.232833 0.0889,0.07197 0.2074331,0.07197 0.1185333,0 0.2031999,-0.07197 0.0889,-0.0762 0.0889,-0.232833 v -1.591732 q 0,-0.156633 -0.0889,-0.228599 -0.084667,-0.0762 -0.2031999,-0.0762 -0.1185332,0 -0.2074331,0.0762 -0.084667,0.07197 -0.084667,0.228599 z m 1.380068,0.7112 v -3.014131 h 0.4148663 l 0.6519328,1.816098 h 0.00847 v -1.816098 h 0.4317996 v 3.014131 H 6.2208846 L 5.5604852,45.53805 h -0.00847 v 1.811865 z"
         id="path19"
         style="fill:#333333" /></g><circle
       style="fill:#333333;stroke-width:3.49999;stroke-linecap:round"
       id="path5"
       cx="5.0799999"
       cy="67.809601"
       r="3.75" /><path
       d="m 2.6437162,59.640005 q 0,-0.182034 0.0635,-0.321734 0.0635,-0.139699 0.1693332,-0.232833 0.1015999,-0.0889 0.2285998,-0.135466 0.1312332,-0.04657 0.2624665,-0.04657 0.1312332,0 0.2582331,0.04657 0.1312332,0.04657 0.2370665,0.135466 0.1015999,0.09313 0.1650998,0.232833 0.0635,0.1397 0.0635,0.321734 v 1.591732 q 0,0.190499 -0.0635,0.325966 -0.0635,0.135466 -0.1650998,0.224366 -0.1058333,0.09313 -0.2370665,0.1397 -0.1269999,0.04657 -0.2582331,0.04657 -0.1312333,0 -0.2624665,-0.04657 -0.1269999,-0.04657 -0.2285998,-0.1397 -0.1058332,-0.0889 -0.1693332,-0.224366 -0.0635,-0.135467 -0.0635,-0.325966 z m 0.4317996,1.591732 q 0,0.156633 0.084667,0.232833 0.0889,0.07197 0.2074332,0.07197 0.1185332,0 0.2031998,-0.07197 0.0889,-0.0762 0.0889,-0.232833 v -1.591732 q 0,-0.156634 -0.0889,-0.2286 -0.084667,-0.0762 -0.2031998,-0.0762 -0.1185333,0 -0.2074332,0.0762 -0.084667,0.07197 -0.084667,0.2286 z M 5.869516,58.928805 v 2.336798 q 0,0.148167 -0.055033,0.275167 -0.0508,0.122766 -0.1481666,0.220133 -0.097367,0.09737 -0.2243664,0.1524 -0.1269999,0.05503 -0.2709331,0.05503 -0.1439333,0 -0.2709331,-0.05503 -0.1227666,-0.05503 -0.2201332,-0.1524 -0.097367,-0.09737 -0.1523999,-0.220133 -0.055033,-0.127 -0.055033,-0.275167 v -2.336798 h 0.4317997 v 2.294465 q 0,0.160866 0.0762,0.237066 0.0762,0.0762 0.1904999,0.0762 0.1142999,0 0.1904998,-0.0762 0.0762,-0.0762 0.0762,-0.237066 v -2.294465 z m 0.6900352,3.014131 V 59.335205 H 6.0600183 v -0.4064 h 1.4308655 v 0.4064 H 6.9913509 v 2.607731 z"
       id="text12-6-9-1"
       style="font-size:4.23333px;line-height:1.25;font-family:'DIN Condensed';-inkscape-font-specification:'DIN Condensed, ';text-align:center;text-anchor:middle;fill:#ececec;stroke-width:0.264583"
       aria-label="OUT" /><circle
       style="fill:#333333;stroke-width:3.49999;stroke-linecap:round"
       id="path6-3"
       cx="5.0799999"
       cy="84.99012"
       r="2.75" /><path
       style="font-size:4.23333px;line-height:1.25;font-family:'DIN Condensed';-inkscape-font-specification:'DIN Condensed, ';text-align:center;text-anchor:middle;fill:#333333;stroke-width:0.264583"
       d="m 1.9,80.098053 v -3.014131 h 0.4317997 v 2.582331 h 0.8551326 v 0.4318 z m 1.5409356,-2.302931 q 0,-0.182034 0.0635,-0.321733 0.0635,-0.1397 0.1693332,-0.232834 0.1015999,-0.0889 0.2285998,-0.135466 0.1312332,-0.04657 0.2624664,-0.04657 0.1312332,0 0.2582331,0.04657 0.1312332,0.04657 0.2370665,0.135466 0.1015999,0.09313 0.1650999,0.232834 0.0635,0.139699 0.0635,0.321733 v 1.591732 q 0,0.190499 -0.0635,0.325966 -0.0635,0.135467 -0.1650999,0.224366 -0.1058333,0.09313 -0.2370665,0.1397 -0.1269999,0.04657 -0.2582331,0.04657 -0.1312332,0 -0.2624664,-0.04657 -0.1269999,-0.04657 -0.2285998,-0.1397 -0.1058333,-0.0889 -0.1693332,-0.224366 -0.0635,-0.135467 -0.0635,-0.325966 z m 0.4317997,1.591732 q 0,0.156633 0.084666,0.232833 0.0889,0.07197 0.2074332,0.07197 0.1185332,0 0.2031998,-0.07197 0.0889,-0.0762 0.0889,-0.232833 v -1.591732 q 0,-0.156634 -0.0889,-0.2286 -0.084667,-0.0762 -0.2031998,-0.0762 -0.1185332,0 -0.2074332,0.0762 -0.084666,0.07197 -0.084666,0.2286 z m 1.3716014,-1.591732 q 0,-0.182034 0.0635,-0.321733 0.0635,-0.1397 0.1693332,-0.232834 0.1015999,-0.0889 0.2285998,-0.135466 0.1312332,-0.04657 0.2624664,-0.04657 0.1312332,0 0.2582331,0.04657 0.1312333,0.04657 0.2370665,0.135466 0.1015999,0.09313 0.1650999,0.232834 0.0635,0.139699 0.0635,0.321733 v 1.591732 q 0,0.190499 -0.0635,0.325966 -0.0635,0.135467 -0.1650999,0.224366 -0.1058332,0.09313 -0.2370665,0.1397 -0.1269999,0.04657 -0.2582331,0.04657 -0.1312332,0 -0.2624664,-0.04657 -0.1269999,-0.04657 -0.2285998,-0.1397 -0.1058333,-0.0889 -0.1693332,-0.224366 -0.0635,-0.135467 -0.0635,-0.325966 z m 0.4317997,1.591732 q 0,0.156633 0.084667,0.232833 0.0889,0.07197 0.2074331,0.07197 0.1185333,0 0.2031998,-0.07197 0.0889,-0.0762 0.0889,-0.232833 v -1.591732 q 0,-0.156634 -0.0889,-0.2286 -0.084666,-0.0762 -0.2031998,-0.0762 -0.1185332,0 -0.2074331,0.0762 -0.084667,0.07197 -0.084667,0.2286 z m 1.3970013,0.711199 v -3.014131 h 0.6476995 q 0.1777998,0 0.3132664,0.04657 0.1354665,0.04657 0.2455331,0.1651 0.1100666,0.118533 0.1523999,0.279399 0.042333,0.156634 0.042333,0.427567 0,0.2032 -0.0254,0.342899 -0.021167,0.1397 -0.097367,0.262467 -0.0889,0.148166 -0.2370665,0.232833 -0.1481665,0.08043 -0.3894663,0.08043 H 7.5049373 v 1.176866 z m 0.4317996,-2.607731 v 1.024466 h 0.2074332 q 0.1312332,0 0.2031998,-0.0381 0.071967,-0.0381 0.1058333,-0.105834 0.033867,-0.0635 0.0381,-0.156633 0.00847,-0.09313 0.00847,-0.207433 0,-0.105833 -0.00423,-0.198966 -0.00423,-0.09737 -0.0381,-0.169334 -0.033867,-0.07197 -0.1015999,-0.110066 -0.067733,-0.0381 -0.1947332,-0.0381 z"
       id="text12-6-9-1-1"
       aria-label="LOOP" /></g></svg>
