<?xml version="1.0" encoding="UTF-8" standalone="no"?>
<svg
   sodipodi:docname="Scenester.svg"
   inkscape:version="1.3.2 (091e20e, 2023-11-25)"
   id="svg8"
   version="1.1"
   viewBox="0 0 50.799999 128.5"
   height="128.5mm"
   width="50.799999mm"
   xmlns:inkscape="http://www.inkscape.org/namespaces/inkscape"
   xmlns:sodipodi="http://sodipodi.sourceforge.net/DTD/sodipodi-0.dtd"
   xmlns="http://www.w3.org/2000/svg"
   xmlns:svg="http://www.w3.org/2000/svg"
   xmlns:rdf="http://www.w3.org/1999/02/22-rdf-syntax-ns#"
   xmlns:cc="http://creativecommons.org/ns#"
   xmlns:dc="http://purl.org/dc/elements/1.1/">
  <defs
     id="defs2" />
  <sodipodi:namedview
     inkscape:window-maximized="0"
     inkscape:window-y="23"
     inkscape:window-x="0"
     inkscape:window-height="769"
     inkscape:window-width="1252"
     showgrid="false"
     inkscape:document-rotation="0"
     inkscape:current-layer="layer1"
     inkscape:document-units="mm"
     inkscape:cy="222.61064"
     inkscape:cx="70.062723"
     inkscape:zoom="1.0062412"
     inkscape:pageshadow="2"
     inkscape:pageopacity="0.0"
     borderopacity="1.0"
     bordercolor="#666666"
     pagecolor="#ffffff"
     id="base"
     inkscape:showpageshadow="2"
     inkscape:pagecheckerboard="0"
     inkscape:deskcolor="#d1d1d1" />
  <metadata
     id="metadata5">
    <rdf:RDF>
      <cc:Work
         rdf:about="">
        <dc:format>image/svg+xml</dc:format>
        <dc:type
           rdf:resource="http://purl.org/dc/dcmitype/StillImage" />
      </cc:Work>
    </rdf:RDF>
  </metadata>
  <g
     id="layer1"
     inkscape:groupmode="layer"
     inkscape:label="Layer 1">
    <rect
       style="fill:#9a9996;fill-opacity:1;stroke:none;stroke-width:0.499994;stroke-linecap:round;stroke-miterlimit:4;stroke-dasharray:none;stop-color:#000000"
       id="rect1015"
       width="50.799999"
       height="128.5"
       x="0"
       y="-3.541667e-07" />
    <rect
       style="font-variation-settings:normal;opacity:1;vector-effect:none;fill:#0c5460;fill-opacity:1;stroke:#000000;stroke-width:0.5;stroke-linecap:butt;stroke-linejoin:round;stroke-miterlimit:4;stroke-dasharray:none;stroke-dashoffset:0;stroke-opacity:1;-inkscape-stroke:none;stop-color:#000000;stop-opacity:1"
       id="rect1"
       width="41"
       height="10"
       x="5"
       y="35"
       ry="0" />
    <path
       d="m 19.300659,127.14313 v -0.22003 h -0.0085 q -0.08463,0.11848 -0.173481,0.18195 -0.08462,0.0635 -0.241181,0.0635 -0.07616,0 -0.156555,-0.0254 -0.07616,-0.0212 -0.148094,-0.0846 -0.07193,-0.0592 -0.118475,-0.16925 -0.04231,-0.11424 -0.04231,-0.29195 0,-0.18195 0.02962,-0.31735 0.02962,-0.13963 0.110012,-0.23271 0.07616,-0.0889 0.207331,-0.13117 0.131168,-0.0466 0.334268,-0.0466 0.02116,0 0.04654,0 0.02539,0 0.04654,0.004 0.02116,0.004 0.05077,0.004 0.02962,0 0.06347,0.004 v -0.22426 q 0,-0.11001 -0.04654,-0.18194 -0.04654,-0.0719 -0.16925,-0.0719 -0.08463,0 -0.156556,0.055 -0.0677,0.055 -0.08886,0.16079 h -0.418893 q 0.01693,-0.28772 0.194638,-0.46544 0.08462,-0.0846 0.203099,-0.13116 0.118475,-0.0508 0.266568,-0.0508 0.1354,0 0.253875,0.0423 0.118474,0.0423 0.20733,0.12694 0.08462,0.0846 0.1354,0.21156 0.05078,0.12694 0.05078,0.29619 v 1.49363 z m 0,-0.92241 q -0.07193,-0.0127 -0.118474,-0.0127 -0.139631,0 -0.241181,0.0677 -0.09732,0.0635 -0.09732,0.23695 0,0.12271 0.05924,0.19887 0.05924,0.0762 0.165018,0.0762 0.110012,0 0.16925,-0.0719 0.06347,-0.0719 0.06347,-0.2031 z m 1.205907,0.30465 q 0,0.10155 0.05501,0.15655 0.05924,0.055 0.156556,0.055 0.122706,0 0.160787,-0.0719 0.04231,-0.0719 0.05078,-0.14386 h 0.431587 q 0,0.28349 -0.173481,0.45697 -0.08462,0.0889 -0.2031,0.13963 -0.118474,0.0508 -0.266568,0.0508 -0.203099,0 -0.346961,-0.0846 -0.139631,-0.0846 -0.215794,-0.22426 -0.04654,-0.0846 -0.06347,-0.19463 -0.01693,-0.11001 -0.01693,-0.24118 v -0.70662 q 0,-0.13117 0.01693,-0.24118 0.01693,-0.11001 0.06347,-0.19464 0.07616,-0.13963 0.215794,-0.22425 0.143862,-0.0846 0.346961,-0.0846 0.148094,0 0.266568,0.0508 0.122706,0.0508 0.207331,0.13963 0.16925,0.1904 0.16925,0.49505 H 20.92969 q 0,-0.13117 -0.05924,-0.1904 -0.05501,-0.0635 -0.152325,-0.0635 -0.09732,0 -0.156556,0.0635 -0.05501,0.0592 -0.05501,0.18194 z m 1.133976,0.61776 v -3.01265 h 0.414662 l 0.554292,1.59518 h 0.0085 l 0.550062,-1.59518 h 0.418892 v 3.01265 H 23.155326 V 125.311 h -0.0085 l -0.427355,1.29476 H 22.503715 L 22.080591,125.311 h -0.0085 v 1.83213 z m 2.2891,-1.42593 q 0,-0.13117 0.01693,-0.24118 0.01692,-0.11001 0.06347,-0.19464 0.07616,-0.13963 0.215793,-0.22425 0.143862,-0.0846 0.346961,-0.0846 0.2031,0 0.342731,0.0846 0.143862,0.0846 0.220024,0.22425 0.04654,0.0846 0.06347,0.19464 0.01693,0.11001 0.01693,0.24118 v 0.70662 q 0,0.13117 -0.01693,0.24118 -0.01692,0.11001 -0.06347,0.19463 -0.07616,0.13964 -0.220024,0.22426 -0.139631,0.0846 -0.342731,0.0846 -0.203099,0 -0.346961,-0.0846 -0.139631,-0.0846 -0.215793,-0.22426 -0.04654,-0.0846 -0.06347,-0.19463 -0.01693,-0.11001 -0.01693,-0.24118 z m 0.431587,0.77432 q 0,0.1227 0.05501,0.18617 0.05924,0.0592 0.156555,0.0592 0.09732,0 0.152325,-0.0592 0.05924,-0.0635 0.05924,-0.18617 v -0.84202 q 0,-0.12271 -0.05924,-0.18194 -0.05501,-0.0635 -0.152325,-0.0635 -0.09732,0 -0.156555,0.0635 -0.05501,0.0592 -0.05501,0.18194 z m 1.603643,-0.0465 q 0,0.13117 0.05078,0.21156 0.05077,0.0804 0.160787,0.0804 0.09732,0 0.156556,-0.0719 0.05924,-0.0762 0.05924,-0.19464 v -0.83355 q 0,-0.10155 -0.06347,-0.16502 -0.05924,-0.0677 -0.152325,-0.0677 -0.122706,0 -0.16925,0.0762 -0.04231,0.0762 -0.04231,0.17771 z m 0.427355,0.69816 v -0.19464 q -0.04231,0.0465 -0.08039,0.0889 -0.03808,0.0381 -0.08463,0.0677 -0.04654,0.0296 -0.105781,0.0465 -0.05924,0.0169 -0.139631,0.0169 -0.270799,0 -0.37658,-0.20309 -0.03808,-0.0719 -0.05501,-0.17772 -0.01693,-0.10578 -0.01693,-0.28349 v -0.81663 q 0,-0.23272 0.01269,-0.34273 0.02539,-0.21156 0.198868,-0.31734 0.08039,-0.055 0.241181,-0.055 0.126937,0 0.224256,0.0592 0.10155,0.055 0.173481,0.16079 h 0.0085 v -1.06205 h 0.431587 v 3.01265 z m 2.077539,-2.14524 v 2.14524 h -0.431587 v -0.20733 h -0.0085 q -0.0677,0.10155 -0.165018,0.16925 -0.09309,0.0635 -0.241181,0.0635 -0.08039,0 -0.160787,-0.0254 -0.08039,-0.0296 -0.143862,-0.0931 -0.06347,-0.0635 -0.10155,-0.16079 -0.03808,-0.10155 -0.03808,-0.24541 v -1.64595 h 0.431586 v 1.48516 q 0,0.11848 0.05501,0.18618 0.05501,0.0677 0.156556,0.0677 0.122706,0 0.16925,-0.0762 0.04654,-0.0762 0.04654,-0.22003 v -1.44285 z m 0.330036,-0.86741 h 0.431586 v 2.40758 q 0,0.12271 0.04231,0.16925 0.04654,0.0423 0.16925,0.055 v 0.40619 q -0.148093,0 -0.266568,-0.0254 -0.118475,-0.0212 -0.2031,-0.0889 -0.08462,-0.0635 -0.131168,-0.17771 -0.04231,-0.11848 -0.04231,-0.30888 z m 2.060617,2.10293 h -0.854711 v 0.29196 q 0,0.10155 0.05501,0.15655 0.05924,0.055 0.156556,0.055 0.122706,0 0.160787,-0.0719 0.04231,-0.0719 0.05078,-0.14386 h 0.431587 q 0,0.28349 -0.173481,0.45697 -0.08463,0.0889 -0.2031,0.13963 -0.118474,0.0508 -0.266568,0.0508 -0.203099,0 -0.346961,-0.0846 -0.139631,-0.0846 -0.215794,-0.22426 -0.04654,-0.0846 -0.06347,-0.19463 -0.01693,-0.11001 -0.01693,-0.24118 v -0.70662 q 0,-0.13117 0.01693,-0.24118 0.01693,-0.11001 0.06347,-0.19464 0.07616,-0.13963 0.215794,-0.22425 0.143862,-0.0846 0.346961,-0.0846 0.148094,0 0.266568,0.0508 0.122706,0.0508 0.207331,0.13963 0.16925,0.1904 0.16925,0.47813 z m -0.854711,-0.3385 h 0.423124 v -0.24541 q 0,-0.12271 -0.05924,-0.18194 -0.05501,-0.0635 -0.152325,-0.0635 -0.09732,0 -0.156556,0.0635 -0.05501,0.0592 -0.05501,0.18194 z m 1.954837,-0.29619 q -0.0042,-0.11001 -0.07193,-0.16501 -0.06347,-0.055 -0.148093,-0.055 -0.10155,0 -0.156556,0.0677 -0.05501,0.0635 -0.05501,0.14809 0,0.0592 0.02962,0.11848 0.02962,0.055 0.152324,0.10155 l 0.253875,0.10155 q 0.24118,0.0931 0.330037,0.25387 0.09309,0.16079 0.09309,0.3512 0,0.13539 -0.05078,0.25387 -0.04654,0.11424 -0.131169,0.2031 -0.08462,0.0889 -0.203099,0.13963 -0.118475,0.0508 -0.258106,0.0508 -0.262337,0 -0.440049,-0.16501 -0.08886,-0.0804 -0.143862,-0.19887 -0.05501,-0.12271 -0.05924,-0.28349 h 0.406199 q 0.01269,0.0888 0.05924,0.16501 0.05077,0.0762 0.173481,0.0762 0.09309,0 0.165018,-0.0592 0.07616,-0.0635 0.07616,-0.17348 0,-0.0889 -0.04654,-0.15233 -0.04654,-0.0635 -0.169249,-0.11001 l -0.207331,-0.0762 q -0.2031,-0.0762 -0.321574,-0.22426 -0.114244,-0.15232 -0.114244,-0.36812 0,-0.13539 0.05078,-0.24964 0.05078,-0.11847 0.139631,-0.2031 0.08462,-0.0846 0.198868,-0.12693 0.114244,-0.0465 0.245412,-0.0465 0.131168,0 0.241181,0.0465 0.114243,0.0465 0.194637,0.13116 0.08039,0.0846 0.126937,0.2031 0.04654,0.11425 0.04654,0.24541 z"
       id="text1"
       style="font-size:4.23124px;line-height:1.25;font-family:'DIN Condensed';-inkscape-font-specification:'DIN Condensed, ';text-align:center;text-anchor:middle;stroke-width:0.264583"
       aria-label="acModules" />
    <path
       d="M 15.803595,4.0968113 H 15.102174 V 3.9386479 q 0,-0.2406834 -0.116903,-0.4126002 -0.110027,-0.1787934 -0.378217,-0.1787934 -0.14441,0 -0.233807,0.055013 -0.0894,0.055013 -0.14441,0.1375334 -0.05501,0.089397 -0.07564,0.2063001 -0.02063,0.1100267 -0.02063,0.2338067 0,0.1444101 0.0069,0.2406835 0.01375,0.096273 0.05501,0.1719167 0.04126,0.075643 0.116903,0.1306567 0.08252,0.055013 0.220054,0.1100268 l 0.53638,0.2131767 q 0.233807,0.089397 0.378217,0.2131768 0.14441,0.1169034 0.22693,0.2750668 0.07564,0.1650401 0.10315,0.3782168 0.02751,0.2063001 0.02751,0.4744903 0,0.3094501 -0.06189,0.5776402 -0.06189,0.2613135 -0.199424,0.4469836 -0.14441,0.1925467 -0.378216,0.3025734 -0.233807,0.1100268 -0.570764,0.1100268 -0.254437,0 -0.47449,-0.089397 Q 13.898757,7.4457495 13.740594,7.2875861 13.58243,7.1294227 13.486157,6.9231226 13.39676,6.7099459 13.39676,6.4623858 V 6.2010723 h 0.701421 v 0.2200534 q 0,0.1925468 0.110026,0.3507102 0.116904,0.1512867 0.385094,0.1512867 0.178793,0 0.275067,-0.048137 0.10315,-0.055013 0.158163,-0.1512867 0.05501,-0.096273 0.06189,-0.2269301 0.01375,-0.1375334 0.01375,-0.3025735 0,-0.1925467 -0.01375,-0.3163268 -0.01375,-0.12378 -0.05501,-0.1994234 -0.04814,-0.075643 -0.130657,-0.1237801 -0.07564,-0.048137 -0.2063,-0.10315 L 14.194454,5.2452152 Q 13.740594,5.0595451 13.58243,4.7569716 13.431144,4.4475215 13.431144,3.9867846 q 0,-0.2750668 0.07564,-0.5226269 0.07564,-0.2475601 0.22693,-0.4263535 0.14441,-0.1787935 0.364464,-0.2819435 0.22693,-0.1100267 0.53638,-0.1100267 0.261313,0 0.47449,0.096273 0.220054,0.096273 0.378217,0.2544368 0.316327,0.3300802 0.316327,0.7564337 z m 2.750669,2.0905077 v 0.3025734 q 0,0.2269301 -0.0894,0.4332302 -0.08252,0.1994235 -0.233807,0.3575869 -0.151286,0.1581634 -0.357587,0.2544368 -0.199423,0.089397 -0.43323,0.089397 -0.199423,0 -0.405723,-0.055013 Q 16.82822,7.5145162 16.66318,7.3769829 16.49814,7.2394495 16.388113,7.0262727 16.284963,6.8062193 16.284963,6.4692624 V 3.7736078 q 0,-0.2406834 0.08252,-0.4469835 0.08252,-0.2063001 0.233807,-0.3575868 0.151286,-0.1512868 0.357586,-0.2338068 0.213177,-0.089397 0.467614,-0.089397 0.49512,0 0.80457,0.3232035 0.151287,0.1581634 0.233807,0.3782168 0.0894,0.2131768 0.0894,0.4676136 V 4.0899346 H 17.852843 V 3.8561279 q 0,-0.2063001 -0.116903,-0.3575869 -0.116903,-0.1512867 -0.316327,-0.1512867 -0.261313,0 -0.35071,0.1650401 -0.08252,0.1581634 -0.08252,0.4057235 v 2.5031078 q 0,0.2131768 0.0894,0.3575869 0.09627,0.14441 0.336957,0.14441 0.06877,0 0.14441,-0.02063 0.08252,-0.027507 0.151286,-0.08252 0.06189,-0.055013 0.10315,-0.1512867 0.04126,-0.096273 0.04126,-0.2406835 V 6.187319 Z m 0.57076,1.3959639 V 2.687094 h 2.090508 v 0.6601603 h -1.389087 v 1.437224 h 1.210294 v 0.6601603 h -1.210294 v 1.437224 h 1.389087 v 0.7014203 z m 2.516867,0 V 2.687094 h 0.673914 l 1.059007,2.9500914 h 0.01375 V 2.687094 h 0.701421 v 4.8961889 h -0.660161 l -1.07276,-2.9432147 h -0.01375 v 2.9432147 z m 3.080751,0 V 2.687094 h 2.090507 v 0.6601603 h -1.389087 v 1.437224 h 1.210294 v 0.6601603 h -1.210294 v 1.437224 h 1.389087 v 0.7014203 z m 4.813674,-3.4864716 h -0.70142 V 3.9386479 q 0,-0.2406834 -0.116904,-0.4126002 -0.110026,-0.1787934 -0.378216,-0.1787934 -0.14441,0 -0.233807,0.055013 -0.0894,0.055013 -0.14441,0.1375334 -0.05501,0.089397 -0.07564,0.2063001 -0.02063,0.1100267 -0.02063,0.2338067 0,0.1444101 0.0069,0.2406835 0.01375,0.096273 0.05501,0.1719167 0.04126,0.075643 0.116904,0.1306567 0.08252,0.055013 0.220053,0.1100268 l 0.53638,0.2131767 q 0.233807,0.089397 0.378217,0.2131768 0.14441,0.1169034 0.22693,0.2750668 0.07564,0.1650401 0.10315,0.3782168 0.02751,0.2063001 0.02751,0.4744903 0,0.3094501 -0.06189,0.5776402 -0.06189,0.2613135 -0.199423,0.4469836 -0.14441,0.1925467 -0.378217,0.3025734 -0.233807,0.1100268 -0.570764,0.1100268 -0.254437,0 -0.47449,-0.089397 -0.220053,-0.089397 -0.378217,-0.2475602 -0.158163,-0.1581634 -0.254437,-0.3644635 -0.0894,-0.2131767 -0.0894,-0.4607368 V 6.2010723 h 0.70142 v 0.2200534 q 0,0.1925468 0.110027,0.3507102 0.116903,0.1512867 0.385093,0.1512867 0.178794,0 0.275067,-0.048137 0.10315,-0.055013 0.158163,-0.1512867 0.05501,-0.096273 0.06189,-0.2269301 0.01375,-0.1375334 0.01375,-0.3025735 0,-0.1925467 -0.01375,-0.3163268 -0.01375,-0.12378 -0.05501,-0.1994234 -0.04814,-0.075643 -0.130657,-0.1237801 -0.07564,-0.048137 -0.2063,-0.10315 L 27.927175,5.2452152 q -0.45386,-0.1856701 -0.612023,-0.4882436 -0.151287,-0.3094501 -0.151287,-0.770187 0,-0.2750668 0.07564,-0.5226269 0.07564,-0.2475601 0.226931,-0.4263535 0.14441,-0.1787935 0.364463,-0.2819435 0.22693,-0.1100267 0.53638,-0.1100267 0.261314,0 0.47449,0.096273 0.220054,0.096273 0.378217,0.2544368 0.316327,0.3300802 0.316327,0.7564337 z m 0.983365,3.4864716 V 3.3472543 H 29.708234 V 2.687094 h 2.324315 v 0.6601603 h -0.811447 v 4.2360286 z m 1.822321,0 V 2.687094 h 2.090508 v 0.6601603 h -1.389087 v 1.437224 h 1.210294 v 0.6601603 h -1.210294 v 1.437224 H 34.43251 V 7.5832829 Z M 35.587797,3.3472543 V 4.873875 h 0.398847 q 0.18567,0 0.295697,-0.048137 0.110027,-0.055013 0.171917,-0.1512867 0.05501,-0.096273 0.07564,-0.2338068 0.02063,-0.1444101 0.02063,-0.3300801 0,-0.1856701 -0.02063,-0.3232035 -0.02063,-0.1444101 -0.08252,-0.2475601 -0.130657,-0.1925468 -0.49512,-0.1925468 z m -0.70142,4.2360286 V 2.687094 h 1.127774 q 1.2378,0 1.2378,1.437224 0,0.4332302 -0.137533,0.7358037 -0.130657,0.3025734 -0.467614,0.4882435 l 0.756434,2.2349177 h -0.74268 L 36.007274,5.4927753 h -0.419477 v 2.0905076 z"
       id="text2"
       style="font-size:6.87667px;line-height:1.25;font-family:'DIN Condensed';-inkscape-font-specification:'DIN Condensed, ';text-align:center;text-anchor:middle;stroke-width:0.264583"
       aria-label="SCENESTER" />
    <rect
       style="font-variation-settings:normal;opacity:1;vector-effect:none;fill:#106e7d;fill-opacity:1;stroke:#000000;stroke-width:0.5;stroke-linecap:butt;stroke-linejoin:round;stroke-miterlimit:4;stroke-dasharray:none;stroke-dashoffset:0;stroke-opacity:1;-inkscape-stroke:none;stop-color:#000000;stop-opacity:1"
       id="rect2"
       width="41"
       height="10"
       x="5"
       y="45.000004"
       ry="0" />
    <rect
       style="font-variation-settings:normal;opacity:1;vector-effect:none;fill:#13889b;fill-opacity:1;stroke:#000000;stroke-width:0.5;stroke-linecap:butt;stroke-linejoin:round;stroke-miterlimit:4;stroke-dasharray:none;stroke-dashoffset:0;stroke-opacity:1;-inkscape-stroke:none;stop-color:#000000;stop-opacity:1"
       id="rect3"
       width="41"
       height="10"
       x="5"
       y="55.000004"
       ry="0" />
    <rect
       style="font-variation-settings:normal;opacity:1;vector-effect:none;fill:#17a2b8;fill-opacity:1;stroke:#000000;stroke-width:0.5;stroke-linecap:butt;stroke-linejoin:round;stroke-miterlimit:4;stroke-dasharray:none;stroke-dashoffset:0;stroke-opacity:1;-inkscape-stroke:none;stop-color:#000000;stop-opacity:1"
       id="rect4"
       width="41"
       height="10"
       x="5"
       y="65"
       ry="0" />
    <rect
       style="font-variation-settings:normal;opacity:1;vector-effect:none;fill:#3cb1c3;fill-opacity:1;stroke:#000000;stroke-width:0.5;stroke-linecap:butt;stroke-linejoin:round;stroke-miterlimit:4;stroke-dasharray:none;stroke-dashoffset:0;stroke-opacity:1;-inkscape-stroke:none;stop-color:#000000;stop-opacity:1"
       id="rect5"
       width="41"
       height="10"
       x="5"
       y="74.999985"
       ry="0" />
    <rect
       style="font-variation-settings:normal;opacity:1;vector-effect:none;fill:#61c0cf;fill-opacity:1;stroke:#000000;stroke-width:0.5;stroke-linecap:butt;stroke-linejoin:round;stroke-miterlimit:4;stroke-dasharray:none;stroke-dashoffset:0;stroke-opacity:1;-inkscape-stroke:none;stop-color:#000000;stop-opacity:1"
       id="rect6"
       width="41"
       height="10"
       x="5"
       y="84.999985"
       ry="0" />
    <rect
       style="font-variation-settings:normal;opacity:1;vector-effect:none;fill:#86cfda;fill-opacity:1;stroke:#000000;stroke-width:0.5;stroke-linecap:butt;stroke-linejoin:round;stroke-miterlimit:4;stroke-dasharray:none;stroke-dashoffset:0;stroke-opacity:1;-inkscape-stroke:none;stop-color:#000000;stop-opacity:1"
       id="rect7"
       width="41"
       height="10"
       x="5"
       y="94.999985"
       ry="0" />
    <rect
       style="font-variation-settings:normal;opacity:1;vector-effect:none;fill:#abdee5;fill-opacity:1;stroke:#000000;stroke-width:0.5;stroke-linecap:butt;stroke-linejoin:round;stroke-miterlimit:4;stroke-dasharray:none;stroke-dashoffset:0;stroke-opacity:1;-inkscape-stroke:none;stop-color:#000000;stop-opacity:1"
       id="rect8"
       width="41"
       height="10"
       x="5"
       y="104.99998"
       ry="0" />
  </g>
  <g
     style="display:none"
     inkscape:label="components"
     id="layer2"
     inkscape:groupmode="layer">
    <circle
       inkscape:label="INPUT_CV"
       r="2.9777184"
       cy="122.24358"
       cx="19.374374"
       id="pathCV"
       style="fill:#00ff00;fill-opacity:1;stroke:none;stroke-width:0.5;stroke-linecap:round;stroke-miterlimit:4;stroke-dasharray:none;stop-color:#000000" />
    <circle
       inkscape:label="INPUT_GATE"
       style="fill:#00ff00;fill-opacity:1;stroke:none;stroke-width:0.499999;stroke-linecap:round;stroke-miterlimit:4;stroke-dasharray:none;stop-color:#000000"
       id="pathGATE"
       cx="30.827137"
       cy="122.24358"
       r="2.9777184" />
    <circle
       inkscape:label="OUTPUT_GATE3"
       style="fill:#0000ff;fill-opacity:1;stroke:none;stroke-width:0.499999;stroke-linecap:round;stroke-miterlimit:4;stroke-dasharray:none;stop-color:#000000"
       id="path834"
       cx="41.741486"
       cy="104.67825"
       r="2.9777184" />
    <circle
       inkscape:label="OUTPUT_CV3"
       r="2.9777184"
       cy="91.449089"
       cx="41.741486"
       id="path834-9"
       style="fill:#0000ff;fill-opacity:1;stroke:none;stroke-width:0.499999;stroke-linecap:round;stroke-miterlimit:4;stroke-dasharray:none;stop-color:#000000" />
    <circle
       inkscape:label="OUTPUT_GATE2"
       r="2.9777184"
       cy="67.636604"
       cx="41.741486"
       id="path834-6"
       style="fill:#0000ff;fill-opacity:1;stroke:none;stroke-width:0.499999;stroke-linecap:round;stroke-miterlimit:4;stroke-dasharray:none;stop-color:#000000" />
    <circle
       inkscape:label="OUTPUT_CV2"
       style="fill:#0000ff;fill-opacity:1;stroke:none;stroke-width:0.499999;stroke-linecap:round;stroke-miterlimit:4;stroke-dasharray:none;stop-color:#000000"
       id="path834-6-7"
       cx="41.741486"
       cy="54.407433"
       r="2.9777184" />
    <circle
       inkscape:label="OUTPUT_GATE1"
       style="fill:#0000ff;fill-opacity:1;stroke:none;stroke-width:0.499999;stroke-linecap:round;stroke-miterlimit:4;stroke-dasharray:none;stop-color:#000000"
       id="path834-6-4"
       cx="41.741486"
       cy="30.594931"
       r="2.9777184" />
    <circle
       inkscape:label="OUTPUT_CV1"
       r="2.9777184"
       cy="17.365763"
       cx="41.741486"
       id="path834-6-4-0"
       style="fill:#0000ff;fill-opacity:1;stroke:none;stroke-width:0.499999;stroke-linecap:round;stroke-miterlimit:4;stroke-dasharray:none;stop-color:#000000" />
    <circle
       inkscape:label="LEDH"
       r="2.9777184"
       cy="24.24493"
       cx="45.445652"
       id="path834-6-4-4"
       style="fill:#ff00ff;fill-opacity:1;stroke:none;stroke-width:0.499999;stroke-linecap:round;stroke-miterlimit:4;stroke-dasharray:none;stop-color:#000000" />
    <circle
       inkscape:label="LEDM"
       style="fill:#ff00ff;fill-opacity:1;stroke:none;stroke-width:0.499999;stroke-linecap:round;stroke-miterlimit:4;stroke-dasharray:none;stop-color:#000000"
       id="path834-6-4-4-7"
       cx="45.445652"
       cy="61.286602"
       r="2.9777184" />
    <circle
       inkscape:label="LEDL"
       r="2.9777184"
       cy="98.328255"
       cx="45.445652"
       id="path834-6-4-4-7-3"
       style="fill:#ff00ff;fill-opacity:1;stroke:none;stroke-width:0.499999;stroke-linecap:round;stroke-miterlimit:4;stroke-dasharray:none;stop-color:#000000" />
    <circle
       inkscape:label="PARAM_CUTOFF1"
       r="2.9777184"
       cy="42.727718"
       cx="20.574814"
       id="path834-6-4-4-7-4"
       style="fill:#ff0000;fill-opacity:1;stroke:none;stroke-width:0.499999;stroke-linecap:round;stroke-miterlimit:4;stroke-dasharray:none;stop-color:#000000" />
    <circle
       inkscape:label="PARAM_CUTOFF2"
       style="fill:#ff0000;fill-opacity:1;stroke:none;stroke-width:0.499999;stroke-linecap:round;stroke-miterlimit:4;stroke-dasharray:none;stop-color:#000000"
       id="path834-6-4-4-7-4-0"
       cx="20.574814"
       cy="79.777718"
       r="2.9777184" />
  </g>
</svg>
